%
M48
M72
T01C0.0150
T02C0.0354
T03C0.0394
T04C0.0400
T05C0.0472
T06C0.0630
T07C0.1200
%
T01
X6365Y7075
X4365Y7875
X4065Y11375
X5365Y13375
X6365Y14575
X7865Y13375
X7865Y11375
X11515Y11575
X12365Y11875
X12365Y12875
X12511Y15080
X14865Y12875
X14865Y11875
X16665Y11975
X16515Y12875
X15765Y15275
X15365Y15625
X15365Y17575
X17176Y18290
X17365Y20175
X16115Y22875
X11365Y22875
X11365Y23875
X8365Y21225
X8365Y20525
X8365Y18925
X11615Y19025
X11615Y17975
X12365Y17425
X6365Y22075
X4365Y22875
X4365Y26375
X4015Y18875
X4365Y15375
X16290Y7650
X29865Y7875
X31865Y7075
X33365Y11375
X33365Y13375
X31865Y14575
X30865Y13375
X29865Y15375
X29515Y18875
X33865Y18925
X33865Y20525
X33865Y21225
X31865Y22075
X29865Y22875
X29865Y26375
X36865Y23875
X36865Y22875
X41615Y22875
X42865Y20175
X42676Y18290
X40865Y17575
X40865Y15625
X41265Y15275
X42015Y12875
X40365Y12875
X40365Y11875
X42165Y11975
X37865Y11875
X37015Y11575
X37865Y12875
X38011Y15080
X37865Y17425
X37115Y17975
X37115Y19025
X29565Y11375
X41790Y7650
X55365Y7875
X57365Y7075
X58865Y11375
X58865Y13375
X57365Y14575
X56365Y13375
X55365Y15375
X55015Y18875
X59365Y18925
X59365Y20525
X59365Y21225
X57365Y22075
X55365Y22875
X55365Y26375
X62365Y23875
X62365Y22875
X62615Y19025
X62615Y17975
X63365Y17425
X63511Y15080
X63365Y12875
X63365Y11875
X62515Y11575
X65865Y11875
X65865Y12875
X67515Y12875
X67665Y11975
X66765Y15275
X66365Y15625
X66365Y17575
X68176Y18290
X68365Y20175
X67115Y22875
X57365Y34275
X55365Y35075
X55065Y38575
X56365Y40575
X57365Y41775
X58865Y40575
X58865Y38575
X62515Y38775
X63365Y39075
X63365Y40075
X65865Y40075
X65865Y39075
X67665Y39175
X67515Y40075
X66765Y42475
X66365Y42825
X66365Y44775
X68176Y45490
X68365Y47375
X67115Y50075
X62365Y50075
X62365Y51075
X59365Y48425
X59365Y47725
X59365Y46125
X62615Y46225
X62615Y45175
X63365Y44625
X63511Y42280
X55365Y42575
X55015Y46075
X57365Y49275
X55365Y50075
X55365Y53575
X42865Y47375
X42676Y45490
X40865Y44775
X37865Y44625
X37115Y45175
X37115Y46225
X33865Y46125
X33865Y47725
X33865Y48425
X31865Y49275
X29865Y50075
X29865Y53575
X36865Y51075
X36865Y50075
X41615Y50075
X40865Y42825
X41265Y42475
X42015Y40075
X42165Y39175
X40365Y39075
X40365Y40075
X37865Y40075
X37865Y39075
X37015Y38775
X33365Y38575
X33365Y40575
X31865Y41775
X30865Y40575
X29865Y42575
X29515Y46075
X38011Y42280
X29565Y38575
X29865Y35075
X31865Y34275
X41790Y34850
X17176Y45490
X15365Y44775
X15365Y42825
X15765Y42475
X16515Y40075
X16665Y39175
X14865Y39075
X14865Y40075
X12365Y40075
X12365Y39075
X11515Y38775
X7865Y38575
X7865Y40575
X6365Y41775
X5365Y40575
X4365Y42575
X4015Y46075
X6365Y49275
X8365Y48425
X8365Y47725
X8365Y46125
X11615Y46225
X11615Y45175
X12365Y44625
X12511Y42280
X17365Y47375
X16115Y50075
X11365Y50075
X11365Y51075
X4365Y50075
X4365Y53575
X4065Y38575
X4365Y35075
X6365Y34275
X16290Y34850
X55065Y11375
X67290Y7650
X67290Y34850
T02
X67865Y22875
X64865Y22875
X42365Y22875
X39365Y22875
X16865Y22875
X13865Y22875
X13865Y50075
X16865Y50075
X39365Y50075
X42365Y50075
X64865Y50075
X67865Y50075
T03
X66794Y54756
X64794Y54756
X62794Y54756
X61794Y54756
X41294Y54756
X39294Y54756
X37294Y54756
X36294Y54756
X15794Y54756
X13794Y54756
X11794Y54756
X10794Y54756
X10794Y27556
X11794Y27556
X13794Y27556
X15794Y27556
X36294Y27556
X37294Y27556
X39294Y27556
X41294Y27556
X61794Y27556
X62794Y27556
X64794Y27556
X66794Y27556
T04
X69315Y30575
X69415Y31575
X69315Y32575
X69415Y33575
X69315Y34575
X69415Y35575
X69315Y36575
X69415Y37575
X69315Y38575
X69415Y39575
X69315Y40575
X69415Y41575
X61415Y41575
X61315Y40575
X61415Y39575
X61315Y38575
X61415Y37575
X61315Y36575
X61415Y35575
X61315Y34575
X61415Y33575
X61315Y32575
X61415Y31575
X61315Y30575
X61315Y42575
X61415Y43575
X61315Y44575
X61415Y45575
X43915Y41575
X43815Y40575
X43915Y39575
X43815Y38575
X43915Y37575
X43815Y36575
X43915Y35575
X43815Y34575
X43915Y33575
X43815Y32575
X43915Y31575
X43815Y30575
X35915Y31575
X35815Y32575
X35915Y33575
X35815Y34575
X35915Y35575
X35815Y36575
X35915Y37575
X35815Y38575
X35915Y39575
X35815Y40575
X35915Y41575
X35815Y42575
X35915Y43575
X35815Y44575
X35915Y45575
X18415Y41575
X18315Y40575
X18415Y39575
X18315Y38575
X18415Y37575
X18315Y36575
X18415Y35575
X18315Y34575
X18415Y33575
X18315Y32575
X18415Y31575
X18315Y30575
X10415Y31575
X10315Y32575
X10415Y33575
X10315Y34575
X10415Y35575
X10315Y36575
X10415Y37575
X10315Y38575
X10415Y39575
X10315Y40575
X10415Y41575
X10315Y42575
X10415Y43575
X10315Y44575
X10415Y45575
X10315Y30575
X10415Y18375
X10315Y17375
X10415Y16375
X10315Y15375
X10415Y14375
X10315Y13375
X10415Y12375
X10315Y11375
X10415Y10375
X10315Y9375
X10415Y8375
X10315Y7375
X10415Y6375
X10315Y5375
X10415Y4375
X10315Y3375
X18315Y3375
X18415Y4375
X18315Y5375
X18415Y6375
X18315Y7375
X18415Y8375
X18315Y9375
X18415Y10375
X18315Y11375
X18415Y12375
X18315Y13375
X18415Y14375
X35815Y13375
X35915Y14375
X35815Y15375
X35915Y16375
X35815Y17375
X35915Y18375
X43815Y13375
X43915Y14375
X43915Y12375
X43815Y11375
X43915Y10375
X43815Y9375
X43915Y8375
X43815Y7375
X43915Y6375
X43815Y5375
X43915Y4375
X43815Y3375
X35915Y4375
X35815Y3375
X35815Y5375
X35915Y6375
X35815Y7375
X35915Y8375
X35815Y9375
X35915Y10375
X35815Y11375
X35915Y12375
X61315Y11375
X61415Y12375
X61315Y13375
X61415Y14375
X61315Y15375
X61415Y16375
X61315Y17375
X61415Y18375
X69415Y14375
X69315Y13375
X69415Y12375
X69315Y11375
X69415Y10375
X69315Y9375
X69415Y8375
X69315Y7375
X69415Y6375
X69315Y5375
X69415Y4375
X69315Y3375
X61415Y4375
X61315Y3375
X61315Y5375
X61415Y6375
X61315Y7375
X61415Y8375
X61315Y9375
X61415Y10375
X35815Y30575
T05
X33243Y31575
X31865Y31575
X20115Y34970
X19865Y44020
X7743Y31575
X6365Y31575
X19865Y16820
X20115Y7770
X31865Y4375
X33243Y4375
X45615Y7770
X45365Y16820
X57365Y4375
X58743Y4375
X71115Y7770
X70865Y16820
X58743Y31575
X57365Y31575
X45615Y34970
X45365Y44020
X70865Y44020
X71115Y34970
X7743Y4375
X6365Y4375
T06
X21615Y6270
X23365Y6270
X21865Y9270
X25365Y9270
X23365Y15320
X19865Y15320
X19865Y18320
X25365Y18320
X45365Y18320
X45365Y15320
X48865Y15320
X50865Y18320
X50865Y9270
X47365Y9270
X47115Y6270
X48865Y6270
X70865Y15320
X74365Y15320
X76365Y18320
X70865Y18320
X72865Y9270
X76365Y9270
X74365Y6270
X72615Y6270
X72615Y33470
X74365Y33470
X72865Y36470
X76365Y36470
X74365Y42520
X70865Y42520
X70865Y45520
X76365Y45520
X50865Y45520
X48865Y42520
X45365Y42520
X45365Y45520
X47365Y36470
X47115Y33470
X48865Y33470
X50865Y36470
X25365Y36470
X21865Y36470
X21615Y33470
X23365Y33470
X23365Y42520
X19865Y42520
X19865Y45520
X25365Y45520
T07
X3865Y3875
X29365Y3875
X54865Y3875
X54865Y28875
X54865Y31075
X51365Y28875
X29365Y28875
X29365Y31075
X25865Y28875
X3865Y28875
X3865Y31075
X3865Y56075
X25865Y56075
X29365Y56075
X51365Y56075
X54865Y56075
X76865Y56075
X76865Y28875
M30
