G75*
%MOIN*%
%OFA0B0*%
%FSLAX25Y25*%
%IPPOS*%
%LPD*%
%AMOC8*
5,1,8,0,0,1.08239X$1,22.5*
%
%ADD10C,0.08200*%
%ADD11C,0.08062*%
%ADD12C,0.08246*%
%ADD13C,0.06706*%
%ADD14C,0.07887*%
%ADD15C,0.10250*%
%ADD16C,0.07100*%
%ADD17R,0.08800X0.08800*%
%ADD18C,0.08800*%
%ADD19C,0.12800*%
%ADD20C,0.03300*%
%ADD21C,0.03800*%
D10*
X0103150Y0033750D03*
X0104150Y0043750D03*
X0103150Y0053750D03*
X0104150Y0063750D03*
X0103150Y0073750D03*
X0104150Y0083750D03*
X0103150Y0093750D03*
X0104150Y0103750D03*
X0103150Y0113750D03*
X0104150Y0123750D03*
X0103150Y0133750D03*
X0104150Y0143750D03*
X0103150Y0153750D03*
X0104150Y0163750D03*
X0103150Y0173750D03*
X0104150Y0183750D03*
X0184150Y0143750D03*
X0183150Y0133750D03*
X0184150Y0123750D03*
X0183150Y0113750D03*
X0184150Y0103750D03*
X0183150Y0093750D03*
X0184150Y0083750D03*
X0183150Y0073750D03*
X0184150Y0063750D03*
X0183150Y0053750D03*
X0184150Y0043750D03*
X0183150Y0033750D03*
X0358150Y0033750D03*
X0359150Y0043750D03*
X0358150Y0053750D03*
X0359150Y0063750D03*
X0358150Y0073750D03*
X0359150Y0083750D03*
X0358150Y0093750D03*
X0359150Y0103750D03*
X0358150Y0113750D03*
X0359150Y0123750D03*
X0358150Y0133750D03*
X0359150Y0143750D03*
X0358150Y0153750D03*
X0359150Y0163750D03*
X0358150Y0173750D03*
X0359150Y0183750D03*
X0438150Y0133750D03*
X0439150Y0143750D03*
X0439150Y0123750D03*
X0438150Y0113750D03*
X0439150Y0103750D03*
X0438150Y0093750D03*
X0439150Y0083750D03*
X0438150Y0073750D03*
X0439150Y0063750D03*
X0438150Y0053750D03*
X0439150Y0043750D03*
X0438150Y0033750D03*
X0613150Y0033750D03*
X0614150Y0043750D03*
X0613150Y0053750D03*
X0614150Y0063750D03*
X0613150Y0073750D03*
X0614150Y0083750D03*
X0613150Y0093750D03*
X0614150Y0103750D03*
X0613150Y0113750D03*
X0614150Y0123750D03*
X0613150Y0133750D03*
X0614150Y0143750D03*
X0613150Y0153750D03*
X0614150Y0163750D03*
X0613150Y0173750D03*
X0614150Y0183750D03*
X0694150Y0143750D03*
X0693150Y0133750D03*
X0694150Y0123750D03*
X0693150Y0113750D03*
X0694150Y0103750D03*
X0693150Y0093750D03*
X0694150Y0083750D03*
X0693150Y0073750D03*
X0694150Y0063750D03*
X0693150Y0053750D03*
X0694150Y0043750D03*
X0693150Y0033750D03*
X0693150Y0305750D03*
X0694150Y0315750D03*
X0693150Y0325750D03*
X0694150Y0335750D03*
X0693150Y0345750D03*
X0694150Y0355750D03*
X0693150Y0365750D03*
X0694150Y0375750D03*
X0693150Y0385750D03*
X0694150Y0395750D03*
X0693150Y0405750D03*
X0694150Y0415750D03*
X0614150Y0415750D03*
X0613150Y0405750D03*
X0614150Y0395750D03*
X0613150Y0385750D03*
X0614150Y0375750D03*
X0613150Y0365750D03*
X0614150Y0355750D03*
X0613150Y0345750D03*
X0614150Y0335750D03*
X0613150Y0325750D03*
X0614150Y0315750D03*
X0613150Y0305750D03*
X0613150Y0425750D03*
X0614150Y0435750D03*
X0613150Y0445750D03*
X0614150Y0455750D03*
X0439150Y0415750D03*
X0438150Y0405750D03*
X0439150Y0395750D03*
X0438150Y0385750D03*
X0439150Y0375750D03*
X0438150Y0365750D03*
X0439150Y0355750D03*
X0438150Y0345750D03*
X0439150Y0335750D03*
X0438150Y0325750D03*
X0439150Y0315750D03*
X0438150Y0305750D03*
X0359150Y0315750D03*
X0358150Y0325750D03*
X0359150Y0335750D03*
X0358150Y0345750D03*
X0359150Y0355750D03*
X0358150Y0365750D03*
X0359150Y0375750D03*
X0358150Y0385750D03*
X0359150Y0395750D03*
X0358150Y0405750D03*
X0359150Y0415750D03*
X0358150Y0425750D03*
X0359150Y0435750D03*
X0358150Y0445750D03*
X0359150Y0455750D03*
X0184150Y0415750D03*
X0183150Y0405750D03*
X0184150Y0395750D03*
X0183150Y0385750D03*
X0184150Y0375750D03*
X0183150Y0365750D03*
X0184150Y0355750D03*
X0183150Y0345750D03*
X0184150Y0335750D03*
X0183150Y0325750D03*
X0184150Y0315750D03*
X0183150Y0305750D03*
X0104150Y0315750D03*
X0103150Y0325750D03*
X0104150Y0335750D03*
X0103150Y0345750D03*
X0104150Y0355750D03*
X0103150Y0365750D03*
X0104150Y0375750D03*
X0103150Y0385750D03*
X0104150Y0395750D03*
X0103150Y0405750D03*
X0104150Y0415750D03*
X0103150Y0425750D03*
X0104150Y0435750D03*
X0103150Y0445750D03*
X0104150Y0455750D03*
X0103150Y0305750D03*
X0358150Y0305750D03*
D11*
X0393650Y0228750D03*
X0138650Y0228750D03*
X0138650Y0500750D03*
X0393650Y0500750D03*
X0648650Y0500750D03*
X0648650Y0228750D03*
D12*
X0678650Y0228750D03*
X0423650Y0228750D03*
X0168650Y0228750D03*
X0168650Y0500750D03*
X0423650Y0500750D03*
X0678650Y0500750D03*
D13*
X0667941Y0547561D03*
X0647941Y0547561D03*
X0627941Y0547561D03*
X0617941Y0547561D03*
X0412941Y0547561D03*
X0392941Y0547561D03*
X0372941Y0547561D03*
X0362941Y0547561D03*
X0157941Y0547561D03*
X0137941Y0547561D03*
X0117941Y0547561D03*
X0107941Y0547561D03*
X0107941Y0275561D03*
X0117941Y0275561D03*
X0137941Y0275561D03*
X0157941Y0275561D03*
X0362941Y0275561D03*
X0372941Y0275561D03*
X0392941Y0275561D03*
X0412941Y0275561D03*
X0617941Y0275561D03*
X0627941Y0275561D03*
X0647941Y0275561D03*
X0667941Y0275561D03*
D14*
X0711150Y0349699D03*
X0708650Y0440199D03*
X0453650Y0440199D03*
X0456150Y0349699D03*
X0201150Y0349699D03*
X0198650Y0440199D03*
X0198650Y0168199D03*
X0201150Y0077699D03*
X0456150Y0077699D03*
X0453650Y0168199D03*
X0708650Y0168199D03*
X0711150Y0077699D03*
D15*
X0728650Y0092699D03*
X0726150Y0062699D03*
X0708650Y0153199D03*
X0708650Y0183199D03*
X0726150Y0334699D03*
X0728650Y0364699D03*
X0708650Y0425199D03*
X0708650Y0455199D03*
X0473650Y0364699D03*
X0471150Y0334699D03*
X0453650Y0425199D03*
X0453650Y0455199D03*
X0218650Y0364699D03*
X0216150Y0334699D03*
X0198650Y0425199D03*
X0198650Y0455199D03*
X0198650Y0183199D03*
X0198650Y0153199D03*
X0218650Y0092699D03*
X0216150Y0062699D03*
X0453650Y0153199D03*
X0453650Y0183199D03*
X0473650Y0092699D03*
X0471150Y0062699D03*
D16*
X0488650Y0062699D03*
X0508650Y0092699D03*
X0488650Y0153199D03*
X0508650Y0183199D03*
X0488650Y0334699D03*
X0508650Y0364699D03*
X0488650Y0425199D03*
X0508650Y0455199D03*
X0743650Y0425199D03*
X0763650Y0455199D03*
X0763650Y0364699D03*
X0743650Y0334699D03*
X0763650Y0183199D03*
X0743650Y0153199D03*
X0763650Y0092699D03*
X0743650Y0062699D03*
X0253650Y0092699D03*
X0233650Y0062699D03*
X0233650Y0153199D03*
X0253650Y0183199D03*
X0233650Y0334699D03*
X0253650Y0364699D03*
X0233650Y0425199D03*
X0253650Y0455199D03*
D17*
X0318650Y0315750D03*
X0063650Y0315750D03*
X0063650Y0043750D03*
X0318650Y0043750D03*
X0573650Y0043750D03*
X0573650Y0315750D03*
D18*
X0587430Y0315750D03*
X0332430Y0315750D03*
X0077430Y0315750D03*
X0077430Y0043750D03*
X0332430Y0043750D03*
X0587430Y0043750D03*
D19*
X0038650Y0038750D03*
X0293650Y0038750D03*
X0548650Y0038750D03*
X0548650Y0288750D03*
X0548650Y0310750D03*
X0513650Y0288750D03*
X0293650Y0288750D03*
X0293650Y0310750D03*
X0258650Y0288750D03*
X0038650Y0288750D03*
X0038650Y0310750D03*
X0038650Y0560750D03*
X0258650Y0560750D03*
X0293650Y0560750D03*
X0513650Y0560750D03*
X0548650Y0560750D03*
X0768650Y0560750D03*
X0768650Y0288750D03*
D20*
X0758650Y0293750D03*
X0543650Y0320750D03*
X0503650Y0293750D03*
X0288650Y0320750D03*
X0248650Y0293750D03*
X0033650Y0320750D03*
X0248650Y0565750D03*
X0503650Y0565750D03*
X0758650Y0565750D03*
X0543650Y0048750D03*
X0288650Y0048750D03*
X0033650Y0048750D03*
D21*
X0033650Y0078750D03*
X0033650Y0113750D03*
X0033650Y0188750D03*
X0033650Y0263750D03*
X0033650Y0350750D03*
X0033650Y0385750D03*
X0033650Y0460750D03*
X0033650Y0535750D03*
X0288650Y0535750D03*
X0288650Y0460750D03*
X0288650Y0385750D03*
X0288650Y0350750D03*
X0288650Y0263750D03*
X0288650Y0188750D03*
X0288650Y0113750D03*
X0288650Y0078750D03*
X0543650Y0078750D03*
X0543650Y0113750D03*
X0543650Y0188750D03*
X0543650Y0263750D03*
X0543650Y0350750D03*
X0543650Y0385750D03*
X0543650Y0460750D03*
X0543650Y0535750D03*
M02*
