G75*
%MOIN*%
%OFA0B0*%
%FSLAX25Y25*%
%IPPOS*%
%LPD*%
%AMOC8*
5,1,8,0,0,1.08239X$1,22.5*
%
%ADD10C,0.07400*%
%ADD11R,0.05512X0.05118*%
%ADD12R,0.02362X0.04724*%
%ADD13R,0.04331X0.03937*%
%ADD14C,0.05906*%
%ADD15R,0.03937X0.04331*%
%ADD16R,0.07400X0.07400*%
%ADD17C,0.09450*%
%ADD18C,0.07087*%
%ADD19R,0.05000X0.02500*%
%ADD20R,0.03268X0.02480*%
%ADD21R,0.13780X0.07874*%
%ADD22R,0.23622X0.07874*%
%ADD23R,0.08000X0.08000*%
%ADD24C,0.08000*%
%ADD25R,0.01200X0.03900*%
%ADD26C,0.02500*%
%ADD27C,0.00800*%
%ADD28C,0.00700*%
%ADD29C,0.02900*%
D10*
X0168333Y0040000D03*
X0168333Y0050000D03*
X0168333Y0060000D03*
X0168333Y0070000D03*
X0168333Y0080000D03*
X0168333Y0090000D03*
X0168333Y0100000D03*
X0168333Y0110000D03*
X0168333Y0120000D03*
X0168333Y0130000D03*
X0168333Y0140000D03*
X0168333Y0150000D03*
X0168333Y0160000D03*
X0168333Y0170000D03*
X0168333Y0180000D03*
X0168333Y0190000D03*
X0203333Y0235000D03*
X0233333Y0235000D03*
X0255833Y0242500D03*
X0265833Y0247500D03*
X0255833Y0252500D03*
X0265833Y0257500D03*
X0255833Y0262500D03*
X0265833Y0267500D03*
X0255833Y0272500D03*
X0248333Y0150000D03*
X0248333Y0140000D03*
X0248333Y0130000D03*
X0248333Y0120000D03*
X0248333Y0110000D03*
X0248333Y0100000D03*
X0248333Y0090000D03*
X0248333Y0080000D03*
X0248333Y0070000D03*
X0248333Y0060000D03*
X0248333Y0050000D03*
X0248333Y0040000D03*
D11*
X0236365Y0050866D03*
X0236365Y0060866D03*
X0236365Y0070866D03*
X0236365Y0080866D03*
X0236365Y0100866D03*
X0236365Y0110866D03*
X0236365Y0120866D03*
X0236365Y0130866D03*
X0236361Y0150909D03*
X0236361Y0160909D03*
X0236361Y0170909D03*
X0236361Y0180909D03*
X0198802Y0180634D03*
X0198802Y0170634D03*
X0198802Y0160634D03*
X0198802Y0150634D03*
X0198806Y0130591D03*
X0198806Y0120591D03*
X0198806Y0110591D03*
X0198806Y0100591D03*
X0198806Y0080591D03*
X0198806Y0070591D03*
X0198806Y0060591D03*
X0198806Y0050591D03*
D12*
X0210833Y0203976D03*
X0215833Y0203976D03*
X0220833Y0203976D03*
X0225833Y0203976D03*
X0225833Y0226024D03*
X0220833Y0226024D03*
X0215833Y0226024D03*
X0210833Y0226024D03*
D13*
X0211680Y0245000D03*
X0204987Y0245000D03*
X0224987Y0245000D03*
X0231680Y0245000D03*
X0229987Y0140000D03*
X0236680Y0140000D03*
X0236680Y0090000D03*
X0229987Y0090000D03*
X0221680Y0090000D03*
X0214987Y0090000D03*
X0186680Y0065000D03*
X0179987Y0065000D03*
X0179987Y0055000D03*
X0186680Y0055000D03*
X0186680Y0045000D03*
X0179987Y0045000D03*
D14*
X0182625Y0281811D03*
X0172625Y0281811D03*
X0202625Y0281811D03*
X0222625Y0281811D03*
D15*
X0233333Y0218346D03*
X0233333Y0211654D03*
X0225833Y0195846D03*
X0225833Y0189154D03*
X0210833Y0189154D03*
X0210833Y0195846D03*
X0188333Y0153346D03*
X0188333Y0146654D03*
D16*
X0265833Y0237500D03*
D17*
X0263333Y0189449D03*
X0263333Y0159449D03*
X0298333Y0159449D03*
X0318333Y0189449D03*
X0318333Y0098949D03*
X0283333Y0098949D03*
X0280833Y0068949D03*
X0298333Y0068949D03*
D18*
X0265833Y0083949D03*
X0263333Y0174449D03*
D19*
X0228333Y0251800D03*
X0228333Y0255000D03*
X0228333Y0258200D03*
X0208333Y0258200D03*
X0208333Y0255000D03*
X0208333Y0251800D03*
D20*
X0198333Y0250472D03*
X0198333Y0259528D03*
X0238333Y0259528D03*
X0238333Y0250472D03*
X0265833Y0134528D03*
X0265833Y0125472D03*
X0275833Y0125472D03*
X0275833Y0134528D03*
D21*
X0144003Y0127874D03*
X0144003Y0112126D03*
X0144003Y0092874D03*
X0144003Y0077126D03*
X0144003Y0152126D03*
X0144003Y0167874D03*
X0144003Y0187126D03*
X0144003Y0202874D03*
X0144003Y0227126D03*
X0144003Y0242874D03*
X0144003Y0262126D03*
X0144003Y0277874D03*
D22*
X0107585Y0277874D03*
X0107585Y0262126D03*
X0107585Y0242874D03*
X0107585Y0227126D03*
X0107585Y0202874D03*
X0107585Y0187126D03*
X0107585Y0167874D03*
X0107585Y0152126D03*
X0107585Y0127874D03*
X0107585Y0112126D03*
X0107585Y0092874D03*
X0107585Y0077126D03*
D23*
X0128333Y0050000D03*
D24*
X0142113Y0050000D03*
D25*
X0170656Y0203513D03*
X0173215Y0203513D03*
X0175774Y0203513D03*
X0178333Y0203513D03*
X0180892Y0203513D03*
X0183451Y0203513D03*
X0186010Y0203513D03*
X0186010Y0226487D03*
X0183451Y0226487D03*
X0180892Y0226487D03*
X0178333Y0226487D03*
X0175774Y0226487D03*
X0173215Y0226487D03*
X0170656Y0226487D03*
D26*
X0313333Y0300000D03*
X0098333Y0055000D03*
D27*
X0095333Y0049744D02*
X0095333Y0071589D01*
X0120059Y0071589D01*
X0120996Y0072526D01*
X0120996Y0075000D01*
X0126020Y0075000D01*
X0126606Y0074414D01*
X0127727Y0073950D01*
X0128940Y0073950D01*
X0130061Y0074414D01*
X0130773Y0075126D01*
X0135513Y0075126D01*
X0135513Y0072526D01*
X0136450Y0071589D01*
X0151555Y0071589D01*
X0152492Y0072526D01*
X0152492Y0081726D01*
X0151555Y0082663D01*
X0136450Y0082663D01*
X0135513Y0081726D01*
X0135513Y0079126D01*
X0130521Y0079126D01*
X0130061Y0079586D01*
X0128940Y0080050D01*
X0127727Y0080050D01*
X0126606Y0079586D01*
X0126020Y0079000D01*
X0120996Y0079000D01*
X0120996Y0081726D01*
X0120059Y0082663D01*
X0110310Y0082663D01*
X0110919Y0083272D01*
X0111383Y0084393D01*
X0111383Y0085607D01*
X0110919Y0086728D01*
X0110310Y0087337D01*
X0120059Y0087337D01*
X0120996Y0088274D01*
X0120996Y0090874D01*
X0135513Y0090874D01*
X0135513Y0088274D01*
X0136450Y0087337D01*
X0151555Y0087337D01*
X0152492Y0088274D01*
X0152492Y0097474D01*
X0151555Y0098411D01*
X0136450Y0098411D01*
X0135513Y0097474D01*
X0135513Y0094874D01*
X0120996Y0094874D01*
X0120996Y0097474D01*
X0120059Y0098411D01*
X0095333Y0098411D01*
X0095333Y0106589D01*
X0120059Y0106589D01*
X0120996Y0107526D01*
X0120996Y0110126D01*
X0135513Y0110126D01*
X0135513Y0107526D01*
X0136450Y0106589D01*
X0151555Y0106589D01*
X0152492Y0107526D01*
X0152492Y0110401D01*
X0153141Y0111050D01*
X0154283Y0112192D01*
X0154283Y0191192D01*
X0168456Y0205365D01*
X0168456Y0200900D01*
X0168656Y0200700D01*
X0168656Y0196849D01*
X0169828Y0195677D01*
X0170783Y0194722D01*
X0169388Y0195300D01*
X0167279Y0195300D01*
X0165331Y0194493D01*
X0163840Y0193002D01*
X0163033Y0191054D01*
X0163033Y0188946D01*
X0163840Y0186998D01*
X0165331Y0185507D01*
X0166555Y0185000D01*
X0165331Y0184493D01*
X0163840Y0183002D01*
X0163033Y0181054D01*
X0163033Y0178946D01*
X0163840Y0176998D01*
X0165331Y0175507D01*
X0166555Y0175000D01*
X0165331Y0174493D01*
X0163840Y0173002D01*
X0163033Y0171054D01*
X0163033Y0168946D01*
X0163840Y0166998D01*
X0165331Y0165507D01*
X0166846Y0164879D01*
X0166376Y0164726D01*
X0165660Y0164362D01*
X0165011Y0163890D01*
X0164443Y0163322D01*
X0163971Y0162673D01*
X0163607Y0161958D01*
X0163359Y0161194D01*
X0163233Y0160401D01*
X0163233Y0160400D01*
X0167933Y0160400D01*
X0167933Y0159600D01*
X0163233Y0159600D01*
X0163233Y0159599D01*
X0163359Y0158806D01*
X0163607Y0158042D01*
X0163971Y0157327D01*
X0164443Y0156678D01*
X0165011Y0156110D01*
X0165660Y0155638D01*
X0166376Y0155274D01*
X0166846Y0155121D01*
X0165331Y0154493D01*
X0163840Y0153002D01*
X0163033Y0151054D01*
X0163033Y0148946D01*
X0163840Y0146998D01*
X0165331Y0145507D01*
X0166555Y0145000D01*
X0165331Y0144493D01*
X0163840Y0143002D01*
X0163033Y0141054D01*
X0163033Y0138946D01*
X0163840Y0136998D01*
X0165331Y0135507D01*
X0166555Y0135000D01*
X0165331Y0134493D01*
X0163840Y0133002D01*
X0163033Y0131054D01*
X0163033Y0128946D01*
X0163840Y0126998D01*
X0165331Y0125507D01*
X0166555Y0125000D01*
X0165331Y0124493D01*
X0163840Y0123002D01*
X0163033Y0121054D01*
X0163033Y0118946D01*
X0163840Y0116998D01*
X0165331Y0115507D01*
X0166555Y0115000D01*
X0165331Y0114493D01*
X0163840Y0113002D01*
X0163033Y0111054D01*
X0163033Y0108946D01*
X0163840Y0106998D01*
X0165331Y0105507D01*
X0166555Y0105000D01*
X0165331Y0104493D01*
X0163840Y0103002D01*
X0163033Y0101054D01*
X0163033Y0098946D01*
X0163840Y0096998D01*
X0165331Y0095507D01*
X0166555Y0095000D01*
X0165331Y0094493D01*
X0163840Y0093002D01*
X0163033Y0091054D01*
X0163033Y0088946D01*
X0163840Y0086998D01*
X0165331Y0085507D01*
X0166555Y0085000D01*
X0165331Y0084493D01*
X0163840Y0083002D01*
X0163033Y0081054D01*
X0163033Y0078946D01*
X0163840Y0076998D01*
X0165331Y0075507D01*
X0166555Y0075000D01*
X0165331Y0074493D01*
X0163840Y0073002D01*
X0163033Y0071054D01*
X0163033Y0068946D01*
X0163840Y0066998D01*
X0165331Y0065507D01*
X0166555Y0065000D01*
X0165331Y0064493D01*
X0163840Y0063002D01*
X0163033Y0061054D01*
X0163033Y0058946D01*
X0163840Y0056998D01*
X0165331Y0055507D01*
X0166555Y0055000D01*
X0165331Y0054493D01*
X0163840Y0053002D01*
X0163033Y0051054D01*
X0163033Y0048946D01*
X0163840Y0046998D01*
X0165331Y0045507D01*
X0166555Y0045000D01*
X0165331Y0044493D01*
X0163840Y0043002D01*
X0163033Y0041054D01*
X0163033Y0038946D01*
X0163839Y0037000D01*
X0108267Y0037000D01*
X0110567Y0038930D01*
X0112207Y0041770D01*
X0112207Y0041770D01*
X0112777Y0045000D01*
X0112207Y0048230D01*
X0110567Y0051070D01*
X0108055Y0053178D01*
X0104973Y0054300D01*
X0101693Y0054300D01*
X0101028Y0054058D01*
X0101183Y0054433D01*
X0101183Y0055567D01*
X0100749Y0056614D01*
X0099948Y0057416D01*
X0098900Y0057850D01*
X0097766Y0057850D01*
X0096719Y0057416D01*
X0095917Y0056614D01*
X0095483Y0055567D01*
X0095483Y0054433D01*
X0095917Y0053386D01*
X0096719Y0052584D01*
X0097512Y0052255D01*
X0096099Y0051070D01*
X0095333Y0049744D01*
X0095333Y0050172D02*
X0095581Y0050172D01*
X0095333Y0050970D02*
X0096042Y0050970D01*
X0096099Y0051070D02*
X0096099Y0051070D01*
X0096099Y0051070D01*
X0095333Y0051769D02*
X0096932Y0051769D01*
X0096759Y0052567D02*
X0095333Y0052567D01*
X0095333Y0053366D02*
X0095937Y0053366D01*
X0095595Y0054164D02*
X0095333Y0054164D01*
X0095333Y0054963D02*
X0095483Y0054963D01*
X0095564Y0055761D02*
X0095333Y0055761D01*
X0095333Y0056560D02*
X0095895Y0056560D01*
X0095333Y0057358D02*
X0096661Y0057358D01*
X0095333Y0058157D02*
X0163360Y0058157D01*
X0163033Y0058955D02*
X0095333Y0058955D01*
X0095333Y0059754D02*
X0163033Y0059754D01*
X0163033Y0060552D02*
X0095333Y0060552D01*
X0095333Y0061351D02*
X0163156Y0061351D01*
X0163487Y0062149D02*
X0095333Y0062149D01*
X0095333Y0062948D02*
X0163818Y0062948D01*
X0164584Y0063746D02*
X0095333Y0063746D01*
X0095333Y0064545D02*
X0165456Y0064545D01*
X0165726Y0065343D02*
X0095333Y0065343D01*
X0095333Y0066142D02*
X0164696Y0066142D01*
X0163898Y0066940D02*
X0095333Y0066940D01*
X0095333Y0067739D02*
X0163533Y0067739D01*
X0163202Y0068537D02*
X0095333Y0068537D01*
X0095333Y0069336D02*
X0163033Y0069336D01*
X0163033Y0070134D02*
X0095333Y0070134D01*
X0095333Y0070933D02*
X0163033Y0070933D01*
X0163314Y0071732D02*
X0151698Y0071732D01*
X0152492Y0072530D02*
X0163645Y0072530D01*
X0164167Y0073329D02*
X0152492Y0073329D01*
X0152492Y0074127D02*
X0164965Y0074127D01*
X0165114Y0075724D02*
X0152492Y0075724D01*
X0152492Y0074926D02*
X0166375Y0074926D01*
X0164315Y0076523D02*
X0152492Y0076523D01*
X0152492Y0077321D02*
X0163706Y0077321D01*
X0163376Y0078120D02*
X0152492Y0078120D01*
X0152492Y0078918D02*
X0163045Y0078918D01*
X0163033Y0079717D02*
X0152492Y0079717D01*
X0152492Y0080515D02*
X0163033Y0080515D01*
X0163141Y0081314D02*
X0152492Y0081314D01*
X0152106Y0082112D02*
X0163472Y0082112D01*
X0163802Y0082911D02*
X0110557Y0082911D01*
X0111100Y0083709D02*
X0164547Y0083709D01*
X0165366Y0084508D02*
X0111383Y0084508D01*
X0111383Y0085306D02*
X0165816Y0085306D01*
X0164733Y0086105D02*
X0111177Y0086105D01*
X0110743Y0086903D02*
X0163935Y0086903D01*
X0163549Y0087702D02*
X0151920Y0087702D01*
X0152492Y0088500D02*
X0163218Y0088500D01*
X0163033Y0089299D02*
X0152492Y0089299D01*
X0152492Y0090097D02*
X0163033Y0090097D01*
X0163033Y0090896D02*
X0152492Y0090896D01*
X0152492Y0091694D02*
X0163298Y0091694D01*
X0163629Y0092493D02*
X0152492Y0092493D01*
X0152492Y0093291D02*
X0164129Y0093291D01*
X0164928Y0094090D02*
X0152492Y0094090D01*
X0152492Y0094888D02*
X0166285Y0094888D01*
X0165151Y0095687D02*
X0152492Y0095687D01*
X0152492Y0096485D02*
X0164353Y0096485D01*
X0163722Y0097284D02*
X0152492Y0097284D01*
X0151884Y0098082D02*
X0163391Y0098082D01*
X0163060Y0098881D02*
X0095333Y0098881D01*
X0095333Y0099679D02*
X0163033Y0099679D01*
X0163033Y0100478D02*
X0095333Y0100478D01*
X0095333Y0101276D02*
X0163125Y0101276D01*
X0163456Y0102075D02*
X0095333Y0102075D01*
X0095333Y0102873D02*
X0163787Y0102873D01*
X0164510Y0103672D02*
X0095333Y0103672D01*
X0095333Y0104470D02*
X0165308Y0104470D01*
X0165905Y0105269D02*
X0095333Y0105269D01*
X0095333Y0106068D02*
X0164770Y0106068D01*
X0163972Y0106866D02*
X0151832Y0106866D01*
X0152492Y0107665D02*
X0163564Y0107665D01*
X0163233Y0108463D02*
X0152492Y0108463D01*
X0152492Y0109262D02*
X0163033Y0109262D01*
X0163033Y0110060D02*
X0152492Y0110060D01*
X0152950Y0110859D02*
X0163033Y0110859D01*
X0163283Y0111657D02*
X0153748Y0111657D01*
X0154283Y0112456D02*
X0163614Y0112456D01*
X0164092Y0113254D02*
X0154283Y0113254D01*
X0154283Y0114053D02*
X0164891Y0114053D01*
X0166195Y0114851D02*
X0154283Y0114851D01*
X0154283Y0115650D02*
X0165188Y0115650D01*
X0164390Y0116448D02*
X0154283Y0116448D01*
X0154283Y0117247D02*
X0163737Y0117247D01*
X0163406Y0118045D02*
X0154283Y0118045D01*
X0154283Y0118844D02*
X0163076Y0118844D01*
X0163033Y0119642D02*
X0154283Y0119642D01*
X0154283Y0120441D02*
X0163033Y0120441D01*
X0163110Y0121239D02*
X0154283Y0121239D01*
X0154283Y0122038D02*
X0163441Y0122038D01*
X0163771Y0122836D02*
X0154283Y0122836D01*
X0154283Y0123635D02*
X0164473Y0123635D01*
X0165271Y0124433D02*
X0154283Y0124433D01*
X0154283Y0125232D02*
X0165995Y0125232D01*
X0164808Y0126030D02*
X0154283Y0126030D01*
X0154283Y0126829D02*
X0164009Y0126829D01*
X0163579Y0127627D02*
X0154283Y0127627D01*
X0154283Y0128426D02*
X0163249Y0128426D01*
X0163033Y0129224D02*
X0154283Y0129224D01*
X0154283Y0130023D02*
X0163033Y0130023D01*
X0163033Y0130821D02*
X0154283Y0130821D01*
X0154283Y0131620D02*
X0163268Y0131620D01*
X0163598Y0132418D02*
X0154283Y0132418D01*
X0154283Y0133217D02*
X0164055Y0133217D01*
X0164853Y0134015D02*
X0154283Y0134015D01*
X0154283Y0134814D02*
X0166106Y0134814D01*
X0165226Y0135612D02*
X0154283Y0135612D01*
X0154283Y0136411D02*
X0164427Y0136411D01*
X0163753Y0137209D02*
X0154283Y0137209D01*
X0154283Y0138008D02*
X0163422Y0138008D01*
X0163091Y0138806D02*
X0154283Y0138806D01*
X0154283Y0139605D02*
X0163033Y0139605D01*
X0163033Y0140403D02*
X0154283Y0140403D01*
X0154283Y0141202D02*
X0163095Y0141202D01*
X0163425Y0142001D02*
X0154283Y0142001D01*
X0154283Y0142799D02*
X0163756Y0142799D01*
X0164436Y0143598D02*
X0154283Y0143598D01*
X0154283Y0144396D02*
X0165234Y0144396D01*
X0166085Y0145195D02*
X0154283Y0145195D01*
X0154283Y0145993D02*
X0164845Y0145993D01*
X0164046Y0146792D02*
X0154283Y0146792D01*
X0154283Y0147590D02*
X0163595Y0147590D01*
X0163264Y0148389D02*
X0154283Y0148389D01*
X0154283Y0149187D02*
X0163033Y0149187D01*
X0163033Y0149986D02*
X0154283Y0149986D01*
X0154283Y0150784D02*
X0163033Y0150784D01*
X0163252Y0151583D02*
X0154283Y0151583D01*
X0154283Y0152381D02*
X0163583Y0152381D01*
X0164018Y0153180D02*
X0154283Y0153180D01*
X0154283Y0153978D02*
X0164816Y0153978D01*
X0166016Y0154777D02*
X0154283Y0154777D01*
X0154283Y0155575D02*
X0165784Y0155575D01*
X0164747Y0156374D02*
X0154283Y0156374D01*
X0154283Y0157172D02*
X0164084Y0157172D01*
X0163643Y0157971D02*
X0154283Y0157971D01*
X0154283Y0158769D02*
X0163371Y0158769D01*
X0163238Y0159568D02*
X0154283Y0159568D01*
X0154283Y0160366D02*
X0167933Y0160366D01*
X0164681Y0163560D02*
X0154283Y0163560D01*
X0154283Y0162762D02*
X0164036Y0162762D01*
X0163610Y0161963D02*
X0154283Y0161963D01*
X0154283Y0161165D02*
X0163354Y0161165D01*
X0165656Y0164359D02*
X0154283Y0164359D01*
X0154283Y0165157D02*
X0166175Y0165157D01*
X0164882Y0165956D02*
X0154283Y0165956D01*
X0154283Y0166754D02*
X0164084Y0166754D01*
X0163610Y0167553D02*
X0154283Y0167553D01*
X0154283Y0168351D02*
X0163280Y0168351D01*
X0163033Y0169150D02*
X0154283Y0169150D01*
X0154283Y0169948D02*
X0163033Y0169948D01*
X0163033Y0170747D02*
X0154283Y0170747D01*
X0154283Y0171545D02*
X0163237Y0171545D01*
X0163568Y0172344D02*
X0154283Y0172344D01*
X0154283Y0173142D02*
X0163980Y0173142D01*
X0164779Y0173941D02*
X0154283Y0173941D01*
X0154283Y0174739D02*
X0165926Y0174739D01*
X0165300Y0175538D02*
X0154283Y0175538D01*
X0154283Y0176337D02*
X0164501Y0176337D01*
X0163783Y0177135D02*
X0154283Y0177135D01*
X0154283Y0177934D02*
X0163453Y0177934D01*
X0163122Y0178732D02*
X0154283Y0178732D01*
X0154283Y0179531D02*
X0163033Y0179531D01*
X0163033Y0180329D02*
X0154283Y0180329D01*
X0154283Y0181128D02*
X0163064Y0181128D01*
X0163394Y0181926D02*
X0154283Y0181926D01*
X0154283Y0182725D02*
X0163725Y0182725D01*
X0164361Y0183523D02*
X0154283Y0183523D01*
X0154283Y0184322D02*
X0165160Y0184322D01*
X0166265Y0185120D02*
X0154283Y0185120D01*
X0154283Y0185919D02*
X0164919Y0185919D01*
X0164121Y0186717D02*
X0154283Y0186717D01*
X0154283Y0187516D02*
X0163626Y0187516D01*
X0163295Y0188314D02*
X0154283Y0188314D01*
X0154283Y0189113D02*
X0163033Y0189113D01*
X0163033Y0189911D02*
X0154283Y0189911D01*
X0154283Y0190710D02*
X0163033Y0190710D01*
X0163221Y0191508D02*
X0154599Y0191508D01*
X0155398Y0192307D02*
X0163552Y0192307D01*
X0163943Y0193105D02*
X0156196Y0193105D01*
X0156995Y0193904D02*
X0164742Y0193904D01*
X0165836Y0194702D02*
X0157793Y0194702D01*
X0158592Y0195501D02*
X0170004Y0195501D01*
X0169206Y0196299D02*
X0159390Y0196299D01*
X0160189Y0197098D02*
X0168656Y0197098D01*
X0168656Y0197896D02*
X0160987Y0197896D01*
X0161786Y0198695D02*
X0168656Y0198695D01*
X0168656Y0199493D02*
X0162584Y0199493D01*
X0163383Y0200292D02*
X0168656Y0200292D01*
X0168456Y0201090D02*
X0164181Y0201090D01*
X0164980Y0201889D02*
X0168456Y0201889D01*
X0168456Y0202687D02*
X0165778Y0202687D01*
X0166577Y0203486D02*
X0168456Y0203486D01*
X0168456Y0204284D02*
X0167375Y0204284D01*
X0168174Y0205083D02*
X0168456Y0205083D01*
X0170656Y0203513D02*
X0170656Y0197677D01*
X0173333Y0195000D01*
X0173333Y0185000D01*
X0168333Y0180000D01*
X0179333Y0184500D02*
X0180833Y0186000D01*
X0179333Y0184500D02*
X0179333Y0122000D01*
X0181333Y0124313D02*
X0181333Y0124313D01*
X0181333Y0160828D01*
X0182505Y0162000D01*
X0192505Y0172000D01*
X0194446Y0172000D01*
X0194446Y0173856D01*
X0195383Y0174793D01*
X0202220Y0174793D01*
X0203158Y0173856D01*
X0203158Y0167412D01*
X0202220Y0166475D01*
X0195383Y0166475D01*
X0194446Y0167412D01*
X0194446Y0168000D01*
X0194162Y0168000D01*
X0185333Y0159172D01*
X0185333Y0156743D01*
X0185702Y0157112D01*
X0190965Y0157112D01*
X0191902Y0156175D01*
X0191902Y0155346D01*
X0192315Y0155346D01*
X0192412Y0155250D01*
X0193162Y0154500D01*
X0194333Y0153328D01*
X0194333Y0152634D01*
X0194446Y0152634D01*
X0194446Y0153856D01*
X0195383Y0154793D01*
X0202220Y0154793D01*
X0203158Y0153856D01*
X0203158Y0147412D01*
X0202220Y0146475D01*
X0195383Y0146475D01*
X0194446Y0147412D01*
X0194446Y0148634D01*
X0194333Y0148634D01*
X0194333Y0132313D01*
X0194450Y0132197D01*
X0194450Y0133812D01*
X0195387Y0134750D01*
X0202224Y0134750D01*
X0203162Y0133812D01*
X0203162Y0127369D01*
X0202224Y0126431D01*
X0195387Y0126431D01*
X0194450Y0127369D01*
X0194450Y0127803D01*
X0194333Y0127687D01*
X0194333Y0122500D01*
X0194450Y0122500D01*
X0194450Y0123812D01*
X0195387Y0124750D01*
X0202224Y0124750D01*
X0203162Y0123812D01*
X0203162Y0117369D01*
X0202224Y0116431D01*
X0195387Y0116431D01*
X0194450Y0117369D01*
X0194450Y0118500D01*
X0194333Y0118500D01*
X0194333Y0072500D01*
X0194450Y0072500D01*
X0194450Y0073812D01*
X0195387Y0074750D01*
X0202224Y0074750D01*
X0202333Y0074641D01*
X0202333Y0076540D01*
X0202224Y0076431D01*
X0195387Y0076431D01*
X0194450Y0077369D01*
X0194450Y0083812D01*
X0195387Y0084750D01*
X0202224Y0084750D01*
X0202333Y0084641D01*
X0202333Y0096540D01*
X0202224Y0096431D01*
X0195387Y0096431D01*
X0194450Y0097369D01*
X0194450Y0103812D01*
X0195387Y0104750D01*
X0202224Y0104750D01*
X0202333Y0104641D01*
X0202333Y0106540D01*
X0202224Y0106431D01*
X0195387Y0106431D01*
X0194450Y0107369D01*
X0194450Y0113812D01*
X0195387Y0114750D01*
X0202224Y0114750D01*
X0203162Y0113812D01*
X0203162Y0112591D01*
X0203571Y0112591D01*
X0206333Y0109828D01*
X0206333Y0066172D01*
X0205162Y0065000D01*
X0203662Y0063500D01*
X0203162Y0063500D01*
X0203162Y0057369D01*
X0202224Y0056431D01*
X0195387Y0056431D01*
X0194450Y0057369D01*
X0194450Y0057788D01*
X0194333Y0057672D01*
X0194333Y0046172D01*
X0192333Y0044172D01*
X0191162Y0043000D01*
X0190445Y0043000D01*
X0190445Y0042369D01*
X0189508Y0041431D01*
X0183852Y0041431D01*
X0183333Y0041950D01*
X0182815Y0041431D01*
X0177159Y0041431D01*
X0176222Y0042369D01*
X0176222Y0043000D01*
X0174162Y0043000D01*
X0173218Y0042056D01*
X0173633Y0041054D01*
X0173633Y0038946D01*
X0172827Y0037000D01*
X0207333Y0037000D01*
X0207333Y0183172D01*
X0202505Y0188000D01*
X0189471Y0188000D01*
X0189421Y0188050D01*
X0183097Y0188050D01*
X0183419Y0187728D01*
X0183883Y0186607D01*
X0183883Y0185393D01*
X0183419Y0184272D01*
X0182561Y0183414D01*
X0181440Y0182950D01*
X0181333Y0182950D01*
X0181333Y0124313D01*
X0181333Y0124433D02*
X0181333Y0124433D01*
X0181333Y0125232D02*
X0181333Y0125232D01*
X0181333Y0126030D02*
X0181333Y0126030D01*
X0181333Y0126829D02*
X0181333Y0126829D01*
X0181333Y0127627D02*
X0181333Y0127627D01*
X0181333Y0128426D02*
X0181333Y0128426D01*
X0181333Y0129224D02*
X0181333Y0129224D01*
X0181333Y0130023D02*
X0181333Y0130023D01*
X0181333Y0130821D02*
X0181333Y0130821D01*
X0181333Y0131620D02*
X0181333Y0131620D01*
X0181333Y0132418D02*
X0181333Y0132418D01*
X0181333Y0133217D02*
X0181333Y0133217D01*
X0181333Y0134015D02*
X0181333Y0134015D01*
X0181333Y0134814D02*
X0181333Y0134814D01*
X0181333Y0135612D02*
X0181333Y0135612D01*
X0181333Y0136411D02*
X0181333Y0136411D01*
X0181333Y0137209D02*
X0181333Y0137209D01*
X0181333Y0138008D02*
X0181333Y0138008D01*
X0181333Y0138806D02*
X0181333Y0138806D01*
X0181333Y0139605D02*
X0181333Y0139605D01*
X0181333Y0140403D02*
X0181333Y0140403D01*
X0181333Y0141202D02*
X0181333Y0141202D01*
X0181333Y0142001D02*
X0181333Y0142001D01*
X0181333Y0142799D02*
X0181333Y0142799D01*
X0181333Y0143598D02*
X0181333Y0143598D01*
X0181333Y0144396D02*
X0181333Y0144396D01*
X0181333Y0145195D02*
X0181333Y0145195D01*
X0181333Y0145993D02*
X0181333Y0145993D01*
X0181333Y0146792D02*
X0181333Y0146792D01*
X0181333Y0147590D02*
X0181333Y0147590D01*
X0181333Y0148389D02*
X0181333Y0148389D01*
X0181333Y0149187D02*
X0181333Y0149187D01*
X0181333Y0149986D02*
X0181333Y0149986D01*
X0181333Y0150784D02*
X0181333Y0150784D01*
X0181333Y0151583D02*
X0181333Y0151583D01*
X0181333Y0152381D02*
X0181333Y0152381D01*
X0181333Y0153180D02*
X0181333Y0153180D01*
X0181333Y0153978D02*
X0181333Y0153978D01*
X0181333Y0154777D02*
X0181333Y0154777D01*
X0181333Y0155575D02*
X0181333Y0155575D01*
X0181333Y0156374D02*
X0181333Y0156374D01*
X0181333Y0157172D02*
X0181333Y0157172D01*
X0181333Y0157971D02*
X0181333Y0157971D01*
X0181333Y0158769D02*
X0181333Y0158769D01*
X0181333Y0159568D02*
X0181333Y0159568D01*
X0181333Y0160366D02*
X0181333Y0160366D01*
X0181333Y0161165D02*
X0181670Y0161165D01*
X0181333Y0161963D02*
X0182468Y0161963D01*
X0183267Y0162762D02*
X0181333Y0162762D01*
X0181333Y0163560D02*
X0184065Y0163560D01*
X0184864Y0164359D02*
X0181333Y0164359D01*
X0181333Y0165157D02*
X0185662Y0165157D01*
X0186461Y0165956D02*
X0181333Y0165956D01*
X0181333Y0166754D02*
X0187259Y0166754D01*
X0188058Y0167553D02*
X0181333Y0167553D01*
X0181333Y0168351D02*
X0188856Y0168351D01*
X0189655Y0169150D02*
X0181333Y0169150D01*
X0181333Y0169948D02*
X0190453Y0169948D01*
X0191252Y0170747D02*
X0181333Y0170747D01*
X0181333Y0171545D02*
X0192050Y0171545D01*
X0193333Y0170000D02*
X0183333Y0160000D01*
X0183333Y0115000D01*
X0179987Y0111654D01*
X0179987Y0065000D01*
X0173333Y0065000D01*
X0168333Y0060000D01*
X0164278Y0056560D02*
X0100772Y0056560D01*
X0101103Y0055761D02*
X0165077Y0055761D01*
X0165002Y0054164D02*
X0145868Y0054164D01*
X0145285Y0054747D02*
X0143227Y0055600D01*
X0140999Y0055600D01*
X0138941Y0054747D01*
X0137365Y0053172D01*
X0136513Y0051114D01*
X0136513Y0048886D01*
X0137365Y0046828D01*
X0138941Y0045253D01*
X0140999Y0044400D01*
X0143227Y0044400D01*
X0145285Y0045253D01*
X0146860Y0046828D01*
X0147713Y0048886D01*
X0147713Y0051114D01*
X0146860Y0053172D01*
X0145285Y0054747D01*
X0144765Y0054963D02*
X0166465Y0054963D01*
X0164204Y0053366D02*
X0146667Y0053366D01*
X0147111Y0052567D02*
X0163660Y0052567D01*
X0163329Y0051769D02*
X0147442Y0051769D01*
X0147713Y0050970D02*
X0163033Y0050970D01*
X0163033Y0050172D02*
X0147713Y0050172D01*
X0147713Y0049373D02*
X0163033Y0049373D01*
X0163187Y0048575D02*
X0147584Y0048575D01*
X0147253Y0047776D02*
X0163518Y0047776D01*
X0163860Y0046978D02*
X0146922Y0046978D01*
X0146212Y0046179D02*
X0164659Y0046179D01*
X0165636Y0045381D02*
X0145413Y0045381D01*
X0143666Y0044582D02*
X0165546Y0044582D01*
X0164622Y0043784D02*
X0112562Y0043784D01*
X0112703Y0044582D02*
X0140559Y0044582D01*
X0138813Y0045381D02*
X0133592Y0045381D01*
X0133638Y0045460D02*
X0133733Y0045816D01*
X0133733Y0049600D01*
X0128733Y0049600D01*
X0128733Y0044600D01*
X0132518Y0044600D01*
X0132874Y0044695D01*
X0133193Y0044880D01*
X0133454Y0045140D01*
X0133638Y0045460D01*
X0133733Y0046179D02*
X0138014Y0046179D01*
X0137303Y0046978D02*
X0133733Y0046978D01*
X0133733Y0047776D02*
X0136973Y0047776D01*
X0136642Y0048575D02*
X0133733Y0048575D01*
X0133733Y0049373D02*
X0136513Y0049373D01*
X0136513Y0050172D02*
X0128733Y0050172D01*
X0128733Y0050400D02*
X0133733Y0050400D01*
X0133733Y0054184D01*
X0133638Y0054540D01*
X0133454Y0054860D01*
X0133193Y0055120D01*
X0132874Y0055305D01*
X0132518Y0055400D01*
X0128733Y0055400D01*
X0128733Y0050400D01*
X0127933Y0050400D01*
X0127933Y0049600D01*
X0122933Y0049600D01*
X0122933Y0045816D01*
X0123029Y0045460D01*
X0123213Y0045140D01*
X0123474Y0044880D01*
X0123793Y0044695D01*
X0124149Y0044600D01*
X0127933Y0044600D01*
X0127933Y0049600D01*
X0128733Y0049600D01*
X0128733Y0050400D01*
X0128733Y0050970D02*
X0127933Y0050970D01*
X0127933Y0050400D02*
X0127933Y0055400D01*
X0124149Y0055400D01*
X0123793Y0055305D01*
X0123474Y0055120D01*
X0123213Y0054860D01*
X0123029Y0054540D01*
X0122933Y0054184D01*
X0122933Y0050400D01*
X0127933Y0050400D01*
X0127933Y0050172D02*
X0111086Y0050172D01*
X0110625Y0050970D02*
X0122933Y0050970D01*
X0122933Y0051769D02*
X0109735Y0051769D01*
X0110567Y0051070D02*
X0110567Y0051070D01*
X0111547Y0049373D02*
X0122933Y0049373D01*
X0122933Y0048575D02*
X0112008Y0048575D01*
X0112207Y0048230D02*
X0112207Y0048230D01*
X0112287Y0047776D02*
X0122933Y0047776D01*
X0122933Y0046978D02*
X0112428Y0046978D01*
X0112569Y0046179D02*
X0122933Y0046179D01*
X0123074Y0045381D02*
X0112710Y0045381D01*
X0112777Y0045000D02*
X0112777Y0045000D01*
X0112421Y0042985D02*
X0163833Y0042985D01*
X0163502Y0042187D02*
X0112281Y0042187D01*
X0111987Y0041388D02*
X0163172Y0041388D01*
X0163033Y0040590D02*
X0111526Y0040590D01*
X0111065Y0039791D02*
X0163033Y0039791D01*
X0163033Y0038993D02*
X0110604Y0038993D01*
X0110567Y0038930D02*
X0110567Y0038930D01*
X0110567Y0038930D01*
X0109691Y0038194D02*
X0163345Y0038194D01*
X0163675Y0037396D02*
X0108739Y0037396D01*
X0108783Y0052567D02*
X0122933Y0052567D01*
X0122933Y0053366D02*
X0107540Y0053366D01*
X0108055Y0053178D02*
X0108055Y0053178D01*
X0105346Y0054164D02*
X0122933Y0054164D01*
X0123316Y0054963D02*
X0101183Y0054963D01*
X0101072Y0054164D02*
X0101321Y0054164D01*
X0100005Y0057358D02*
X0163691Y0057358D01*
X0168333Y0050000D02*
X0173333Y0055000D01*
X0179987Y0055000D01*
X0186680Y0055000D02*
X0189833Y0055000D01*
X0190833Y0056000D01*
X0190833Y0061000D01*
X0195333Y0065500D01*
X0202833Y0065500D01*
X0204333Y0067000D01*
X0204333Y0109000D01*
X0202743Y0110591D01*
X0198806Y0110591D01*
X0194450Y0110859D02*
X0194333Y0110859D01*
X0194333Y0111657D02*
X0194450Y0111657D01*
X0194450Y0112456D02*
X0194333Y0112456D01*
X0194333Y0113254D02*
X0194450Y0113254D01*
X0194333Y0114053D02*
X0194690Y0114053D01*
X0194333Y0114851D02*
X0207333Y0114851D01*
X0207333Y0114053D02*
X0202921Y0114053D01*
X0203162Y0113254D02*
X0207333Y0113254D01*
X0207333Y0112456D02*
X0203706Y0112456D01*
X0204505Y0111657D02*
X0207333Y0111657D01*
X0207333Y0110859D02*
X0205303Y0110859D01*
X0206102Y0110060D02*
X0207333Y0110060D01*
X0207333Y0109262D02*
X0206333Y0109262D01*
X0206333Y0108463D02*
X0207333Y0108463D01*
X0207333Y0107665D02*
X0206333Y0107665D01*
X0206333Y0106866D02*
X0207333Y0106866D01*
X0207333Y0106068D02*
X0206333Y0106068D01*
X0206333Y0105269D02*
X0207333Y0105269D01*
X0207333Y0104470D02*
X0206333Y0104470D01*
X0206333Y0103672D02*
X0207333Y0103672D01*
X0207333Y0102873D02*
X0206333Y0102873D01*
X0206333Y0102075D02*
X0207333Y0102075D01*
X0207333Y0101276D02*
X0206333Y0101276D01*
X0206333Y0100478D02*
X0207333Y0100478D01*
X0207333Y0099679D02*
X0206333Y0099679D01*
X0206333Y0098881D02*
X0207333Y0098881D01*
X0207333Y0098082D02*
X0206333Y0098082D01*
X0206333Y0097284D02*
X0207333Y0097284D01*
X0207333Y0096485D02*
X0206333Y0096485D01*
X0206333Y0095687D02*
X0207333Y0095687D01*
X0207333Y0094888D02*
X0206333Y0094888D01*
X0206333Y0094090D02*
X0207333Y0094090D01*
X0207333Y0093291D02*
X0206333Y0093291D01*
X0206333Y0092493D02*
X0207333Y0092493D01*
X0207333Y0091694D02*
X0206333Y0091694D01*
X0206333Y0090896D02*
X0207333Y0090896D01*
X0207333Y0090097D02*
X0206333Y0090097D01*
X0206333Y0089299D02*
X0207333Y0089299D01*
X0207333Y0088500D02*
X0206333Y0088500D01*
X0206333Y0087702D02*
X0207333Y0087702D01*
X0207333Y0086903D02*
X0206333Y0086903D01*
X0206333Y0086105D02*
X0207333Y0086105D01*
X0207333Y0085306D02*
X0206333Y0085306D01*
X0206333Y0084508D02*
X0207333Y0084508D01*
X0207333Y0083709D02*
X0206333Y0083709D01*
X0206333Y0082911D02*
X0207333Y0082911D01*
X0207333Y0082112D02*
X0206333Y0082112D01*
X0206333Y0081314D02*
X0207333Y0081314D01*
X0207333Y0080515D02*
X0206333Y0080515D01*
X0206333Y0079717D02*
X0207333Y0079717D01*
X0207333Y0078918D02*
X0206333Y0078918D01*
X0206333Y0078120D02*
X0207333Y0078120D01*
X0207333Y0077321D02*
X0206333Y0077321D01*
X0206333Y0076523D02*
X0207333Y0076523D01*
X0207333Y0075724D02*
X0206333Y0075724D01*
X0206333Y0074926D02*
X0207333Y0074926D01*
X0207333Y0074127D02*
X0206333Y0074127D01*
X0206333Y0073329D02*
X0207333Y0073329D01*
X0207333Y0072530D02*
X0206333Y0072530D01*
X0206333Y0071732D02*
X0207333Y0071732D01*
X0207333Y0070933D02*
X0206333Y0070933D01*
X0206333Y0070134D02*
X0207333Y0070134D01*
X0207333Y0069336D02*
X0206333Y0069336D01*
X0206333Y0068537D02*
X0207333Y0068537D01*
X0207333Y0067739D02*
X0206333Y0067739D01*
X0206333Y0066940D02*
X0207333Y0066940D01*
X0207333Y0066142D02*
X0206304Y0066142D01*
X0205505Y0065343D02*
X0207333Y0065343D01*
X0207333Y0064545D02*
X0204707Y0064545D01*
X0203908Y0063746D02*
X0207333Y0063746D01*
X0207333Y0062948D02*
X0203162Y0062948D01*
X0203162Y0062149D02*
X0207333Y0062149D01*
X0207333Y0061351D02*
X0203162Y0061351D01*
X0203162Y0060552D02*
X0207333Y0060552D01*
X0207333Y0059754D02*
X0203162Y0059754D01*
X0203162Y0058955D02*
X0207333Y0058955D01*
X0207333Y0058157D02*
X0203162Y0058157D01*
X0203151Y0057358D02*
X0207333Y0057358D01*
X0207333Y0056560D02*
X0202353Y0056560D01*
X0202224Y0054750D02*
X0195387Y0054750D01*
X0194450Y0053812D01*
X0194450Y0047369D01*
X0195387Y0046431D01*
X0202224Y0046431D01*
X0203162Y0047369D01*
X0203162Y0053812D01*
X0202224Y0054750D01*
X0202810Y0054164D02*
X0207333Y0054164D01*
X0207333Y0053366D02*
X0203162Y0053366D01*
X0203162Y0052567D02*
X0207333Y0052567D01*
X0207333Y0051769D02*
X0203162Y0051769D01*
X0203162Y0050970D02*
X0207333Y0050970D01*
X0207333Y0050172D02*
X0203162Y0050172D01*
X0203162Y0049373D02*
X0207333Y0049373D01*
X0207333Y0048575D02*
X0203162Y0048575D01*
X0203162Y0047776D02*
X0207333Y0047776D01*
X0207333Y0046978D02*
X0202771Y0046978D01*
X0207333Y0046179D02*
X0194333Y0046179D01*
X0194333Y0046978D02*
X0194841Y0046978D01*
X0194450Y0047776D02*
X0194333Y0047776D01*
X0194333Y0048575D02*
X0194450Y0048575D01*
X0194450Y0049373D02*
X0194333Y0049373D01*
X0194333Y0050172D02*
X0194450Y0050172D01*
X0194450Y0050970D02*
X0194333Y0050970D01*
X0194333Y0051769D02*
X0194450Y0051769D01*
X0194450Y0052567D02*
X0194333Y0052567D01*
X0194333Y0053366D02*
X0194450Y0053366D01*
X0194333Y0054164D02*
X0194802Y0054164D01*
X0194333Y0054963D02*
X0207333Y0054963D01*
X0207333Y0055761D02*
X0194333Y0055761D01*
X0194333Y0056560D02*
X0195259Y0056560D01*
X0194460Y0057358D02*
X0194333Y0057358D01*
X0192333Y0058500D02*
X0194424Y0060591D01*
X0198806Y0060591D01*
X0192333Y0058500D02*
X0192333Y0047000D01*
X0190333Y0045000D01*
X0186680Y0045000D01*
X0190445Y0042985D02*
X0207333Y0042985D01*
X0207333Y0042187D02*
X0190263Y0042187D01*
X0191945Y0043784D02*
X0207333Y0043784D01*
X0207333Y0044582D02*
X0192744Y0044582D01*
X0193542Y0045381D02*
X0207333Y0045381D01*
X0209333Y0045381D02*
X0245636Y0045381D01*
X0245331Y0045507D02*
X0246555Y0045000D01*
X0245331Y0044493D01*
X0243840Y0043002D01*
X0243033Y0041054D01*
X0243033Y0038946D01*
X0243839Y0037000D01*
X0209333Y0037000D01*
X0209333Y0181172D01*
X0214914Y0175590D01*
X0214914Y0168469D01*
X0223833Y0159550D01*
X0223833Y0141887D01*
X0223440Y0142050D01*
X0222227Y0142050D01*
X0221106Y0141586D01*
X0220248Y0140728D01*
X0219783Y0139607D01*
X0219783Y0138393D01*
X0220248Y0137272D01*
X0220833Y0136687D01*
X0220833Y0105328D01*
X0212987Y0097482D01*
X0212987Y0093568D01*
X0212159Y0093568D01*
X0211222Y0092631D01*
X0211222Y0087369D01*
X0212159Y0086431D01*
X0212987Y0086431D01*
X0212987Y0072518D01*
X0222505Y0063000D01*
X0226639Y0058866D01*
X0232009Y0058866D01*
X0232009Y0057644D01*
X0232946Y0056707D01*
X0239783Y0056707D01*
X0240721Y0057644D01*
X0240721Y0064088D01*
X0239783Y0065025D01*
X0232946Y0065025D01*
X0232009Y0064088D01*
X0232009Y0062866D01*
X0228296Y0062866D01*
X0225333Y0065828D01*
X0216987Y0074175D01*
X0216987Y0086431D01*
X0217815Y0086431D01*
X0218333Y0086950D01*
X0218852Y0086431D01*
X0223833Y0086431D01*
X0223833Y0083672D01*
X0224494Y0083011D01*
X0224533Y0082972D01*
X0224533Y0082143D01*
X0224998Y0081022D01*
X0225856Y0080164D01*
X0226977Y0079700D01*
X0227805Y0079700D01*
X0228639Y0078866D01*
X0232009Y0078866D01*
X0232009Y0077644D01*
X0232946Y0076707D01*
X0239783Y0076707D01*
X0240721Y0077644D01*
X0240721Y0084088D01*
X0239783Y0085025D01*
X0232946Y0085025D01*
X0232009Y0084088D01*
X0232009Y0082866D01*
X0230633Y0082866D01*
X0230633Y0083357D01*
X0230169Y0084478D01*
X0229311Y0085336D01*
X0228190Y0085800D01*
X0227833Y0085800D01*
X0227833Y0086431D01*
X0232815Y0086431D01*
X0233475Y0087091D01*
X0233655Y0086911D01*
X0233974Y0086727D01*
X0234330Y0086631D01*
X0236280Y0086631D01*
X0236280Y0089600D01*
X0237080Y0089600D01*
X0237080Y0090400D01*
X0240245Y0090400D01*
X0240245Y0092153D01*
X0240150Y0092509D01*
X0239965Y0092828D01*
X0239705Y0093089D01*
X0239386Y0093273D01*
X0239029Y0093368D01*
X0237080Y0093368D01*
X0237080Y0090400D01*
X0236280Y0090400D01*
X0236280Y0093368D01*
X0234330Y0093368D01*
X0233974Y0093273D01*
X0233655Y0093089D01*
X0233475Y0092909D01*
X0232815Y0093568D01*
X0227159Y0093568D01*
X0226222Y0092631D01*
X0226222Y0092000D01*
X0225445Y0092000D01*
X0225445Y0092631D01*
X0224508Y0093568D01*
X0218852Y0093568D01*
X0218333Y0093050D01*
X0217815Y0093568D01*
X0216987Y0093568D01*
X0216987Y0095825D01*
X0224833Y0103672D01*
X0232226Y0103672D01*
X0232209Y0103610D02*
X0232209Y0101266D01*
X0235965Y0101266D01*
X0235965Y0100466D01*
X0236765Y0100466D01*
X0236765Y0101266D01*
X0240521Y0101266D01*
X0240521Y0103610D01*
X0240425Y0103966D01*
X0240405Y0104000D01*
X0241505Y0104000D01*
X0243448Y0102056D01*
X0243033Y0101054D01*
X0243033Y0098946D01*
X0243840Y0096998D01*
X0245331Y0095507D01*
X0246555Y0095000D01*
X0245331Y0094493D01*
X0243840Y0093002D01*
X0243033Y0091054D01*
X0243033Y0088946D01*
X0243840Y0086998D01*
X0245331Y0085507D01*
X0246555Y0085000D01*
X0245331Y0084493D01*
X0243840Y0083002D01*
X0243033Y0081054D01*
X0243033Y0078946D01*
X0243840Y0076998D01*
X0245331Y0075507D01*
X0246555Y0075000D01*
X0245331Y0074493D01*
X0243840Y0073002D01*
X0243033Y0071054D01*
X0243033Y0068946D01*
X0243840Y0066998D01*
X0245331Y0065507D01*
X0246555Y0065000D01*
X0245331Y0064493D01*
X0243840Y0063002D01*
X0243033Y0061054D01*
X0243033Y0058946D01*
X0243840Y0056998D01*
X0245331Y0055507D01*
X0246555Y0055000D01*
X0245331Y0054493D01*
X0243840Y0053002D01*
X0243033Y0051054D01*
X0243033Y0048946D01*
X0243840Y0046998D01*
X0245331Y0045507D01*
X0245546Y0044582D02*
X0209333Y0044582D01*
X0209333Y0043784D02*
X0244622Y0043784D01*
X0243833Y0042985D02*
X0209333Y0042985D01*
X0209333Y0042187D02*
X0243502Y0042187D01*
X0243172Y0041388D02*
X0209333Y0041388D01*
X0209333Y0040590D02*
X0243033Y0040590D01*
X0243033Y0039791D02*
X0209333Y0039791D01*
X0209333Y0038993D02*
X0243033Y0038993D01*
X0243345Y0038194D02*
X0209333Y0038194D01*
X0209333Y0037396D02*
X0243675Y0037396D01*
X0244659Y0046179D02*
X0209333Y0046179D01*
X0209333Y0046978D02*
X0233161Y0046978D01*
X0233069Y0047002D02*
X0233425Y0046907D01*
X0235965Y0046907D01*
X0235965Y0050466D01*
X0236765Y0050466D01*
X0236765Y0051266D01*
X0240521Y0051266D01*
X0240521Y0053610D01*
X0240425Y0053966D01*
X0240241Y0054285D01*
X0239980Y0054545D01*
X0239661Y0054730D01*
X0239305Y0054825D01*
X0236765Y0054825D01*
X0236765Y0051266D01*
X0235965Y0051266D01*
X0235965Y0054825D01*
X0233425Y0054825D01*
X0233069Y0054730D01*
X0232749Y0054545D01*
X0232489Y0054285D01*
X0232304Y0053966D01*
X0232209Y0053610D01*
X0232209Y0051266D01*
X0235965Y0051266D01*
X0235965Y0050466D01*
X0232209Y0050466D01*
X0232209Y0048123D01*
X0232304Y0047767D01*
X0232489Y0047447D01*
X0232749Y0047187D01*
X0233069Y0047002D01*
X0232302Y0047776D02*
X0209333Y0047776D01*
X0209333Y0048575D02*
X0232209Y0048575D01*
X0232209Y0049373D02*
X0209333Y0049373D01*
X0209333Y0050172D02*
X0232209Y0050172D01*
X0232209Y0051769D02*
X0209333Y0051769D01*
X0209333Y0052567D02*
X0232209Y0052567D01*
X0232209Y0053366D02*
X0209333Y0053366D01*
X0209333Y0054164D02*
X0232419Y0054164D01*
X0232295Y0057358D02*
X0209333Y0057358D01*
X0209333Y0056560D02*
X0244278Y0056560D01*
X0243691Y0057358D02*
X0240435Y0057358D01*
X0240721Y0058157D02*
X0243360Y0058157D01*
X0243033Y0058955D02*
X0240721Y0058955D01*
X0240721Y0059754D02*
X0243033Y0059754D01*
X0243033Y0060552D02*
X0240721Y0060552D01*
X0240721Y0061351D02*
X0243156Y0061351D01*
X0243487Y0062149D02*
X0240721Y0062149D01*
X0240721Y0062948D02*
X0243818Y0062948D01*
X0244584Y0063746D02*
X0240721Y0063746D01*
X0240264Y0064545D02*
X0245456Y0064545D01*
X0245726Y0065343D02*
X0225818Y0065343D01*
X0226617Y0064545D02*
X0232466Y0064545D01*
X0232009Y0063746D02*
X0227415Y0063746D01*
X0228214Y0062948D02*
X0232009Y0062948D01*
X0232009Y0058157D02*
X0209333Y0058157D01*
X0209333Y0058955D02*
X0226550Y0058955D01*
X0225751Y0059754D02*
X0209333Y0059754D01*
X0209333Y0060552D02*
X0224953Y0060552D01*
X0224154Y0061351D02*
X0209333Y0061351D01*
X0209333Y0062149D02*
X0223356Y0062149D01*
X0222557Y0062948D02*
X0209333Y0062948D01*
X0209333Y0063746D02*
X0221758Y0063746D01*
X0220960Y0064545D02*
X0209333Y0064545D01*
X0209333Y0065343D02*
X0220161Y0065343D01*
X0219363Y0066142D02*
X0209333Y0066142D01*
X0209333Y0066940D02*
X0218564Y0066940D01*
X0217766Y0067739D02*
X0209333Y0067739D01*
X0209333Y0068537D02*
X0216967Y0068537D01*
X0216169Y0069336D02*
X0209333Y0069336D01*
X0209333Y0070134D02*
X0215370Y0070134D01*
X0214572Y0070933D02*
X0209333Y0070933D01*
X0209333Y0071732D02*
X0213773Y0071732D01*
X0212987Y0072530D02*
X0209333Y0072530D01*
X0209333Y0073329D02*
X0212987Y0073329D01*
X0212987Y0074127D02*
X0209333Y0074127D01*
X0209333Y0074926D02*
X0212987Y0074926D01*
X0212987Y0075724D02*
X0209333Y0075724D01*
X0209333Y0076523D02*
X0212987Y0076523D01*
X0212987Y0077321D02*
X0209333Y0077321D01*
X0209333Y0078120D02*
X0212987Y0078120D01*
X0212987Y0078918D02*
X0209333Y0078918D01*
X0209333Y0079717D02*
X0212987Y0079717D01*
X0212987Y0080515D02*
X0209333Y0080515D01*
X0209333Y0081314D02*
X0212987Y0081314D01*
X0212987Y0082112D02*
X0209333Y0082112D01*
X0209333Y0082911D02*
X0212987Y0082911D01*
X0212987Y0083709D02*
X0209333Y0083709D01*
X0209333Y0084508D02*
X0212987Y0084508D01*
X0212987Y0085306D02*
X0209333Y0085306D01*
X0209333Y0086105D02*
X0212987Y0086105D01*
X0211687Y0086903D02*
X0209333Y0086903D01*
X0209333Y0087702D02*
X0211222Y0087702D01*
X0211222Y0088500D02*
X0209333Y0088500D01*
X0209333Y0089299D02*
X0211222Y0089299D01*
X0211222Y0090097D02*
X0209333Y0090097D01*
X0209333Y0090896D02*
X0211222Y0090896D01*
X0211222Y0091694D02*
X0209333Y0091694D01*
X0209333Y0092493D02*
X0211222Y0092493D01*
X0211882Y0093291D02*
X0209333Y0093291D01*
X0209333Y0094090D02*
X0212987Y0094090D01*
X0212987Y0094888D02*
X0209333Y0094888D01*
X0209333Y0095687D02*
X0212987Y0095687D01*
X0212987Y0096485D02*
X0209333Y0096485D01*
X0209333Y0097284D02*
X0212987Y0097284D01*
X0213587Y0098082D02*
X0209333Y0098082D01*
X0209333Y0098881D02*
X0214386Y0098881D01*
X0215184Y0099679D02*
X0209333Y0099679D01*
X0209333Y0100478D02*
X0215983Y0100478D01*
X0216781Y0101276D02*
X0209333Y0101276D01*
X0209333Y0102075D02*
X0217580Y0102075D01*
X0218378Y0102873D02*
X0209333Y0102873D01*
X0209333Y0103672D02*
X0219177Y0103672D01*
X0219975Y0104470D02*
X0209333Y0104470D01*
X0209333Y0105269D02*
X0220774Y0105269D01*
X0220833Y0106068D02*
X0209333Y0106068D01*
X0209333Y0106866D02*
X0220833Y0106866D01*
X0220833Y0107665D02*
X0209333Y0107665D01*
X0209333Y0108463D02*
X0220833Y0108463D01*
X0220833Y0109262D02*
X0209333Y0109262D01*
X0209333Y0110060D02*
X0220833Y0110060D01*
X0220833Y0110859D02*
X0209333Y0110859D01*
X0209333Y0111657D02*
X0220833Y0111657D01*
X0220833Y0112456D02*
X0209333Y0112456D01*
X0209333Y0113254D02*
X0220833Y0113254D01*
X0220833Y0114053D02*
X0209333Y0114053D01*
X0209333Y0114851D02*
X0220833Y0114851D01*
X0220833Y0115650D02*
X0209333Y0115650D01*
X0209333Y0116448D02*
X0220833Y0116448D01*
X0220833Y0117247D02*
X0209333Y0117247D01*
X0209333Y0118045D02*
X0220833Y0118045D01*
X0220833Y0118844D02*
X0209333Y0118844D01*
X0209333Y0119642D02*
X0220833Y0119642D01*
X0220833Y0120441D02*
X0209333Y0120441D01*
X0209333Y0121239D02*
X0220833Y0121239D01*
X0220833Y0122038D02*
X0209333Y0122038D01*
X0209333Y0122836D02*
X0220833Y0122836D01*
X0220833Y0123635D02*
X0209333Y0123635D01*
X0209333Y0124433D02*
X0220833Y0124433D01*
X0220833Y0125232D02*
X0209333Y0125232D01*
X0209333Y0126030D02*
X0220833Y0126030D01*
X0220833Y0126829D02*
X0209333Y0126829D01*
X0209333Y0127627D02*
X0220833Y0127627D01*
X0220833Y0128426D02*
X0209333Y0128426D01*
X0209333Y0129224D02*
X0220833Y0129224D01*
X0220833Y0130023D02*
X0209333Y0130023D01*
X0209333Y0130821D02*
X0220833Y0130821D01*
X0220833Y0131620D02*
X0209333Y0131620D01*
X0209333Y0132418D02*
X0220833Y0132418D01*
X0220833Y0133217D02*
X0209333Y0133217D01*
X0209333Y0134015D02*
X0220833Y0134015D01*
X0220833Y0134814D02*
X0209333Y0134814D01*
X0209333Y0135612D02*
X0220833Y0135612D01*
X0220833Y0136411D02*
X0209333Y0136411D01*
X0209333Y0137209D02*
X0220311Y0137209D01*
X0219943Y0138008D02*
X0209333Y0138008D01*
X0209333Y0138806D02*
X0219783Y0138806D01*
X0219783Y0139605D02*
X0209333Y0139605D01*
X0209333Y0140403D02*
X0220113Y0140403D01*
X0220722Y0141202D02*
X0209333Y0141202D01*
X0209333Y0142001D02*
X0222107Y0142001D01*
X0223559Y0142001D02*
X0223833Y0142001D01*
X0223833Y0142799D02*
X0209333Y0142799D01*
X0209333Y0143598D02*
X0223833Y0143598D01*
X0223833Y0144396D02*
X0209333Y0144396D01*
X0209333Y0145195D02*
X0223833Y0145195D01*
X0223833Y0145993D02*
X0209333Y0145993D01*
X0209333Y0146792D02*
X0223833Y0146792D01*
X0223833Y0147590D02*
X0209333Y0147590D01*
X0209333Y0148389D02*
X0223833Y0148389D01*
X0223833Y0149187D02*
X0209333Y0149187D01*
X0209333Y0149986D02*
X0223833Y0149986D01*
X0223833Y0150784D02*
X0209333Y0150784D01*
X0209333Y0151583D02*
X0223833Y0151583D01*
X0223833Y0152381D02*
X0209333Y0152381D01*
X0209333Y0153180D02*
X0223833Y0153180D01*
X0223833Y0153978D02*
X0209333Y0153978D01*
X0209333Y0154777D02*
X0223833Y0154777D01*
X0223833Y0155575D02*
X0209333Y0155575D01*
X0209333Y0156374D02*
X0223833Y0156374D01*
X0223833Y0157172D02*
X0209333Y0157172D01*
X0209333Y0157971D02*
X0223833Y0157971D01*
X0223833Y0158769D02*
X0209333Y0158769D01*
X0209333Y0159568D02*
X0223816Y0159568D01*
X0223017Y0160366D02*
X0209333Y0160366D01*
X0209333Y0161165D02*
X0222219Y0161165D01*
X0221420Y0161963D02*
X0209333Y0161963D01*
X0209333Y0162762D02*
X0220622Y0162762D01*
X0219823Y0163560D02*
X0209333Y0163560D01*
X0209333Y0164359D02*
X0219025Y0164359D01*
X0218226Y0165157D02*
X0209333Y0165157D01*
X0209333Y0165956D02*
X0217428Y0165956D01*
X0216629Y0166754D02*
X0209333Y0166754D01*
X0209333Y0167553D02*
X0215831Y0167553D01*
X0215032Y0168351D02*
X0209333Y0168351D01*
X0209333Y0169150D02*
X0214914Y0169150D01*
X0214914Y0169948D02*
X0209333Y0169948D01*
X0209333Y0170747D02*
X0214914Y0170747D01*
X0214914Y0171545D02*
X0209333Y0171545D01*
X0209333Y0172344D02*
X0214914Y0172344D01*
X0214914Y0173142D02*
X0209333Y0173142D01*
X0209333Y0173941D02*
X0214914Y0173941D01*
X0214914Y0174739D02*
X0209333Y0174739D01*
X0209333Y0175538D02*
X0214914Y0175538D01*
X0214168Y0176337D02*
X0209333Y0176337D01*
X0209333Y0177135D02*
X0213370Y0177135D01*
X0212571Y0177934D02*
X0209333Y0177934D01*
X0209333Y0178732D02*
X0211773Y0178732D01*
X0210974Y0179531D02*
X0209333Y0179531D01*
X0209333Y0180329D02*
X0210176Y0180329D01*
X0209377Y0181128D02*
X0209333Y0181128D01*
X0207333Y0181128D02*
X0202958Y0181128D01*
X0202958Y0181034D02*
X0202958Y0183377D01*
X0202862Y0183733D01*
X0202678Y0184053D01*
X0202417Y0184313D01*
X0202098Y0184497D01*
X0201742Y0184593D01*
X0199202Y0184593D01*
X0199202Y0181034D01*
X0202958Y0181034D01*
X0202958Y0180234D02*
X0199202Y0180234D01*
X0199202Y0181034D01*
X0198402Y0181034D01*
X0198402Y0184593D01*
X0195862Y0184593D01*
X0195506Y0184497D01*
X0195186Y0184313D01*
X0194926Y0184053D01*
X0194741Y0183733D01*
X0194646Y0183377D01*
X0194646Y0181034D01*
X0198402Y0181034D01*
X0198402Y0180234D01*
X0199202Y0180234D01*
X0199202Y0176675D01*
X0201742Y0176675D01*
X0202098Y0176770D01*
X0202417Y0176955D01*
X0202678Y0177215D01*
X0202862Y0177534D01*
X0202958Y0177890D01*
X0202958Y0180234D01*
X0202958Y0179531D02*
X0207333Y0179531D01*
X0207333Y0180329D02*
X0199202Y0180329D01*
X0199202Y0179531D02*
X0198402Y0179531D01*
X0198402Y0180234D02*
X0198402Y0176675D01*
X0195862Y0176675D01*
X0195506Y0176770D01*
X0195186Y0176955D01*
X0194926Y0177215D01*
X0194741Y0177534D01*
X0194646Y0177890D01*
X0194646Y0180234D01*
X0198402Y0180234D01*
X0198402Y0180329D02*
X0181333Y0180329D01*
X0181333Y0179531D02*
X0194646Y0179531D01*
X0194646Y0178732D02*
X0181333Y0178732D01*
X0181333Y0177934D02*
X0194646Y0177934D01*
X0195006Y0177135D02*
X0181333Y0177135D01*
X0181333Y0176337D02*
X0207333Y0176337D01*
X0207333Y0177135D02*
X0202598Y0177135D01*
X0202958Y0177934D02*
X0207333Y0177934D01*
X0207333Y0178732D02*
X0202958Y0178732D01*
X0202958Y0181926D02*
X0207333Y0181926D01*
X0207333Y0182725D02*
X0202958Y0182725D01*
X0202919Y0183523D02*
X0206982Y0183523D01*
X0206183Y0184322D02*
X0202403Y0184322D01*
X0204586Y0185919D02*
X0183883Y0185919D01*
X0183838Y0186717D02*
X0203788Y0186717D01*
X0202989Y0187516D02*
X0183507Y0187516D01*
X0183770Y0185120D02*
X0205385Y0185120D01*
X0199202Y0184322D02*
X0198402Y0184322D01*
X0198402Y0183523D02*
X0199202Y0183523D01*
X0199202Y0182725D02*
X0198402Y0182725D01*
X0198402Y0181926D02*
X0199202Y0181926D01*
X0199202Y0181128D02*
X0198402Y0181128D01*
X0198402Y0178732D02*
X0199202Y0178732D01*
X0199202Y0177934D02*
X0198402Y0177934D01*
X0198402Y0177135D02*
X0199202Y0177135D01*
X0202274Y0174739D02*
X0207333Y0174739D01*
X0207333Y0173941D02*
X0203072Y0173941D01*
X0203158Y0173142D02*
X0207333Y0173142D01*
X0207333Y0172344D02*
X0203158Y0172344D01*
X0203158Y0171545D02*
X0207333Y0171545D01*
X0207333Y0170747D02*
X0203158Y0170747D01*
X0203158Y0169948D02*
X0207333Y0169948D01*
X0207333Y0169150D02*
X0203158Y0169150D01*
X0203158Y0168351D02*
X0207333Y0168351D01*
X0207333Y0167553D02*
X0203158Y0167553D01*
X0202500Y0166754D02*
X0207333Y0166754D01*
X0207333Y0165956D02*
X0192118Y0165956D01*
X0192916Y0166754D02*
X0195104Y0166754D01*
X0194446Y0167553D02*
X0193715Y0167553D01*
X0193333Y0170000D02*
X0198168Y0170000D01*
X0198802Y0170634D01*
X0194446Y0172344D02*
X0181333Y0172344D01*
X0181333Y0173142D02*
X0194446Y0173142D01*
X0194531Y0173941D02*
X0181333Y0173941D01*
X0181333Y0174739D02*
X0195330Y0174739D01*
X0194646Y0181128D02*
X0181333Y0181128D01*
X0181333Y0181926D02*
X0194646Y0181926D01*
X0194646Y0182725D02*
X0181333Y0182725D01*
X0182670Y0183523D02*
X0194685Y0183523D01*
X0195201Y0184322D02*
X0183439Y0184322D01*
X0184141Y0191950D02*
X0182289Y0193802D01*
X0182561Y0193914D01*
X0183419Y0194772D01*
X0183883Y0195893D01*
X0183883Y0197107D01*
X0183419Y0198228D01*
X0182833Y0198813D01*
X0182833Y0199963D01*
X0184714Y0199963D01*
X0184980Y0200229D01*
X0185226Y0200163D01*
X0186010Y0200163D01*
X0186010Y0203512D01*
X0186011Y0203512D01*
X0186011Y0203513D02*
X0186011Y0203513D01*
X0188010Y0203513D01*
X0188010Y0205647D01*
X0187915Y0206003D01*
X0187731Y0206322D01*
X0187470Y0206583D01*
X0187151Y0206767D01*
X0186795Y0206863D01*
X0186011Y0206863D01*
X0186011Y0203513D01*
X0186010Y0203513D01*
X0186010Y0206863D01*
X0185226Y0206863D01*
X0184980Y0206797D01*
X0184714Y0207063D01*
X0182189Y0207063D01*
X0182172Y0207046D01*
X0182155Y0207063D01*
X0179630Y0207063D01*
X0179613Y0207046D01*
X0179596Y0207063D01*
X0177071Y0207063D01*
X0177054Y0207046D01*
X0177037Y0207063D01*
X0174512Y0207063D01*
X0174495Y0207046D01*
X0174478Y0207063D01*
X0173154Y0207063D01*
X0187960Y0221869D01*
X0187960Y0223625D01*
X0188210Y0223875D01*
X0188210Y0229100D01*
X0187273Y0230037D01*
X0184748Y0230037D01*
X0184731Y0230021D01*
X0184714Y0230037D01*
X0182892Y0230037D01*
X0182892Y0238269D01*
X0179132Y0242030D01*
X0180061Y0242414D01*
X0180919Y0243272D01*
X0181383Y0244393D01*
X0181383Y0245607D01*
X0180919Y0246728D01*
X0180333Y0247313D01*
X0180333Y0255828D01*
X0179162Y0257000D01*
X0172036Y0264126D01*
X0152492Y0264126D01*
X0152492Y0266726D01*
X0151555Y0267663D01*
X0136450Y0267663D01*
X0135513Y0266726D01*
X0135513Y0264126D01*
X0120996Y0264126D01*
X0120996Y0266726D01*
X0120059Y0267663D01*
X0110310Y0267663D01*
X0110919Y0268272D01*
X0111383Y0269393D01*
X0111383Y0270607D01*
X0110919Y0271728D01*
X0110110Y0272537D01*
X0119581Y0272537D01*
X0119937Y0272632D01*
X0120256Y0272817D01*
X0120517Y0273077D01*
X0120701Y0273397D01*
X0120796Y0273753D01*
X0120796Y0277474D01*
X0107985Y0277474D01*
X0107985Y0278274D01*
X0107185Y0278274D01*
X0107185Y0283211D01*
X0095590Y0283211D01*
X0095333Y0283142D01*
X0095333Y0290256D01*
X0096099Y0288930D01*
X0098612Y0286822D01*
X0101693Y0285700D01*
X0104973Y0285700D01*
X0108055Y0286822D01*
X0110567Y0288930D01*
X0112207Y0291770D01*
X0112207Y0291770D01*
X0112777Y0295000D01*
X0112207Y0298230D01*
X0110567Y0301070D01*
X0108267Y0303000D01*
X0192333Y0303000D01*
X0192333Y0192000D01*
X0189471Y0192000D01*
X0189421Y0191950D01*
X0184141Y0191950D01*
X0183784Y0192307D02*
X0192333Y0192307D01*
X0192333Y0193105D02*
X0182986Y0193105D01*
X0182535Y0193904D02*
X0192333Y0193904D01*
X0192333Y0194702D02*
X0183349Y0194702D01*
X0183721Y0195501D02*
X0192333Y0195501D01*
X0192333Y0196299D02*
X0183883Y0196299D01*
X0183883Y0197098D02*
X0192333Y0197098D01*
X0192333Y0197896D02*
X0183556Y0197896D01*
X0182952Y0198695D02*
X0192333Y0198695D01*
X0192333Y0199493D02*
X0182833Y0199493D01*
X0186011Y0200163D02*
X0186795Y0200163D01*
X0187151Y0200258D01*
X0187470Y0200442D01*
X0187731Y0200703D01*
X0187915Y0201022D01*
X0188010Y0201378D01*
X0188010Y0203513D01*
X0186011Y0203513D01*
X0186011Y0203512D02*
X0186011Y0200163D01*
X0186010Y0200292D02*
X0186011Y0200292D01*
X0186010Y0201090D02*
X0186011Y0201090D01*
X0186010Y0201889D02*
X0186011Y0201889D01*
X0186010Y0202687D02*
X0186011Y0202687D01*
X0186010Y0203486D02*
X0186011Y0203486D01*
X0186010Y0204284D02*
X0186011Y0204284D01*
X0186010Y0205083D02*
X0186011Y0205083D01*
X0186010Y0205881D02*
X0186011Y0205881D01*
X0186010Y0206680D02*
X0186011Y0206680D01*
X0187302Y0206680D02*
X0192333Y0206680D01*
X0192333Y0207478D02*
X0173569Y0207478D01*
X0174368Y0208277D02*
X0192333Y0208277D01*
X0192333Y0209075D02*
X0175166Y0209075D01*
X0175965Y0209874D02*
X0192333Y0209874D01*
X0192333Y0210672D02*
X0176764Y0210672D01*
X0177562Y0211471D02*
X0192333Y0211471D01*
X0192333Y0212270D02*
X0178361Y0212270D01*
X0179159Y0213068D02*
X0192333Y0213068D01*
X0192333Y0213867D02*
X0179958Y0213867D01*
X0180756Y0214665D02*
X0192333Y0214665D01*
X0192333Y0215464D02*
X0181555Y0215464D01*
X0182353Y0216262D02*
X0192333Y0216262D01*
X0192333Y0217061D02*
X0183152Y0217061D01*
X0183950Y0217859D02*
X0192333Y0217859D01*
X0192333Y0218658D02*
X0184749Y0218658D01*
X0185547Y0219456D02*
X0192333Y0219456D01*
X0192333Y0220255D02*
X0186346Y0220255D01*
X0187144Y0221053D02*
X0192333Y0221053D01*
X0192333Y0221852D02*
X0187943Y0221852D01*
X0187960Y0222650D02*
X0192333Y0222650D01*
X0192333Y0223449D02*
X0187960Y0223449D01*
X0188210Y0224247D02*
X0192333Y0224247D01*
X0192333Y0225046D02*
X0188210Y0225046D01*
X0188210Y0225844D02*
X0192333Y0225844D01*
X0192333Y0226643D02*
X0188210Y0226643D01*
X0188210Y0227441D02*
X0192333Y0227441D01*
X0192333Y0228240D02*
X0188210Y0228240D01*
X0188210Y0229038D02*
X0192333Y0229038D01*
X0192333Y0229837D02*
X0187474Y0229837D01*
X0182892Y0230635D02*
X0192333Y0230635D01*
X0192333Y0231434D02*
X0182892Y0231434D01*
X0182892Y0232232D02*
X0192333Y0232232D01*
X0192333Y0233031D02*
X0182892Y0233031D01*
X0182892Y0233829D02*
X0192333Y0233829D01*
X0192333Y0234628D02*
X0182892Y0234628D01*
X0182892Y0235426D02*
X0192333Y0235426D01*
X0192333Y0236225D02*
X0182892Y0236225D01*
X0182892Y0237023D02*
X0192333Y0237023D01*
X0192333Y0237822D02*
X0182892Y0237822D01*
X0182541Y0238620D02*
X0192333Y0238620D01*
X0192333Y0239419D02*
X0181743Y0239419D01*
X0180944Y0240217D02*
X0192333Y0240217D01*
X0192333Y0241016D02*
X0180146Y0241016D01*
X0179347Y0241814D02*
X0192333Y0241814D01*
X0192333Y0242613D02*
X0180260Y0242613D01*
X0180977Y0243411D02*
X0192333Y0243411D01*
X0192333Y0244210D02*
X0181307Y0244210D01*
X0181383Y0245008D02*
X0192333Y0245008D01*
X0192333Y0245807D02*
X0181300Y0245807D01*
X0180970Y0246605D02*
X0192333Y0246605D01*
X0192333Y0247404D02*
X0180333Y0247404D01*
X0180333Y0248203D02*
X0192333Y0248203D01*
X0192333Y0249001D02*
X0180333Y0249001D01*
X0180333Y0249800D02*
X0192333Y0249800D01*
X0192333Y0250598D02*
X0180333Y0250598D01*
X0180333Y0251397D02*
X0192333Y0251397D01*
X0192333Y0252195D02*
X0180333Y0252195D01*
X0180333Y0252994D02*
X0192333Y0252994D01*
X0192333Y0253792D02*
X0180333Y0253792D01*
X0180333Y0254591D02*
X0192333Y0254591D01*
X0192333Y0255389D02*
X0180333Y0255389D01*
X0179974Y0256188D02*
X0192333Y0256188D01*
X0192333Y0256986D02*
X0179176Y0256986D01*
X0178377Y0257785D02*
X0192333Y0257785D01*
X0192333Y0258583D02*
X0177579Y0258583D01*
X0176780Y0259382D02*
X0192333Y0259382D01*
X0192333Y0260180D02*
X0175982Y0260180D01*
X0175183Y0260979D02*
X0192333Y0260979D01*
X0192333Y0261777D02*
X0174385Y0261777D01*
X0173586Y0262576D02*
X0192333Y0262576D01*
X0192333Y0263374D02*
X0172787Y0263374D01*
X0171207Y0262126D02*
X0178333Y0255000D01*
X0178333Y0245000D01*
X0175459Y0242874D02*
X0180892Y0237441D01*
X0180892Y0226487D01*
X0178333Y0226487D02*
X0178333Y0235000D01*
X0170656Y0226487D02*
X0165846Y0226487D01*
X0165333Y0227000D01*
X0144129Y0227000D01*
X0144003Y0227126D01*
X0143877Y0227000D01*
X0128333Y0227000D01*
X0107711Y0227000D01*
X0107585Y0227126D01*
X0095333Y0221589D02*
X0120059Y0221589D01*
X0120996Y0222526D01*
X0120996Y0225000D01*
X0126020Y0225000D01*
X0126606Y0224414D01*
X0127727Y0223950D01*
X0128940Y0223950D01*
X0130061Y0224414D01*
X0130647Y0225000D01*
X0135513Y0225000D01*
X0135513Y0222526D01*
X0136450Y0221589D01*
X0151555Y0221589D01*
X0152492Y0222526D01*
X0152492Y0225000D01*
X0164505Y0225000D01*
X0165017Y0224487D01*
X0168456Y0224487D01*
X0168456Y0223875D01*
X0169393Y0222937D01*
X0171265Y0222937D01*
X0171265Y0222690D01*
X0165526Y0216950D01*
X0132526Y0216950D01*
X0127526Y0211950D01*
X0126383Y0210808D01*
X0126383Y0189126D01*
X0120996Y0189126D01*
X0120996Y0191726D01*
X0120059Y0192663D01*
X0109535Y0192663D01*
X0109535Y0193056D01*
X0108393Y0194198D01*
X0107883Y0194708D01*
X0107883Y0195607D01*
X0107419Y0196728D01*
X0106610Y0197537D01*
X0107185Y0197537D01*
X0107185Y0202474D01*
X0107985Y0202474D01*
X0107985Y0197537D01*
X0119581Y0197537D01*
X0119937Y0197632D01*
X0120256Y0197817D01*
X0120517Y0198077D01*
X0120701Y0198397D01*
X0120796Y0198753D01*
X0120796Y0202474D01*
X0107985Y0202474D01*
X0107985Y0203274D01*
X0107185Y0203274D01*
X0107185Y0208211D01*
X0095590Y0208211D01*
X0095333Y0208142D01*
X0095333Y0221589D01*
X0095333Y0221053D02*
X0169629Y0221053D01*
X0170427Y0221852D02*
X0151818Y0221852D01*
X0152492Y0222650D02*
X0171226Y0222650D01*
X0168882Y0223449D02*
X0152492Y0223449D01*
X0152492Y0224247D02*
X0168456Y0224247D01*
X0168830Y0220255D02*
X0095333Y0220255D01*
X0095333Y0219456D02*
X0168032Y0219456D01*
X0167233Y0218658D02*
X0095333Y0218658D01*
X0095333Y0217859D02*
X0166435Y0217859D01*
X0165636Y0217061D02*
X0095333Y0217061D01*
X0095333Y0216262D02*
X0131838Y0216262D01*
X0131039Y0215464D02*
X0095333Y0215464D01*
X0095333Y0214665D02*
X0130241Y0214665D01*
X0129442Y0213867D02*
X0095333Y0213867D01*
X0095333Y0213068D02*
X0128644Y0213068D01*
X0127845Y0212270D02*
X0095333Y0212270D01*
X0095333Y0211471D02*
X0127047Y0211471D01*
X0126383Y0210672D02*
X0095333Y0210672D01*
X0095333Y0209874D02*
X0126383Y0209874D01*
X0126383Y0209075D02*
X0095333Y0209075D01*
X0095333Y0208277D02*
X0126383Y0208277D01*
X0126383Y0207478D02*
X0120628Y0207478D01*
X0120701Y0207351D02*
X0120517Y0207671D01*
X0120256Y0207931D01*
X0119937Y0208116D01*
X0119581Y0208211D01*
X0107985Y0208211D01*
X0107985Y0203274D01*
X0120796Y0203274D01*
X0120796Y0206995D01*
X0120701Y0207351D01*
X0120796Y0206680D02*
X0126383Y0206680D01*
X0126383Y0205881D02*
X0120796Y0205881D01*
X0120796Y0205083D02*
X0126383Y0205083D01*
X0126383Y0204284D02*
X0120796Y0204284D01*
X0120796Y0203486D02*
X0126383Y0203486D01*
X0126383Y0202687D02*
X0107985Y0202687D01*
X0107985Y0201889D02*
X0107185Y0201889D01*
X0107185Y0201090D02*
X0107985Y0201090D01*
X0107985Y0200292D02*
X0107185Y0200292D01*
X0107185Y0199493D02*
X0107985Y0199493D01*
X0107985Y0198695D02*
X0107185Y0198695D01*
X0107185Y0197896D02*
X0107985Y0197896D01*
X0107049Y0197098D02*
X0126383Y0197098D01*
X0126383Y0197896D02*
X0120336Y0197896D01*
X0120781Y0198695D02*
X0126383Y0198695D01*
X0126383Y0199493D02*
X0120796Y0199493D01*
X0120796Y0200292D02*
X0126383Y0200292D01*
X0126383Y0201090D02*
X0120796Y0201090D01*
X0120796Y0201889D02*
X0126383Y0201889D01*
X0130283Y0201889D02*
X0135713Y0201889D01*
X0135713Y0202474D02*
X0135713Y0198753D01*
X0135808Y0198397D01*
X0135993Y0198077D01*
X0136253Y0197817D01*
X0136572Y0197632D01*
X0136929Y0197537D01*
X0143603Y0197537D01*
X0143603Y0202474D01*
X0144403Y0202474D01*
X0144403Y0203274D01*
X0152292Y0203274D01*
X0152292Y0206995D01*
X0152197Y0207351D01*
X0152013Y0207671D01*
X0151752Y0207931D01*
X0151433Y0208116D01*
X0151077Y0208211D01*
X0144403Y0208211D01*
X0144403Y0203274D01*
X0143603Y0203274D01*
X0143603Y0208211D01*
X0136929Y0208211D01*
X0136572Y0208116D01*
X0136253Y0207931D01*
X0135993Y0207671D01*
X0135808Y0207351D01*
X0135713Y0206995D01*
X0135713Y0203274D01*
X0143603Y0203274D01*
X0143603Y0202474D01*
X0135713Y0202474D01*
X0135713Y0203486D02*
X0130283Y0203486D01*
X0130283Y0204284D02*
X0135713Y0204284D01*
X0135713Y0205083D02*
X0130283Y0205083D01*
X0130283Y0205881D02*
X0135713Y0205881D01*
X0135713Y0206680D02*
X0130283Y0206680D01*
X0130283Y0207478D02*
X0135882Y0207478D01*
X0132562Y0211471D02*
X0167047Y0211471D01*
X0166383Y0210808D02*
X0166383Y0208808D01*
X0150383Y0192808D01*
X0150383Y0192663D01*
X0136450Y0192663D01*
X0135513Y0191726D01*
X0135513Y0189126D01*
X0130283Y0189126D01*
X0130283Y0209192D01*
X0134141Y0213050D01*
X0167141Y0213050D01*
X0173824Y0219733D01*
X0173824Y0218249D01*
X0166383Y0210808D01*
X0166383Y0210672D02*
X0131764Y0210672D01*
X0130965Y0209874D02*
X0166383Y0209874D01*
X0166383Y0209075D02*
X0130283Y0209075D01*
X0130283Y0208277D02*
X0165853Y0208277D01*
X0165054Y0207478D02*
X0152124Y0207478D01*
X0152292Y0206680D02*
X0164256Y0206680D01*
X0163457Y0205881D02*
X0152292Y0205881D01*
X0152292Y0205083D02*
X0162659Y0205083D01*
X0161860Y0204284D02*
X0152292Y0204284D01*
X0152292Y0203486D02*
X0161062Y0203486D01*
X0160263Y0202687D02*
X0144403Y0202687D01*
X0144403Y0202474D02*
X0152292Y0202474D01*
X0152292Y0198753D01*
X0152197Y0198397D01*
X0152013Y0198077D01*
X0151752Y0197817D01*
X0151433Y0197632D01*
X0151077Y0197537D01*
X0144403Y0197537D01*
X0144403Y0202474D01*
X0144403Y0201889D02*
X0143603Y0201889D01*
X0143603Y0202687D02*
X0130283Y0202687D01*
X0130283Y0201090D02*
X0135713Y0201090D01*
X0135713Y0200292D02*
X0130283Y0200292D01*
X0130283Y0199493D02*
X0135713Y0199493D01*
X0135728Y0198695D02*
X0130283Y0198695D01*
X0130283Y0197896D02*
X0136174Y0197896D01*
X0130283Y0197098D02*
X0154673Y0197098D01*
X0153875Y0196299D02*
X0130283Y0196299D01*
X0130283Y0195501D02*
X0153076Y0195501D01*
X0152278Y0194702D02*
X0130283Y0194702D01*
X0130283Y0193904D02*
X0151479Y0193904D01*
X0150681Y0193105D02*
X0130283Y0193105D01*
X0130283Y0192307D02*
X0136094Y0192307D01*
X0135513Y0191508D02*
X0130283Y0191508D01*
X0130283Y0190710D02*
X0135513Y0190710D01*
X0135513Y0189911D02*
X0130283Y0189911D01*
X0128333Y0187126D02*
X0144003Y0187126D01*
X0143603Y0197896D02*
X0144403Y0197896D01*
X0144403Y0198695D02*
X0143603Y0198695D01*
X0143603Y0199493D02*
X0144403Y0199493D01*
X0144403Y0200292D02*
X0143603Y0200292D01*
X0143603Y0201090D02*
X0144403Y0201090D01*
X0144403Y0203486D02*
X0143603Y0203486D01*
X0143603Y0204284D02*
X0144403Y0204284D01*
X0144403Y0205083D02*
X0143603Y0205083D01*
X0143603Y0205881D02*
X0144403Y0205881D01*
X0144403Y0206680D02*
X0143603Y0206680D01*
X0143603Y0207478D02*
X0144403Y0207478D01*
X0152292Y0201889D02*
X0159464Y0201889D01*
X0158666Y0201090D02*
X0152292Y0201090D01*
X0152292Y0200292D02*
X0157867Y0200292D01*
X0157069Y0199493D02*
X0152292Y0199493D01*
X0152277Y0198695D02*
X0156270Y0198695D01*
X0155472Y0197896D02*
X0151832Y0197896D01*
X0167845Y0212270D02*
X0133361Y0212270D01*
X0136187Y0221852D02*
X0120322Y0221852D01*
X0120996Y0222650D02*
X0135513Y0222650D01*
X0135513Y0223449D02*
X0120996Y0223449D01*
X0120996Y0224247D02*
X0127009Y0224247D01*
X0129657Y0224247D02*
X0135513Y0224247D01*
X0144003Y0242874D02*
X0107585Y0242874D01*
X0107585Y0262126D02*
X0107585Y0269252D01*
X0108333Y0270000D01*
X0110489Y0272158D02*
X0192333Y0272158D01*
X0192333Y0272956D02*
X0151892Y0272956D01*
X0152013Y0273077D02*
X0152197Y0273397D01*
X0152292Y0273753D01*
X0152292Y0277474D01*
X0144403Y0277474D01*
X0144403Y0278274D01*
X0152292Y0278274D01*
X0152292Y0281995D01*
X0152197Y0282351D01*
X0152013Y0282671D01*
X0151752Y0282931D01*
X0151433Y0283116D01*
X0151077Y0283211D01*
X0144403Y0283211D01*
X0144403Y0278274D01*
X0143603Y0278274D01*
X0143603Y0283211D01*
X0136929Y0283211D01*
X0136572Y0283116D01*
X0136253Y0282931D01*
X0135993Y0282671D01*
X0135808Y0282351D01*
X0135713Y0281995D01*
X0135713Y0278274D01*
X0143603Y0278274D01*
X0143603Y0277474D01*
X0144403Y0277474D01*
X0144403Y0272537D01*
X0151077Y0272537D01*
X0151433Y0272632D01*
X0151752Y0272817D01*
X0152013Y0273077D01*
X0152292Y0273755D02*
X0192333Y0273755D01*
X0192333Y0274553D02*
X0152292Y0274553D01*
X0152292Y0275352D02*
X0192333Y0275352D01*
X0192333Y0276150D02*
X0152292Y0276150D01*
X0152292Y0276949D02*
X0192333Y0276949D01*
X0192333Y0277747D02*
X0184204Y0277747D01*
X0184296Y0277777D02*
X0184906Y0278088D01*
X0185460Y0278491D01*
X0185945Y0278975D01*
X0186347Y0279530D01*
X0186659Y0280140D01*
X0186870Y0280792D01*
X0186968Y0281411D01*
X0183025Y0281411D01*
X0183025Y0282211D01*
X0186968Y0282211D01*
X0186870Y0282830D01*
X0186659Y0283482D01*
X0186347Y0284092D01*
X0185945Y0284647D01*
X0185460Y0285131D01*
X0184906Y0285534D01*
X0184296Y0285845D01*
X0183644Y0286057D01*
X0183025Y0286155D01*
X0183025Y0282211D01*
X0182225Y0282211D01*
X0182225Y0286155D01*
X0181605Y0286057D01*
X0180954Y0285845D01*
X0180343Y0285534D01*
X0179789Y0285131D01*
X0179305Y0284647D01*
X0178902Y0284092D01*
X0178591Y0283482D01*
X0178379Y0282830D01*
X0178281Y0282211D01*
X0182225Y0282211D01*
X0182225Y0281411D01*
X0183025Y0281411D01*
X0183025Y0277467D01*
X0183644Y0277565D01*
X0184296Y0277777D01*
X0183025Y0277747D02*
X0182225Y0277747D01*
X0182225Y0277467D02*
X0182225Y0281411D01*
X0178281Y0281411D01*
X0178379Y0280792D01*
X0178591Y0280140D01*
X0178902Y0279530D01*
X0179305Y0278975D01*
X0179789Y0278491D01*
X0180343Y0278088D01*
X0180954Y0277777D01*
X0181605Y0277565D01*
X0182225Y0277467D01*
X0182225Y0278546D02*
X0183025Y0278546D01*
X0183025Y0279344D02*
X0182225Y0279344D01*
X0182225Y0280143D02*
X0183025Y0280143D01*
X0183025Y0280941D02*
X0182225Y0280941D01*
X0182225Y0281740D02*
X0177177Y0281740D01*
X0177177Y0282539D02*
X0178333Y0282539D01*
X0178544Y0283337D02*
X0176920Y0283337D01*
X0177177Y0282717D02*
X0176484Y0284390D01*
X0175204Y0285671D01*
X0173530Y0286364D01*
X0171719Y0286364D01*
X0170046Y0285671D01*
X0168765Y0284390D01*
X0168072Y0282717D01*
X0168072Y0280905D01*
X0168765Y0279232D01*
X0170046Y0277951D01*
X0171719Y0277258D01*
X0173530Y0277258D01*
X0175204Y0277951D01*
X0176484Y0279232D01*
X0177177Y0280905D01*
X0177177Y0282717D01*
X0176590Y0284136D02*
X0178933Y0284136D01*
X0179592Y0284934D02*
X0175940Y0284934D01*
X0175054Y0285733D02*
X0180733Y0285733D01*
X0182225Y0285733D02*
X0183025Y0285733D01*
X0183025Y0284934D02*
X0182225Y0284934D01*
X0182225Y0284136D02*
X0183025Y0284136D01*
X0183025Y0283337D02*
X0182225Y0283337D01*
X0182225Y0282539D02*
X0183025Y0282539D01*
X0183025Y0281740D02*
X0192333Y0281740D01*
X0192333Y0282539D02*
X0186916Y0282539D01*
X0186706Y0283337D02*
X0192333Y0283337D01*
X0192333Y0284136D02*
X0186316Y0284136D01*
X0185657Y0284934D02*
X0192333Y0284934D01*
X0192333Y0285733D02*
X0184516Y0285733D01*
X0186894Y0280941D02*
X0192333Y0280941D01*
X0192333Y0280143D02*
X0186659Y0280143D01*
X0186213Y0279344D02*
X0192333Y0279344D01*
X0192333Y0278546D02*
X0185515Y0278546D01*
X0181045Y0277747D02*
X0174711Y0277747D01*
X0175798Y0278546D02*
X0179734Y0278546D01*
X0179036Y0279344D02*
X0176531Y0279344D01*
X0176862Y0280143D02*
X0178590Y0280143D01*
X0178355Y0280941D02*
X0177177Y0280941D01*
X0170538Y0277747D02*
X0144403Y0277747D01*
X0144403Y0276949D02*
X0143603Y0276949D01*
X0143603Y0277474D02*
X0143603Y0272537D01*
X0136929Y0272537D01*
X0136572Y0272632D01*
X0136253Y0272817D01*
X0135993Y0273077D01*
X0135808Y0273397D01*
X0135713Y0273753D01*
X0135713Y0277474D01*
X0143603Y0277474D01*
X0143603Y0277747D02*
X0107985Y0277747D01*
X0107985Y0278274D02*
X0120796Y0278274D01*
X0120796Y0281995D01*
X0120701Y0282351D01*
X0120517Y0282671D01*
X0120256Y0282931D01*
X0119937Y0283116D01*
X0119581Y0283211D01*
X0107985Y0283211D01*
X0107985Y0278274D01*
X0107985Y0278546D02*
X0107185Y0278546D01*
X0107185Y0279344D02*
X0107985Y0279344D01*
X0107985Y0280143D02*
X0107185Y0280143D01*
X0107185Y0280941D02*
X0107985Y0280941D01*
X0107985Y0281740D02*
X0107185Y0281740D01*
X0107185Y0282539D02*
X0107985Y0282539D01*
X0105063Y0285733D02*
X0170195Y0285733D01*
X0169309Y0284934D02*
X0095333Y0284934D01*
X0095333Y0284136D02*
X0168660Y0284136D01*
X0168329Y0283337D02*
X0095333Y0283337D01*
X0095333Y0285733D02*
X0101604Y0285733D01*
X0099410Y0286531D02*
X0095333Y0286531D01*
X0095333Y0287330D02*
X0098006Y0287330D01*
X0098612Y0286822D02*
X0098612Y0286822D01*
X0097055Y0288128D02*
X0095333Y0288128D01*
X0095333Y0288927D02*
X0096103Y0288927D01*
X0096099Y0288930D02*
X0096099Y0288930D01*
X0095640Y0289725D02*
X0095333Y0289725D01*
X0107256Y0286531D02*
X0192333Y0286531D01*
X0192333Y0287330D02*
X0108660Y0287330D01*
X0108055Y0286822D02*
X0108055Y0286822D01*
X0109612Y0288128D02*
X0192333Y0288128D01*
X0192333Y0288927D02*
X0110564Y0288927D01*
X0110567Y0288930D02*
X0110567Y0288930D01*
X0110567Y0288930D01*
X0111027Y0289725D02*
X0192333Y0289725D01*
X0192333Y0290524D02*
X0111488Y0290524D01*
X0111949Y0291322D02*
X0192333Y0291322D01*
X0192333Y0292121D02*
X0112269Y0292121D01*
X0112410Y0292919D02*
X0192333Y0292919D01*
X0192333Y0293718D02*
X0112551Y0293718D01*
X0112691Y0294516D02*
X0192333Y0294516D01*
X0192333Y0295315D02*
X0112721Y0295315D01*
X0112777Y0295000D02*
X0112777Y0295000D01*
X0112580Y0296113D02*
X0192333Y0296113D01*
X0192333Y0296912D02*
X0112440Y0296912D01*
X0112299Y0297710D02*
X0192333Y0297710D01*
X0192333Y0298509D02*
X0112046Y0298509D01*
X0112207Y0298230D02*
X0112207Y0298230D01*
X0111585Y0299307D02*
X0192333Y0299307D01*
X0192333Y0300106D02*
X0111124Y0300106D01*
X0110663Y0300904D02*
X0192333Y0300904D01*
X0192333Y0301703D02*
X0109813Y0301703D01*
X0110567Y0301070D02*
X0110567Y0301070D01*
X0108862Y0302501D02*
X0192333Y0302501D01*
X0194333Y0302501D02*
X0311925Y0302501D01*
X0311719Y0302416D02*
X0310917Y0301614D01*
X0310483Y0300567D01*
X0310483Y0299433D01*
X0310917Y0298386D01*
X0311719Y0297584D01*
X0312766Y0297150D01*
X0313900Y0297150D01*
X0314298Y0297315D01*
X0313890Y0295000D01*
X0314459Y0291770D01*
X0316099Y0288930D01*
X0318612Y0286822D01*
X0321693Y0285700D01*
X0324973Y0285700D01*
X0328055Y0286822D01*
X0330567Y0288930D01*
X0331333Y0290256D01*
X0331333Y0037000D01*
X0252827Y0037000D01*
X0253633Y0038946D01*
X0253633Y0041054D01*
X0252826Y0043002D01*
X0251336Y0044493D01*
X0250112Y0045000D01*
X0251336Y0045507D01*
X0252826Y0046998D01*
X0253633Y0048946D01*
X0253633Y0051054D01*
X0252826Y0053002D01*
X0251336Y0054493D01*
X0250112Y0055000D01*
X0251336Y0055507D01*
X0252826Y0056998D01*
X0253633Y0058946D01*
X0253633Y0061054D01*
X0252826Y0063002D01*
X0251336Y0064493D01*
X0250112Y0065000D01*
X0251336Y0065507D01*
X0252826Y0066998D01*
X0253633Y0068946D01*
X0253633Y0071054D01*
X0252826Y0073002D01*
X0251336Y0074493D01*
X0250112Y0075000D01*
X0251336Y0075507D01*
X0252826Y0076998D01*
X0253633Y0078946D01*
X0253633Y0081054D01*
X0252826Y0083002D01*
X0251336Y0084493D01*
X0250112Y0085000D01*
X0251336Y0085507D01*
X0252826Y0086998D01*
X0253633Y0088946D01*
X0253633Y0091054D01*
X0252826Y0093002D01*
X0251336Y0094493D01*
X0250112Y0095000D01*
X0251336Y0095507D01*
X0252826Y0096998D01*
X0253633Y0098946D01*
X0253633Y0101054D01*
X0252826Y0103002D01*
X0251336Y0104493D01*
X0250112Y0105000D01*
X0251336Y0105507D01*
X0252826Y0106998D01*
X0253633Y0108946D01*
X0253633Y0111054D01*
X0252826Y0113002D01*
X0251336Y0114493D01*
X0250112Y0115000D01*
X0251336Y0115507D01*
X0252826Y0116998D01*
X0253633Y0118946D01*
X0253633Y0121054D01*
X0252826Y0123002D01*
X0251336Y0124493D01*
X0250112Y0125000D01*
X0251336Y0125507D01*
X0252826Y0126998D01*
X0253633Y0128946D01*
X0253633Y0131054D01*
X0252826Y0133002D01*
X0251336Y0134493D01*
X0250112Y0135000D01*
X0251336Y0135507D01*
X0252826Y0136998D01*
X0253633Y0138946D01*
X0253633Y0141054D01*
X0252826Y0143002D01*
X0251336Y0144493D01*
X0250112Y0145000D01*
X0251336Y0145507D01*
X0252826Y0146998D01*
X0253633Y0148946D01*
X0253633Y0151054D01*
X0252826Y0153002D01*
X0251336Y0154493D01*
X0249388Y0155300D01*
X0247279Y0155300D01*
X0245331Y0154493D01*
X0243840Y0153002D01*
X0243833Y0152986D01*
X0243833Y0197328D01*
X0240333Y0200828D01*
X0239162Y0202000D01*
X0228614Y0202000D01*
X0228614Y0207001D01*
X0227677Y0207939D01*
X0223989Y0207939D01*
X0223333Y0207282D01*
X0222833Y0207782D01*
X0222833Y0208828D01*
X0221833Y0209828D01*
X0220662Y0211000D01*
X0220647Y0211000D01*
X0220061Y0211586D01*
X0218940Y0212050D01*
X0217727Y0212050D01*
X0216606Y0211586D01*
X0216020Y0211000D01*
X0216005Y0211000D01*
X0214833Y0209828D01*
X0213833Y0208828D01*
X0213833Y0207782D01*
X0213333Y0207282D01*
X0212677Y0207939D01*
X0208989Y0207939D01*
X0208052Y0207001D01*
X0208052Y0200951D01*
X0208833Y0200170D01*
X0208833Y0199612D01*
X0208202Y0199612D01*
X0207265Y0198675D01*
X0207265Y0193018D01*
X0207783Y0192500D01*
X0207265Y0191982D01*
X0207265Y0191000D01*
X0205162Y0191000D01*
X0204162Y0192000D01*
X0194333Y0192000D01*
X0194333Y0303000D01*
X0318399Y0303000D01*
X0316099Y0301070D01*
X0316027Y0300945D01*
X0315749Y0301614D01*
X0314948Y0302416D01*
X0313900Y0302850D01*
X0312766Y0302850D01*
X0311719Y0302416D01*
X0311006Y0301703D02*
X0194333Y0301703D01*
X0194333Y0300904D02*
X0310623Y0300904D01*
X0310483Y0300106D02*
X0194333Y0300106D01*
X0194333Y0299307D02*
X0310535Y0299307D01*
X0310866Y0298509D02*
X0194333Y0298509D01*
X0194333Y0297710D02*
X0311593Y0297710D01*
X0314227Y0296912D02*
X0194333Y0296912D01*
X0194333Y0296113D02*
X0314086Y0296113D01*
X0313945Y0295315D02*
X0194333Y0295315D01*
X0194333Y0294516D02*
X0313975Y0294516D01*
X0313890Y0295000D02*
X0313890Y0295000D01*
X0314116Y0293718D02*
X0194333Y0293718D01*
X0194333Y0292919D02*
X0314257Y0292919D01*
X0314398Y0292121D02*
X0194333Y0292121D01*
X0194333Y0291322D02*
X0314718Y0291322D01*
X0314459Y0291770D02*
X0314459Y0291770D01*
X0315179Y0290524D02*
X0194333Y0290524D01*
X0194333Y0289725D02*
X0315640Y0289725D01*
X0316099Y0288930D02*
X0316099Y0288930D01*
X0316103Y0288927D02*
X0194333Y0288927D01*
X0194333Y0288128D02*
X0317055Y0288128D01*
X0318006Y0287330D02*
X0194333Y0287330D01*
X0194333Y0286531D02*
X0319410Y0286531D01*
X0318612Y0286822D02*
X0318612Y0286822D01*
X0321604Y0285733D02*
X0225054Y0285733D01*
X0225204Y0285671D02*
X0223530Y0286364D01*
X0221719Y0286364D01*
X0220046Y0285671D01*
X0218765Y0284390D01*
X0218072Y0282717D01*
X0218072Y0280905D01*
X0218765Y0279232D01*
X0220046Y0277951D01*
X0221719Y0277258D01*
X0223530Y0277258D01*
X0224109Y0277498D01*
X0237436Y0264172D01*
X0238607Y0263000D01*
X0242505Y0263000D01*
X0243035Y0262470D01*
X0242106Y0262086D01*
X0241520Y0261500D01*
X0241498Y0261500D01*
X0240630Y0262368D01*
X0236037Y0262368D01*
X0235099Y0261430D01*
X0235099Y0259562D01*
X0234462Y0260200D01*
X0232346Y0260200D01*
X0231496Y0261050D01*
X0225171Y0261050D01*
X0224233Y0260113D01*
X0224233Y0257000D01*
X0222505Y0257000D01*
X0221333Y0255828D01*
X0220005Y0254500D01*
X0220005Y0254500D01*
X0218833Y0253328D01*
X0218833Y0229830D01*
X0218333Y0229330D01*
X0217833Y0229830D01*
X0217833Y0253328D01*
X0216662Y0254500D01*
X0214162Y0257000D01*
X0212433Y0257000D01*
X0212433Y0260113D01*
X0211496Y0261050D01*
X0205171Y0261050D01*
X0204321Y0260200D01*
X0202205Y0260200D01*
X0201567Y0259562D01*
X0201567Y0261430D01*
X0200630Y0262368D01*
X0200333Y0262368D01*
X0200333Y0263687D01*
X0200919Y0264272D01*
X0201383Y0265393D01*
X0201383Y0266607D01*
X0200919Y0267728D01*
X0200061Y0268586D01*
X0198940Y0269050D01*
X0197727Y0269050D01*
X0196606Y0268586D01*
X0195748Y0267728D01*
X0195283Y0266607D01*
X0195283Y0265393D01*
X0195748Y0264272D01*
X0196333Y0263687D01*
X0196333Y0262368D01*
X0196037Y0262368D01*
X0195099Y0261430D01*
X0195099Y0257625D01*
X0196037Y0256687D01*
X0198692Y0256687D01*
X0197505Y0255500D01*
X0196333Y0254328D01*
X0196333Y0253313D01*
X0196037Y0253313D01*
X0195099Y0252375D01*
X0195099Y0248570D01*
X0196037Y0247632D01*
X0200630Y0247632D01*
X0201567Y0248570D01*
X0201567Y0248723D01*
X0202227Y0248450D01*
X0203440Y0248450D01*
X0204561Y0248914D01*
X0204884Y0249237D01*
X0205171Y0248950D01*
X0211496Y0248950D01*
X0212433Y0249887D01*
X0212433Y0253000D01*
X0212505Y0253000D01*
X0213833Y0251672D01*
X0213833Y0248568D01*
X0208852Y0248568D01*
X0208192Y0247909D01*
X0208012Y0248089D01*
X0207693Y0248273D01*
X0207337Y0248368D01*
X0205387Y0248368D01*
X0205387Y0245400D01*
X0204587Y0245400D01*
X0204587Y0248368D01*
X0202637Y0248368D01*
X0202281Y0248273D01*
X0201962Y0248089D01*
X0201701Y0247828D01*
X0201517Y0247509D01*
X0201422Y0247153D01*
X0201422Y0245400D01*
X0204587Y0245400D01*
X0204587Y0244600D01*
X0205387Y0244600D01*
X0205387Y0241631D01*
X0207136Y0241631D01*
X0205390Y0239885D01*
X0204388Y0240300D01*
X0202279Y0240300D01*
X0200331Y0239493D01*
X0198840Y0238002D01*
X0198033Y0236054D01*
X0198033Y0233946D01*
X0198840Y0231998D01*
X0200331Y0230507D01*
X0202279Y0229700D01*
X0204388Y0229700D01*
X0206336Y0230507D01*
X0207826Y0231998D01*
X0208633Y0233946D01*
X0208633Y0236054D01*
X0208218Y0237056D01*
X0209162Y0238000D01*
X0213833Y0238000D01*
X0213833Y0229830D01*
X0213333Y0229330D01*
X0212677Y0229986D01*
X0208989Y0229986D01*
X0208052Y0229049D01*
X0208052Y0222999D01*
X0208833Y0222218D01*
X0208833Y0221672D01*
X0212987Y0217518D01*
X0214158Y0216346D01*
X0229765Y0216346D01*
X0229765Y0215518D01*
X0230425Y0214859D01*
X0230245Y0214679D01*
X0230060Y0214359D01*
X0229965Y0214003D01*
X0229965Y0212054D01*
X0232933Y0212054D01*
X0232933Y0211254D01*
X0229965Y0211254D01*
X0229965Y0209304D01*
X0230060Y0208948D01*
X0230245Y0208629D01*
X0230505Y0208368D01*
X0230824Y0208184D01*
X0231180Y0208088D01*
X0232933Y0208088D01*
X0232933Y0211253D01*
X0233733Y0211253D01*
X0233733Y0208088D01*
X0235486Y0208088D01*
X0235842Y0208184D01*
X0236161Y0208368D01*
X0236422Y0208629D01*
X0236606Y0208948D01*
X0236702Y0209304D01*
X0236702Y0211254D01*
X0233733Y0211254D01*
X0233733Y0212054D01*
X0236702Y0212054D01*
X0236702Y0214003D01*
X0236606Y0214359D01*
X0236422Y0214679D01*
X0236242Y0214859D01*
X0236902Y0215518D01*
X0236902Y0221175D01*
X0235965Y0222112D01*
X0235333Y0222112D01*
X0235333Y0222687D01*
X0235919Y0223272D01*
X0236383Y0224393D01*
X0236383Y0225222D01*
X0240333Y0229172D01*
X0240333Y0244172D01*
X0250333Y0254172D01*
X0250333Y0260828D01*
X0249162Y0262000D01*
X0244162Y0267000D01*
X0240264Y0267000D01*
X0226938Y0280326D01*
X0227177Y0280905D01*
X0227177Y0282717D01*
X0226484Y0284390D01*
X0225204Y0285671D01*
X0225940Y0284934D02*
X0288139Y0284934D01*
X0289262Y0285399D02*
X0286359Y0284197D01*
X0284137Y0281975D01*
X0282934Y0279071D01*
X0282934Y0275929D01*
X0284137Y0273025D01*
X0286359Y0270803D01*
X0289262Y0269601D01*
X0292405Y0269601D01*
X0295308Y0270803D01*
X0297530Y0273025D01*
X0298733Y0275929D01*
X0298733Y0279071D01*
X0297530Y0281975D01*
X0295308Y0284197D01*
X0292405Y0285399D01*
X0289262Y0285399D01*
X0286298Y0284136D02*
X0226590Y0284136D01*
X0226920Y0283337D02*
X0285499Y0283337D01*
X0284701Y0282539D02*
X0227177Y0282539D01*
X0227177Y0281740D02*
X0284040Y0281740D01*
X0283709Y0280941D02*
X0227177Y0280941D01*
X0227121Y0280143D02*
X0283378Y0280143D01*
X0283047Y0279344D02*
X0227920Y0279344D01*
X0228718Y0278546D02*
X0282934Y0278546D01*
X0282934Y0277747D02*
X0257014Y0277747D01*
X0256888Y0277800D02*
X0254779Y0277800D01*
X0252831Y0276993D01*
X0251340Y0275502D01*
X0250533Y0273554D01*
X0250533Y0271446D01*
X0251340Y0269498D01*
X0252831Y0268007D01*
X0254055Y0267500D01*
X0252831Y0266993D01*
X0251340Y0265502D01*
X0250533Y0263554D01*
X0250533Y0261446D01*
X0251340Y0259498D01*
X0252831Y0258007D01*
X0254055Y0257500D01*
X0252831Y0256993D01*
X0251340Y0255502D01*
X0250533Y0253554D01*
X0250533Y0251446D01*
X0251340Y0249498D01*
X0252831Y0248007D01*
X0254055Y0247500D01*
X0252831Y0246993D01*
X0251340Y0245502D01*
X0250533Y0243554D01*
X0250533Y0241446D01*
X0251340Y0239498D01*
X0252831Y0238007D01*
X0254779Y0237200D01*
X0256888Y0237200D01*
X0258836Y0238007D01*
X0260326Y0239498D01*
X0260533Y0239997D01*
X0260533Y0233137D01*
X0261471Y0232200D01*
X0270196Y0232200D01*
X0271133Y0233137D01*
X0271133Y0241863D01*
X0270196Y0242800D01*
X0268336Y0242800D01*
X0268836Y0243007D01*
X0270326Y0244498D01*
X0271133Y0246446D01*
X0271133Y0248554D01*
X0270326Y0250502D01*
X0268836Y0251993D01*
X0267612Y0252500D01*
X0268836Y0253007D01*
X0270326Y0254498D01*
X0271133Y0256446D01*
X0271133Y0258554D01*
X0270326Y0260502D01*
X0268836Y0261993D01*
X0267612Y0262500D01*
X0268836Y0263007D01*
X0270326Y0264498D01*
X0271133Y0266446D01*
X0271133Y0268554D01*
X0270326Y0270502D01*
X0268836Y0271993D01*
X0266888Y0272800D01*
X0264779Y0272800D01*
X0262831Y0271993D01*
X0261340Y0270502D01*
X0260533Y0268554D01*
X0260533Y0266446D01*
X0261340Y0264498D01*
X0262831Y0263007D01*
X0264055Y0262500D01*
X0262831Y0261993D01*
X0261340Y0260502D01*
X0260533Y0258554D01*
X0260533Y0256446D01*
X0261340Y0254498D01*
X0262831Y0253007D01*
X0264055Y0252500D01*
X0262831Y0251993D01*
X0261340Y0250502D01*
X0260533Y0248554D01*
X0260533Y0246446D01*
X0261340Y0244498D01*
X0262831Y0243007D01*
X0263331Y0242800D01*
X0261471Y0242800D01*
X0261133Y0242463D01*
X0261133Y0243554D01*
X0260326Y0245502D01*
X0258836Y0246993D01*
X0257612Y0247500D01*
X0258836Y0248007D01*
X0260326Y0249498D01*
X0261133Y0251446D01*
X0261133Y0253554D01*
X0260326Y0255502D01*
X0258836Y0256993D01*
X0257612Y0257500D01*
X0258836Y0258007D01*
X0260326Y0259498D01*
X0261133Y0261446D01*
X0261133Y0263554D01*
X0260326Y0265502D01*
X0258836Y0266993D01*
X0257612Y0267500D01*
X0258836Y0268007D01*
X0260326Y0269498D01*
X0261133Y0271446D01*
X0261133Y0273554D01*
X0260326Y0275502D01*
X0258836Y0276993D01*
X0256888Y0277800D01*
X0258880Y0276949D02*
X0282934Y0276949D01*
X0282934Y0276150D02*
X0259678Y0276150D01*
X0260389Y0275352D02*
X0283173Y0275352D01*
X0283504Y0274553D02*
X0260719Y0274553D01*
X0261050Y0273755D02*
X0283835Y0273755D01*
X0284206Y0272956D02*
X0261133Y0272956D01*
X0261133Y0272158D02*
X0263229Y0272158D01*
X0262197Y0271359D02*
X0261098Y0271359D01*
X0261399Y0270561D02*
X0260767Y0270561D01*
X0261034Y0269762D02*
X0260436Y0269762D01*
X0260703Y0268964D02*
X0259792Y0268964D01*
X0260533Y0268165D02*
X0258994Y0268165D01*
X0257933Y0267367D02*
X0260533Y0267367D01*
X0260533Y0266568D02*
X0259260Y0266568D01*
X0260059Y0265770D02*
X0260813Y0265770D01*
X0260546Y0264971D02*
X0261144Y0264971D01*
X0260877Y0264173D02*
X0261665Y0264173D01*
X0261133Y0263374D02*
X0262464Y0263374D01*
X0261133Y0262576D02*
X0263872Y0262576D01*
X0262615Y0261777D02*
X0261133Y0261777D01*
X0260940Y0260979D02*
X0261817Y0260979D01*
X0261207Y0260180D02*
X0260609Y0260180D01*
X0260876Y0259382D02*
X0260210Y0259382D01*
X0260545Y0258583D02*
X0259412Y0258583D01*
X0258299Y0257785D02*
X0260533Y0257785D01*
X0260533Y0256986D02*
X0258842Y0256986D01*
X0259641Y0256188D02*
X0260640Y0256188D01*
X0260373Y0255389D02*
X0260971Y0255389D01*
X0260704Y0254591D02*
X0261302Y0254591D01*
X0261035Y0253792D02*
X0262046Y0253792D01*
X0262863Y0252994D02*
X0261133Y0252994D01*
X0261133Y0252195D02*
X0263319Y0252195D01*
X0262235Y0251397D02*
X0261113Y0251397D01*
X0261436Y0250598D02*
X0260782Y0250598D01*
X0261049Y0249800D02*
X0260451Y0249800D01*
X0260718Y0249001D02*
X0259830Y0249001D01*
X0260533Y0248203D02*
X0259031Y0248203D01*
X0257844Y0247404D02*
X0260533Y0247404D01*
X0260533Y0246605D02*
X0259223Y0246605D01*
X0260022Y0245807D02*
X0260798Y0245807D01*
X0260531Y0245008D02*
X0261129Y0245008D01*
X0260862Y0244210D02*
X0261628Y0244210D01*
X0261133Y0243411D02*
X0262427Y0243411D01*
X0261284Y0242613D02*
X0261133Y0242613D01*
X0260533Y0239419D02*
X0260248Y0239419D01*
X0260533Y0238620D02*
X0259449Y0238620D01*
X0258389Y0237822D02*
X0260533Y0237822D01*
X0260533Y0237023D02*
X0240333Y0237023D01*
X0240333Y0236225D02*
X0260533Y0236225D01*
X0260533Y0235426D02*
X0240333Y0235426D01*
X0240333Y0234628D02*
X0260533Y0234628D01*
X0260533Y0233829D02*
X0240333Y0233829D01*
X0240333Y0233031D02*
X0260640Y0233031D01*
X0261438Y0232232D02*
X0240333Y0232232D01*
X0240333Y0231434D02*
X0282934Y0231434D01*
X0282934Y0230929D02*
X0284137Y0228025D01*
X0286359Y0225803D01*
X0289262Y0224601D01*
X0292405Y0224601D01*
X0295308Y0225803D01*
X0297530Y0228025D01*
X0298733Y0230929D01*
X0298733Y0234071D01*
X0297530Y0236975D01*
X0295308Y0239197D01*
X0292405Y0240399D01*
X0289262Y0240399D01*
X0286359Y0239197D01*
X0284137Y0236975D01*
X0282934Y0234071D01*
X0282934Y0230929D01*
X0283056Y0230635D02*
X0240333Y0230635D01*
X0240333Y0229837D02*
X0283386Y0229837D01*
X0283717Y0229038D02*
X0240200Y0229038D01*
X0239401Y0228240D02*
X0284048Y0228240D01*
X0284721Y0227441D02*
X0238603Y0227441D01*
X0237804Y0226643D02*
X0285519Y0226643D01*
X0286318Y0225844D02*
X0237006Y0225844D01*
X0236383Y0225046D02*
X0288188Y0225046D01*
X0293479Y0225046D02*
X0331333Y0225046D01*
X0331333Y0225844D02*
X0295349Y0225844D01*
X0296147Y0226643D02*
X0331333Y0226643D01*
X0331333Y0227441D02*
X0296946Y0227441D01*
X0297619Y0228240D02*
X0331333Y0228240D01*
X0331333Y0229038D02*
X0297949Y0229038D01*
X0298280Y0229837D02*
X0331333Y0229837D01*
X0331333Y0230635D02*
X0298611Y0230635D01*
X0298733Y0231434D02*
X0331333Y0231434D01*
X0331333Y0232232D02*
X0298733Y0232232D01*
X0298733Y0233031D02*
X0331333Y0233031D01*
X0331333Y0233829D02*
X0298733Y0233829D01*
X0298502Y0234628D02*
X0331333Y0234628D01*
X0331333Y0235426D02*
X0298171Y0235426D01*
X0297840Y0236225D02*
X0331333Y0236225D01*
X0331333Y0237023D02*
X0297481Y0237023D01*
X0296683Y0237822D02*
X0331333Y0237822D01*
X0331333Y0238620D02*
X0295884Y0238620D01*
X0294771Y0239419D02*
X0331333Y0239419D01*
X0331333Y0240217D02*
X0292843Y0240217D01*
X0288823Y0240217D02*
X0271133Y0240217D01*
X0271133Y0239419D02*
X0286895Y0239419D01*
X0285783Y0238620D02*
X0271133Y0238620D01*
X0271133Y0237822D02*
X0284984Y0237822D01*
X0284186Y0237023D02*
X0271133Y0237023D01*
X0271133Y0236225D02*
X0283826Y0236225D01*
X0283495Y0235426D02*
X0271133Y0235426D01*
X0271133Y0234628D02*
X0283165Y0234628D01*
X0282934Y0233829D02*
X0271133Y0233829D01*
X0271027Y0233031D02*
X0282934Y0233031D01*
X0282934Y0232232D02*
X0270228Y0232232D01*
X0271133Y0241016D02*
X0331333Y0241016D01*
X0331333Y0241814D02*
X0271133Y0241814D01*
X0270383Y0242613D02*
X0331333Y0242613D01*
X0331333Y0243411D02*
X0269240Y0243411D01*
X0270039Y0244210D02*
X0331333Y0244210D01*
X0331333Y0245008D02*
X0270538Y0245008D01*
X0270869Y0245807D02*
X0331333Y0245807D01*
X0331333Y0246605D02*
X0271133Y0246605D01*
X0271133Y0247404D02*
X0331333Y0247404D01*
X0331333Y0248203D02*
X0271133Y0248203D01*
X0270948Y0249001D02*
X0331333Y0249001D01*
X0331333Y0249800D02*
X0270617Y0249800D01*
X0270231Y0250598D02*
X0331333Y0250598D01*
X0331333Y0251397D02*
X0269432Y0251397D01*
X0268348Y0252195D02*
X0331333Y0252195D01*
X0331333Y0252994D02*
X0268803Y0252994D01*
X0269621Y0253792D02*
X0331333Y0253792D01*
X0331333Y0254591D02*
X0270365Y0254591D01*
X0270696Y0255389D02*
X0331333Y0255389D01*
X0331333Y0256188D02*
X0271026Y0256188D01*
X0271133Y0256986D02*
X0331333Y0256986D01*
X0331333Y0257785D02*
X0271133Y0257785D01*
X0271121Y0258583D02*
X0331333Y0258583D01*
X0331333Y0259382D02*
X0270791Y0259382D01*
X0270460Y0260180D02*
X0331333Y0260180D01*
X0331333Y0260979D02*
X0269850Y0260979D01*
X0269051Y0261777D02*
X0331333Y0261777D01*
X0331333Y0262576D02*
X0267795Y0262576D01*
X0269203Y0263374D02*
X0331333Y0263374D01*
X0331333Y0264173D02*
X0270001Y0264173D01*
X0270523Y0264971D02*
X0331333Y0264971D01*
X0331333Y0265770D02*
X0270853Y0265770D01*
X0271133Y0266568D02*
X0331333Y0266568D01*
X0331333Y0267367D02*
X0271133Y0267367D01*
X0271133Y0268165D02*
X0331333Y0268165D01*
X0331333Y0268964D02*
X0270964Y0268964D01*
X0270633Y0269762D02*
X0288872Y0269762D01*
X0286944Y0270561D02*
X0270268Y0270561D01*
X0269469Y0271359D02*
X0285803Y0271359D01*
X0285004Y0272158D02*
X0268438Y0272158D01*
X0254652Y0277747D02*
X0229517Y0277747D01*
X0230315Y0276949D02*
X0252787Y0276949D01*
X0251988Y0276150D02*
X0231114Y0276150D01*
X0231912Y0275352D02*
X0251278Y0275352D01*
X0250947Y0274553D02*
X0232711Y0274553D01*
X0233509Y0273755D02*
X0250616Y0273755D01*
X0250533Y0272956D02*
X0234308Y0272956D01*
X0235106Y0272158D02*
X0250533Y0272158D01*
X0250569Y0271359D02*
X0235905Y0271359D01*
X0236703Y0270561D02*
X0250900Y0270561D01*
X0251231Y0269762D02*
X0237502Y0269762D01*
X0238300Y0268964D02*
X0251874Y0268964D01*
X0252673Y0268165D02*
X0239099Y0268165D01*
X0239897Y0267367D02*
X0253733Y0267367D01*
X0252406Y0266568D02*
X0244593Y0266568D01*
X0245392Y0265770D02*
X0251608Y0265770D01*
X0251120Y0264971D02*
X0246190Y0264971D01*
X0246989Y0264173D02*
X0250790Y0264173D01*
X0250533Y0263374D02*
X0247787Y0263374D01*
X0248586Y0262576D02*
X0250533Y0262576D01*
X0250533Y0261777D02*
X0249385Y0261777D01*
X0250183Y0260979D02*
X0250727Y0260979D01*
X0251058Y0260180D02*
X0250333Y0260180D01*
X0250333Y0259382D02*
X0251456Y0259382D01*
X0252255Y0258583D02*
X0250333Y0258583D01*
X0250333Y0257785D02*
X0253368Y0257785D01*
X0252824Y0256986D02*
X0250333Y0256986D01*
X0250333Y0256188D02*
X0252026Y0256188D01*
X0251293Y0255389D02*
X0250333Y0255389D01*
X0250333Y0254591D02*
X0250963Y0254591D01*
X0250632Y0253792D02*
X0249954Y0253792D01*
X0250533Y0252994D02*
X0249155Y0252994D01*
X0248357Y0252195D02*
X0250533Y0252195D01*
X0250554Y0251397D02*
X0247558Y0251397D01*
X0246760Y0250598D02*
X0250884Y0250598D01*
X0251215Y0249800D02*
X0245961Y0249800D01*
X0245163Y0249001D02*
X0251837Y0249001D01*
X0252635Y0248203D02*
X0244364Y0248203D01*
X0243566Y0247404D02*
X0253823Y0247404D01*
X0252444Y0246605D02*
X0242767Y0246605D01*
X0241969Y0245807D02*
X0251645Y0245807D01*
X0251136Y0245008D02*
X0241170Y0245008D01*
X0240372Y0244210D02*
X0250805Y0244210D01*
X0250533Y0243411D02*
X0240333Y0243411D01*
X0240333Y0242613D02*
X0250533Y0242613D01*
X0250533Y0241814D02*
X0240333Y0241814D01*
X0240333Y0241016D02*
X0250711Y0241016D01*
X0251042Y0240217D02*
X0240333Y0240217D01*
X0240333Y0239419D02*
X0251419Y0239419D01*
X0252218Y0238620D02*
X0240333Y0238620D01*
X0240333Y0237822D02*
X0253278Y0237822D01*
X0238333Y0245000D02*
X0238333Y0230000D01*
X0233333Y0225000D01*
X0233333Y0218346D01*
X0214987Y0218346D01*
X0210833Y0222500D01*
X0210833Y0226024D01*
X0208052Y0225844D02*
X0194333Y0225844D01*
X0194333Y0225046D02*
X0208052Y0225046D01*
X0208052Y0224247D02*
X0194333Y0224247D01*
X0194333Y0223449D02*
X0208052Y0223449D01*
X0208401Y0222650D02*
X0194333Y0222650D01*
X0194333Y0221852D02*
X0208833Y0221852D01*
X0209452Y0221053D02*
X0194333Y0221053D01*
X0194333Y0220255D02*
X0210250Y0220255D01*
X0211049Y0219456D02*
X0194333Y0219456D01*
X0194333Y0218658D02*
X0211847Y0218658D01*
X0212646Y0217859D02*
X0194333Y0217859D01*
X0194333Y0217061D02*
X0213444Y0217061D01*
X0215815Y0220346D02*
X0214100Y0222061D01*
X0217677Y0222061D01*
X0218333Y0222718D01*
X0218989Y0222061D01*
X0222677Y0222061D01*
X0223490Y0222874D01*
X0223532Y0222802D01*
X0223793Y0222541D01*
X0224112Y0222357D01*
X0224468Y0222261D01*
X0225643Y0222261D01*
X0225643Y0225833D01*
X0226024Y0225833D01*
X0226024Y0226214D01*
X0228414Y0226214D01*
X0228414Y0228570D01*
X0228319Y0228926D01*
X0228135Y0229245D01*
X0227874Y0229506D01*
X0227555Y0229690D01*
X0227199Y0229786D01*
X0226024Y0229786D01*
X0226024Y0226214D01*
X0225643Y0226214D01*
X0225643Y0229786D01*
X0224468Y0229786D01*
X0224112Y0229690D01*
X0223793Y0229506D01*
X0223532Y0229245D01*
X0223490Y0229173D01*
X0222833Y0229830D01*
X0222833Y0238000D01*
X0227505Y0238000D01*
X0228448Y0237056D01*
X0228033Y0236054D01*
X0228033Y0233946D01*
X0228840Y0231998D01*
X0230331Y0230507D01*
X0232279Y0229700D01*
X0234388Y0229700D01*
X0235783Y0230278D01*
X0233555Y0228050D01*
X0232727Y0228050D01*
X0231606Y0227586D01*
X0230748Y0226728D01*
X0230283Y0225607D01*
X0230283Y0224393D01*
X0230748Y0223272D01*
X0231333Y0222687D01*
X0231333Y0222112D01*
X0230702Y0222112D01*
X0229765Y0221175D01*
X0229765Y0220346D01*
X0215815Y0220346D01*
X0215109Y0221053D02*
X0229765Y0221053D01*
X0230442Y0221852D02*
X0214310Y0221852D01*
X0218266Y0222650D02*
X0218401Y0222650D01*
X0220833Y0226024D02*
X0220833Y0240000D01*
X0220833Y0245000D01*
X0224987Y0245000D01*
X0220833Y0245000D02*
X0220833Y0252500D01*
X0223333Y0255000D01*
X0228333Y0255000D01*
X0228333Y0251800D02*
X0233533Y0251800D01*
X0233833Y0251500D01*
X0238333Y0250472D02*
X0238333Y0253500D01*
X0233633Y0258200D01*
X0228333Y0258200D01*
X0224233Y0258583D02*
X0212433Y0258583D01*
X0212433Y0257785D02*
X0224233Y0257785D01*
X0224233Y0259382D02*
X0212433Y0259382D01*
X0212366Y0260180D02*
X0224301Y0260180D01*
X0225099Y0260979D02*
X0211567Y0260979D01*
X0208333Y0258200D02*
X0203033Y0258200D01*
X0198333Y0253500D01*
X0198333Y0250472D01*
X0195099Y0250598D02*
X0194333Y0250598D01*
X0194333Y0249800D02*
X0195099Y0249800D01*
X0195099Y0249001D02*
X0194333Y0249001D01*
X0194333Y0248203D02*
X0195466Y0248203D01*
X0194333Y0247404D02*
X0201489Y0247404D01*
X0201422Y0246605D02*
X0194333Y0246605D01*
X0194333Y0245807D02*
X0201422Y0245807D01*
X0201422Y0244600D02*
X0201422Y0242847D01*
X0201517Y0242491D01*
X0201701Y0242172D01*
X0201962Y0241911D01*
X0202281Y0241727D01*
X0202637Y0241631D01*
X0204587Y0241631D01*
X0204587Y0244600D01*
X0201422Y0244600D01*
X0201422Y0244210D02*
X0194333Y0244210D01*
X0194333Y0245008D02*
X0204587Y0245008D01*
X0204587Y0244210D02*
X0205387Y0244210D01*
X0205387Y0243411D02*
X0204587Y0243411D01*
X0204587Y0242613D02*
X0205387Y0242613D01*
X0205387Y0241814D02*
X0204587Y0241814D01*
X0204587Y0240217D02*
X0205722Y0240217D01*
X0206521Y0241016D02*
X0194333Y0241016D01*
X0194333Y0241814D02*
X0202130Y0241814D01*
X0201484Y0242613D02*
X0194333Y0242613D01*
X0194333Y0243411D02*
X0201422Y0243411D01*
X0202080Y0240217D02*
X0194333Y0240217D01*
X0194333Y0239419D02*
X0200257Y0239419D01*
X0199458Y0238620D02*
X0194333Y0238620D01*
X0194333Y0237822D02*
X0198766Y0237822D01*
X0198435Y0237023D02*
X0194333Y0237023D01*
X0194333Y0236225D02*
X0198104Y0236225D01*
X0198033Y0235426D02*
X0194333Y0235426D01*
X0194333Y0234628D02*
X0198033Y0234628D01*
X0198082Y0233829D02*
X0194333Y0233829D01*
X0194333Y0233031D02*
X0198412Y0233031D01*
X0198743Y0232232D02*
X0194333Y0232232D01*
X0194333Y0231434D02*
X0199404Y0231434D01*
X0200203Y0230635D02*
X0194333Y0230635D01*
X0194333Y0229837D02*
X0201949Y0229837D01*
X0204718Y0229837D02*
X0208840Y0229837D01*
X0208052Y0229038D02*
X0194333Y0229038D01*
X0194333Y0228240D02*
X0208052Y0228240D01*
X0208052Y0227441D02*
X0194333Y0227441D01*
X0194333Y0226643D02*
X0208052Y0226643D01*
X0206464Y0230635D02*
X0213833Y0230635D01*
X0213833Y0229837D02*
X0212826Y0229837D01*
X0213833Y0231434D02*
X0207262Y0231434D01*
X0207924Y0232232D02*
X0213833Y0232232D01*
X0213833Y0233031D02*
X0208254Y0233031D01*
X0208585Y0233829D02*
X0213833Y0233829D01*
X0213833Y0234628D02*
X0208633Y0234628D01*
X0208633Y0235426D02*
X0213833Y0235426D01*
X0213833Y0236225D02*
X0208563Y0236225D01*
X0208232Y0237023D02*
X0213833Y0237023D01*
X0213833Y0237822D02*
X0208984Y0237822D01*
X0208333Y0240000D02*
X0203333Y0235000D01*
X0208333Y0240000D02*
X0215833Y0240000D01*
X0215833Y0226024D01*
X0223266Y0222650D02*
X0223684Y0222650D01*
X0225643Y0222650D02*
X0226024Y0222650D01*
X0226024Y0222261D02*
X0227199Y0222261D01*
X0227555Y0222357D01*
X0227874Y0222541D01*
X0228135Y0222802D01*
X0228319Y0223121D01*
X0228414Y0223477D01*
X0228414Y0225833D01*
X0226024Y0225833D01*
X0226024Y0222261D01*
X0226024Y0223449D02*
X0225643Y0223449D01*
X0225643Y0224247D02*
X0226024Y0224247D01*
X0226024Y0225046D02*
X0225643Y0225046D01*
X0226024Y0225844D02*
X0230382Y0225844D01*
X0230283Y0225046D02*
X0228414Y0225046D01*
X0228414Y0224247D02*
X0230344Y0224247D01*
X0230675Y0223449D02*
X0228407Y0223449D01*
X0227983Y0222650D02*
X0231333Y0222650D01*
X0235333Y0222650D02*
X0331333Y0222650D01*
X0331333Y0221852D02*
X0236225Y0221852D01*
X0236902Y0221053D02*
X0331333Y0221053D01*
X0331333Y0220255D02*
X0236902Y0220255D01*
X0236902Y0219456D02*
X0331333Y0219456D01*
X0331333Y0218658D02*
X0236902Y0218658D01*
X0236902Y0217859D02*
X0331333Y0217859D01*
X0331333Y0217061D02*
X0236902Y0217061D01*
X0236902Y0216262D02*
X0331333Y0216262D01*
X0331333Y0215464D02*
X0236847Y0215464D01*
X0236430Y0214665D02*
X0331333Y0214665D01*
X0331333Y0213867D02*
X0236702Y0213867D01*
X0236702Y0213068D02*
X0331333Y0213068D01*
X0331333Y0212270D02*
X0236702Y0212270D01*
X0236702Y0210672D02*
X0331333Y0210672D01*
X0331333Y0209874D02*
X0236702Y0209874D01*
X0236641Y0209075D02*
X0331333Y0209075D01*
X0331333Y0208277D02*
X0236004Y0208277D01*
X0233733Y0208277D02*
X0232933Y0208277D01*
X0232933Y0209075D02*
X0233733Y0209075D01*
X0233733Y0209874D02*
X0232933Y0209874D01*
X0232933Y0210672D02*
X0233733Y0210672D01*
X0233733Y0211471D02*
X0331333Y0211471D01*
X0331333Y0207478D02*
X0228137Y0207478D01*
X0228614Y0206680D02*
X0331333Y0206680D01*
X0331333Y0205881D02*
X0228614Y0205881D01*
X0228614Y0205083D02*
X0331333Y0205083D01*
X0331333Y0204284D02*
X0228614Y0204284D01*
X0228614Y0203486D02*
X0331333Y0203486D01*
X0331333Y0202687D02*
X0228614Y0202687D01*
X0225833Y0203976D02*
X0225833Y0200000D01*
X0238333Y0200000D01*
X0241833Y0196500D01*
X0241833Y0112500D01*
X0240199Y0110866D01*
X0236365Y0110866D01*
X0232009Y0110859D02*
X0228182Y0110859D01*
X0227833Y0111207D02*
X0231040Y0108000D01*
X0232009Y0108000D01*
X0232009Y0114088D01*
X0232946Y0115025D01*
X0239783Y0115025D01*
X0239833Y0114975D01*
X0239833Y0116757D01*
X0239783Y0116707D01*
X0232946Y0116707D01*
X0232009Y0117644D01*
X0232009Y0122979D01*
X0231940Y0122950D01*
X0230727Y0122950D01*
X0229606Y0123414D01*
X0228748Y0124272D01*
X0228283Y0125393D01*
X0228283Y0126607D01*
X0228748Y0127728D01*
X0229333Y0128313D01*
X0229333Y0130828D01*
X0230505Y0132000D01*
X0231371Y0132866D01*
X0232009Y0132866D01*
X0232009Y0134088D01*
X0232946Y0135025D01*
X0234680Y0135025D01*
X0234680Y0136431D01*
X0233852Y0136431D01*
X0233192Y0137091D01*
X0233012Y0136911D01*
X0232693Y0136727D01*
X0232337Y0136631D01*
X0230387Y0136631D01*
X0230387Y0139600D01*
X0229587Y0139600D01*
X0229587Y0136631D01*
X0227833Y0136631D01*
X0227833Y0111207D01*
X0227833Y0111657D02*
X0232009Y0111657D01*
X0232009Y0112456D02*
X0227833Y0112456D01*
X0227833Y0113254D02*
X0232009Y0113254D01*
X0232009Y0114053D02*
X0227833Y0114053D01*
X0227833Y0114851D02*
X0232772Y0114851D01*
X0232407Y0117247D02*
X0227833Y0117247D01*
X0227833Y0118045D02*
X0232009Y0118045D01*
X0232009Y0118844D02*
X0227833Y0118844D01*
X0227833Y0119642D02*
X0232009Y0119642D01*
X0232009Y0120441D02*
X0227833Y0120441D01*
X0227833Y0121239D02*
X0232009Y0121239D01*
X0232009Y0122038D02*
X0227833Y0122038D01*
X0227833Y0122836D02*
X0232009Y0122836D01*
X0229385Y0123635D02*
X0227833Y0123635D01*
X0227833Y0124433D02*
X0228681Y0124433D01*
X0228350Y0125232D02*
X0227833Y0125232D01*
X0227833Y0126030D02*
X0228283Y0126030D01*
X0228375Y0126829D02*
X0227833Y0126829D01*
X0227833Y0127627D02*
X0228706Y0127627D01*
X0229333Y0128426D02*
X0227833Y0128426D01*
X0227833Y0129224D02*
X0229333Y0129224D01*
X0229333Y0130023D02*
X0227833Y0130023D01*
X0227833Y0130821D02*
X0229333Y0130821D01*
X0230125Y0131620D02*
X0227833Y0131620D01*
X0227833Y0132418D02*
X0230923Y0132418D01*
X0232009Y0133217D02*
X0227833Y0133217D01*
X0227833Y0134015D02*
X0232009Y0134015D01*
X0232735Y0134814D02*
X0227833Y0134814D01*
X0227833Y0135612D02*
X0234680Y0135612D01*
X0234680Y0136411D02*
X0227833Y0136411D01*
X0229587Y0137209D02*
X0230387Y0137209D01*
X0230387Y0138008D02*
X0229587Y0138008D01*
X0229587Y0138806D02*
X0230387Y0138806D01*
X0230387Y0140400D02*
X0229587Y0140400D01*
X0229587Y0143368D01*
X0227833Y0143368D01*
X0227833Y0161207D01*
X0226662Y0162379D01*
X0218914Y0170126D01*
X0218914Y0174590D01*
X0224595Y0168909D01*
X0226252Y0168909D01*
X0232005Y0168909D01*
X0232005Y0167688D01*
X0232942Y0166750D01*
X0236244Y0166750D01*
X0235532Y0166039D01*
X0234562Y0165068D01*
X0232942Y0165068D01*
X0232005Y0164131D01*
X0232005Y0162909D01*
X0231414Y0162909D01*
X0230354Y0161849D01*
X0230243Y0161738D01*
X0230243Y0161738D01*
X0229706Y0161201D01*
X0228833Y0160328D01*
X0228833Y0147672D01*
X0233394Y0143111D01*
X0233192Y0142909D01*
X0233012Y0143089D01*
X0232693Y0143273D01*
X0232337Y0143368D01*
X0230387Y0143368D01*
X0230387Y0140400D01*
X0230387Y0140403D02*
X0229587Y0140403D01*
X0229587Y0141202D02*
X0230387Y0141202D01*
X0230387Y0142001D02*
X0229587Y0142001D01*
X0229587Y0142799D02*
X0230387Y0142799D01*
X0232109Y0144396D02*
X0227833Y0144396D01*
X0227833Y0143598D02*
X0232907Y0143598D01*
X0231310Y0145195D02*
X0227833Y0145195D01*
X0227833Y0145993D02*
X0230512Y0145993D01*
X0229713Y0146792D02*
X0227833Y0146792D01*
X0227833Y0147590D02*
X0228915Y0147590D01*
X0228833Y0148389D02*
X0227833Y0148389D01*
X0227833Y0149187D02*
X0228833Y0149187D01*
X0228833Y0149986D02*
X0227833Y0149986D01*
X0227833Y0150784D02*
X0228833Y0150784D01*
X0228833Y0151583D02*
X0227833Y0151583D01*
X0227833Y0152381D02*
X0228833Y0152381D01*
X0228833Y0153180D02*
X0227833Y0153180D01*
X0227833Y0153978D02*
X0228833Y0153978D01*
X0228833Y0154777D02*
X0227833Y0154777D01*
X0227833Y0155575D02*
X0228833Y0155575D01*
X0228833Y0156374D02*
X0227833Y0156374D01*
X0227833Y0157172D02*
X0228833Y0157172D01*
X0228833Y0157971D02*
X0227833Y0157971D01*
X0227833Y0158769D02*
X0228833Y0158769D01*
X0228833Y0159568D02*
X0227833Y0159568D01*
X0227833Y0160366D02*
X0228871Y0160366D01*
X0229670Y0161165D02*
X0227833Y0161165D01*
X0227077Y0161963D02*
X0230468Y0161963D01*
X0231267Y0162762D02*
X0226279Y0162762D01*
X0225480Y0163560D02*
X0232005Y0163560D01*
X0232233Y0164359D02*
X0224682Y0164359D01*
X0223883Y0165157D02*
X0234651Y0165157D01*
X0235449Y0165956D02*
X0223085Y0165956D01*
X0222286Y0166754D02*
X0232938Y0166754D01*
X0232140Y0167553D02*
X0221488Y0167553D01*
X0220689Y0168351D02*
X0232005Y0168351D01*
X0235532Y0166039D02*
X0235532Y0166039D01*
X0236361Y0164039D02*
X0240217Y0167895D01*
X0240217Y0185383D01*
X0236447Y0189154D01*
X0225833Y0189154D01*
X0225833Y0195846D02*
X0225833Y0200000D01*
X0220833Y0203976D02*
X0220833Y0208000D01*
X0219833Y0209000D01*
X0218333Y0209000D01*
X0216833Y0209000D01*
X0215833Y0208000D01*
X0215833Y0203976D01*
X0213529Y0207478D02*
X0213137Y0207478D01*
X0213833Y0208277D02*
X0194333Y0208277D01*
X0194333Y0209075D02*
X0214080Y0209075D01*
X0214879Y0209874D02*
X0194333Y0209874D01*
X0194333Y0210672D02*
X0215677Y0210672D01*
X0216491Y0211471D02*
X0194333Y0211471D01*
X0194333Y0212270D02*
X0229965Y0212270D01*
X0229965Y0213068D02*
X0194333Y0213068D01*
X0194333Y0213867D02*
X0229965Y0213867D01*
X0230237Y0214665D02*
X0194333Y0214665D01*
X0194333Y0215464D02*
X0229820Y0215464D01*
X0229765Y0216262D02*
X0194333Y0216262D01*
X0194333Y0207478D02*
X0208529Y0207478D01*
X0208052Y0206680D02*
X0194333Y0206680D01*
X0194333Y0205881D02*
X0208052Y0205881D01*
X0208052Y0205083D02*
X0194333Y0205083D01*
X0194333Y0204284D02*
X0208052Y0204284D01*
X0208052Y0203486D02*
X0194333Y0203486D01*
X0194333Y0202687D02*
X0208052Y0202687D01*
X0208052Y0201889D02*
X0194333Y0201889D01*
X0194333Y0201090D02*
X0208052Y0201090D01*
X0208712Y0200292D02*
X0194333Y0200292D01*
X0194333Y0199493D02*
X0208084Y0199493D01*
X0207285Y0198695D02*
X0194333Y0198695D01*
X0194333Y0197896D02*
X0207265Y0197896D01*
X0207265Y0197098D02*
X0194333Y0197098D01*
X0194333Y0196299D02*
X0207265Y0196299D01*
X0207265Y0195501D02*
X0194333Y0195501D01*
X0194333Y0194702D02*
X0207265Y0194702D01*
X0207265Y0193904D02*
X0194333Y0193904D01*
X0194333Y0193105D02*
X0207265Y0193105D01*
X0207590Y0192307D02*
X0194333Y0192307D01*
X0190299Y0190000D02*
X0203333Y0190000D01*
X0216914Y0176419D01*
X0216914Y0169298D01*
X0225833Y0160379D01*
X0225833Y0110379D01*
X0230212Y0106000D01*
X0242333Y0106000D01*
X0248333Y0100000D01*
X0253211Y0102075D02*
X0263833Y0102075D01*
X0263833Y0102873D02*
X0252880Y0102873D01*
X0252157Y0103672D02*
X0263833Y0103672D01*
X0263833Y0104470D02*
X0251358Y0104470D01*
X0250761Y0105269D02*
X0263833Y0105269D01*
X0263833Y0106068D02*
X0251896Y0106068D01*
X0252695Y0106866D02*
X0263833Y0106866D01*
X0263833Y0107665D02*
X0253103Y0107665D01*
X0253433Y0108463D02*
X0263833Y0108463D01*
X0263833Y0109262D02*
X0253633Y0109262D01*
X0253633Y0110060D02*
X0263833Y0110060D01*
X0263833Y0110859D02*
X0253633Y0110859D01*
X0253384Y0111657D02*
X0263833Y0111657D01*
X0263833Y0112456D02*
X0253053Y0112456D01*
X0252575Y0113254D02*
X0263833Y0113254D01*
X0263833Y0114053D02*
X0251776Y0114053D01*
X0250471Y0114851D02*
X0263833Y0114851D01*
X0263833Y0115650D02*
X0251478Y0115650D01*
X0252277Y0116448D02*
X0263833Y0116448D01*
X0263833Y0117247D02*
X0252930Y0117247D01*
X0253260Y0118045D02*
X0263833Y0118045D01*
X0263833Y0118844D02*
X0253591Y0118844D01*
X0253633Y0119642D02*
X0263833Y0119642D01*
X0263833Y0120441D02*
X0253633Y0120441D01*
X0253557Y0121239D02*
X0263833Y0121239D01*
X0263833Y0122038D02*
X0253226Y0122038D01*
X0252895Y0122836D02*
X0263333Y0122836D01*
X0263537Y0122632D02*
X0262599Y0123570D01*
X0262599Y0127375D01*
X0263537Y0128313D01*
X0268130Y0128313D01*
X0269067Y0127375D01*
X0269067Y0123570D01*
X0268130Y0122632D01*
X0267833Y0122632D01*
X0267833Y0088687D01*
X0268747Y0088309D01*
X0270194Y0086862D01*
X0270977Y0084972D01*
X0270977Y0082926D01*
X0270194Y0081035D01*
X0268747Y0079589D01*
X0266856Y0078806D01*
X0264810Y0078806D01*
X0262920Y0079589D01*
X0261473Y0081035D01*
X0260690Y0082926D01*
X0260690Y0084972D01*
X0261473Y0086862D01*
X0262920Y0088309D01*
X0263833Y0088687D01*
X0263833Y0122632D01*
X0263537Y0122632D01*
X0262599Y0123635D02*
X0252194Y0123635D01*
X0251395Y0124433D02*
X0262599Y0124433D01*
X0262599Y0125232D02*
X0250671Y0125232D01*
X0251859Y0126030D02*
X0262599Y0126030D01*
X0262599Y0126829D02*
X0252657Y0126829D01*
X0253087Y0127627D02*
X0262851Y0127627D01*
X0265833Y0125472D02*
X0265833Y0083949D01*
X0261027Y0082112D02*
X0253195Y0082112D01*
X0253526Y0081314D02*
X0261358Y0081314D01*
X0261993Y0080515D02*
X0253633Y0080515D01*
X0253633Y0079717D02*
X0262792Y0079717D01*
X0264538Y0078918D02*
X0253622Y0078918D01*
X0253291Y0078120D02*
X0271333Y0078120D01*
X0271333Y0078918D02*
X0267128Y0078918D01*
X0268875Y0079717D02*
X0271333Y0079717D01*
X0271333Y0080515D02*
X0269673Y0080515D01*
X0270309Y0081314D02*
X0271333Y0081314D01*
X0271333Y0082112D02*
X0270640Y0082112D01*
X0270970Y0082911D02*
X0271333Y0082911D01*
X0271333Y0083709D02*
X0270977Y0083709D01*
X0270977Y0084508D02*
X0271333Y0084508D01*
X0271333Y0085306D02*
X0270838Y0085306D01*
X0270507Y0086105D02*
X0271333Y0086105D01*
X0271333Y0086903D02*
X0270153Y0086903D01*
X0269354Y0087702D02*
X0271333Y0087702D01*
X0271333Y0088500D02*
X0268285Y0088500D01*
X0267833Y0089299D02*
X0271333Y0089299D01*
X0271333Y0090097D02*
X0267833Y0090097D01*
X0267833Y0090896D02*
X0271333Y0090896D01*
X0271333Y0091694D02*
X0267833Y0091694D01*
X0267833Y0092493D02*
X0271333Y0092493D01*
X0271333Y0093291D02*
X0267833Y0093291D01*
X0267833Y0094090D02*
X0271333Y0094090D01*
X0271333Y0094888D02*
X0267833Y0094888D01*
X0267833Y0095687D02*
X0271333Y0095687D01*
X0271333Y0096485D02*
X0267833Y0096485D01*
X0267833Y0097284D02*
X0271333Y0097284D01*
X0271333Y0098082D02*
X0267833Y0098082D01*
X0267833Y0098881D02*
X0271333Y0098881D01*
X0271333Y0099679D02*
X0267833Y0099679D01*
X0267833Y0100478D02*
X0271333Y0100478D01*
X0271333Y0101276D02*
X0267833Y0101276D01*
X0267833Y0102075D02*
X0271333Y0102075D01*
X0271333Y0102873D02*
X0267833Y0102873D01*
X0267833Y0103672D02*
X0271333Y0103672D01*
X0271333Y0104470D02*
X0267833Y0104470D01*
X0267833Y0105269D02*
X0271333Y0105269D01*
X0271333Y0106068D02*
X0267833Y0106068D01*
X0267833Y0106866D02*
X0271333Y0106866D01*
X0271333Y0107665D02*
X0267833Y0107665D01*
X0267833Y0108463D02*
X0271468Y0108463D01*
X0271333Y0108328D02*
X0271333Y0074172D01*
X0272505Y0073000D01*
X0274740Y0070765D01*
X0274508Y0070207D01*
X0274508Y0067691D01*
X0275471Y0065366D01*
X0277251Y0063587D01*
X0279575Y0062624D01*
X0282091Y0062624D01*
X0284416Y0063587D01*
X0286195Y0065366D01*
X0287158Y0067691D01*
X0287158Y0070207D01*
X0286195Y0072532D01*
X0284416Y0074311D01*
X0282091Y0075274D01*
X0279575Y0075274D01*
X0277251Y0074311D01*
X0277051Y0074111D01*
X0275333Y0075828D01*
X0275333Y0106672D01*
X0276662Y0108000D01*
X0277833Y0109172D01*
X0277833Y0122632D01*
X0278130Y0122632D01*
X0279067Y0123570D01*
X0279067Y0127375D01*
X0278130Y0128313D01*
X0273537Y0128313D01*
X0272599Y0127375D01*
X0272599Y0123570D01*
X0273537Y0122632D01*
X0273833Y0122632D01*
X0273833Y0110828D01*
X0272505Y0109500D01*
X0271333Y0108328D01*
X0272266Y0109262D02*
X0267833Y0109262D01*
X0267833Y0110060D02*
X0273065Y0110060D01*
X0273833Y0110859D02*
X0267833Y0110859D01*
X0267833Y0111657D02*
X0273833Y0111657D01*
X0273833Y0112456D02*
X0267833Y0112456D01*
X0267833Y0113254D02*
X0273833Y0113254D01*
X0273833Y0114053D02*
X0267833Y0114053D01*
X0267833Y0114851D02*
X0273833Y0114851D01*
X0273833Y0115650D02*
X0267833Y0115650D01*
X0267833Y0116448D02*
X0273833Y0116448D01*
X0273833Y0117247D02*
X0267833Y0117247D01*
X0267833Y0118045D02*
X0273833Y0118045D01*
X0273833Y0118844D02*
X0267833Y0118844D01*
X0267833Y0119642D02*
X0273833Y0119642D01*
X0273833Y0120441D02*
X0267833Y0120441D01*
X0267833Y0121239D02*
X0273833Y0121239D01*
X0273833Y0122038D02*
X0267833Y0122038D01*
X0268334Y0122836D02*
X0273333Y0122836D01*
X0272599Y0123635D02*
X0269067Y0123635D01*
X0269067Y0124433D02*
X0272599Y0124433D01*
X0272599Y0125232D02*
X0269067Y0125232D01*
X0269067Y0126030D02*
X0272599Y0126030D01*
X0272599Y0126829D02*
X0269067Y0126829D01*
X0268815Y0127627D02*
X0272851Y0127627D01*
X0275833Y0125472D02*
X0275833Y0110000D01*
X0273333Y0107500D01*
X0273333Y0075000D01*
X0273333Y0075000D01*
X0279385Y0068949D01*
X0280833Y0068949D01*
X0276292Y0064545D02*
X0251210Y0064545D01*
X0250941Y0065343D02*
X0275494Y0065343D01*
X0275150Y0066142D02*
X0251971Y0066142D01*
X0252769Y0066940D02*
X0274819Y0066940D01*
X0274508Y0067739D02*
X0253133Y0067739D01*
X0253464Y0068537D02*
X0274508Y0068537D01*
X0274508Y0069336D02*
X0253633Y0069336D01*
X0253633Y0070134D02*
X0274508Y0070134D01*
X0274572Y0070933D02*
X0253633Y0070933D01*
X0253353Y0071732D02*
X0273773Y0071732D01*
X0272975Y0072530D02*
X0253022Y0072530D01*
X0252500Y0073329D02*
X0272176Y0073329D01*
X0272505Y0073000D02*
X0272505Y0073000D01*
X0271378Y0074127D02*
X0251702Y0074127D01*
X0251553Y0075724D02*
X0271333Y0075724D01*
X0271333Y0074926D02*
X0250291Y0074926D01*
X0252351Y0076523D02*
X0271333Y0076523D01*
X0271333Y0077321D02*
X0252960Y0077321D01*
X0252864Y0082911D02*
X0260696Y0082911D01*
X0260690Y0083709D02*
X0252119Y0083709D01*
X0251300Y0084508D02*
X0260690Y0084508D01*
X0260829Y0085306D02*
X0250851Y0085306D01*
X0251933Y0086105D02*
X0261159Y0086105D01*
X0261514Y0086903D02*
X0252732Y0086903D01*
X0253118Y0087702D02*
X0262313Y0087702D01*
X0263381Y0088500D02*
X0253449Y0088500D01*
X0253633Y0089299D02*
X0263833Y0089299D01*
X0263833Y0090097D02*
X0253633Y0090097D01*
X0253633Y0090896D02*
X0263833Y0090896D01*
X0263833Y0091694D02*
X0253368Y0091694D01*
X0253037Y0092493D02*
X0263833Y0092493D01*
X0263833Y0093291D02*
X0252537Y0093291D01*
X0251739Y0094090D02*
X0263833Y0094090D01*
X0263833Y0094888D02*
X0250381Y0094888D01*
X0251516Y0095687D02*
X0263833Y0095687D01*
X0263833Y0096485D02*
X0252314Y0096485D01*
X0252945Y0097284D02*
X0263833Y0097284D01*
X0263833Y0098082D02*
X0253276Y0098082D01*
X0253606Y0098881D02*
X0263833Y0098881D01*
X0263833Y0099679D02*
X0253633Y0099679D01*
X0253633Y0100478D02*
X0263833Y0100478D01*
X0263833Y0101276D02*
X0253541Y0101276D01*
X0246285Y0094888D02*
X0216987Y0094888D01*
X0216987Y0094090D02*
X0244928Y0094090D01*
X0244129Y0093291D02*
X0239317Y0093291D01*
X0240154Y0092493D02*
X0243629Y0092493D01*
X0243298Y0091694D02*
X0240245Y0091694D01*
X0240245Y0090896D02*
X0243033Y0090896D01*
X0243033Y0090097D02*
X0237080Y0090097D01*
X0237080Y0089600D02*
X0240245Y0089600D01*
X0240245Y0087847D01*
X0240150Y0087491D01*
X0239965Y0087172D01*
X0239705Y0086911D01*
X0239386Y0086727D01*
X0239029Y0086631D01*
X0237080Y0086631D01*
X0237080Y0089600D01*
X0237080Y0089299D02*
X0236280Y0089299D01*
X0236280Y0088500D02*
X0237080Y0088500D01*
X0237080Y0087702D02*
X0236280Y0087702D01*
X0236280Y0086903D02*
X0237080Y0086903D01*
X0239691Y0086903D02*
X0243935Y0086903D01*
X0243549Y0087702D02*
X0240206Y0087702D01*
X0240245Y0088500D02*
X0243218Y0088500D01*
X0243033Y0089299D02*
X0240245Y0089299D01*
X0237080Y0090896D02*
X0236280Y0090896D01*
X0236280Y0091694D02*
X0237080Y0091694D01*
X0237080Y0092493D02*
X0236280Y0092493D01*
X0236280Y0093291D02*
X0237080Y0093291D01*
X0234042Y0093291D02*
X0233092Y0093291D01*
X0233425Y0096907D02*
X0235965Y0096907D01*
X0235965Y0100466D01*
X0232209Y0100466D01*
X0232209Y0098123D01*
X0232304Y0097767D01*
X0232489Y0097447D01*
X0232749Y0097187D01*
X0233069Y0097002D01*
X0233425Y0096907D01*
X0232652Y0097284D02*
X0218446Y0097284D01*
X0219244Y0098082D02*
X0232220Y0098082D01*
X0232209Y0098881D02*
X0220043Y0098881D01*
X0220841Y0099679D02*
X0232209Y0099679D01*
X0232209Y0101276D02*
X0222438Y0101276D01*
X0221640Y0100478D02*
X0235965Y0100478D01*
X0235965Y0099679D02*
X0236765Y0099679D01*
X0236765Y0100466D02*
X0236765Y0096907D01*
X0239305Y0096907D01*
X0239661Y0097002D01*
X0239980Y0097187D01*
X0240241Y0097447D01*
X0240425Y0097767D01*
X0240521Y0098123D01*
X0240521Y0100466D01*
X0236765Y0100466D01*
X0236765Y0100478D02*
X0243033Y0100478D01*
X0243033Y0099679D02*
X0240521Y0099679D01*
X0240521Y0098881D02*
X0243060Y0098881D01*
X0243391Y0098082D02*
X0240510Y0098082D01*
X0240077Y0097284D02*
X0243722Y0097284D01*
X0244353Y0096485D02*
X0217647Y0096485D01*
X0216987Y0095687D02*
X0245151Y0095687D01*
X0243125Y0101276D02*
X0240521Y0101276D01*
X0240521Y0102075D02*
X0243430Y0102075D01*
X0242631Y0102873D02*
X0240521Y0102873D01*
X0240504Y0103672D02*
X0241833Y0103672D01*
X0236765Y0098881D02*
X0235965Y0098881D01*
X0235965Y0098082D02*
X0236765Y0098082D01*
X0236765Y0097284D02*
X0235965Y0097284D01*
X0232209Y0102075D02*
X0223237Y0102075D01*
X0224035Y0102873D02*
X0232209Y0102873D01*
X0232209Y0103610D02*
X0232304Y0103966D01*
X0232324Y0104000D01*
X0229384Y0104000D01*
X0229222Y0104161D01*
X0225005Y0108379D01*
X0225005Y0108379D01*
X0224833Y0108550D01*
X0224833Y0103672D01*
X0224833Y0104470D02*
X0228913Y0104470D01*
X0228115Y0105269D02*
X0224833Y0105269D01*
X0224833Y0106068D02*
X0227316Y0106068D01*
X0226518Y0106866D02*
X0224833Y0106866D01*
X0224833Y0107665D02*
X0225719Y0107665D01*
X0224921Y0108463D02*
X0224833Y0108463D01*
X0222833Y0104500D02*
X0214987Y0096654D01*
X0214987Y0090000D01*
X0214987Y0073346D01*
X0223333Y0065000D01*
X0227467Y0060866D01*
X0236365Y0060866D01*
X0235965Y0054164D02*
X0236765Y0054164D01*
X0236765Y0053366D02*
X0235965Y0053366D01*
X0235965Y0052567D02*
X0236765Y0052567D01*
X0236765Y0051769D02*
X0235965Y0051769D01*
X0235965Y0050970D02*
X0209333Y0050970D01*
X0209333Y0054963D02*
X0246465Y0054963D01*
X0245077Y0055761D02*
X0209333Y0055761D01*
X0207333Y0041388D02*
X0173495Y0041388D01*
X0173633Y0040590D02*
X0207333Y0040590D01*
X0207333Y0039791D02*
X0173633Y0039791D01*
X0173633Y0038993D02*
X0207333Y0038993D01*
X0207333Y0038194D02*
X0173322Y0038194D01*
X0172991Y0037396D02*
X0207333Y0037396D01*
X0235965Y0046978D02*
X0236765Y0046978D01*
X0236765Y0046907D02*
X0239305Y0046907D01*
X0239661Y0047002D01*
X0239980Y0047187D01*
X0240241Y0047447D01*
X0240425Y0047767D01*
X0240521Y0048123D01*
X0240521Y0050466D01*
X0236765Y0050466D01*
X0236765Y0046907D01*
X0236765Y0047776D02*
X0235965Y0047776D01*
X0235965Y0048575D02*
X0236765Y0048575D01*
X0236765Y0049373D02*
X0235965Y0049373D01*
X0235965Y0050172D02*
X0236765Y0050172D01*
X0236765Y0050970D02*
X0243033Y0050970D01*
X0243033Y0050172D02*
X0240521Y0050172D01*
X0240521Y0049373D02*
X0243033Y0049373D01*
X0243187Y0048575D02*
X0240521Y0048575D01*
X0240428Y0047776D02*
X0243518Y0047776D01*
X0243860Y0046978D02*
X0239568Y0046978D01*
X0240521Y0051769D02*
X0243329Y0051769D01*
X0243660Y0052567D02*
X0240521Y0052567D01*
X0240521Y0053366D02*
X0244204Y0053366D01*
X0245002Y0054164D02*
X0240311Y0054164D01*
X0250202Y0054963D02*
X0331333Y0054963D01*
X0331333Y0055761D02*
X0251590Y0055761D01*
X0252388Y0056560D02*
X0331333Y0056560D01*
X0331333Y0057358D02*
X0252976Y0057358D01*
X0253307Y0058157D02*
X0331333Y0058157D01*
X0331333Y0058955D02*
X0253633Y0058955D01*
X0253633Y0059754D02*
X0331333Y0059754D01*
X0331333Y0060552D02*
X0253633Y0060552D01*
X0253510Y0061351D02*
X0331333Y0061351D01*
X0331333Y0062149D02*
X0253180Y0062149D01*
X0252849Y0062948D02*
X0278793Y0062948D01*
X0277091Y0063746D02*
X0252082Y0063746D01*
X0244696Y0066142D02*
X0225020Y0066142D01*
X0224221Y0066940D02*
X0232713Y0066940D01*
X0232946Y0066707D02*
X0232009Y0067644D01*
X0232009Y0074088D01*
X0232946Y0075025D01*
X0239783Y0075025D01*
X0240721Y0074088D01*
X0240721Y0067644D01*
X0239783Y0066707D01*
X0232946Y0066707D01*
X0232009Y0067739D02*
X0223423Y0067739D01*
X0222624Y0068537D02*
X0232009Y0068537D01*
X0232009Y0069336D02*
X0221826Y0069336D01*
X0221027Y0070134D02*
X0232009Y0070134D01*
X0232009Y0070933D02*
X0220229Y0070933D01*
X0219430Y0071732D02*
X0232009Y0071732D01*
X0232009Y0072530D02*
X0218632Y0072530D01*
X0217833Y0073329D02*
X0232009Y0073329D01*
X0232048Y0074127D02*
X0217035Y0074127D01*
X0216987Y0074926D02*
X0232847Y0074926D01*
X0232332Y0077321D02*
X0216987Y0077321D01*
X0216987Y0076523D02*
X0244315Y0076523D01*
X0243706Y0077321D02*
X0240397Y0077321D01*
X0240721Y0078120D02*
X0243376Y0078120D01*
X0243045Y0078918D02*
X0240721Y0078918D01*
X0240721Y0079717D02*
X0243033Y0079717D01*
X0243033Y0080515D02*
X0240721Y0080515D01*
X0240721Y0081314D02*
X0243141Y0081314D01*
X0243472Y0082112D02*
X0240721Y0082112D01*
X0240721Y0082911D02*
X0243802Y0082911D01*
X0244547Y0083709D02*
X0240721Y0083709D01*
X0240301Y0084508D02*
X0245366Y0084508D01*
X0245816Y0085306D02*
X0229340Y0085306D01*
X0230139Y0084508D02*
X0232429Y0084508D01*
X0232009Y0083709D02*
X0230487Y0083709D01*
X0230633Y0082911D02*
X0232009Y0082911D01*
X0229467Y0080866D02*
X0227583Y0082750D01*
X0226833Y0083500D01*
X0225833Y0084500D01*
X0225833Y0090000D01*
X0228333Y0090000D01*
X0229987Y0090000D01*
X0225833Y0090000D02*
X0223333Y0090000D01*
X0221680Y0090000D01*
X0225445Y0092493D02*
X0226222Y0092493D01*
X0226882Y0093291D02*
X0224785Y0093291D01*
X0218575Y0093291D02*
X0218092Y0093291D01*
X0218287Y0086903D02*
X0218380Y0086903D01*
X0216987Y0086105D02*
X0223833Y0086105D01*
X0223833Y0085306D02*
X0216987Y0085306D01*
X0216987Y0084508D02*
X0223833Y0084508D01*
X0223833Y0083709D02*
X0216987Y0083709D01*
X0216987Y0082911D02*
X0224533Y0082911D01*
X0224546Y0082112D02*
X0216987Y0082112D01*
X0216987Y0081314D02*
X0224877Y0081314D01*
X0225505Y0080515D02*
X0216987Y0080515D01*
X0216987Y0079717D02*
X0226936Y0079717D01*
X0228587Y0078918D02*
X0216987Y0078918D01*
X0216987Y0078120D02*
X0232009Y0078120D01*
X0229467Y0080866D02*
X0236365Y0080866D01*
X0233669Y0086903D02*
X0233287Y0086903D01*
X0227833Y0086105D02*
X0244733Y0086105D01*
X0245114Y0075724D02*
X0216987Y0075724D01*
X0202333Y0075724D02*
X0194333Y0075724D01*
X0194333Y0074926D02*
X0202333Y0074926D01*
X0202315Y0076523D02*
X0202333Y0076523D01*
X0198806Y0070591D02*
X0198715Y0070500D01*
X0192333Y0070500D01*
X0192333Y0120500D01*
X0198715Y0120500D01*
X0198806Y0120591D01*
X0203162Y0120441D02*
X0207333Y0120441D01*
X0207333Y0121239D02*
X0203162Y0121239D01*
X0203162Y0122038D02*
X0207333Y0122038D01*
X0207333Y0122836D02*
X0203162Y0122836D01*
X0203162Y0123635D02*
X0207333Y0123635D01*
X0207333Y0124433D02*
X0202541Y0124433D01*
X0202622Y0126829D02*
X0207333Y0126829D01*
X0207333Y0127627D02*
X0203162Y0127627D01*
X0203162Y0128426D02*
X0207333Y0128426D01*
X0207333Y0129224D02*
X0203162Y0129224D01*
X0203162Y0130023D02*
X0207333Y0130023D01*
X0207333Y0130821D02*
X0203162Y0130821D01*
X0203162Y0131620D02*
X0207333Y0131620D01*
X0207333Y0132418D02*
X0203162Y0132418D01*
X0203162Y0133217D02*
X0207333Y0133217D01*
X0207333Y0134015D02*
X0202959Y0134015D01*
X0207333Y0134814D02*
X0194333Y0134814D01*
X0194333Y0135612D02*
X0207333Y0135612D01*
X0207333Y0136411D02*
X0194333Y0136411D01*
X0194333Y0137209D02*
X0207333Y0137209D01*
X0207333Y0138008D02*
X0194333Y0138008D01*
X0194333Y0138806D02*
X0207333Y0138806D01*
X0207333Y0139605D02*
X0194333Y0139605D01*
X0194333Y0140403D02*
X0207333Y0140403D01*
X0207333Y0141202D02*
X0194333Y0141202D01*
X0194333Y0142001D02*
X0207333Y0142001D01*
X0207333Y0142799D02*
X0194333Y0142799D01*
X0194333Y0143598D02*
X0207333Y0143598D01*
X0207333Y0144396D02*
X0194333Y0144396D01*
X0194333Y0145195D02*
X0207333Y0145195D01*
X0207333Y0145993D02*
X0194333Y0145993D01*
X0194333Y0146792D02*
X0195066Y0146792D01*
X0194446Y0147590D02*
X0194333Y0147590D01*
X0194333Y0148389D02*
X0194446Y0148389D01*
X0192333Y0150500D02*
X0192333Y0128500D01*
X0192333Y0150500D01*
X0192467Y0150634D01*
X0192333Y0150500D01*
X0192333Y0152500D01*
X0192333Y0150500D01*
X0192333Y0128500D01*
X0192333Y0130000D01*
X0192333Y0128500D01*
X0192333Y0130000D02*
X0192333Y0120500D01*
X0190333Y0120441D02*
X0185333Y0120441D01*
X0185333Y0121239D02*
X0190333Y0121239D01*
X0190333Y0122038D02*
X0185333Y0122038D01*
X0185333Y0122836D02*
X0190333Y0122836D01*
X0190333Y0123635D02*
X0185333Y0123635D01*
X0185333Y0124433D02*
X0190333Y0124433D01*
X0190333Y0125232D02*
X0185333Y0125232D01*
X0185333Y0126030D02*
X0190333Y0126030D01*
X0190333Y0126829D02*
X0185333Y0126829D01*
X0185333Y0127627D02*
X0190333Y0127627D01*
X0190333Y0127687D02*
X0190333Y0067743D01*
X0189508Y0068568D01*
X0183852Y0068568D01*
X0183333Y0068050D01*
X0182815Y0068568D01*
X0181987Y0068568D01*
X0181987Y0110825D01*
X0184162Y0113000D01*
X0185333Y0114172D01*
X0185333Y0143540D01*
X0185505Y0143368D01*
X0185824Y0143184D01*
X0186180Y0143088D01*
X0187933Y0143088D01*
X0187933Y0146253D01*
X0188733Y0146253D01*
X0188733Y0143088D01*
X0190333Y0143088D01*
X0190333Y0132313D01*
X0189748Y0131728D01*
X0189283Y0130607D01*
X0189283Y0129393D01*
X0189748Y0128272D01*
X0190333Y0127687D01*
X0189684Y0128426D02*
X0185333Y0128426D01*
X0185333Y0129224D02*
X0189353Y0129224D01*
X0189283Y0130023D02*
X0185333Y0130023D01*
X0185333Y0130821D02*
X0189372Y0130821D01*
X0189703Y0131620D02*
X0185333Y0131620D01*
X0185333Y0132418D02*
X0190333Y0132418D01*
X0190333Y0133217D02*
X0185333Y0133217D01*
X0185333Y0134015D02*
X0190333Y0134015D01*
X0190333Y0134814D02*
X0185333Y0134814D01*
X0185333Y0135612D02*
X0190333Y0135612D01*
X0190333Y0136411D02*
X0185333Y0136411D01*
X0185333Y0137209D02*
X0190333Y0137209D01*
X0190333Y0138008D02*
X0185333Y0138008D01*
X0185333Y0138806D02*
X0190333Y0138806D01*
X0190333Y0139605D02*
X0185333Y0139605D01*
X0185333Y0140403D02*
X0190333Y0140403D01*
X0190333Y0141202D02*
X0185333Y0141202D01*
X0185333Y0142001D02*
X0190333Y0142001D01*
X0190333Y0142799D02*
X0185333Y0142799D01*
X0187933Y0143598D02*
X0188733Y0143598D01*
X0188733Y0144396D02*
X0187933Y0144396D01*
X0187933Y0145195D02*
X0188733Y0145195D01*
X0188733Y0145993D02*
X0187933Y0145993D01*
X0192467Y0150634D02*
X0198802Y0150634D01*
X0203158Y0150784D02*
X0207333Y0150784D01*
X0207333Y0149986D02*
X0203158Y0149986D01*
X0203158Y0149187D02*
X0207333Y0149187D01*
X0207333Y0148389D02*
X0203158Y0148389D01*
X0203158Y0147590D02*
X0207333Y0147590D01*
X0207333Y0146792D02*
X0202537Y0146792D01*
X0203158Y0151583D02*
X0207333Y0151583D01*
X0207333Y0152381D02*
X0203158Y0152381D01*
X0203158Y0153180D02*
X0207333Y0153180D01*
X0207333Y0153978D02*
X0203035Y0153978D01*
X0202237Y0154777D02*
X0207333Y0154777D01*
X0207333Y0155575D02*
X0191902Y0155575D01*
X0191703Y0156374D02*
X0207333Y0156374D01*
X0207333Y0157172D02*
X0202918Y0157172D01*
X0203158Y0157412D02*
X0203158Y0163856D01*
X0202220Y0164793D01*
X0195383Y0164793D01*
X0194446Y0163856D01*
X0194446Y0157412D01*
X0195383Y0156475D01*
X0202220Y0156475D01*
X0203158Y0157412D01*
X0203158Y0157971D02*
X0207333Y0157971D01*
X0207333Y0158769D02*
X0203158Y0158769D01*
X0203158Y0159568D02*
X0207333Y0159568D01*
X0207333Y0160366D02*
X0203158Y0160366D01*
X0203158Y0161165D02*
X0207333Y0161165D01*
X0207333Y0161963D02*
X0203158Y0161963D01*
X0203158Y0162762D02*
X0207333Y0162762D01*
X0207333Y0163560D02*
X0203158Y0163560D01*
X0202655Y0164359D02*
X0207333Y0164359D01*
X0207333Y0165157D02*
X0191319Y0165157D01*
X0190521Y0164359D02*
X0194949Y0164359D01*
X0194446Y0163560D02*
X0189722Y0163560D01*
X0188924Y0162762D02*
X0194446Y0162762D01*
X0194446Y0161963D02*
X0188125Y0161963D01*
X0187327Y0161165D02*
X0194446Y0161165D01*
X0194446Y0160366D02*
X0186528Y0160366D01*
X0185730Y0159568D02*
X0194446Y0159568D01*
X0194446Y0158769D02*
X0185333Y0158769D01*
X0185333Y0157971D02*
X0194446Y0157971D01*
X0194686Y0157172D02*
X0185333Y0157172D01*
X0188333Y0153346D02*
X0191487Y0153346D01*
X0191583Y0153250D01*
X0192333Y0152500D01*
X0191583Y0153250D02*
X0191487Y0153346D01*
X0192885Y0154777D02*
X0195367Y0154777D01*
X0194568Y0153978D02*
X0193684Y0153978D01*
X0194333Y0153180D02*
X0194446Y0153180D01*
X0219092Y0169948D02*
X0223556Y0169948D01*
X0222758Y0170747D02*
X0218914Y0170747D01*
X0218914Y0171545D02*
X0221959Y0171545D01*
X0221161Y0172344D02*
X0218914Y0172344D01*
X0218914Y0173142D02*
X0220362Y0173142D01*
X0219564Y0173941D02*
X0218914Y0173941D01*
X0219891Y0169150D02*
X0224355Y0169150D01*
X0225424Y0170909D02*
X0210833Y0185500D01*
X0210833Y0189154D01*
X0207265Y0191508D02*
X0204654Y0191508D01*
X0210833Y0195846D02*
X0210833Y0199846D01*
X0210833Y0203976D01*
X0220176Y0211471D02*
X0232933Y0211471D01*
X0229965Y0210672D02*
X0220989Y0210672D01*
X0221788Y0209874D02*
X0229965Y0209874D01*
X0230026Y0209075D02*
X0222586Y0209075D01*
X0222833Y0208277D02*
X0230663Y0208277D01*
X0223529Y0207478D02*
X0223137Y0207478D01*
X0239273Y0201889D02*
X0331333Y0201889D01*
X0331333Y0201090D02*
X0240071Y0201090D01*
X0240870Y0200292D02*
X0331333Y0200292D01*
X0331333Y0199493D02*
X0241668Y0199493D01*
X0242467Y0198695D02*
X0331333Y0198695D01*
X0331333Y0197896D02*
X0243265Y0197896D01*
X0243833Y0197098D02*
X0331333Y0197098D01*
X0331333Y0196299D02*
X0243833Y0196299D01*
X0243833Y0195501D02*
X0261416Y0195501D01*
X0262075Y0195774D02*
X0259751Y0194811D01*
X0257971Y0193032D01*
X0257008Y0190707D01*
X0257008Y0188191D01*
X0257971Y0185866D01*
X0259751Y0184087D01*
X0262075Y0183124D01*
X0264591Y0183124D01*
X0266174Y0183779D01*
X0273833Y0176120D01*
X0273833Y0137368D01*
X0273537Y0137368D01*
X0272599Y0136430D01*
X0272599Y0132625D01*
X0273537Y0131687D01*
X0278130Y0131687D01*
X0279067Y0132625D01*
X0279067Y0136430D01*
X0278130Y0137368D01*
X0277833Y0137368D01*
X0277833Y0177777D01*
X0276662Y0178949D01*
X0269003Y0186608D01*
X0269658Y0188191D01*
X0269658Y0190707D01*
X0268695Y0193032D01*
X0266916Y0194811D01*
X0264591Y0195774D01*
X0262075Y0195774D01*
X0259642Y0194702D02*
X0243833Y0194702D01*
X0243833Y0193904D02*
X0258843Y0193904D01*
X0258045Y0193105D02*
X0243833Y0193105D01*
X0243833Y0192307D02*
X0257671Y0192307D01*
X0257340Y0191508D02*
X0243833Y0191508D01*
X0243833Y0190710D02*
X0257009Y0190710D01*
X0257008Y0189911D02*
X0243833Y0189911D01*
X0243833Y0189113D02*
X0257008Y0189113D01*
X0257008Y0188314D02*
X0243833Y0188314D01*
X0243833Y0187516D02*
X0257288Y0187516D01*
X0257619Y0186717D02*
X0243833Y0186717D01*
X0243833Y0185919D02*
X0257949Y0185919D01*
X0258717Y0185120D02*
X0243833Y0185120D01*
X0243833Y0184322D02*
X0259516Y0184322D01*
X0261111Y0183523D02*
X0243833Y0183523D01*
X0243833Y0182725D02*
X0267229Y0182725D01*
X0266431Y0183523D02*
X0265555Y0183523D01*
X0268028Y0181926D02*
X0243833Y0181926D01*
X0243833Y0181128D02*
X0268826Y0181128D01*
X0269625Y0180329D02*
X0243833Y0180329D01*
X0243833Y0179531D02*
X0262162Y0179531D01*
X0262310Y0179592D02*
X0260420Y0178809D01*
X0258973Y0177362D01*
X0258190Y0175472D01*
X0258190Y0173426D01*
X0258973Y0171535D01*
X0260420Y0170089D01*
X0262310Y0169306D01*
X0264356Y0169306D01*
X0265660Y0169845D01*
X0269333Y0166172D01*
X0269333Y0160720D01*
X0269308Y0160883D01*
X0269010Y0161800D01*
X0268572Y0162659D01*
X0268005Y0163439D01*
X0267323Y0164121D01*
X0266544Y0164687D01*
X0265685Y0165125D01*
X0264768Y0165423D01*
X0263815Y0165574D01*
X0263733Y0165574D01*
X0263733Y0159849D01*
X0262933Y0159849D01*
X0262933Y0159049D01*
X0257208Y0159049D01*
X0257208Y0158967D01*
X0257359Y0158015D01*
X0257657Y0157098D01*
X0258095Y0156239D01*
X0258661Y0155459D01*
X0259343Y0154777D01*
X0260123Y0154210D01*
X0260982Y0153773D01*
X0261899Y0153475D01*
X0262851Y0153324D01*
X0262933Y0153324D01*
X0262933Y0159049D01*
X0263733Y0159049D01*
X0263733Y0153324D01*
X0263815Y0153324D01*
X0264768Y0153475D01*
X0265685Y0153773D01*
X0266544Y0154210D01*
X0267323Y0154777D01*
X0269333Y0154777D01*
X0269333Y0155575D02*
X0268090Y0155575D01*
X0268005Y0155459D02*
X0268572Y0156239D01*
X0269010Y0157098D01*
X0269308Y0158015D01*
X0269333Y0158178D01*
X0269333Y0140856D01*
X0265845Y0137368D01*
X0263537Y0137368D01*
X0262599Y0136430D01*
X0262599Y0132625D01*
X0263537Y0131687D01*
X0268130Y0131687D01*
X0269067Y0132625D01*
X0269067Y0134933D01*
X0273333Y0139199D01*
X0273333Y0167828D01*
X0272162Y0169000D01*
X0272162Y0169000D01*
X0268260Y0172902D01*
X0268477Y0173426D01*
X0268477Y0175472D01*
X0267694Y0177362D01*
X0266247Y0178809D01*
X0264356Y0179592D01*
X0262310Y0179592D01*
X0260343Y0178732D02*
X0243833Y0178732D01*
X0243833Y0177934D02*
X0259544Y0177934D01*
X0258879Y0177135D02*
X0243833Y0177135D01*
X0243833Y0176337D02*
X0258548Y0176337D01*
X0258217Y0175538D02*
X0243833Y0175538D01*
X0243833Y0174739D02*
X0258190Y0174739D01*
X0258190Y0173941D02*
X0243833Y0173941D01*
X0243833Y0173142D02*
X0258307Y0173142D01*
X0258638Y0172344D02*
X0243833Y0172344D01*
X0243833Y0171545D02*
X0258969Y0171545D01*
X0259761Y0170747D02*
X0243833Y0170747D01*
X0243833Y0169948D02*
X0260758Y0169948D01*
X0263333Y0174449D02*
X0263885Y0174449D01*
X0271333Y0167000D01*
X0271333Y0140028D01*
X0265833Y0134528D01*
X0262599Y0134814D02*
X0250561Y0134814D01*
X0251441Y0135612D02*
X0262599Y0135612D01*
X0262599Y0136411D02*
X0252240Y0136411D01*
X0252914Y0137209D02*
X0263378Y0137209D01*
X0266485Y0138008D02*
X0253245Y0138008D01*
X0253576Y0138806D02*
X0267284Y0138806D01*
X0268082Y0139605D02*
X0253633Y0139605D01*
X0253633Y0140403D02*
X0268881Y0140403D01*
X0269333Y0141202D02*
X0253572Y0141202D01*
X0253241Y0142001D02*
X0269333Y0142001D01*
X0269333Y0142799D02*
X0252911Y0142799D01*
X0252231Y0143598D02*
X0269333Y0143598D01*
X0269333Y0144396D02*
X0251433Y0144396D01*
X0250582Y0145195D02*
X0269333Y0145195D01*
X0269333Y0145993D02*
X0251822Y0145993D01*
X0252620Y0146792D02*
X0269333Y0146792D01*
X0269333Y0147590D02*
X0253072Y0147590D01*
X0253403Y0148389D02*
X0269333Y0148389D01*
X0269333Y0149187D02*
X0253633Y0149187D01*
X0253633Y0149986D02*
X0269333Y0149986D01*
X0269333Y0150784D02*
X0253633Y0150784D01*
X0253414Y0151583D02*
X0269333Y0151583D01*
X0269333Y0152381D02*
X0253084Y0152381D01*
X0252649Y0153180D02*
X0269333Y0153180D01*
X0269333Y0153978D02*
X0266088Y0153978D01*
X0267323Y0154777D02*
X0268005Y0155459D01*
X0268641Y0156374D02*
X0269333Y0156374D01*
X0269333Y0157172D02*
X0269034Y0157172D01*
X0269293Y0157971D02*
X0269333Y0157971D01*
X0269333Y0161165D02*
X0269216Y0161165D01*
X0269333Y0161963D02*
X0268926Y0161963D01*
X0269333Y0162762D02*
X0268497Y0162762D01*
X0267884Y0163560D02*
X0269333Y0163560D01*
X0269333Y0164359D02*
X0266996Y0164359D01*
X0265585Y0165157D02*
X0269333Y0165157D01*
X0269333Y0165956D02*
X0243833Y0165956D01*
X0243833Y0166754D02*
X0268751Y0166754D01*
X0267952Y0167553D02*
X0243833Y0167553D01*
X0243833Y0168351D02*
X0267154Y0168351D01*
X0266355Y0169150D02*
X0243833Y0169150D01*
X0243833Y0165157D02*
X0261081Y0165157D01*
X0260982Y0165125D02*
X0260123Y0164687D01*
X0259343Y0164121D01*
X0258661Y0163439D01*
X0258095Y0162659D01*
X0257657Y0161800D01*
X0257359Y0160883D01*
X0257208Y0159931D01*
X0257208Y0159849D01*
X0262933Y0159849D01*
X0262933Y0165574D01*
X0262851Y0165574D01*
X0261899Y0165423D01*
X0260982Y0165125D01*
X0259671Y0164359D02*
X0243833Y0164359D01*
X0243833Y0163560D02*
X0258783Y0163560D01*
X0258169Y0162762D02*
X0243833Y0162762D01*
X0243833Y0161963D02*
X0257740Y0161963D01*
X0257451Y0161165D02*
X0243833Y0161165D01*
X0243833Y0160366D02*
X0257277Y0160366D01*
X0257240Y0158769D02*
X0243833Y0158769D01*
X0243833Y0157971D02*
X0257373Y0157971D01*
X0257633Y0157172D02*
X0243833Y0157172D01*
X0243833Y0156374D02*
X0258026Y0156374D01*
X0258577Y0155575D02*
X0243833Y0155575D01*
X0243833Y0154777D02*
X0246016Y0154777D01*
X0244816Y0153978D02*
X0243833Y0153978D01*
X0243833Y0153180D02*
X0244018Y0153180D01*
X0243833Y0159568D02*
X0262933Y0159568D01*
X0262933Y0160366D02*
X0263733Y0160366D01*
X0263733Y0161165D02*
X0262933Y0161165D01*
X0262933Y0161963D02*
X0263733Y0161963D01*
X0263733Y0162762D02*
X0262933Y0162762D01*
X0262933Y0163560D02*
X0263733Y0163560D01*
X0263733Y0164359D02*
X0262933Y0164359D01*
X0262933Y0165157D02*
X0263733Y0165157D01*
X0263733Y0158769D02*
X0262933Y0158769D01*
X0262933Y0157971D02*
X0263733Y0157971D01*
X0263733Y0157172D02*
X0262933Y0157172D01*
X0262933Y0156374D02*
X0263733Y0156374D01*
X0263733Y0155575D02*
X0262933Y0155575D01*
X0262933Y0154777D02*
X0263733Y0154777D01*
X0263733Y0153978D02*
X0262933Y0153978D01*
X0260579Y0153978D02*
X0251850Y0153978D01*
X0250651Y0154777D02*
X0259343Y0154777D01*
X0273333Y0154777D02*
X0273833Y0154777D01*
X0273833Y0155575D02*
X0273333Y0155575D01*
X0273333Y0156374D02*
X0273833Y0156374D01*
X0273833Y0157172D02*
X0273333Y0157172D01*
X0273333Y0157971D02*
X0273833Y0157971D01*
X0273833Y0158769D02*
X0273333Y0158769D01*
X0273333Y0159568D02*
X0273833Y0159568D01*
X0273833Y0160366D02*
X0273333Y0160366D01*
X0273333Y0161165D02*
X0273833Y0161165D01*
X0273833Y0161963D02*
X0273333Y0161963D01*
X0273333Y0162762D02*
X0273833Y0162762D01*
X0273833Y0163560D02*
X0273333Y0163560D01*
X0273333Y0164359D02*
X0273833Y0164359D01*
X0273833Y0165157D02*
X0273333Y0165157D01*
X0273333Y0165956D02*
X0273833Y0165956D01*
X0273833Y0166754D02*
X0273333Y0166754D01*
X0273333Y0167553D02*
X0273833Y0167553D01*
X0273833Y0168351D02*
X0272810Y0168351D01*
X0272012Y0169150D02*
X0273833Y0169150D01*
X0273833Y0169948D02*
X0271213Y0169948D01*
X0270415Y0170747D02*
X0273833Y0170747D01*
X0273833Y0171545D02*
X0269616Y0171545D01*
X0268818Y0172344D02*
X0273833Y0172344D01*
X0273833Y0173142D02*
X0268359Y0173142D01*
X0268477Y0173941D02*
X0273833Y0173941D01*
X0273833Y0174739D02*
X0268477Y0174739D01*
X0268449Y0175538D02*
X0273833Y0175538D01*
X0273617Y0176337D02*
X0268118Y0176337D01*
X0267788Y0177135D02*
X0272819Y0177135D01*
X0272020Y0177934D02*
X0267122Y0177934D01*
X0266324Y0178732D02*
X0271222Y0178732D01*
X0270423Y0179531D02*
X0264505Y0179531D01*
X0270490Y0185120D02*
X0313717Y0185120D01*
X0312971Y0185866D02*
X0314751Y0184087D01*
X0317075Y0183124D01*
X0319591Y0183124D01*
X0321916Y0184087D01*
X0323695Y0185866D01*
X0324658Y0188191D01*
X0324658Y0190707D01*
X0323695Y0193032D01*
X0321916Y0194811D01*
X0319591Y0195774D01*
X0317075Y0195774D01*
X0314751Y0194811D01*
X0312971Y0193032D01*
X0312008Y0190707D01*
X0312008Y0188191D01*
X0312971Y0185866D01*
X0312949Y0185919D02*
X0269692Y0185919D01*
X0269048Y0186717D02*
X0312619Y0186717D01*
X0312288Y0187516D02*
X0269379Y0187516D01*
X0269658Y0188314D02*
X0312008Y0188314D01*
X0312008Y0189113D02*
X0269658Y0189113D01*
X0269658Y0189911D02*
X0312008Y0189911D01*
X0312009Y0190710D02*
X0269657Y0190710D01*
X0269326Y0191508D02*
X0312340Y0191508D01*
X0312671Y0192307D02*
X0268996Y0192307D01*
X0268622Y0193105D02*
X0313045Y0193105D01*
X0313843Y0193904D02*
X0267823Y0193904D01*
X0267025Y0194702D02*
X0314642Y0194702D01*
X0316416Y0195501D02*
X0265251Y0195501D01*
X0263333Y0189449D02*
X0275833Y0176949D01*
X0275833Y0134528D01*
X0272599Y0134814D02*
X0269067Y0134814D01*
X0269067Y0134015D02*
X0272599Y0134015D01*
X0272599Y0133217D02*
X0269067Y0133217D01*
X0268861Y0132418D02*
X0272806Y0132418D01*
X0272599Y0135612D02*
X0269747Y0135612D01*
X0270545Y0136411D02*
X0272599Y0136411D01*
X0273378Y0137209D02*
X0271344Y0137209D01*
X0272142Y0138008D02*
X0273833Y0138008D01*
X0273833Y0138806D02*
X0272941Y0138806D01*
X0273333Y0139605D02*
X0273833Y0139605D01*
X0273833Y0140403D02*
X0273333Y0140403D01*
X0273333Y0141202D02*
X0273833Y0141202D01*
X0273833Y0142001D02*
X0273333Y0142001D01*
X0273333Y0142799D02*
X0273833Y0142799D01*
X0273833Y0143598D02*
X0273333Y0143598D01*
X0273333Y0144396D02*
X0273833Y0144396D01*
X0273833Y0145195D02*
X0273333Y0145195D01*
X0273333Y0145993D02*
X0273833Y0145993D01*
X0273833Y0146792D02*
X0273333Y0146792D01*
X0273333Y0147590D02*
X0273833Y0147590D01*
X0273833Y0148389D02*
X0273333Y0148389D01*
X0273333Y0149187D02*
X0273833Y0149187D01*
X0273833Y0149986D02*
X0273333Y0149986D01*
X0273333Y0150784D02*
X0273833Y0150784D01*
X0273833Y0151583D02*
X0273333Y0151583D01*
X0273333Y0152381D02*
X0273833Y0152381D01*
X0273833Y0153180D02*
X0273333Y0153180D01*
X0273333Y0153978D02*
X0273833Y0153978D01*
X0277833Y0153978D02*
X0295013Y0153978D01*
X0294751Y0154087D02*
X0297075Y0153124D01*
X0299591Y0153124D01*
X0301916Y0154087D01*
X0303695Y0155866D01*
X0304658Y0158191D01*
X0304658Y0160707D01*
X0303695Y0163032D01*
X0301916Y0164811D01*
X0299591Y0165774D01*
X0297075Y0165774D01*
X0294751Y0164811D01*
X0292971Y0163032D01*
X0292008Y0160707D01*
X0292008Y0158191D01*
X0292971Y0155866D01*
X0294751Y0154087D01*
X0294061Y0154777D02*
X0277833Y0154777D01*
X0277833Y0155575D02*
X0293262Y0155575D01*
X0292761Y0156374D02*
X0277833Y0156374D01*
X0277833Y0157172D02*
X0292430Y0157172D01*
X0292099Y0157971D02*
X0277833Y0157971D01*
X0277833Y0158769D02*
X0292008Y0158769D01*
X0292008Y0159568D02*
X0277833Y0159568D01*
X0277833Y0160366D02*
X0292008Y0160366D01*
X0292198Y0161165D02*
X0277833Y0161165D01*
X0277833Y0161963D02*
X0292529Y0161963D01*
X0292859Y0162762D02*
X0277833Y0162762D01*
X0277833Y0163560D02*
X0293500Y0163560D01*
X0294298Y0164359D02*
X0277833Y0164359D01*
X0277833Y0165157D02*
X0295587Y0165157D01*
X0301080Y0165157D02*
X0331333Y0165157D01*
X0331333Y0164359D02*
X0302368Y0164359D01*
X0303167Y0163560D02*
X0331333Y0163560D01*
X0331333Y0162762D02*
X0303807Y0162762D01*
X0304138Y0161963D02*
X0331333Y0161963D01*
X0331333Y0161165D02*
X0304469Y0161165D01*
X0304658Y0160366D02*
X0331333Y0160366D01*
X0331333Y0159568D02*
X0304658Y0159568D01*
X0304658Y0158769D02*
X0331333Y0158769D01*
X0331333Y0157971D02*
X0304567Y0157971D01*
X0304236Y0157172D02*
X0331333Y0157172D01*
X0331333Y0156374D02*
X0303906Y0156374D01*
X0303405Y0155575D02*
X0331333Y0155575D01*
X0331333Y0154777D02*
X0302606Y0154777D01*
X0301654Y0153978D02*
X0331333Y0153978D01*
X0331333Y0153180D02*
X0299726Y0153180D01*
X0296940Y0153180D02*
X0277833Y0153180D01*
X0277833Y0152381D02*
X0331333Y0152381D01*
X0331333Y0151583D02*
X0277833Y0151583D01*
X0277833Y0150784D02*
X0331333Y0150784D01*
X0331333Y0149986D02*
X0277833Y0149986D01*
X0277833Y0149187D02*
X0331333Y0149187D01*
X0331333Y0148389D02*
X0277833Y0148389D01*
X0277833Y0147590D02*
X0331333Y0147590D01*
X0331333Y0146792D02*
X0277833Y0146792D01*
X0277833Y0145993D02*
X0331333Y0145993D01*
X0331333Y0145195D02*
X0277833Y0145195D01*
X0277833Y0144396D02*
X0331333Y0144396D01*
X0331333Y0143598D02*
X0277833Y0143598D01*
X0277833Y0142799D02*
X0331333Y0142799D01*
X0331333Y0142001D02*
X0277833Y0142001D01*
X0277833Y0141202D02*
X0331333Y0141202D01*
X0331333Y0140403D02*
X0277833Y0140403D01*
X0277833Y0139605D02*
X0331333Y0139605D01*
X0331333Y0138806D02*
X0277833Y0138806D01*
X0277833Y0138008D02*
X0331333Y0138008D01*
X0331333Y0137209D02*
X0278288Y0137209D01*
X0279067Y0136411D02*
X0331333Y0136411D01*
X0331333Y0135612D02*
X0279067Y0135612D01*
X0279067Y0134814D02*
X0331333Y0134814D01*
X0331333Y0134015D02*
X0279067Y0134015D01*
X0279067Y0133217D02*
X0331333Y0133217D01*
X0331333Y0132418D02*
X0278861Y0132418D01*
X0278815Y0127627D02*
X0331333Y0127627D01*
X0331333Y0126829D02*
X0279067Y0126829D01*
X0279067Y0126030D02*
X0331333Y0126030D01*
X0331333Y0125232D02*
X0279067Y0125232D01*
X0279067Y0124433D02*
X0331333Y0124433D01*
X0331333Y0123635D02*
X0279067Y0123635D01*
X0278334Y0122836D02*
X0331333Y0122836D01*
X0331333Y0122038D02*
X0277833Y0122038D01*
X0277833Y0121239D02*
X0331333Y0121239D01*
X0331333Y0120441D02*
X0277833Y0120441D01*
X0277833Y0119642D02*
X0331333Y0119642D01*
X0331333Y0118844D02*
X0277833Y0118844D01*
X0277833Y0118045D02*
X0331333Y0118045D01*
X0331333Y0117247D02*
X0277833Y0117247D01*
X0277833Y0116448D02*
X0331333Y0116448D01*
X0331333Y0115650D02*
X0277833Y0115650D01*
X0277833Y0114851D02*
X0331333Y0114851D01*
X0331333Y0114053D02*
X0277833Y0114053D01*
X0277833Y0113254D02*
X0331333Y0113254D01*
X0331333Y0112456D02*
X0277833Y0112456D01*
X0277833Y0111657D02*
X0331333Y0111657D01*
X0331333Y0110859D02*
X0277833Y0110859D01*
X0277833Y0110060D02*
X0331333Y0110060D01*
X0331333Y0109262D02*
X0277833Y0109262D01*
X0277125Y0108463D02*
X0331333Y0108463D01*
X0331333Y0107665D02*
X0276326Y0107665D01*
X0275528Y0106866D02*
X0331333Y0106866D01*
X0331333Y0106068D02*
X0275333Y0106068D01*
X0275333Y0105269D02*
X0317064Y0105269D01*
X0317075Y0105274D02*
X0314751Y0104311D01*
X0312971Y0102532D01*
X0312008Y0100207D01*
X0312008Y0097691D01*
X0312971Y0095366D01*
X0314751Y0093587D01*
X0317075Y0092624D01*
X0319591Y0092624D01*
X0321916Y0093587D01*
X0323695Y0095366D01*
X0324658Y0097691D01*
X0324658Y0100207D01*
X0323695Y0102532D01*
X0321916Y0104311D01*
X0319591Y0105274D01*
X0317075Y0105274D01*
X0315136Y0104470D02*
X0285988Y0104470D01*
X0285685Y0104625D02*
X0284768Y0104923D01*
X0283815Y0105074D01*
X0283733Y0105074D01*
X0283733Y0099349D01*
X0282933Y0099349D01*
X0282933Y0098549D01*
X0277208Y0098549D01*
X0277208Y0098467D01*
X0277359Y0097515D01*
X0277657Y0096598D01*
X0278095Y0095739D01*
X0278661Y0094959D01*
X0279343Y0094277D01*
X0280123Y0093710D01*
X0280982Y0093273D01*
X0281899Y0092975D01*
X0282851Y0092824D01*
X0282933Y0092824D01*
X0282933Y0098549D01*
X0283733Y0098549D01*
X0283733Y0092824D01*
X0283815Y0092824D01*
X0284768Y0092975D01*
X0285685Y0093273D01*
X0286544Y0093710D01*
X0287323Y0094277D01*
X0288005Y0094959D01*
X0288572Y0095739D01*
X0289010Y0096598D01*
X0289308Y0097515D01*
X0289458Y0098467D01*
X0289458Y0098549D01*
X0283733Y0098549D01*
X0283733Y0099349D01*
X0289458Y0099349D01*
X0289458Y0099431D01*
X0289308Y0100383D01*
X0289010Y0101300D01*
X0288572Y0102159D01*
X0288005Y0102939D01*
X0287323Y0103621D01*
X0286544Y0104187D01*
X0285685Y0104625D01*
X0287253Y0103672D02*
X0314112Y0103672D01*
X0313313Y0102873D02*
X0288053Y0102873D01*
X0288615Y0102075D02*
X0312782Y0102075D01*
X0312451Y0101276D02*
X0289017Y0101276D01*
X0289277Y0100478D02*
X0312121Y0100478D01*
X0312008Y0099679D02*
X0289419Y0099679D01*
X0289397Y0098082D02*
X0312008Y0098082D01*
X0312008Y0098881D02*
X0283733Y0098881D01*
X0283733Y0099679D02*
X0282933Y0099679D01*
X0282933Y0099349D02*
X0282933Y0105074D01*
X0282851Y0105074D01*
X0281899Y0104923D01*
X0280982Y0104625D01*
X0280123Y0104187D01*
X0279343Y0103621D01*
X0278661Y0102939D01*
X0278095Y0102159D01*
X0277657Y0101300D01*
X0277359Y0100383D01*
X0277208Y0099431D01*
X0277208Y0099349D01*
X0282933Y0099349D01*
X0282933Y0098881D02*
X0275333Y0098881D01*
X0275333Y0099679D02*
X0277248Y0099679D01*
X0277390Y0100478D02*
X0275333Y0100478D01*
X0275333Y0101276D02*
X0277649Y0101276D01*
X0278052Y0102075D02*
X0275333Y0102075D01*
X0275333Y0102873D02*
X0278614Y0102873D01*
X0279414Y0103672D02*
X0275333Y0103672D01*
X0275333Y0104470D02*
X0280679Y0104470D01*
X0282933Y0104470D02*
X0283733Y0104470D01*
X0283733Y0103672D02*
X0282933Y0103672D01*
X0282933Y0102873D02*
X0283733Y0102873D01*
X0283733Y0102075D02*
X0282933Y0102075D01*
X0282933Y0101276D02*
X0283733Y0101276D01*
X0283733Y0100478D02*
X0282933Y0100478D01*
X0282933Y0098082D02*
X0283733Y0098082D01*
X0283733Y0097284D02*
X0282933Y0097284D01*
X0282933Y0096485D02*
X0283733Y0096485D01*
X0283733Y0095687D02*
X0282933Y0095687D01*
X0282933Y0094888D02*
X0283733Y0094888D01*
X0283733Y0094090D02*
X0282933Y0094090D01*
X0282933Y0093291D02*
X0283733Y0093291D01*
X0285721Y0093291D02*
X0315464Y0093291D01*
X0314247Y0094090D02*
X0287066Y0094090D01*
X0287935Y0094888D02*
X0313449Y0094888D01*
X0312838Y0095687D02*
X0288534Y0095687D01*
X0288952Y0096485D02*
X0312508Y0096485D01*
X0312177Y0097284D02*
X0289233Y0097284D01*
X0280945Y0093291D02*
X0275333Y0093291D01*
X0275333Y0092493D02*
X0331333Y0092493D01*
X0331333Y0093291D02*
X0321203Y0093291D01*
X0322419Y0094090D02*
X0331333Y0094090D01*
X0331333Y0094888D02*
X0323218Y0094888D01*
X0323828Y0095687D02*
X0331333Y0095687D01*
X0331333Y0096485D02*
X0324159Y0096485D01*
X0324490Y0097284D02*
X0331333Y0097284D01*
X0331333Y0098082D02*
X0324658Y0098082D01*
X0324658Y0098881D02*
X0331333Y0098881D01*
X0331333Y0099679D02*
X0324658Y0099679D01*
X0324546Y0100478D02*
X0331333Y0100478D01*
X0331333Y0101276D02*
X0324215Y0101276D01*
X0323885Y0102075D02*
X0331333Y0102075D01*
X0331333Y0102873D02*
X0323354Y0102873D01*
X0322555Y0103672D02*
X0331333Y0103672D01*
X0331333Y0104470D02*
X0321531Y0104470D01*
X0319603Y0105269D02*
X0331333Y0105269D01*
X0331333Y0091694D02*
X0275333Y0091694D01*
X0275333Y0090896D02*
X0331333Y0090896D01*
X0331333Y0090097D02*
X0275333Y0090097D01*
X0275333Y0089299D02*
X0331333Y0089299D01*
X0331333Y0088500D02*
X0275333Y0088500D01*
X0275333Y0087702D02*
X0331333Y0087702D01*
X0331333Y0086903D02*
X0275333Y0086903D01*
X0275333Y0086105D02*
X0331333Y0086105D01*
X0331333Y0085306D02*
X0275333Y0085306D01*
X0275333Y0084508D02*
X0331333Y0084508D01*
X0331333Y0083709D02*
X0275333Y0083709D01*
X0275333Y0082911D02*
X0331333Y0082911D01*
X0331333Y0082112D02*
X0275333Y0082112D01*
X0275333Y0081314D02*
X0331333Y0081314D01*
X0331333Y0080515D02*
X0275333Y0080515D01*
X0275333Y0079717D02*
X0331333Y0079717D01*
X0331333Y0078918D02*
X0275333Y0078918D01*
X0275333Y0078120D02*
X0331333Y0078120D01*
X0331333Y0077321D02*
X0275333Y0077321D01*
X0275333Y0076523D02*
X0331333Y0076523D01*
X0331333Y0075724D02*
X0275438Y0075724D01*
X0276236Y0074926D02*
X0278734Y0074926D01*
X0277067Y0074127D02*
X0277035Y0074127D01*
X0282932Y0074926D02*
X0296234Y0074926D01*
X0297075Y0075274D02*
X0294751Y0074311D01*
X0292971Y0072532D01*
X0292008Y0070207D01*
X0292008Y0067691D01*
X0292971Y0065366D01*
X0294751Y0063587D01*
X0297075Y0062624D01*
X0299591Y0062624D01*
X0301916Y0063587D01*
X0303695Y0065366D01*
X0304658Y0067691D01*
X0304658Y0070207D01*
X0303695Y0072532D01*
X0301916Y0074311D01*
X0299591Y0075274D01*
X0297075Y0075274D01*
X0294567Y0074127D02*
X0284600Y0074127D01*
X0285398Y0073329D02*
X0293768Y0073329D01*
X0292971Y0072530D02*
X0286196Y0072530D01*
X0286527Y0071732D02*
X0292640Y0071732D01*
X0292309Y0070933D02*
X0286858Y0070933D01*
X0287158Y0070134D02*
X0292008Y0070134D01*
X0292008Y0069336D02*
X0287158Y0069336D01*
X0287158Y0068537D02*
X0292008Y0068537D01*
X0292008Y0067739D02*
X0287158Y0067739D01*
X0286848Y0066940D02*
X0292319Y0066940D01*
X0292650Y0066142D02*
X0286517Y0066142D01*
X0286173Y0065343D02*
X0292994Y0065343D01*
X0293792Y0064545D02*
X0285374Y0064545D01*
X0284576Y0063746D02*
X0294591Y0063746D01*
X0296293Y0062948D02*
X0282874Y0062948D01*
X0300374Y0062948D02*
X0331333Y0062948D01*
X0331333Y0063746D02*
X0302076Y0063746D01*
X0302874Y0064545D02*
X0331333Y0064545D01*
X0331333Y0065343D02*
X0303673Y0065343D01*
X0304017Y0066142D02*
X0331333Y0066142D01*
X0331333Y0066940D02*
X0304348Y0066940D01*
X0304658Y0067739D02*
X0331333Y0067739D01*
X0331333Y0068537D02*
X0304658Y0068537D01*
X0304658Y0069336D02*
X0331333Y0069336D01*
X0331333Y0070134D02*
X0304658Y0070134D01*
X0304358Y0070933D02*
X0331333Y0070933D01*
X0331333Y0071732D02*
X0304027Y0071732D01*
X0303696Y0072530D02*
X0331333Y0072530D01*
X0331333Y0073329D02*
X0302898Y0073329D01*
X0302100Y0074127D02*
X0331333Y0074127D01*
X0331333Y0074926D02*
X0300432Y0074926D01*
X0279601Y0094090D02*
X0275333Y0094090D01*
X0275333Y0094888D02*
X0278732Y0094888D01*
X0278132Y0095687D02*
X0275333Y0095687D01*
X0275333Y0096485D02*
X0277714Y0096485D01*
X0277434Y0097284D02*
X0275333Y0097284D01*
X0275333Y0098082D02*
X0277269Y0098082D01*
X0246375Y0074926D02*
X0239883Y0074926D01*
X0240682Y0074127D02*
X0244965Y0074127D01*
X0244167Y0073329D02*
X0240721Y0073329D01*
X0240721Y0072530D02*
X0243645Y0072530D01*
X0243314Y0071732D02*
X0240721Y0071732D01*
X0240721Y0070933D02*
X0243033Y0070933D01*
X0243033Y0070134D02*
X0240721Y0070134D01*
X0240721Y0069336D02*
X0243033Y0069336D01*
X0243202Y0068537D02*
X0240721Y0068537D01*
X0240721Y0067739D02*
X0243533Y0067739D01*
X0243898Y0066940D02*
X0240017Y0066940D01*
X0251664Y0054164D02*
X0331333Y0054164D01*
X0331333Y0053366D02*
X0252463Y0053366D01*
X0253007Y0052567D02*
X0331333Y0052567D01*
X0331333Y0051769D02*
X0253337Y0051769D01*
X0253633Y0050970D02*
X0331333Y0050970D01*
X0331333Y0050172D02*
X0253633Y0050172D01*
X0253633Y0049373D02*
X0331333Y0049373D01*
X0331333Y0048575D02*
X0253480Y0048575D01*
X0253149Y0047776D02*
X0331333Y0047776D01*
X0331333Y0046978D02*
X0252806Y0046978D01*
X0252008Y0046179D02*
X0331333Y0046179D01*
X0331333Y0045381D02*
X0251031Y0045381D01*
X0251121Y0044582D02*
X0331333Y0044582D01*
X0331333Y0043784D02*
X0252045Y0043784D01*
X0252834Y0042985D02*
X0331333Y0042985D01*
X0331333Y0042187D02*
X0253164Y0042187D01*
X0253495Y0041388D02*
X0331333Y0041388D01*
X0331333Y0040590D02*
X0253633Y0040590D01*
X0253633Y0039791D02*
X0331333Y0039791D01*
X0331333Y0038993D02*
X0253633Y0038993D01*
X0253322Y0038194D02*
X0331333Y0038194D01*
X0331333Y0037396D02*
X0252991Y0037396D01*
X0194450Y0072530D02*
X0194333Y0072530D01*
X0194333Y0073329D02*
X0194450Y0073329D01*
X0194333Y0074127D02*
X0194765Y0074127D01*
X0194333Y0076523D02*
X0195296Y0076523D01*
X0194498Y0077321D02*
X0194333Y0077321D01*
X0194333Y0078120D02*
X0194450Y0078120D01*
X0194450Y0078918D02*
X0194333Y0078918D01*
X0194333Y0079717D02*
X0194450Y0079717D01*
X0194450Y0080515D02*
X0194333Y0080515D01*
X0194333Y0081314D02*
X0194450Y0081314D01*
X0194450Y0082112D02*
X0194333Y0082112D01*
X0194333Y0082911D02*
X0194450Y0082911D01*
X0194450Y0083709D02*
X0194333Y0083709D01*
X0194333Y0084508D02*
X0195145Y0084508D01*
X0194333Y0085306D02*
X0202333Y0085306D01*
X0202333Y0086105D02*
X0194333Y0086105D01*
X0194333Y0086903D02*
X0202333Y0086903D01*
X0202333Y0087702D02*
X0194333Y0087702D01*
X0194333Y0088500D02*
X0202333Y0088500D01*
X0202333Y0089299D02*
X0194333Y0089299D01*
X0194333Y0090097D02*
X0202333Y0090097D01*
X0202333Y0090896D02*
X0194333Y0090896D01*
X0194333Y0091694D02*
X0202333Y0091694D01*
X0202333Y0092493D02*
X0194333Y0092493D01*
X0194333Y0093291D02*
X0202333Y0093291D01*
X0202333Y0094090D02*
X0194333Y0094090D01*
X0194333Y0094888D02*
X0202333Y0094888D01*
X0202333Y0095687D02*
X0194333Y0095687D01*
X0194333Y0096485D02*
X0195333Y0096485D01*
X0194535Y0097284D02*
X0194333Y0097284D01*
X0194333Y0098082D02*
X0194450Y0098082D01*
X0194450Y0098881D02*
X0194333Y0098881D01*
X0194333Y0099679D02*
X0194450Y0099679D01*
X0194450Y0100478D02*
X0194333Y0100478D01*
X0194333Y0101276D02*
X0194450Y0101276D01*
X0194450Y0102075D02*
X0194333Y0102075D01*
X0194333Y0102873D02*
X0194450Y0102873D01*
X0194450Y0103672D02*
X0194333Y0103672D01*
X0194333Y0104470D02*
X0195108Y0104470D01*
X0194333Y0105269D02*
X0202333Y0105269D01*
X0202333Y0106068D02*
X0194333Y0106068D01*
X0194333Y0106866D02*
X0194953Y0106866D01*
X0194450Y0107665D02*
X0194333Y0107665D01*
X0194333Y0108463D02*
X0194450Y0108463D01*
X0194450Y0109262D02*
X0194333Y0109262D01*
X0194333Y0110060D02*
X0194450Y0110060D01*
X0190333Y0110060D02*
X0181987Y0110060D01*
X0181987Y0109262D02*
X0190333Y0109262D01*
X0190333Y0108463D02*
X0181987Y0108463D01*
X0181987Y0107665D02*
X0190333Y0107665D01*
X0190333Y0106866D02*
X0181987Y0106866D01*
X0181987Y0106068D02*
X0190333Y0106068D01*
X0190333Y0105269D02*
X0181987Y0105269D01*
X0181987Y0104470D02*
X0190333Y0104470D01*
X0190333Y0103672D02*
X0181987Y0103672D01*
X0181987Y0102873D02*
X0190333Y0102873D01*
X0190333Y0102075D02*
X0181987Y0102075D01*
X0181987Y0101276D02*
X0190333Y0101276D01*
X0190333Y0100478D02*
X0181987Y0100478D01*
X0181987Y0099679D02*
X0190333Y0099679D01*
X0190333Y0098881D02*
X0181987Y0098881D01*
X0181987Y0098082D02*
X0190333Y0098082D01*
X0190333Y0097284D02*
X0181987Y0097284D01*
X0181987Y0096485D02*
X0190333Y0096485D01*
X0190333Y0095687D02*
X0181987Y0095687D01*
X0181987Y0094888D02*
X0190333Y0094888D01*
X0190333Y0094090D02*
X0181987Y0094090D01*
X0181987Y0093291D02*
X0190333Y0093291D01*
X0190333Y0092493D02*
X0181987Y0092493D01*
X0181987Y0091694D02*
X0190333Y0091694D01*
X0190333Y0090896D02*
X0181987Y0090896D01*
X0181987Y0090097D02*
X0190333Y0090097D01*
X0190333Y0089299D02*
X0181987Y0089299D01*
X0181987Y0088500D02*
X0190333Y0088500D01*
X0190333Y0087702D02*
X0181987Y0087702D01*
X0181987Y0086903D02*
X0190333Y0086903D01*
X0190333Y0086105D02*
X0181987Y0086105D01*
X0181987Y0085306D02*
X0190333Y0085306D01*
X0190333Y0084508D02*
X0181987Y0084508D01*
X0181987Y0083709D02*
X0190333Y0083709D01*
X0190333Y0082911D02*
X0181987Y0082911D01*
X0181987Y0082112D02*
X0190333Y0082112D01*
X0190333Y0081314D02*
X0181987Y0081314D01*
X0181987Y0080515D02*
X0190333Y0080515D01*
X0190333Y0079717D02*
X0181987Y0079717D01*
X0181987Y0078918D02*
X0190333Y0078918D01*
X0190333Y0078120D02*
X0181987Y0078120D01*
X0181987Y0077321D02*
X0190333Y0077321D01*
X0190333Y0076523D02*
X0181987Y0076523D01*
X0181987Y0075724D02*
X0190333Y0075724D01*
X0190333Y0074926D02*
X0181987Y0074926D01*
X0181987Y0074127D02*
X0190333Y0074127D01*
X0190333Y0073329D02*
X0181987Y0073329D01*
X0181987Y0072530D02*
X0190333Y0072530D01*
X0190333Y0071732D02*
X0181987Y0071732D01*
X0181987Y0070933D02*
X0190333Y0070933D01*
X0190333Y0070134D02*
X0181987Y0070134D01*
X0181987Y0069336D02*
X0190333Y0069336D01*
X0190333Y0068537D02*
X0189539Y0068537D01*
X0192333Y0070500D02*
X0192333Y0066500D01*
X0190833Y0065000D01*
X0186680Y0065000D01*
X0183821Y0068537D02*
X0182846Y0068537D01*
X0176333Y0078000D02*
X0168333Y0070000D01*
X0176333Y0078000D02*
X0176333Y0196243D01*
X0175774Y0196802D01*
X0175774Y0203513D01*
X0173215Y0203513D02*
X0173215Y0197239D01*
X0174833Y0195621D01*
X0174833Y0086500D01*
X0168333Y0080000D01*
X0144003Y0077126D02*
X0128207Y0077126D01*
X0128333Y0077000D01*
X0107711Y0077000D01*
X0107585Y0077126D01*
X0120202Y0071732D02*
X0136308Y0071732D01*
X0135513Y0072530D02*
X0120996Y0072530D01*
X0120996Y0073329D02*
X0135513Y0073329D01*
X0135513Y0074127D02*
X0129367Y0074127D01*
X0130572Y0074926D02*
X0135513Y0074926D01*
X0135513Y0079717D02*
X0129745Y0079717D01*
X0126922Y0079717D02*
X0120996Y0079717D01*
X0120996Y0080515D02*
X0135513Y0080515D01*
X0135513Y0081314D02*
X0120996Y0081314D01*
X0120610Y0082112D02*
X0135899Y0082112D01*
X0136085Y0087702D02*
X0120424Y0087702D01*
X0120996Y0088500D02*
X0135513Y0088500D01*
X0135513Y0089299D02*
X0120996Y0089299D01*
X0120996Y0090097D02*
X0135513Y0090097D01*
X0135513Y0094888D02*
X0120996Y0094888D01*
X0120996Y0095687D02*
X0135513Y0095687D01*
X0135513Y0096485D02*
X0120996Y0096485D01*
X0120996Y0097284D02*
X0135513Y0097284D01*
X0136121Y0098082D02*
X0120388Y0098082D01*
X0120336Y0106866D02*
X0136173Y0106866D01*
X0135513Y0107665D02*
X0120996Y0107665D01*
X0120996Y0108463D02*
X0135513Y0108463D01*
X0135513Y0109262D02*
X0120996Y0109262D01*
X0120996Y0110060D02*
X0135513Y0110060D01*
X0135513Y0114126D02*
X0120996Y0114126D01*
X0120996Y0116726D01*
X0120059Y0117663D01*
X0109535Y0117663D01*
X0109535Y0118556D01*
X0108383Y0119708D01*
X0108383Y0120607D01*
X0107919Y0121728D01*
X0107110Y0122537D01*
X0107185Y0122537D01*
X0107185Y0127474D01*
X0107985Y0127474D01*
X0107985Y0122537D01*
X0119581Y0122537D01*
X0119937Y0122632D01*
X0120256Y0122817D01*
X0120517Y0123077D01*
X0120701Y0123397D01*
X0120796Y0123753D01*
X0120796Y0127474D01*
X0107985Y0127474D01*
X0107985Y0128274D01*
X0107185Y0128274D01*
X0107185Y0133211D01*
X0095590Y0133211D01*
X0095333Y0133142D01*
X0095333Y0146589D01*
X0120059Y0146589D01*
X0120996Y0147526D01*
X0120996Y0150126D01*
X0125894Y0150126D01*
X0126606Y0149414D01*
X0127727Y0148950D01*
X0128940Y0148950D01*
X0130061Y0149414D01*
X0130773Y0150126D01*
X0135513Y0150126D01*
X0135513Y0147526D01*
X0136450Y0146589D01*
X0150383Y0146589D01*
X0150383Y0133211D01*
X0144403Y0133211D01*
X0144403Y0128274D01*
X0143603Y0128274D01*
X0143603Y0133211D01*
X0136929Y0133211D01*
X0136572Y0133116D01*
X0136253Y0132931D01*
X0135993Y0132671D01*
X0135808Y0132351D01*
X0135713Y0131995D01*
X0135713Y0128274D01*
X0143603Y0128274D01*
X0143603Y0127474D01*
X0144403Y0127474D01*
X0144403Y0122537D01*
X0150383Y0122537D01*
X0150383Y0117663D01*
X0136450Y0117663D01*
X0135513Y0116726D01*
X0135513Y0114126D01*
X0135513Y0114851D02*
X0120996Y0114851D01*
X0120996Y0115650D02*
X0135513Y0115650D01*
X0135513Y0116448D02*
X0120996Y0116448D01*
X0120475Y0117247D02*
X0136034Y0117247D01*
X0136929Y0122537D02*
X0143603Y0122537D01*
X0143603Y0127474D01*
X0135713Y0127474D01*
X0135713Y0123753D01*
X0135808Y0123397D01*
X0135993Y0123077D01*
X0136253Y0122817D01*
X0136572Y0122632D01*
X0136929Y0122537D01*
X0136234Y0122836D02*
X0120275Y0122836D01*
X0120765Y0123635D02*
X0135744Y0123635D01*
X0135713Y0124433D02*
X0120796Y0124433D01*
X0120796Y0125232D02*
X0135713Y0125232D01*
X0135713Y0126030D02*
X0120796Y0126030D01*
X0120796Y0126829D02*
X0135713Y0126829D01*
X0135713Y0128426D02*
X0120796Y0128426D01*
X0120796Y0128274D02*
X0120796Y0131995D01*
X0120701Y0132351D01*
X0120517Y0132671D01*
X0120256Y0132931D01*
X0119937Y0133116D01*
X0119581Y0133211D01*
X0107985Y0133211D01*
X0107985Y0128274D01*
X0120796Y0128274D01*
X0120796Y0129224D02*
X0135713Y0129224D01*
X0135713Y0130023D02*
X0120796Y0130023D01*
X0120796Y0130821D02*
X0135713Y0130821D01*
X0135713Y0131620D02*
X0120796Y0131620D01*
X0120662Y0132418D02*
X0135847Y0132418D01*
X0143603Y0132418D02*
X0144403Y0132418D01*
X0144403Y0131620D02*
X0143603Y0131620D01*
X0143603Y0130821D02*
X0144403Y0130821D01*
X0144403Y0130023D02*
X0143603Y0130023D01*
X0143603Y0129224D02*
X0144403Y0129224D01*
X0144403Y0128426D02*
X0143603Y0128426D01*
X0143603Y0127627D02*
X0107985Y0127627D01*
X0107985Y0126829D02*
X0107185Y0126829D01*
X0107185Y0126030D02*
X0107985Y0126030D01*
X0107985Y0125232D02*
X0107185Y0125232D01*
X0107185Y0124433D02*
X0107985Y0124433D01*
X0107985Y0123635D02*
X0107185Y0123635D01*
X0107185Y0122836D02*
X0107985Y0122836D01*
X0107609Y0122038D02*
X0150383Y0122038D01*
X0150383Y0121239D02*
X0108121Y0121239D01*
X0108383Y0120441D02*
X0150383Y0120441D01*
X0150383Y0119642D02*
X0108449Y0119642D01*
X0109247Y0118844D02*
X0150383Y0118844D01*
X0150383Y0118045D02*
X0109535Y0118045D01*
X0107585Y0112126D02*
X0144003Y0112126D01*
X0143603Y0122836D02*
X0144403Y0122836D01*
X0144403Y0123635D02*
X0143603Y0123635D01*
X0143603Y0124433D02*
X0144403Y0124433D01*
X0144403Y0125232D02*
X0143603Y0125232D01*
X0143603Y0126030D02*
X0144403Y0126030D01*
X0144403Y0126829D02*
X0143603Y0126829D01*
X0150383Y0133217D02*
X0095333Y0133217D01*
X0095333Y0134015D02*
X0150383Y0134015D01*
X0150383Y0134814D02*
X0095333Y0134814D01*
X0095333Y0135612D02*
X0150383Y0135612D01*
X0150383Y0136411D02*
X0095333Y0136411D01*
X0095333Y0137209D02*
X0150383Y0137209D01*
X0150383Y0138008D02*
X0095333Y0138008D01*
X0095333Y0138806D02*
X0150383Y0138806D01*
X0150383Y0139605D02*
X0095333Y0139605D01*
X0095333Y0140403D02*
X0150383Y0140403D01*
X0150383Y0141202D02*
X0095333Y0141202D01*
X0095333Y0142001D02*
X0150383Y0142001D01*
X0150383Y0142799D02*
X0095333Y0142799D01*
X0095333Y0143598D02*
X0150383Y0143598D01*
X0150383Y0144396D02*
X0095333Y0144396D01*
X0095333Y0145195D02*
X0150383Y0145195D01*
X0150383Y0145993D02*
X0095333Y0145993D01*
X0107585Y0152126D02*
X0128333Y0152126D01*
X0128333Y0152000D01*
X0128333Y0152126D02*
X0144003Y0152126D01*
X0135513Y0149986D02*
X0130632Y0149986D01*
X0129512Y0149187D02*
X0135513Y0149187D01*
X0135513Y0148389D02*
X0120996Y0148389D01*
X0120996Y0149187D02*
X0127154Y0149187D01*
X0126034Y0149986D02*
X0120996Y0149986D01*
X0120996Y0147590D02*
X0135513Y0147590D01*
X0136248Y0146792D02*
X0120262Y0146792D01*
X0107985Y0132418D02*
X0107185Y0132418D01*
X0107185Y0131620D02*
X0107985Y0131620D01*
X0107985Y0130821D02*
X0107185Y0130821D01*
X0107185Y0130023D02*
X0107985Y0130023D01*
X0107985Y0129224D02*
X0107185Y0129224D01*
X0107185Y0128426D02*
X0107985Y0128426D01*
X0107585Y0092874D02*
X0144003Y0092874D01*
X0127299Y0074127D02*
X0120996Y0074127D01*
X0120996Y0074926D02*
X0126094Y0074926D01*
X0127933Y0054963D02*
X0128733Y0054963D01*
X0128733Y0054164D02*
X0127933Y0054164D01*
X0127933Y0053366D02*
X0128733Y0053366D01*
X0128733Y0052567D02*
X0127933Y0052567D01*
X0127933Y0051769D02*
X0128733Y0051769D01*
X0128733Y0049373D02*
X0127933Y0049373D01*
X0127933Y0048575D02*
X0128733Y0048575D01*
X0128733Y0047776D02*
X0127933Y0047776D01*
X0127933Y0046978D02*
X0128733Y0046978D01*
X0128733Y0046179D02*
X0127933Y0046179D01*
X0127933Y0045381D02*
X0128733Y0045381D01*
X0133733Y0050970D02*
X0136513Y0050970D01*
X0136784Y0051769D02*
X0133733Y0051769D01*
X0133733Y0052567D02*
X0137115Y0052567D01*
X0137559Y0053366D02*
X0133733Y0053366D01*
X0133733Y0054164D02*
X0138358Y0054164D01*
X0139461Y0054963D02*
X0133350Y0054963D01*
X0168333Y0040000D02*
X0173333Y0045000D01*
X0179987Y0045000D01*
X0176222Y0042985D02*
X0174147Y0042985D01*
X0173348Y0042187D02*
X0176404Y0042187D01*
X0202278Y0096485D02*
X0202333Y0096485D01*
X0190333Y0110859D02*
X0182020Y0110859D01*
X0182819Y0111657D02*
X0190333Y0111657D01*
X0190333Y0112456D02*
X0183617Y0112456D01*
X0184416Y0113254D02*
X0190333Y0113254D01*
X0190333Y0114053D02*
X0185214Y0114053D01*
X0185333Y0114851D02*
X0190333Y0114851D01*
X0190333Y0115650D02*
X0185333Y0115650D01*
X0185333Y0116448D02*
X0190333Y0116448D01*
X0190333Y0117247D02*
X0185333Y0117247D01*
X0185333Y0118045D02*
X0190333Y0118045D01*
X0190333Y0118844D02*
X0185333Y0118844D01*
X0185333Y0119642D02*
X0190333Y0119642D01*
X0194333Y0118045D02*
X0194450Y0118045D01*
X0194333Y0117247D02*
X0194572Y0117247D01*
X0194333Y0116448D02*
X0195370Y0116448D01*
X0194333Y0115650D02*
X0207333Y0115650D01*
X0207333Y0116448D02*
X0202241Y0116448D01*
X0203040Y0117247D02*
X0207333Y0117247D01*
X0207333Y0118045D02*
X0203162Y0118045D01*
X0203162Y0118844D02*
X0207333Y0118844D01*
X0207333Y0119642D02*
X0203162Y0119642D01*
X0207333Y0125232D02*
X0194333Y0125232D01*
X0194333Y0126030D02*
X0207333Y0126030D01*
X0195071Y0124433D02*
X0194333Y0124433D01*
X0194333Y0123635D02*
X0194450Y0123635D01*
X0194450Y0122836D02*
X0194333Y0122836D01*
X0194333Y0126829D02*
X0194990Y0126829D01*
X0194450Y0127627D02*
X0194333Y0127627D01*
X0194333Y0132418D02*
X0194450Y0132418D01*
X0194450Y0133217D02*
X0194333Y0133217D01*
X0194333Y0134015D02*
X0194653Y0134015D01*
X0222833Y0139000D02*
X0222833Y0104500D01*
X0228980Y0110060D02*
X0232009Y0110060D01*
X0232009Y0109262D02*
X0229779Y0109262D01*
X0230577Y0108463D02*
X0232009Y0108463D01*
X0227833Y0115650D02*
X0239833Y0115650D01*
X0239833Y0116448D02*
X0227833Y0116448D01*
X0231333Y0126000D02*
X0231333Y0130000D01*
X0232199Y0130866D01*
X0236365Y0130866D01*
X0236680Y0131181D01*
X0236680Y0140000D01*
X0236680Y0142654D01*
X0230833Y0148500D01*
X0230833Y0159500D01*
X0232243Y0160909D01*
X0236361Y0160909D01*
X0236361Y0160909D01*
X0236361Y0164039D01*
X0236361Y0170909D02*
X0225424Y0170909D01*
X0207333Y0175538D02*
X0181333Y0175538D01*
X0180833Y0196500D02*
X0180833Y0203454D01*
X0180892Y0203513D01*
X0187209Y0200292D02*
X0192333Y0200292D01*
X0192333Y0201090D02*
X0187933Y0201090D01*
X0188010Y0201889D02*
X0192333Y0201889D01*
X0192333Y0202687D02*
X0188010Y0202687D01*
X0188010Y0203486D02*
X0192333Y0203486D01*
X0192333Y0204284D02*
X0188010Y0204284D01*
X0188010Y0205083D02*
X0192333Y0205083D01*
X0192333Y0205881D02*
X0187948Y0205881D01*
X0173435Y0217859D02*
X0171950Y0217859D01*
X0172636Y0217061D02*
X0171152Y0217061D01*
X0171838Y0216262D02*
X0170353Y0216262D01*
X0171039Y0215464D02*
X0169555Y0215464D01*
X0170241Y0214665D02*
X0168756Y0214665D01*
X0169442Y0213867D02*
X0167958Y0213867D01*
X0168644Y0213068D02*
X0167159Y0213068D01*
X0172749Y0218658D02*
X0173824Y0218658D01*
X0173824Y0219456D02*
X0173547Y0219456D01*
X0175459Y0242874D02*
X0144003Y0242874D01*
X0144003Y0262126D02*
X0107585Y0262126D01*
X0110812Y0268165D02*
X0192333Y0268165D01*
X0192333Y0267367D02*
X0151851Y0267367D01*
X0152492Y0266568D02*
X0192333Y0266568D01*
X0192333Y0265770D02*
X0152492Y0265770D01*
X0152492Y0264971D02*
X0192333Y0264971D01*
X0192333Y0264173D02*
X0152492Y0264173D01*
X0144003Y0262126D02*
X0171207Y0262126D01*
X0169451Y0278546D02*
X0152292Y0278546D01*
X0152292Y0279344D02*
X0168718Y0279344D01*
X0168388Y0280143D02*
X0152292Y0280143D01*
X0152292Y0280941D02*
X0168072Y0280941D01*
X0168072Y0281740D02*
X0152292Y0281740D01*
X0152089Y0282539D02*
X0168072Y0282539D01*
X0192333Y0271359D02*
X0111072Y0271359D01*
X0111383Y0270561D02*
X0192333Y0270561D01*
X0192333Y0269762D02*
X0111383Y0269762D01*
X0111205Y0268964D02*
X0192333Y0268964D01*
X0194333Y0268964D02*
X0197519Y0268964D01*
X0196185Y0268165D02*
X0194333Y0268165D01*
X0194333Y0267367D02*
X0195598Y0267367D01*
X0195283Y0266568D02*
X0194333Y0266568D01*
X0194333Y0265770D02*
X0195283Y0265770D01*
X0195458Y0264971D02*
X0194333Y0264971D01*
X0194333Y0264173D02*
X0195847Y0264173D01*
X0196333Y0263374D02*
X0194333Y0263374D01*
X0194333Y0262576D02*
X0196333Y0262576D01*
X0195446Y0261777D02*
X0194333Y0261777D01*
X0194333Y0260979D02*
X0195099Y0260979D01*
X0195099Y0260180D02*
X0194333Y0260180D01*
X0194333Y0259382D02*
X0195099Y0259382D01*
X0195099Y0258583D02*
X0194333Y0258583D01*
X0194333Y0257785D02*
X0195099Y0257785D01*
X0195738Y0256986D02*
X0194333Y0256986D01*
X0194333Y0256188D02*
X0198193Y0256188D01*
X0197394Y0255389D02*
X0194333Y0255389D01*
X0194333Y0254591D02*
X0196596Y0254591D01*
X0196333Y0253792D02*
X0194333Y0253792D01*
X0194333Y0252994D02*
X0195718Y0252994D01*
X0195099Y0252195D02*
X0194333Y0252195D01*
X0194333Y0251397D02*
X0195099Y0251397D01*
X0201200Y0248203D02*
X0202159Y0248203D01*
X0204587Y0248203D02*
X0205387Y0248203D01*
X0205387Y0247404D02*
X0204587Y0247404D01*
X0204587Y0246605D02*
X0205387Y0246605D01*
X0205387Y0245807D02*
X0204587Y0245807D01*
X0204648Y0249001D02*
X0205120Y0249001D01*
X0207815Y0248203D02*
X0208486Y0248203D01*
X0211547Y0249001D02*
X0213833Y0249001D01*
X0213833Y0249800D02*
X0212346Y0249800D01*
X0212433Y0250598D02*
X0213833Y0250598D01*
X0213833Y0251397D02*
X0212433Y0251397D01*
X0212433Y0252195D02*
X0213310Y0252195D01*
X0212511Y0252994D02*
X0212433Y0252994D01*
X0213333Y0255000D02*
X0215833Y0252500D01*
X0215833Y0245000D01*
X0211680Y0245000D01*
X0215833Y0245000D02*
X0215833Y0240000D01*
X0217833Y0240217D02*
X0218833Y0240217D01*
X0218833Y0239419D02*
X0217833Y0239419D01*
X0217833Y0238620D02*
X0218833Y0238620D01*
X0218833Y0237822D02*
X0217833Y0237822D01*
X0217833Y0237023D02*
X0218833Y0237023D01*
X0218833Y0236225D02*
X0217833Y0236225D01*
X0217833Y0235426D02*
X0218833Y0235426D01*
X0218833Y0234628D02*
X0217833Y0234628D01*
X0217833Y0233829D02*
X0218833Y0233829D01*
X0218833Y0233031D02*
X0217833Y0233031D01*
X0217833Y0232232D02*
X0218833Y0232232D01*
X0218833Y0231434D02*
X0217833Y0231434D01*
X0217833Y0230635D02*
X0218833Y0230635D01*
X0218833Y0229837D02*
X0217833Y0229837D01*
X0222833Y0229837D02*
X0231949Y0229837D01*
X0230203Y0230635D02*
X0222833Y0230635D01*
X0222833Y0231434D02*
X0229404Y0231434D01*
X0228743Y0232232D02*
X0222833Y0232232D01*
X0222833Y0233031D02*
X0228412Y0233031D01*
X0228082Y0233829D02*
X0222833Y0233829D01*
X0222833Y0234628D02*
X0228033Y0234628D01*
X0228033Y0235426D02*
X0222833Y0235426D01*
X0222833Y0236225D02*
X0228104Y0236225D01*
X0228435Y0237023D02*
X0222833Y0237023D01*
X0222833Y0237822D02*
X0227683Y0237822D01*
X0228333Y0240000D02*
X0220833Y0240000D01*
X0218833Y0241016D02*
X0217833Y0241016D01*
X0217833Y0241814D02*
X0218833Y0241814D01*
X0218833Y0242613D02*
X0217833Y0242613D01*
X0217833Y0243411D02*
X0218833Y0243411D01*
X0218833Y0244210D02*
X0217833Y0244210D01*
X0217833Y0245008D02*
X0218833Y0245008D01*
X0218833Y0245807D02*
X0217833Y0245807D01*
X0217833Y0246605D02*
X0218833Y0246605D01*
X0218833Y0247404D02*
X0217833Y0247404D01*
X0217833Y0248203D02*
X0218833Y0248203D01*
X0218833Y0249001D02*
X0217833Y0249001D01*
X0217833Y0249800D02*
X0218833Y0249800D01*
X0218833Y0250598D02*
X0217833Y0250598D01*
X0217833Y0251397D02*
X0218833Y0251397D01*
X0218833Y0252195D02*
X0217833Y0252195D01*
X0217833Y0252994D02*
X0218833Y0252994D01*
X0219297Y0253792D02*
X0217370Y0253792D01*
X0216571Y0254591D02*
X0220096Y0254591D01*
X0220894Y0255389D02*
X0215773Y0255389D01*
X0214974Y0256188D02*
X0221693Y0256188D01*
X0221333Y0255828D02*
X0221333Y0255828D01*
X0222491Y0256986D02*
X0214176Y0256986D01*
X0213333Y0255000D02*
X0208333Y0255000D01*
X0208333Y0251800D02*
X0203133Y0251800D01*
X0202833Y0251500D01*
X0202185Y0260180D02*
X0201567Y0260180D01*
X0201567Y0260979D02*
X0205099Y0260979D01*
X0201220Y0261777D02*
X0235446Y0261777D01*
X0235099Y0260979D02*
X0231567Y0260979D01*
X0234482Y0260180D02*
X0235099Y0260180D01*
X0238333Y0259528D02*
X0238361Y0259500D01*
X0243833Y0259500D01*
X0241797Y0261777D02*
X0241220Y0261777D01*
X0242929Y0262576D02*
X0200333Y0262576D01*
X0200333Y0263374D02*
X0238233Y0263374D01*
X0237435Y0264173D02*
X0200819Y0264173D01*
X0201208Y0264971D02*
X0236636Y0264971D01*
X0235837Y0265770D02*
X0201383Y0265770D01*
X0201383Y0266568D02*
X0235039Y0266568D01*
X0234240Y0267367D02*
X0201068Y0267367D01*
X0200481Y0268165D02*
X0233442Y0268165D01*
X0232643Y0268964D02*
X0199148Y0268964D01*
X0198333Y0266000D02*
X0198333Y0259528D01*
X0194333Y0269762D02*
X0231845Y0269762D01*
X0231046Y0270561D02*
X0194333Y0270561D01*
X0194333Y0271359D02*
X0230248Y0271359D01*
X0229449Y0272158D02*
X0194333Y0272158D01*
X0194333Y0272956D02*
X0228651Y0272956D01*
X0227852Y0273755D02*
X0194333Y0273755D01*
X0194333Y0274553D02*
X0227054Y0274553D01*
X0226255Y0275352D02*
X0194333Y0275352D01*
X0194333Y0276150D02*
X0225457Y0276150D01*
X0224658Y0276949D02*
X0194333Y0276949D01*
X0194333Y0277747D02*
X0201045Y0277747D01*
X0200954Y0277777D02*
X0201605Y0277565D01*
X0202225Y0277467D01*
X0202225Y0281411D01*
X0203025Y0281411D01*
X0203025Y0282211D01*
X0206968Y0282211D01*
X0206870Y0282830D01*
X0206659Y0283482D01*
X0206347Y0284092D01*
X0205945Y0284647D01*
X0205460Y0285131D01*
X0204906Y0285534D01*
X0204296Y0285845D01*
X0203644Y0286057D01*
X0203025Y0286155D01*
X0203025Y0282211D01*
X0202225Y0282211D01*
X0202225Y0286155D01*
X0201605Y0286057D01*
X0200954Y0285845D01*
X0200343Y0285534D01*
X0199789Y0285131D01*
X0199305Y0284647D01*
X0198902Y0284092D01*
X0198591Y0283482D01*
X0198379Y0282830D01*
X0198281Y0282211D01*
X0202225Y0282211D01*
X0202225Y0281411D01*
X0198281Y0281411D01*
X0198379Y0280792D01*
X0198591Y0280140D01*
X0198902Y0279530D01*
X0199305Y0278975D01*
X0199789Y0278491D01*
X0200343Y0278088D01*
X0200954Y0277777D01*
X0202225Y0277747D02*
X0203025Y0277747D01*
X0203025Y0277467D02*
X0203644Y0277565D01*
X0204296Y0277777D01*
X0204906Y0278088D01*
X0205460Y0278491D01*
X0205945Y0278975D01*
X0206347Y0279530D01*
X0206659Y0280140D01*
X0206870Y0280792D01*
X0206968Y0281411D01*
X0203025Y0281411D01*
X0203025Y0277467D01*
X0203025Y0278546D02*
X0202225Y0278546D01*
X0202225Y0279344D02*
X0203025Y0279344D01*
X0203025Y0280143D02*
X0202225Y0280143D01*
X0202225Y0280941D02*
X0203025Y0280941D01*
X0203025Y0281740D02*
X0218072Y0281740D01*
X0218072Y0282539D02*
X0206916Y0282539D01*
X0206706Y0283337D02*
X0218329Y0283337D01*
X0218660Y0284136D02*
X0206316Y0284136D01*
X0205657Y0284934D02*
X0219309Y0284934D01*
X0220195Y0285733D02*
X0204516Y0285733D01*
X0203025Y0285733D02*
X0202225Y0285733D01*
X0202225Y0284934D02*
X0203025Y0284934D01*
X0203025Y0284136D02*
X0202225Y0284136D01*
X0202225Y0283337D02*
X0203025Y0283337D01*
X0203025Y0282539D02*
X0202225Y0282539D01*
X0202225Y0281740D02*
X0194333Y0281740D01*
X0194333Y0282539D02*
X0198333Y0282539D01*
X0198544Y0283337D02*
X0194333Y0283337D01*
X0194333Y0284136D02*
X0198933Y0284136D01*
X0199592Y0284934D02*
X0194333Y0284934D01*
X0194333Y0285733D02*
X0200733Y0285733D01*
X0198355Y0280941D02*
X0194333Y0280941D01*
X0194333Y0280143D02*
X0198590Y0280143D01*
X0199036Y0279344D02*
X0194333Y0279344D01*
X0194333Y0278546D02*
X0199734Y0278546D01*
X0204204Y0277747D02*
X0220538Y0277747D01*
X0219451Y0278546D02*
X0205515Y0278546D01*
X0206213Y0279344D02*
X0218718Y0279344D01*
X0218388Y0280143D02*
X0206659Y0280143D01*
X0206894Y0280941D02*
X0218072Y0280941D01*
X0222625Y0281811D02*
X0239436Y0265000D01*
X0243333Y0265000D01*
X0248333Y0260000D01*
X0248333Y0255000D01*
X0238333Y0245000D01*
X0231680Y0245000D01*
X0228333Y0240000D02*
X0233333Y0235000D01*
X0234718Y0229837D02*
X0235342Y0229837D01*
X0234543Y0229038D02*
X0228254Y0229038D01*
X0228414Y0228240D02*
X0233745Y0228240D01*
X0231461Y0227441D02*
X0228414Y0227441D01*
X0228414Y0226643D02*
X0230712Y0226643D01*
X0226024Y0226643D02*
X0225643Y0226643D01*
X0225643Y0227441D02*
X0226024Y0227441D01*
X0226024Y0228240D02*
X0225643Y0228240D01*
X0225643Y0229038D02*
X0226024Y0229038D01*
X0236323Y0224247D02*
X0331333Y0224247D01*
X0331333Y0223449D02*
X0235992Y0223449D01*
X0271289Y0184322D02*
X0314516Y0184322D01*
X0316111Y0183523D02*
X0272087Y0183523D01*
X0272886Y0182725D02*
X0331333Y0182725D01*
X0331333Y0183523D02*
X0320555Y0183523D01*
X0322151Y0184322D02*
X0331333Y0184322D01*
X0331333Y0185120D02*
X0322950Y0185120D01*
X0323717Y0185919D02*
X0331333Y0185919D01*
X0331333Y0186717D02*
X0324048Y0186717D01*
X0324379Y0187516D02*
X0331333Y0187516D01*
X0331333Y0188314D02*
X0324658Y0188314D01*
X0324658Y0189113D02*
X0331333Y0189113D01*
X0331333Y0189911D02*
X0324658Y0189911D01*
X0324657Y0190710D02*
X0331333Y0190710D01*
X0331333Y0191508D02*
X0324326Y0191508D01*
X0323996Y0192307D02*
X0331333Y0192307D01*
X0331333Y0193105D02*
X0323622Y0193105D01*
X0322823Y0193904D02*
X0331333Y0193904D01*
X0331333Y0194702D02*
X0322025Y0194702D01*
X0320251Y0195501D02*
X0331333Y0195501D01*
X0331333Y0181926D02*
X0273684Y0181926D01*
X0274483Y0181128D02*
X0331333Y0181128D01*
X0331333Y0180329D02*
X0275281Y0180329D01*
X0276080Y0179531D02*
X0331333Y0179531D01*
X0331333Y0178732D02*
X0276879Y0178732D01*
X0277677Y0177934D02*
X0331333Y0177934D01*
X0331333Y0177135D02*
X0277833Y0177135D01*
X0277833Y0176337D02*
X0331333Y0176337D01*
X0331333Y0175538D02*
X0277833Y0175538D01*
X0277833Y0174739D02*
X0331333Y0174739D01*
X0331333Y0173941D02*
X0277833Y0173941D01*
X0277833Y0173142D02*
X0331333Y0173142D01*
X0331333Y0172344D02*
X0277833Y0172344D01*
X0277833Y0171545D02*
X0331333Y0171545D01*
X0331333Y0170747D02*
X0277833Y0170747D01*
X0277833Y0169948D02*
X0331333Y0169948D01*
X0331333Y0169150D02*
X0277833Y0169150D01*
X0277833Y0168351D02*
X0331333Y0168351D01*
X0331333Y0167553D02*
X0277833Y0167553D01*
X0277833Y0166754D02*
X0331333Y0166754D01*
X0331333Y0165956D02*
X0277833Y0165956D01*
X0262599Y0134015D02*
X0251813Y0134015D01*
X0252612Y0133217D02*
X0262599Y0133217D01*
X0262806Y0132418D02*
X0253068Y0132418D01*
X0253399Y0131620D02*
X0331333Y0131620D01*
X0331333Y0130821D02*
X0253633Y0130821D01*
X0253633Y0130023D02*
X0331333Y0130023D01*
X0331333Y0129224D02*
X0253633Y0129224D01*
X0253418Y0128426D02*
X0331333Y0128426D01*
X0331333Y0269762D02*
X0292795Y0269762D01*
X0294722Y0270561D02*
X0331333Y0270561D01*
X0331333Y0271359D02*
X0295864Y0271359D01*
X0296662Y0272158D02*
X0331333Y0272158D01*
X0331333Y0272956D02*
X0297461Y0272956D01*
X0297832Y0273755D02*
X0331333Y0273755D01*
X0331333Y0274553D02*
X0298163Y0274553D01*
X0298494Y0275352D02*
X0331333Y0275352D01*
X0331333Y0276150D02*
X0298733Y0276150D01*
X0298733Y0276949D02*
X0331333Y0276949D01*
X0331333Y0277747D02*
X0298733Y0277747D01*
X0298733Y0278546D02*
X0331333Y0278546D01*
X0331333Y0279344D02*
X0298619Y0279344D01*
X0298289Y0280143D02*
X0331333Y0280143D01*
X0331333Y0280941D02*
X0297958Y0280941D01*
X0297627Y0281740D02*
X0331333Y0281740D01*
X0331333Y0282539D02*
X0296966Y0282539D01*
X0296167Y0283337D02*
X0331333Y0283337D01*
X0331333Y0284136D02*
X0295369Y0284136D01*
X0293528Y0284934D02*
X0331333Y0284934D01*
X0331333Y0285733D02*
X0325063Y0285733D01*
X0327256Y0286531D02*
X0331333Y0286531D01*
X0331333Y0287330D02*
X0328660Y0287330D01*
X0328055Y0286822D02*
X0328055Y0286822D01*
X0329612Y0288128D02*
X0331333Y0288128D01*
X0331333Y0288927D02*
X0330564Y0288927D01*
X0330567Y0288930D02*
X0330567Y0288930D01*
X0330567Y0288930D01*
X0331027Y0289725D02*
X0331333Y0289725D01*
X0317805Y0302501D02*
X0314742Y0302501D01*
X0315661Y0301703D02*
X0316853Y0301703D01*
X0316099Y0301070D02*
X0316099Y0301070D01*
X0316099Y0301070D01*
X0144403Y0282539D02*
X0143603Y0282539D01*
X0143603Y0281740D02*
X0144403Y0281740D01*
X0144403Y0280941D02*
X0143603Y0280941D01*
X0143603Y0280143D02*
X0144403Y0280143D01*
X0144403Y0279344D02*
X0143603Y0279344D01*
X0143603Y0278546D02*
X0144403Y0278546D01*
X0144403Y0276150D02*
X0143603Y0276150D01*
X0143603Y0275352D02*
X0144403Y0275352D01*
X0144403Y0274553D02*
X0143603Y0274553D01*
X0143603Y0273755D02*
X0144403Y0273755D01*
X0144403Y0272956D02*
X0143603Y0272956D01*
X0136114Y0272956D02*
X0120396Y0272956D01*
X0120796Y0273755D02*
X0135713Y0273755D01*
X0135713Y0274553D02*
X0120796Y0274553D01*
X0120796Y0275352D02*
X0135713Y0275352D01*
X0135713Y0276150D02*
X0120796Y0276150D01*
X0120796Y0276949D02*
X0135713Y0276949D01*
X0135713Y0278546D02*
X0120796Y0278546D01*
X0120796Y0279344D02*
X0135713Y0279344D01*
X0135713Y0280143D02*
X0120796Y0280143D01*
X0120796Y0280941D02*
X0135713Y0280941D01*
X0135713Y0281740D02*
X0120796Y0281740D01*
X0120593Y0282539D02*
X0135916Y0282539D01*
X0136154Y0267367D02*
X0120355Y0267367D01*
X0120996Y0266568D02*
X0135513Y0266568D01*
X0135513Y0265770D02*
X0120996Y0265770D01*
X0120996Y0264971D02*
X0135513Y0264971D01*
X0135513Y0264173D02*
X0120996Y0264173D01*
X0107985Y0207478D02*
X0107185Y0207478D01*
X0107185Y0206680D02*
X0107985Y0206680D01*
X0107985Y0205881D02*
X0107185Y0205881D01*
X0107185Y0205083D02*
X0107985Y0205083D01*
X0107985Y0204284D02*
X0107185Y0204284D01*
X0107185Y0203486D02*
X0107985Y0203486D01*
X0107596Y0196299D02*
X0126383Y0196299D01*
X0126383Y0195501D02*
X0107883Y0195501D01*
X0107889Y0194702D02*
X0126383Y0194702D01*
X0126383Y0193904D02*
X0108687Y0193904D01*
X0108393Y0194198D02*
X0108393Y0194198D01*
X0109486Y0193105D02*
X0126383Y0193105D01*
X0126383Y0192307D02*
X0120415Y0192307D01*
X0120996Y0191508D02*
X0126383Y0191508D01*
X0126383Y0190710D02*
X0120996Y0190710D01*
X0120996Y0189911D02*
X0126383Y0189911D01*
X0128333Y0187126D02*
X0107585Y0187126D01*
X0107585Y0167874D02*
X0144003Y0167874D01*
D28*
X0128333Y0187126D02*
X0128333Y0210000D01*
X0133333Y0215000D01*
X0166333Y0215000D01*
X0173215Y0221882D01*
X0173215Y0226487D01*
X0175774Y0226487D02*
X0175774Y0217441D01*
X0168333Y0210000D01*
X0168333Y0208000D01*
X0152333Y0192000D01*
X0152333Y0113000D01*
X0151459Y0112126D01*
X0144003Y0112126D01*
X0107585Y0112126D02*
X0107585Y0117748D01*
X0105333Y0120000D01*
X0107585Y0092874D02*
X0107585Y0085748D01*
X0108333Y0085000D01*
X0108333Y0160000D02*
X0107585Y0160748D01*
X0107585Y0167874D01*
X0107585Y0187126D02*
X0107585Y0192248D01*
X0104833Y0195000D01*
X0108333Y0235000D02*
X0107585Y0235748D01*
X0107585Y0242874D01*
X0170656Y0207323D02*
X0170656Y0203513D01*
X0170656Y0207323D02*
X0186010Y0222677D01*
X0186010Y0226487D01*
X0178333Y0203513D02*
X0178333Y0195000D01*
X0183333Y0190000D01*
X0190299Y0190000D01*
D29*
X0180833Y0186000D03*
X0188333Y0180500D03*
X0180833Y0196500D03*
X0148333Y0195500D03*
X0148333Y0211500D03*
X0148333Y0218500D03*
X0128333Y0227000D03*
X0108333Y0235000D03*
X0108333Y0270000D03*
X0178333Y0245000D03*
X0178333Y0235000D03*
X0202833Y0251500D03*
X0198333Y0266000D03*
X0233833Y0251500D03*
X0243833Y0259500D03*
X0230333Y0229000D03*
X0233333Y0225000D03*
X0218333Y0209000D03*
X0236447Y0189154D03*
X0222833Y0139000D03*
X0229833Y0135000D03*
X0231333Y0126000D03*
X0213333Y0125000D03*
X0213333Y0135000D03*
X0192333Y0130000D03*
X0188333Y0135000D03*
X0188333Y0125000D03*
X0179333Y0122000D03*
X0143333Y0120000D03*
X0143333Y0140000D03*
X0128333Y0152000D03*
X0118333Y0140000D03*
X0108333Y0160000D03*
X0104833Y0195000D03*
X0105333Y0120000D03*
X0108333Y0085000D03*
X0128333Y0077000D03*
X0227583Y0082750D03*
M02*
