G75*
%MOIN*%
%OFA0B0*%
%FSLAX25Y25*%
%IPPOS*%
%LPD*%
%AMOC8*
5,1,8,0,0,1.08239X$1,22.5*
%
%ADD10C,0.08200*%
%ADD11R,0.06312X0.05918*%
%ADD12R,0.03162X0.05524*%
%ADD13C,0.04000*%
%ADD14C,0.04123*%
%ADD15R,0.05131X0.04737*%
%ADD16C,0.06706*%
%ADD17R,0.04737X0.05131*%
%ADD18R,0.08200X0.08200*%
%ADD19C,0.13398*%
%ADD20C,0.10250*%
%ADD21C,0.07887*%
%ADD22R,0.05800X0.03300*%
%ADD23R,0.04068X0.03280*%
%ADD24R,0.14580X0.08674*%
%ADD25R,0.24422X0.08674*%
%ADD26R,0.08800X0.08800*%
%ADD27C,0.08800*%
%ADD28R,0.02000X0.04700*%
%ADD29C,0.12800*%
%ADD30C,0.03300*%
D10*
X0168333Y0040000D03*
X0168333Y0050000D03*
X0168333Y0060000D03*
X0168333Y0070000D03*
X0168333Y0080000D03*
X0168333Y0090000D03*
X0168333Y0100000D03*
X0168333Y0110000D03*
X0168333Y0120000D03*
X0168333Y0130000D03*
X0168333Y0140000D03*
X0168333Y0150000D03*
X0168333Y0160000D03*
X0168333Y0170000D03*
X0168333Y0180000D03*
X0168333Y0190000D03*
X0248333Y0150000D03*
X0248333Y0140000D03*
X0248333Y0130000D03*
X0248333Y0120000D03*
X0248333Y0110000D03*
X0248333Y0100000D03*
X0248333Y0090000D03*
X0248333Y0080000D03*
X0248333Y0070000D03*
X0248333Y0060000D03*
X0248333Y0050000D03*
X0248333Y0040000D03*
X0255833Y0242500D03*
X0265833Y0247500D03*
X0255833Y0252500D03*
X0265833Y0257500D03*
X0255833Y0262500D03*
X0265833Y0267500D03*
X0255833Y0272500D03*
D11*
X0236361Y0180909D03*
X0236361Y0170909D03*
X0236361Y0160909D03*
X0236361Y0150909D03*
X0236365Y0130866D03*
X0236365Y0120866D03*
X0236365Y0110866D03*
X0236365Y0100866D03*
X0236365Y0080866D03*
X0236365Y0070866D03*
X0236365Y0060866D03*
X0236365Y0050866D03*
X0198806Y0050591D03*
X0198806Y0060591D03*
X0198806Y0070591D03*
X0198806Y0080591D03*
X0198806Y0100591D03*
X0198806Y0110591D03*
X0198806Y0120591D03*
X0198806Y0130591D03*
X0198802Y0150634D03*
X0198802Y0160634D03*
X0198802Y0170634D03*
X0198802Y0180634D03*
D12*
X0210833Y0203976D03*
X0215833Y0203976D03*
X0220833Y0203976D03*
X0225833Y0203976D03*
X0225833Y0226024D03*
X0220833Y0226024D03*
X0215833Y0226024D03*
X0210833Y0226024D03*
D13*
X0203333Y0235000D03*
D14*
X0233333Y0235000D03*
D15*
X0231680Y0245000D03*
X0224987Y0245000D03*
X0211680Y0245000D03*
X0204987Y0245000D03*
X0229987Y0140000D03*
X0236680Y0140000D03*
X0236680Y0090000D03*
X0229987Y0090000D03*
X0221680Y0090000D03*
X0214987Y0090000D03*
X0186680Y0065000D03*
X0179987Y0065000D03*
X0179987Y0055000D03*
X0186680Y0055000D03*
X0186680Y0045000D03*
X0179987Y0045000D03*
D16*
X0182625Y0281811D03*
X0172625Y0281811D03*
X0202625Y0281811D03*
X0222625Y0281811D03*
D17*
X0233333Y0218346D03*
X0233333Y0211654D03*
X0225833Y0195846D03*
X0225833Y0189154D03*
X0210833Y0189154D03*
X0210833Y0195846D03*
X0188333Y0153346D03*
X0188333Y0146654D03*
D18*
X0265833Y0237500D03*
D19*
X0290833Y0232500D03*
X0290833Y0277500D03*
D20*
X0263333Y0189449D03*
X0263333Y0159449D03*
X0298333Y0159449D03*
X0318333Y0189449D03*
X0318333Y0098949D03*
X0283333Y0098949D03*
X0280833Y0068949D03*
X0298333Y0068949D03*
D21*
X0265833Y0083949D03*
X0263333Y0174449D03*
D22*
X0228333Y0251800D03*
X0228333Y0255000D03*
X0228333Y0258200D03*
X0208333Y0258200D03*
X0208333Y0255000D03*
X0208333Y0251800D03*
D23*
X0198333Y0250472D03*
X0198333Y0259528D03*
X0238333Y0259528D03*
X0238333Y0250472D03*
X0265833Y0134528D03*
X0265833Y0125472D03*
X0275833Y0125472D03*
X0275833Y0134528D03*
D24*
X0144003Y0127874D03*
X0144003Y0112126D03*
X0144003Y0092874D03*
X0144003Y0077126D03*
X0144003Y0152126D03*
X0144003Y0167874D03*
X0144003Y0187126D03*
X0144003Y0202874D03*
X0144003Y0227126D03*
X0144003Y0242874D03*
X0144003Y0262126D03*
X0144003Y0277874D03*
D25*
X0107585Y0277874D03*
X0107585Y0262126D03*
X0107585Y0242874D03*
X0107585Y0227126D03*
X0107585Y0202874D03*
X0107585Y0187126D03*
X0107585Y0167874D03*
X0107585Y0152126D03*
X0107585Y0127874D03*
X0107585Y0112126D03*
X0107585Y0092874D03*
X0107585Y0077126D03*
D26*
X0128333Y0050000D03*
D27*
X0142113Y0050000D03*
D28*
X0170656Y0203513D03*
X0173215Y0203513D03*
X0175774Y0203513D03*
X0178333Y0203513D03*
X0180892Y0203513D03*
X0183451Y0203513D03*
X0186010Y0203513D03*
X0186010Y0226487D03*
X0183451Y0226487D03*
X0180892Y0226487D03*
X0178333Y0226487D03*
X0175774Y0226487D03*
X0173215Y0226487D03*
X0170656Y0226487D03*
D29*
X0103333Y0295000D03*
X0323333Y0295000D03*
X0103333Y0045000D03*
D30*
X0098333Y0055000D03*
X0313333Y0300000D03*
M02*
