G75*
%MOIN*%
%OFA0B0*%
%FSLAX25Y25*%
%IPPOS*%
%LPD*%
%AMOC8*
5,1,8,0,0,1.08239X$1,22.5*
%
%ADD10C,0.00800*%
%ADD11C,0.00000*%
D10*
X0093333Y0035000D02*
X0093333Y0305000D01*
X0333333Y0305000D01*
X0333333Y0035000D01*
X0093333Y0035000D01*
D11*
X0097333Y0045000D02*
X0097335Y0045154D01*
X0097341Y0045309D01*
X0097351Y0045463D01*
X0097365Y0045617D01*
X0097383Y0045770D01*
X0097404Y0045923D01*
X0097430Y0046076D01*
X0097460Y0046227D01*
X0097493Y0046378D01*
X0097531Y0046528D01*
X0097572Y0046677D01*
X0097617Y0046825D01*
X0097666Y0046971D01*
X0097719Y0047117D01*
X0097775Y0047260D01*
X0097835Y0047403D01*
X0097899Y0047543D01*
X0097966Y0047683D01*
X0098037Y0047820D01*
X0098111Y0047955D01*
X0098189Y0048089D01*
X0098270Y0048220D01*
X0098355Y0048349D01*
X0098443Y0048477D01*
X0098534Y0048601D01*
X0098628Y0048724D01*
X0098726Y0048844D01*
X0098826Y0048961D01*
X0098930Y0049076D01*
X0099036Y0049188D01*
X0099145Y0049297D01*
X0099257Y0049403D01*
X0099372Y0049507D01*
X0099489Y0049607D01*
X0099609Y0049705D01*
X0099732Y0049799D01*
X0099856Y0049890D01*
X0099984Y0049978D01*
X0100113Y0050063D01*
X0100244Y0050144D01*
X0100378Y0050222D01*
X0100513Y0050296D01*
X0100650Y0050367D01*
X0100790Y0050434D01*
X0100930Y0050498D01*
X0101073Y0050558D01*
X0101216Y0050614D01*
X0101362Y0050667D01*
X0101508Y0050716D01*
X0101656Y0050761D01*
X0101805Y0050802D01*
X0101955Y0050840D01*
X0102106Y0050873D01*
X0102257Y0050903D01*
X0102410Y0050929D01*
X0102563Y0050950D01*
X0102716Y0050968D01*
X0102870Y0050982D01*
X0103024Y0050992D01*
X0103179Y0050998D01*
X0103333Y0051000D01*
X0103487Y0050998D01*
X0103642Y0050992D01*
X0103796Y0050982D01*
X0103950Y0050968D01*
X0104103Y0050950D01*
X0104256Y0050929D01*
X0104409Y0050903D01*
X0104560Y0050873D01*
X0104711Y0050840D01*
X0104861Y0050802D01*
X0105010Y0050761D01*
X0105158Y0050716D01*
X0105304Y0050667D01*
X0105450Y0050614D01*
X0105593Y0050558D01*
X0105736Y0050498D01*
X0105876Y0050434D01*
X0106016Y0050367D01*
X0106153Y0050296D01*
X0106288Y0050222D01*
X0106422Y0050144D01*
X0106553Y0050063D01*
X0106682Y0049978D01*
X0106810Y0049890D01*
X0106934Y0049799D01*
X0107057Y0049705D01*
X0107177Y0049607D01*
X0107294Y0049507D01*
X0107409Y0049403D01*
X0107521Y0049297D01*
X0107630Y0049188D01*
X0107736Y0049076D01*
X0107840Y0048961D01*
X0107940Y0048844D01*
X0108038Y0048724D01*
X0108132Y0048601D01*
X0108223Y0048477D01*
X0108311Y0048349D01*
X0108396Y0048220D01*
X0108477Y0048089D01*
X0108555Y0047955D01*
X0108629Y0047820D01*
X0108700Y0047683D01*
X0108767Y0047543D01*
X0108831Y0047403D01*
X0108891Y0047260D01*
X0108947Y0047117D01*
X0109000Y0046971D01*
X0109049Y0046825D01*
X0109094Y0046677D01*
X0109135Y0046528D01*
X0109173Y0046378D01*
X0109206Y0046227D01*
X0109236Y0046076D01*
X0109262Y0045923D01*
X0109283Y0045770D01*
X0109301Y0045617D01*
X0109315Y0045463D01*
X0109325Y0045309D01*
X0109331Y0045154D01*
X0109333Y0045000D01*
X0109331Y0044846D01*
X0109325Y0044691D01*
X0109315Y0044537D01*
X0109301Y0044383D01*
X0109283Y0044230D01*
X0109262Y0044077D01*
X0109236Y0043924D01*
X0109206Y0043773D01*
X0109173Y0043622D01*
X0109135Y0043472D01*
X0109094Y0043323D01*
X0109049Y0043175D01*
X0109000Y0043029D01*
X0108947Y0042883D01*
X0108891Y0042740D01*
X0108831Y0042597D01*
X0108767Y0042457D01*
X0108700Y0042317D01*
X0108629Y0042180D01*
X0108555Y0042045D01*
X0108477Y0041911D01*
X0108396Y0041780D01*
X0108311Y0041651D01*
X0108223Y0041523D01*
X0108132Y0041399D01*
X0108038Y0041276D01*
X0107940Y0041156D01*
X0107840Y0041039D01*
X0107736Y0040924D01*
X0107630Y0040812D01*
X0107521Y0040703D01*
X0107409Y0040597D01*
X0107294Y0040493D01*
X0107177Y0040393D01*
X0107057Y0040295D01*
X0106934Y0040201D01*
X0106810Y0040110D01*
X0106682Y0040022D01*
X0106553Y0039937D01*
X0106422Y0039856D01*
X0106288Y0039778D01*
X0106153Y0039704D01*
X0106016Y0039633D01*
X0105876Y0039566D01*
X0105736Y0039502D01*
X0105593Y0039442D01*
X0105450Y0039386D01*
X0105304Y0039333D01*
X0105158Y0039284D01*
X0105010Y0039239D01*
X0104861Y0039198D01*
X0104711Y0039160D01*
X0104560Y0039127D01*
X0104409Y0039097D01*
X0104256Y0039071D01*
X0104103Y0039050D01*
X0103950Y0039032D01*
X0103796Y0039018D01*
X0103642Y0039008D01*
X0103487Y0039002D01*
X0103333Y0039000D01*
X0103179Y0039002D01*
X0103024Y0039008D01*
X0102870Y0039018D01*
X0102716Y0039032D01*
X0102563Y0039050D01*
X0102410Y0039071D01*
X0102257Y0039097D01*
X0102106Y0039127D01*
X0101955Y0039160D01*
X0101805Y0039198D01*
X0101656Y0039239D01*
X0101508Y0039284D01*
X0101362Y0039333D01*
X0101216Y0039386D01*
X0101073Y0039442D01*
X0100930Y0039502D01*
X0100790Y0039566D01*
X0100650Y0039633D01*
X0100513Y0039704D01*
X0100378Y0039778D01*
X0100244Y0039856D01*
X0100113Y0039937D01*
X0099984Y0040022D01*
X0099856Y0040110D01*
X0099732Y0040201D01*
X0099609Y0040295D01*
X0099489Y0040393D01*
X0099372Y0040493D01*
X0099257Y0040597D01*
X0099145Y0040703D01*
X0099036Y0040812D01*
X0098930Y0040924D01*
X0098826Y0041039D01*
X0098726Y0041156D01*
X0098628Y0041276D01*
X0098534Y0041399D01*
X0098443Y0041523D01*
X0098355Y0041651D01*
X0098270Y0041780D01*
X0098189Y0041911D01*
X0098111Y0042045D01*
X0098037Y0042180D01*
X0097966Y0042317D01*
X0097899Y0042457D01*
X0097835Y0042597D01*
X0097775Y0042740D01*
X0097719Y0042883D01*
X0097666Y0043029D01*
X0097617Y0043175D01*
X0097572Y0043323D01*
X0097531Y0043472D01*
X0097493Y0043622D01*
X0097460Y0043773D01*
X0097430Y0043924D01*
X0097404Y0044077D01*
X0097383Y0044230D01*
X0097365Y0044383D01*
X0097351Y0044537D01*
X0097341Y0044691D01*
X0097335Y0044846D01*
X0097333Y0045000D01*
X0284534Y0232500D02*
X0284536Y0232658D01*
X0284542Y0232816D01*
X0284552Y0232974D01*
X0284566Y0233132D01*
X0284584Y0233289D01*
X0284605Y0233446D01*
X0284631Y0233602D01*
X0284661Y0233758D01*
X0284694Y0233913D01*
X0284732Y0234066D01*
X0284773Y0234219D01*
X0284818Y0234371D01*
X0284867Y0234522D01*
X0284920Y0234671D01*
X0284976Y0234819D01*
X0285036Y0234965D01*
X0285100Y0235110D01*
X0285168Y0235253D01*
X0285239Y0235395D01*
X0285313Y0235535D01*
X0285391Y0235672D01*
X0285473Y0235808D01*
X0285557Y0235942D01*
X0285646Y0236073D01*
X0285737Y0236202D01*
X0285832Y0236329D01*
X0285929Y0236454D01*
X0286030Y0236576D01*
X0286134Y0236695D01*
X0286241Y0236812D01*
X0286351Y0236926D01*
X0286464Y0237037D01*
X0286579Y0237146D01*
X0286697Y0237251D01*
X0286818Y0237353D01*
X0286941Y0237453D01*
X0287067Y0237549D01*
X0287195Y0237642D01*
X0287325Y0237732D01*
X0287458Y0237818D01*
X0287593Y0237902D01*
X0287729Y0237981D01*
X0287868Y0238058D01*
X0288009Y0238130D01*
X0288151Y0238200D01*
X0288295Y0238265D01*
X0288441Y0238327D01*
X0288588Y0238385D01*
X0288737Y0238440D01*
X0288887Y0238491D01*
X0289038Y0238538D01*
X0289190Y0238581D01*
X0289343Y0238620D01*
X0289498Y0238656D01*
X0289653Y0238687D01*
X0289809Y0238715D01*
X0289965Y0238739D01*
X0290122Y0238759D01*
X0290280Y0238775D01*
X0290437Y0238787D01*
X0290596Y0238795D01*
X0290754Y0238799D01*
X0290912Y0238799D01*
X0291070Y0238795D01*
X0291229Y0238787D01*
X0291386Y0238775D01*
X0291544Y0238759D01*
X0291701Y0238739D01*
X0291857Y0238715D01*
X0292013Y0238687D01*
X0292168Y0238656D01*
X0292323Y0238620D01*
X0292476Y0238581D01*
X0292628Y0238538D01*
X0292779Y0238491D01*
X0292929Y0238440D01*
X0293078Y0238385D01*
X0293225Y0238327D01*
X0293371Y0238265D01*
X0293515Y0238200D01*
X0293657Y0238130D01*
X0293798Y0238058D01*
X0293937Y0237981D01*
X0294073Y0237902D01*
X0294208Y0237818D01*
X0294341Y0237732D01*
X0294471Y0237642D01*
X0294599Y0237549D01*
X0294725Y0237453D01*
X0294848Y0237353D01*
X0294969Y0237251D01*
X0295087Y0237146D01*
X0295202Y0237037D01*
X0295315Y0236926D01*
X0295425Y0236812D01*
X0295532Y0236695D01*
X0295636Y0236576D01*
X0295737Y0236454D01*
X0295834Y0236329D01*
X0295929Y0236202D01*
X0296020Y0236073D01*
X0296109Y0235942D01*
X0296193Y0235808D01*
X0296275Y0235672D01*
X0296353Y0235535D01*
X0296427Y0235395D01*
X0296498Y0235253D01*
X0296566Y0235110D01*
X0296630Y0234965D01*
X0296690Y0234819D01*
X0296746Y0234671D01*
X0296799Y0234522D01*
X0296848Y0234371D01*
X0296893Y0234219D01*
X0296934Y0234066D01*
X0296972Y0233913D01*
X0297005Y0233758D01*
X0297035Y0233602D01*
X0297061Y0233446D01*
X0297082Y0233289D01*
X0297100Y0233132D01*
X0297114Y0232974D01*
X0297124Y0232816D01*
X0297130Y0232658D01*
X0297132Y0232500D01*
X0297130Y0232342D01*
X0297124Y0232184D01*
X0297114Y0232026D01*
X0297100Y0231868D01*
X0297082Y0231711D01*
X0297061Y0231554D01*
X0297035Y0231398D01*
X0297005Y0231242D01*
X0296972Y0231087D01*
X0296934Y0230934D01*
X0296893Y0230781D01*
X0296848Y0230629D01*
X0296799Y0230478D01*
X0296746Y0230329D01*
X0296690Y0230181D01*
X0296630Y0230035D01*
X0296566Y0229890D01*
X0296498Y0229747D01*
X0296427Y0229605D01*
X0296353Y0229465D01*
X0296275Y0229328D01*
X0296193Y0229192D01*
X0296109Y0229058D01*
X0296020Y0228927D01*
X0295929Y0228798D01*
X0295834Y0228671D01*
X0295737Y0228546D01*
X0295636Y0228424D01*
X0295532Y0228305D01*
X0295425Y0228188D01*
X0295315Y0228074D01*
X0295202Y0227963D01*
X0295087Y0227854D01*
X0294969Y0227749D01*
X0294848Y0227647D01*
X0294725Y0227547D01*
X0294599Y0227451D01*
X0294471Y0227358D01*
X0294341Y0227268D01*
X0294208Y0227182D01*
X0294073Y0227098D01*
X0293937Y0227019D01*
X0293798Y0226942D01*
X0293657Y0226870D01*
X0293515Y0226800D01*
X0293371Y0226735D01*
X0293225Y0226673D01*
X0293078Y0226615D01*
X0292929Y0226560D01*
X0292779Y0226509D01*
X0292628Y0226462D01*
X0292476Y0226419D01*
X0292323Y0226380D01*
X0292168Y0226344D01*
X0292013Y0226313D01*
X0291857Y0226285D01*
X0291701Y0226261D01*
X0291544Y0226241D01*
X0291386Y0226225D01*
X0291229Y0226213D01*
X0291070Y0226205D01*
X0290912Y0226201D01*
X0290754Y0226201D01*
X0290596Y0226205D01*
X0290437Y0226213D01*
X0290280Y0226225D01*
X0290122Y0226241D01*
X0289965Y0226261D01*
X0289809Y0226285D01*
X0289653Y0226313D01*
X0289498Y0226344D01*
X0289343Y0226380D01*
X0289190Y0226419D01*
X0289038Y0226462D01*
X0288887Y0226509D01*
X0288737Y0226560D01*
X0288588Y0226615D01*
X0288441Y0226673D01*
X0288295Y0226735D01*
X0288151Y0226800D01*
X0288009Y0226870D01*
X0287868Y0226942D01*
X0287729Y0227019D01*
X0287593Y0227098D01*
X0287458Y0227182D01*
X0287325Y0227268D01*
X0287195Y0227358D01*
X0287067Y0227451D01*
X0286941Y0227547D01*
X0286818Y0227647D01*
X0286697Y0227749D01*
X0286579Y0227854D01*
X0286464Y0227963D01*
X0286351Y0228074D01*
X0286241Y0228188D01*
X0286134Y0228305D01*
X0286030Y0228424D01*
X0285929Y0228546D01*
X0285832Y0228671D01*
X0285737Y0228798D01*
X0285646Y0228927D01*
X0285557Y0229058D01*
X0285473Y0229192D01*
X0285391Y0229328D01*
X0285313Y0229465D01*
X0285239Y0229605D01*
X0285168Y0229747D01*
X0285100Y0229890D01*
X0285036Y0230035D01*
X0284976Y0230181D01*
X0284920Y0230329D01*
X0284867Y0230478D01*
X0284818Y0230629D01*
X0284773Y0230781D01*
X0284732Y0230934D01*
X0284694Y0231087D01*
X0284661Y0231242D01*
X0284631Y0231398D01*
X0284605Y0231554D01*
X0284584Y0231711D01*
X0284566Y0231868D01*
X0284552Y0232026D01*
X0284542Y0232184D01*
X0284536Y0232342D01*
X0284534Y0232500D01*
X0284534Y0277500D02*
X0284536Y0277658D01*
X0284542Y0277816D01*
X0284552Y0277974D01*
X0284566Y0278132D01*
X0284584Y0278289D01*
X0284605Y0278446D01*
X0284631Y0278602D01*
X0284661Y0278758D01*
X0284694Y0278913D01*
X0284732Y0279066D01*
X0284773Y0279219D01*
X0284818Y0279371D01*
X0284867Y0279522D01*
X0284920Y0279671D01*
X0284976Y0279819D01*
X0285036Y0279965D01*
X0285100Y0280110D01*
X0285168Y0280253D01*
X0285239Y0280395D01*
X0285313Y0280535D01*
X0285391Y0280672D01*
X0285473Y0280808D01*
X0285557Y0280942D01*
X0285646Y0281073D01*
X0285737Y0281202D01*
X0285832Y0281329D01*
X0285929Y0281454D01*
X0286030Y0281576D01*
X0286134Y0281695D01*
X0286241Y0281812D01*
X0286351Y0281926D01*
X0286464Y0282037D01*
X0286579Y0282146D01*
X0286697Y0282251D01*
X0286818Y0282353D01*
X0286941Y0282453D01*
X0287067Y0282549D01*
X0287195Y0282642D01*
X0287325Y0282732D01*
X0287458Y0282818D01*
X0287593Y0282902D01*
X0287729Y0282981D01*
X0287868Y0283058D01*
X0288009Y0283130D01*
X0288151Y0283200D01*
X0288295Y0283265D01*
X0288441Y0283327D01*
X0288588Y0283385D01*
X0288737Y0283440D01*
X0288887Y0283491D01*
X0289038Y0283538D01*
X0289190Y0283581D01*
X0289343Y0283620D01*
X0289498Y0283656D01*
X0289653Y0283687D01*
X0289809Y0283715D01*
X0289965Y0283739D01*
X0290122Y0283759D01*
X0290280Y0283775D01*
X0290437Y0283787D01*
X0290596Y0283795D01*
X0290754Y0283799D01*
X0290912Y0283799D01*
X0291070Y0283795D01*
X0291229Y0283787D01*
X0291386Y0283775D01*
X0291544Y0283759D01*
X0291701Y0283739D01*
X0291857Y0283715D01*
X0292013Y0283687D01*
X0292168Y0283656D01*
X0292323Y0283620D01*
X0292476Y0283581D01*
X0292628Y0283538D01*
X0292779Y0283491D01*
X0292929Y0283440D01*
X0293078Y0283385D01*
X0293225Y0283327D01*
X0293371Y0283265D01*
X0293515Y0283200D01*
X0293657Y0283130D01*
X0293798Y0283058D01*
X0293937Y0282981D01*
X0294073Y0282902D01*
X0294208Y0282818D01*
X0294341Y0282732D01*
X0294471Y0282642D01*
X0294599Y0282549D01*
X0294725Y0282453D01*
X0294848Y0282353D01*
X0294969Y0282251D01*
X0295087Y0282146D01*
X0295202Y0282037D01*
X0295315Y0281926D01*
X0295425Y0281812D01*
X0295532Y0281695D01*
X0295636Y0281576D01*
X0295737Y0281454D01*
X0295834Y0281329D01*
X0295929Y0281202D01*
X0296020Y0281073D01*
X0296109Y0280942D01*
X0296193Y0280808D01*
X0296275Y0280672D01*
X0296353Y0280535D01*
X0296427Y0280395D01*
X0296498Y0280253D01*
X0296566Y0280110D01*
X0296630Y0279965D01*
X0296690Y0279819D01*
X0296746Y0279671D01*
X0296799Y0279522D01*
X0296848Y0279371D01*
X0296893Y0279219D01*
X0296934Y0279066D01*
X0296972Y0278913D01*
X0297005Y0278758D01*
X0297035Y0278602D01*
X0297061Y0278446D01*
X0297082Y0278289D01*
X0297100Y0278132D01*
X0297114Y0277974D01*
X0297124Y0277816D01*
X0297130Y0277658D01*
X0297132Y0277500D01*
X0297130Y0277342D01*
X0297124Y0277184D01*
X0297114Y0277026D01*
X0297100Y0276868D01*
X0297082Y0276711D01*
X0297061Y0276554D01*
X0297035Y0276398D01*
X0297005Y0276242D01*
X0296972Y0276087D01*
X0296934Y0275934D01*
X0296893Y0275781D01*
X0296848Y0275629D01*
X0296799Y0275478D01*
X0296746Y0275329D01*
X0296690Y0275181D01*
X0296630Y0275035D01*
X0296566Y0274890D01*
X0296498Y0274747D01*
X0296427Y0274605D01*
X0296353Y0274465D01*
X0296275Y0274328D01*
X0296193Y0274192D01*
X0296109Y0274058D01*
X0296020Y0273927D01*
X0295929Y0273798D01*
X0295834Y0273671D01*
X0295737Y0273546D01*
X0295636Y0273424D01*
X0295532Y0273305D01*
X0295425Y0273188D01*
X0295315Y0273074D01*
X0295202Y0272963D01*
X0295087Y0272854D01*
X0294969Y0272749D01*
X0294848Y0272647D01*
X0294725Y0272547D01*
X0294599Y0272451D01*
X0294471Y0272358D01*
X0294341Y0272268D01*
X0294208Y0272182D01*
X0294073Y0272098D01*
X0293937Y0272019D01*
X0293798Y0271942D01*
X0293657Y0271870D01*
X0293515Y0271800D01*
X0293371Y0271735D01*
X0293225Y0271673D01*
X0293078Y0271615D01*
X0292929Y0271560D01*
X0292779Y0271509D01*
X0292628Y0271462D01*
X0292476Y0271419D01*
X0292323Y0271380D01*
X0292168Y0271344D01*
X0292013Y0271313D01*
X0291857Y0271285D01*
X0291701Y0271261D01*
X0291544Y0271241D01*
X0291386Y0271225D01*
X0291229Y0271213D01*
X0291070Y0271205D01*
X0290912Y0271201D01*
X0290754Y0271201D01*
X0290596Y0271205D01*
X0290437Y0271213D01*
X0290280Y0271225D01*
X0290122Y0271241D01*
X0289965Y0271261D01*
X0289809Y0271285D01*
X0289653Y0271313D01*
X0289498Y0271344D01*
X0289343Y0271380D01*
X0289190Y0271419D01*
X0289038Y0271462D01*
X0288887Y0271509D01*
X0288737Y0271560D01*
X0288588Y0271615D01*
X0288441Y0271673D01*
X0288295Y0271735D01*
X0288151Y0271800D01*
X0288009Y0271870D01*
X0287868Y0271942D01*
X0287729Y0272019D01*
X0287593Y0272098D01*
X0287458Y0272182D01*
X0287325Y0272268D01*
X0287195Y0272358D01*
X0287067Y0272451D01*
X0286941Y0272547D01*
X0286818Y0272647D01*
X0286697Y0272749D01*
X0286579Y0272854D01*
X0286464Y0272963D01*
X0286351Y0273074D01*
X0286241Y0273188D01*
X0286134Y0273305D01*
X0286030Y0273424D01*
X0285929Y0273546D01*
X0285832Y0273671D01*
X0285737Y0273798D01*
X0285646Y0273927D01*
X0285557Y0274058D01*
X0285473Y0274192D01*
X0285391Y0274328D01*
X0285313Y0274465D01*
X0285239Y0274605D01*
X0285168Y0274747D01*
X0285100Y0274890D01*
X0285036Y0275035D01*
X0284976Y0275181D01*
X0284920Y0275329D01*
X0284867Y0275478D01*
X0284818Y0275629D01*
X0284773Y0275781D01*
X0284732Y0275934D01*
X0284694Y0276087D01*
X0284661Y0276242D01*
X0284631Y0276398D01*
X0284605Y0276554D01*
X0284584Y0276711D01*
X0284566Y0276868D01*
X0284552Y0277026D01*
X0284542Y0277184D01*
X0284536Y0277342D01*
X0284534Y0277500D01*
X0317333Y0295000D02*
X0317335Y0295154D01*
X0317341Y0295309D01*
X0317351Y0295463D01*
X0317365Y0295617D01*
X0317383Y0295770D01*
X0317404Y0295923D01*
X0317430Y0296076D01*
X0317460Y0296227D01*
X0317493Y0296378D01*
X0317531Y0296528D01*
X0317572Y0296677D01*
X0317617Y0296825D01*
X0317666Y0296971D01*
X0317719Y0297117D01*
X0317775Y0297260D01*
X0317835Y0297403D01*
X0317899Y0297543D01*
X0317966Y0297683D01*
X0318037Y0297820D01*
X0318111Y0297955D01*
X0318189Y0298089D01*
X0318270Y0298220D01*
X0318355Y0298349D01*
X0318443Y0298477D01*
X0318534Y0298601D01*
X0318628Y0298724D01*
X0318726Y0298844D01*
X0318826Y0298961D01*
X0318930Y0299076D01*
X0319036Y0299188D01*
X0319145Y0299297D01*
X0319257Y0299403D01*
X0319372Y0299507D01*
X0319489Y0299607D01*
X0319609Y0299705D01*
X0319732Y0299799D01*
X0319856Y0299890D01*
X0319984Y0299978D01*
X0320113Y0300063D01*
X0320244Y0300144D01*
X0320378Y0300222D01*
X0320513Y0300296D01*
X0320650Y0300367D01*
X0320790Y0300434D01*
X0320930Y0300498D01*
X0321073Y0300558D01*
X0321216Y0300614D01*
X0321362Y0300667D01*
X0321508Y0300716D01*
X0321656Y0300761D01*
X0321805Y0300802D01*
X0321955Y0300840D01*
X0322106Y0300873D01*
X0322257Y0300903D01*
X0322410Y0300929D01*
X0322563Y0300950D01*
X0322716Y0300968D01*
X0322870Y0300982D01*
X0323024Y0300992D01*
X0323179Y0300998D01*
X0323333Y0301000D01*
X0323487Y0300998D01*
X0323642Y0300992D01*
X0323796Y0300982D01*
X0323950Y0300968D01*
X0324103Y0300950D01*
X0324256Y0300929D01*
X0324409Y0300903D01*
X0324560Y0300873D01*
X0324711Y0300840D01*
X0324861Y0300802D01*
X0325010Y0300761D01*
X0325158Y0300716D01*
X0325304Y0300667D01*
X0325450Y0300614D01*
X0325593Y0300558D01*
X0325736Y0300498D01*
X0325876Y0300434D01*
X0326016Y0300367D01*
X0326153Y0300296D01*
X0326288Y0300222D01*
X0326422Y0300144D01*
X0326553Y0300063D01*
X0326682Y0299978D01*
X0326810Y0299890D01*
X0326934Y0299799D01*
X0327057Y0299705D01*
X0327177Y0299607D01*
X0327294Y0299507D01*
X0327409Y0299403D01*
X0327521Y0299297D01*
X0327630Y0299188D01*
X0327736Y0299076D01*
X0327840Y0298961D01*
X0327940Y0298844D01*
X0328038Y0298724D01*
X0328132Y0298601D01*
X0328223Y0298477D01*
X0328311Y0298349D01*
X0328396Y0298220D01*
X0328477Y0298089D01*
X0328555Y0297955D01*
X0328629Y0297820D01*
X0328700Y0297683D01*
X0328767Y0297543D01*
X0328831Y0297403D01*
X0328891Y0297260D01*
X0328947Y0297117D01*
X0329000Y0296971D01*
X0329049Y0296825D01*
X0329094Y0296677D01*
X0329135Y0296528D01*
X0329173Y0296378D01*
X0329206Y0296227D01*
X0329236Y0296076D01*
X0329262Y0295923D01*
X0329283Y0295770D01*
X0329301Y0295617D01*
X0329315Y0295463D01*
X0329325Y0295309D01*
X0329331Y0295154D01*
X0329333Y0295000D01*
X0329331Y0294846D01*
X0329325Y0294691D01*
X0329315Y0294537D01*
X0329301Y0294383D01*
X0329283Y0294230D01*
X0329262Y0294077D01*
X0329236Y0293924D01*
X0329206Y0293773D01*
X0329173Y0293622D01*
X0329135Y0293472D01*
X0329094Y0293323D01*
X0329049Y0293175D01*
X0329000Y0293029D01*
X0328947Y0292883D01*
X0328891Y0292740D01*
X0328831Y0292597D01*
X0328767Y0292457D01*
X0328700Y0292317D01*
X0328629Y0292180D01*
X0328555Y0292045D01*
X0328477Y0291911D01*
X0328396Y0291780D01*
X0328311Y0291651D01*
X0328223Y0291523D01*
X0328132Y0291399D01*
X0328038Y0291276D01*
X0327940Y0291156D01*
X0327840Y0291039D01*
X0327736Y0290924D01*
X0327630Y0290812D01*
X0327521Y0290703D01*
X0327409Y0290597D01*
X0327294Y0290493D01*
X0327177Y0290393D01*
X0327057Y0290295D01*
X0326934Y0290201D01*
X0326810Y0290110D01*
X0326682Y0290022D01*
X0326553Y0289937D01*
X0326422Y0289856D01*
X0326288Y0289778D01*
X0326153Y0289704D01*
X0326016Y0289633D01*
X0325876Y0289566D01*
X0325736Y0289502D01*
X0325593Y0289442D01*
X0325450Y0289386D01*
X0325304Y0289333D01*
X0325158Y0289284D01*
X0325010Y0289239D01*
X0324861Y0289198D01*
X0324711Y0289160D01*
X0324560Y0289127D01*
X0324409Y0289097D01*
X0324256Y0289071D01*
X0324103Y0289050D01*
X0323950Y0289032D01*
X0323796Y0289018D01*
X0323642Y0289008D01*
X0323487Y0289002D01*
X0323333Y0289000D01*
X0323179Y0289002D01*
X0323024Y0289008D01*
X0322870Y0289018D01*
X0322716Y0289032D01*
X0322563Y0289050D01*
X0322410Y0289071D01*
X0322257Y0289097D01*
X0322106Y0289127D01*
X0321955Y0289160D01*
X0321805Y0289198D01*
X0321656Y0289239D01*
X0321508Y0289284D01*
X0321362Y0289333D01*
X0321216Y0289386D01*
X0321073Y0289442D01*
X0320930Y0289502D01*
X0320790Y0289566D01*
X0320650Y0289633D01*
X0320513Y0289704D01*
X0320378Y0289778D01*
X0320244Y0289856D01*
X0320113Y0289937D01*
X0319984Y0290022D01*
X0319856Y0290110D01*
X0319732Y0290201D01*
X0319609Y0290295D01*
X0319489Y0290393D01*
X0319372Y0290493D01*
X0319257Y0290597D01*
X0319145Y0290703D01*
X0319036Y0290812D01*
X0318930Y0290924D01*
X0318826Y0291039D01*
X0318726Y0291156D01*
X0318628Y0291276D01*
X0318534Y0291399D01*
X0318443Y0291523D01*
X0318355Y0291651D01*
X0318270Y0291780D01*
X0318189Y0291911D01*
X0318111Y0292045D01*
X0318037Y0292180D01*
X0317966Y0292317D01*
X0317899Y0292457D01*
X0317835Y0292597D01*
X0317775Y0292740D01*
X0317719Y0292883D01*
X0317666Y0293029D01*
X0317617Y0293175D01*
X0317572Y0293323D01*
X0317531Y0293472D01*
X0317493Y0293622D01*
X0317460Y0293773D01*
X0317430Y0293924D01*
X0317404Y0294077D01*
X0317383Y0294230D01*
X0317365Y0294383D01*
X0317351Y0294537D01*
X0317341Y0294691D01*
X0317335Y0294846D01*
X0317333Y0295000D01*
X0097333Y0295000D02*
X0097335Y0295154D01*
X0097341Y0295309D01*
X0097351Y0295463D01*
X0097365Y0295617D01*
X0097383Y0295770D01*
X0097404Y0295923D01*
X0097430Y0296076D01*
X0097460Y0296227D01*
X0097493Y0296378D01*
X0097531Y0296528D01*
X0097572Y0296677D01*
X0097617Y0296825D01*
X0097666Y0296971D01*
X0097719Y0297117D01*
X0097775Y0297260D01*
X0097835Y0297403D01*
X0097899Y0297543D01*
X0097966Y0297683D01*
X0098037Y0297820D01*
X0098111Y0297955D01*
X0098189Y0298089D01*
X0098270Y0298220D01*
X0098355Y0298349D01*
X0098443Y0298477D01*
X0098534Y0298601D01*
X0098628Y0298724D01*
X0098726Y0298844D01*
X0098826Y0298961D01*
X0098930Y0299076D01*
X0099036Y0299188D01*
X0099145Y0299297D01*
X0099257Y0299403D01*
X0099372Y0299507D01*
X0099489Y0299607D01*
X0099609Y0299705D01*
X0099732Y0299799D01*
X0099856Y0299890D01*
X0099984Y0299978D01*
X0100113Y0300063D01*
X0100244Y0300144D01*
X0100378Y0300222D01*
X0100513Y0300296D01*
X0100650Y0300367D01*
X0100790Y0300434D01*
X0100930Y0300498D01*
X0101073Y0300558D01*
X0101216Y0300614D01*
X0101362Y0300667D01*
X0101508Y0300716D01*
X0101656Y0300761D01*
X0101805Y0300802D01*
X0101955Y0300840D01*
X0102106Y0300873D01*
X0102257Y0300903D01*
X0102410Y0300929D01*
X0102563Y0300950D01*
X0102716Y0300968D01*
X0102870Y0300982D01*
X0103024Y0300992D01*
X0103179Y0300998D01*
X0103333Y0301000D01*
X0103487Y0300998D01*
X0103642Y0300992D01*
X0103796Y0300982D01*
X0103950Y0300968D01*
X0104103Y0300950D01*
X0104256Y0300929D01*
X0104409Y0300903D01*
X0104560Y0300873D01*
X0104711Y0300840D01*
X0104861Y0300802D01*
X0105010Y0300761D01*
X0105158Y0300716D01*
X0105304Y0300667D01*
X0105450Y0300614D01*
X0105593Y0300558D01*
X0105736Y0300498D01*
X0105876Y0300434D01*
X0106016Y0300367D01*
X0106153Y0300296D01*
X0106288Y0300222D01*
X0106422Y0300144D01*
X0106553Y0300063D01*
X0106682Y0299978D01*
X0106810Y0299890D01*
X0106934Y0299799D01*
X0107057Y0299705D01*
X0107177Y0299607D01*
X0107294Y0299507D01*
X0107409Y0299403D01*
X0107521Y0299297D01*
X0107630Y0299188D01*
X0107736Y0299076D01*
X0107840Y0298961D01*
X0107940Y0298844D01*
X0108038Y0298724D01*
X0108132Y0298601D01*
X0108223Y0298477D01*
X0108311Y0298349D01*
X0108396Y0298220D01*
X0108477Y0298089D01*
X0108555Y0297955D01*
X0108629Y0297820D01*
X0108700Y0297683D01*
X0108767Y0297543D01*
X0108831Y0297403D01*
X0108891Y0297260D01*
X0108947Y0297117D01*
X0109000Y0296971D01*
X0109049Y0296825D01*
X0109094Y0296677D01*
X0109135Y0296528D01*
X0109173Y0296378D01*
X0109206Y0296227D01*
X0109236Y0296076D01*
X0109262Y0295923D01*
X0109283Y0295770D01*
X0109301Y0295617D01*
X0109315Y0295463D01*
X0109325Y0295309D01*
X0109331Y0295154D01*
X0109333Y0295000D01*
X0109331Y0294846D01*
X0109325Y0294691D01*
X0109315Y0294537D01*
X0109301Y0294383D01*
X0109283Y0294230D01*
X0109262Y0294077D01*
X0109236Y0293924D01*
X0109206Y0293773D01*
X0109173Y0293622D01*
X0109135Y0293472D01*
X0109094Y0293323D01*
X0109049Y0293175D01*
X0109000Y0293029D01*
X0108947Y0292883D01*
X0108891Y0292740D01*
X0108831Y0292597D01*
X0108767Y0292457D01*
X0108700Y0292317D01*
X0108629Y0292180D01*
X0108555Y0292045D01*
X0108477Y0291911D01*
X0108396Y0291780D01*
X0108311Y0291651D01*
X0108223Y0291523D01*
X0108132Y0291399D01*
X0108038Y0291276D01*
X0107940Y0291156D01*
X0107840Y0291039D01*
X0107736Y0290924D01*
X0107630Y0290812D01*
X0107521Y0290703D01*
X0107409Y0290597D01*
X0107294Y0290493D01*
X0107177Y0290393D01*
X0107057Y0290295D01*
X0106934Y0290201D01*
X0106810Y0290110D01*
X0106682Y0290022D01*
X0106553Y0289937D01*
X0106422Y0289856D01*
X0106288Y0289778D01*
X0106153Y0289704D01*
X0106016Y0289633D01*
X0105876Y0289566D01*
X0105736Y0289502D01*
X0105593Y0289442D01*
X0105450Y0289386D01*
X0105304Y0289333D01*
X0105158Y0289284D01*
X0105010Y0289239D01*
X0104861Y0289198D01*
X0104711Y0289160D01*
X0104560Y0289127D01*
X0104409Y0289097D01*
X0104256Y0289071D01*
X0104103Y0289050D01*
X0103950Y0289032D01*
X0103796Y0289018D01*
X0103642Y0289008D01*
X0103487Y0289002D01*
X0103333Y0289000D01*
X0103179Y0289002D01*
X0103024Y0289008D01*
X0102870Y0289018D01*
X0102716Y0289032D01*
X0102563Y0289050D01*
X0102410Y0289071D01*
X0102257Y0289097D01*
X0102106Y0289127D01*
X0101955Y0289160D01*
X0101805Y0289198D01*
X0101656Y0289239D01*
X0101508Y0289284D01*
X0101362Y0289333D01*
X0101216Y0289386D01*
X0101073Y0289442D01*
X0100930Y0289502D01*
X0100790Y0289566D01*
X0100650Y0289633D01*
X0100513Y0289704D01*
X0100378Y0289778D01*
X0100244Y0289856D01*
X0100113Y0289937D01*
X0099984Y0290022D01*
X0099856Y0290110D01*
X0099732Y0290201D01*
X0099609Y0290295D01*
X0099489Y0290393D01*
X0099372Y0290493D01*
X0099257Y0290597D01*
X0099145Y0290703D01*
X0099036Y0290812D01*
X0098930Y0290924D01*
X0098826Y0291039D01*
X0098726Y0291156D01*
X0098628Y0291276D01*
X0098534Y0291399D01*
X0098443Y0291523D01*
X0098355Y0291651D01*
X0098270Y0291780D01*
X0098189Y0291911D01*
X0098111Y0292045D01*
X0098037Y0292180D01*
X0097966Y0292317D01*
X0097899Y0292457D01*
X0097835Y0292597D01*
X0097775Y0292740D01*
X0097719Y0292883D01*
X0097666Y0293029D01*
X0097617Y0293175D01*
X0097572Y0293323D01*
X0097531Y0293472D01*
X0097493Y0293622D01*
X0097460Y0293773D01*
X0097430Y0293924D01*
X0097404Y0294077D01*
X0097383Y0294230D01*
X0097365Y0294383D01*
X0097351Y0294537D01*
X0097341Y0294691D01*
X0097335Y0294846D01*
X0097333Y0295000D01*
M02*
