%
M48
M72
T01C0.0150
T02C0.0354
T03C0.0394
T04C0.0400
T05C0.0472
T06C0.0630
T07C0.1200
T08C0.1260
%
T01
X10833Y8500
X12833Y7700
X14333Y12000
X14333Y14000
X12833Y15200
X11833Y14000
X10833Y16000
X10483Y19500
X12833Y22700
X10833Y23500
X14833Y21850
X14833Y21150
X14833Y19550
X18083Y19650
X18083Y18600
X18833Y18050
X21833Y20900
X23333Y22500
X23033Y22900
X23383Y25150
X24383Y25950
X20283Y25150
X19833Y26600
X17833Y24500
X17833Y23500
X23645Y18915
X22283Y13900
X22983Y13500
X23133Y12600
X21333Y12500
X21333Y13500
X19233Y13000
X18833Y13500
X18833Y12500
X17933Y12200
X22758Y8275
X10533Y12000
X10833Y27000
T02
X20333Y23500
X23333Y23500
T03
X25583Y24250
X26583Y24750
X25583Y25250
X26583Y25750
X25583Y26250
X26583Y26750
X25583Y27250
X22262Y28181
X20262Y28181
X18262Y28181
X17262Y28181
X26583Y23750
T04
X16833Y19000
X16833Y18000
X16833Y17000
X16833Y16000
X16833Y15000
X16833Y14000
X16833Y13000
X16833Y12000
X16833Y11000
X16833Y10000
X16833Y9000
X16833Y8000
X16833Y7000
X16833Y6000
X16833Y5000
X16833Y4000
X24833Y4000
X24833Y5000
X24833Y6000
X24833Y7000
X24833Y8000
X24833Y9000
X24833Y10000
X24833Y11000
X24833Y12000
X24833Y13000
X24833Y14000
X24833Y15000
T05
X26333Y17445
X26583Y8395
X14211Y5000
X12833Y5000
T06
X26333Y15945
X29833Y15945
X31833Y18945
X26333Y18945
X28333Y9895
X28083Y6895
X29833Y6895
X31833Y9895
T07
X10333Y4500
X10333Y29500
X32333Y29500
T08
X29083Y27750
X29083Y23250
M30
