G75*
%MOIN*%
%OFA0B0*%
%FSLAX25Y25*%
%IPPOS*%
%LPD*%
%AMOC8*
5,1,8,0,0,1.08239X$1,22.5*
%
%ADD10C,0.00800*%
%ADD11C,0.07400*%
%ADD12C,0.05906*%
%ADD13R,0.07400X0.07400*%
%ADD14C,0.09450*%
%ADD15C,0.07087*%
%ADD16R,0.08000X0.08000*%
%ADD17C,0.08000*%
%ADD18R,0.04331X0.03937*%
%ADD19C,0.02500*%
%ADD20C,0.03000*%
%ADD21C,0.02900*%
%ADD22C,0.10000*%
%ADD23C,0.00700*%
D10*
X0095333Y0049744D02*
X0095333Y0084142D01*
X0095705Y0083244D01*
X0096577Y0082372D01*
X0097717Y0081900D01*
X0098950Y0081900D01*
X0100089Y0082372D01*
X0100767Y0083050D01*
X0105970Y0083050D01*
X0106606Y0082414D01*
X0107727Y0081950D01*
X0108940Y0081950D01*
X0110061Y0082414D01*
X0110919Y0083272D01*
X0111383Y0084393D01*
X0111383Y0085607D01*
X0110919Y0086728D01*
X0110283Y0087363D01*
X0110283Y0157637D01*
X0110919Y0158272D01*
X0111383Y0159393D01*
X0111383Y0160607D01*
X0110919Y0161728D01*
X0110283Y0162363D01*
X0110283Y0232637D01*
X0110919Y0233272D01*
X0111383Y0234393D01*
X0111383Y0235607D01*
X0110919Y0236728D01*
X0110061Y0237586D01*
X0108940Y0238050D01*
X0107727Y0238050D01*
X0106606Y0237586D01*
X0105748Y0236728D01*
X0105283Y0235607D01*
X0105283Y0234393D01*
X0105748Y0233272D01*
X0106383Y0232637D01*
X0106383Y0197659D01*
X0105440Y0198050D01*
X0104227Y0198050D01*
X0103106Y0197586D01*
X0102470Y0196950D01*
X0100767Y0196950D01*
X0100089Y0197628D01*
X0098950Y0198100D01*
X0097717Y0198100D01*
X0096577Y0197628D01*
X0095705Y0196756D01*
X0095333Y0195858D01*
X0095333Y0269142D01*
X0095705Y0268244D01*
X0096577Y0267372D01*
X0097717Y0266900D01*
X0098950Y0266900D01*
X0100089Y0267372D01*
X0100717Y0268000D01*
X0106020Y0268000D01*
X0106606Y0267414D01*
X0107727Y0266950D01*
X0108940Y0266950D01*
X0110061Y0267414D01*
X0110919Y0268272D01*
X0111383Y0269393D01*
X0111383Y0270607D01*
X0110919Y0271728D01*
X0110061Y0272586D01*
X0108940Y0273050D01*
X0107727Y0273050D01*
X0106606Y0272586D01*
X0106020Y0272000D01*
X0100717Y0272000D01*
X0100089Y0272628D01*
X0098950Y0273100D01*
X0097717Y0273100D01*
X0096577Y0272628D01*
X0095705Y0271756D01*
X0095333Y0270858D01*
X0095333Y0290256D01*
X0096099Y0288930D01*
X0098612Y0286822D01*
X0101693Y0285700D01*
X0104973Y0285700D01*
X0108055Y0286822D01*
X0110567Y0288930D01*
X0112207Y0291770D01*
X0112207Y0291770D01*
X0112777Y0295000D01*
X0112207Y0298230D01*
X0110567Y0301070D01*
X0108267Y0303000D01*
X0192333Y0303000D01*
X0192333Y0189000D01*
X0207333Y0189000D01*
X0207333Y0183368D01*
X0205387Y0183368D01*
X0205387Y0180400D01*
X0204587Y0180400D01*
X0204587Y0183368D01*
X0202637Y0183368D01*
X0202281Y0183273D01*
X0201962Y0183089D01*
X0201701Y0182828D01*
X0201517Y0182509D01*
X0201422Y0182153D01*
X0201422Y0180400D01*
X0204587Y0180400D01*
X0204587Y0179600D01*
X0205387Y0179600D01*
X0205387Y0176631D01*
X0207333Y0176631D01*
X0207333Y0132000D01*
X0194647Y0132000D01*
X0194061Y0132586D01*
X0192940Y0133050D01*
X0191727Y0133050D01*
X0190606Y0132586D01*
X0190020Y0132000D01*
X0174293Y0132000D01*
X0173550Y0131256D01*
X0172826Y0133002D01*
X0171336Y0134493D01*
X0170112Y0135000D01*
X0171336Y0135507D01*
X0172826Y0136998D01*
X0173633Y0138946D01*
X0173633Y0141054D01*
X0172826Y0143002D01*
X0171336Y0144493D01*
X0170112Y0145000D01*
X0171336Y0145507D01*
X0172826Y0146998D01*
X0173633Y0148946D01*
X0173633Y0151054D01*
X0172826Y0153002D01*
X0171336Y0154493D01*
X0169820Y0155121D01*
X0170291Y0155274D01*
X0171006Y0155638D01*
X0171656Y0156110D01*
X0172223Y0156678D01*
X0172695Y0157327D01*
X0173060Y0158042D01*
X0173308Y0158806D01*
X0173433Y0159599D01*
X0173433Y0159600D01*
X0168733Y0159600D01*
X0168733Y0160400D01*
X0173433Y0160400D01*
X0173433Y0160401D01*
X0173308Y0161194D01*
X0173060Y0161958D01*
X0172695Y0162673D01*
X0172223Y0163322D01*
X0171656Y0163890D01*
X0171006Y0164362D01*
X0170291Y0164726D01*
X0169820Y0164879D01*
X0171336Y0165507D01*
X0172826Y0166998D01*
X0173633Y0168946D01*
X0173633Y0171054D01*
X0172826Y0173002D01*
X0171336Y0174493D01*
X0170112Y0175000D01*
X0171336Y0175507D01*
X0172826Y0176998D01*
X0173633Y0178946D01*
X0173633Y0181054D01*
X0172826Y0183002D01*
X0171336Y0184493D01*
X0170112Y0185000D01*
X0171336Y0185507D01*
X0172826Y0186998D01*
X0173633Y0188946D01*
X0173633Y0191054D01*
X0172826Y0193002D01*
X0171336Y0194493D01*
X0169388Y0195300D01*
X0167279Y0195300D01*
X0165331Y0194493D01*
X0163840Y0193002D01*
X0163033Y0191054D01*
X0163033Y0188946D01*
X0163840Y0186998D01*
X0165331Y0185507D01*
X0166555Y0185000D01*
X0165331Y0184493D01*
X0163840Y0183002D01*
X0163033Y0181054D01*
X0163033Y0178946D01*
X0163840Y0176998D01*
X0165331Y0175507D01*
X0166555Y0175000D01*
X0165331Y0174493D01*
X0163840Y0173002D01*
X0163033Y0171054D01*
X0163033Y0168946D01*
X0163840Y0166998D01*
X0165331Y0165507D01*
X0166846Y0164879D01*
X0166376Y0164726D01*
X0165660Y0164362D01*
X0165011Y0163890D01*
X0164443Y0163322D01*
X0163971Y0162673D01*
X0163607Y0161958D01*
X0163359Y0161194D01*
X0163233Y0160401D01*
X0163233Y0160400D01*
X0167933Y0160400D01*
X0167933Y0159600D01*
X0163233Y0159600D01*
X0163233Y0159599D01*
X0163359Y0158806D01*
X0163607Y0158042D01*
X0163971Y0157327D01*
X0164443Y0156678D01*
X0165011Y0156110D01*
X0165660Y0155638D01*
X0166376Y0155274D01*
X0166846Y0155121D01*
X0165331Y0154493D01*
X0163840Y0153002D01*
X0163033Y0151054D01*
X0163033Y0148946D01*
X0163840Y0146998D01*
X0165331Y0145507D01*
X0166555Y0145000D01*
X0165331Y0144493D01*
X0163840Y0143002D01*
X0163033Y0141054D01*
X0163033Y0138946D01*
X0163840Y0136998D01*
X0165331Y0135507D01*
X0166555Y0135000D01*
X0165331Y0134493D01*
X0163840Y0133002D01*
X0163033Y0131054D01*
X0163033Y0128946D01*
X0163756Y0127200D01*
X0152705Y0127200D01*
X0152505Y0127000D01*
X0134933Y0127000D01*
X0134933Y0244786D01*
X0165358Y0275211D01*
X0173937Y0275211D01*
X0176363Y0276216D01*
X0178220Y0278072D01*
X0178859Y0279615D01*
X0178902Y0279530D01*
X0179305Y0278975D01*
X0179789Y0278491D01*
X0180343Y0278088D01*
X0180954Y0277777D01*
X0181605Y0277565D01*
X0182225Y0277467D01*
X0182225Y0281411D01*
X0183025Y0281411D01*
X0183025Y0282211D01*
X0186968Y0282211D01*
X0186870Y0282830D01*
X0186659Y0283482D01*
X0186347Y0284092D01*
X0185945Y0284647D01*
X0185460Y0285131D01*
X0184906Y0285534D01*
X0184296Y0285845D01*
X0183644Y0286057D01*
X0183025Y0286155D01*
X0183025Y0282211D01*
X0182225Y0282211D01*
X0182225Y0286155D01*
X0181605Y0286057D01*
X0180954Y0285845D01*
X0180343Y0285534D01*
X0179789Y0285131D01*
X0179305Y0284647D01*
X0178902Y0284092D01*
X0178859Y0284008D01*
X0178220Y0285550D01*
X0176363Y0287406D01*
X0173937Y0288411D01*
X0161312Y0288411D01*
X0158886Y0287406D01*
X0157029Y0285550D01*
X0122738Y0251258D01*
X0121733Y0248833D01*
X0121733Y0068687D01*
X0122738Y0066261D01*
X0135513Y0053487D01*
X0135513Y0048687D01*
X0136518Y0046261D01*
X0138374Y0044405D01*
X0140800Y0043400D01*
X0143426Y0043400D01*
X0145851Y0044405D01*
X0147708Y0046261D01*
X0148713Y0048687D01*
X0148713Y0057533D01*
X0147708Y0059959D01*
X0145851Y0061816D01*
X0134933Y0072734D01*
X0134933Y0123000D01*
X0154162Y0123000D01*
X0154362Y0123200D01*
X0164038Y0123200D01*
X0163840Y0123002D01*
X0163033Y0121054D01*
X0163033Y0118946D01*
X0163840Y0116998D01*
X0165331Y0115507D01*
X0166555Y0115000D01*
X0165331Y0114493D01*
X0163840Y0113002D01*
X0163033Y0111054D01*
X0163033Y0108946D01*
X0163840Y0106998D01*
X0165331Y0105507D01*
X0166555Y0105000D01*
X0165331Y0104493D01*
X0163840Y0103002D01*
X0163033Y0101054D01*
X0163033Y0098946D01*
X0163840Y0096998D01*
X0165331Y0095507D01*
X0166555Y0095000D01*
X0165331Y0094493D01*
X0163840Y0093002D01*
X0163033Y0091054D01*
X0163033Y0088946D01*
X0163840Y0086998D01*
X0165331Y0085507D01*
X0166555Y0085000D01*
X0165331Y0084493D01*
X0163840Y0083002D01*
X0163033Y0081054D01*
X0163033Y0078946D01*
X0163840Y0076998D01*
X0165331Y0075507D01*
X0166555Y0075000D01*
X0165331Y0074493D01*
X0163840Y0073002D01*
X0163033Y0071054D01*
X0163033Y0068946D01*
X0163840Y0066998D01*
X0165331Y0065507D01*
X0166555Y0065000D01*
X0165331Y0064493D01*
X0163840Y0063002D01*
X0163033Y0061054D01*
X0163033Y0058946D01*
X0163840Y0056998D01*
X0165331Y0055507D01*
X0166555Y0055000D01*
X0165331Y0054493D01*
X0163840Y0053002D01*
X0163033Y0051054D01*
X0163033Y0048946D01*
X0163840Y0046998D01*
X0165331Y0045507D01*
X0166555Y0045000D01*
X0165331Y0044493D01*
X0163840Y0043002D01*
X0163033Y0041054D01*
X0163033Y0038946D01*
X0163839Y0037000D01*
X0108267Y0037000D01*
X0110567Y0038930D01*
X0112207Y0041770D01*
X0112207Y0041770D01*
X0112777Y0045000D01*
X0112207Y0048230D01*
X0110567Y0051070D01*
X0108055Y0053178D01*
X0104973Y0054300D01*
X0101693Y0054300D01*
X0101028Y0054058D01*
X0101183Y0054433D01*
X0101183Y0055567D01*
X0100749Y0056614D01*
X0099948Y0057416D01*
X0098900Y0057850D01*
X0097766Y0057850D01*
X0096719Y0057416D01*
X0095917Y0056614D01*
X0095483Y0055567D01*
X0095483Y0054433D01*
X0095917Y0053386D01*
X0096719Y0052584D01*
X0097512Y0052255D01*
X0096099Y0051070D01*
X0095333Y0049744D01*
X0095333Y0050172D02*
X0095581Y0050172D01*
X0095333Y0050970D02*
X0096042Y0050970D01*
X0096099Y0051070D02*
X0096099Y0051070D01*
X0096099Y0051070D01*
X0095333Y0051769D02*
X0096932Y0051769D01*
X0096759Y0052567D02*
X0095333Y0052567D01*
X0095333Y0053366D02*
X0095937Y0053366D01*
X0095595Y0054164D02*
X0095333Y0054164D01*
X0095333Y0054963D02*
X0095483Y0054963D01*
X0095564Y0055761D02*
X0095333Y0055761D01*
X0095333Y0056560D02*
X0095895Y0056560D01*
X0095333Y0057358D02*
X0096661Y0057358D01*
X0095333Y0058157D02*
X0130843Y0058157D01*
X0131641Y0057358D02*
X0100005Y0057358D01*
X0100772Y0056560D02*
X0132440Y0056560D01*
X0133238Y0055761D02*
X0101103Y0055761D01*
X0101183Y0054963D02*
X0123316Y0054963D01*
X0123213Y0054860D02*
X0123029Y0054540D01*
X0122933Y0054184D01*
X0122933Y0050400D01*
X0127933Y0050400D01*
X0127933Y0049600D01*
X0122933Y0049600D01*
X0122933Y0045816D01*
X0123029Y0045460D01*
X0123213Y0045140D01*
X0123474Y0044880D01*
X0123793Y0044695D01*
X0124149Y0044600D01*
X0127933Y0044600D01*
X0127933Y0049600D01*
X0128733Y0049600D01*
X0128733Y0044600D01*
X0132518Y0044600D01*
X0132874Y0044695D01*
X0133193Y0044880D01*
X0133454Y0045140D01*
X0133638Y0045460D01*
X0133733Y0045816D01*
X0133733Y0049600D01*
X0128733Y0049600D01*
X0128733Y0050400D01*
X0127933Y0050400D01*
X0127933Y0055400D01*
X0124149Y0055400D01*
X0123793Y0055305D01*
X0123474Y0055120D01*
X0123213Y0054860D01*
X0122933Y0054164D02*
X0105346Y0054164D01*
X0107540Y0053366D02*
X0122933Y0053366D01*
X0122933Y0052567D02*
X0108783Y0052567D01*
X0108055Y0053178D02*
X0108055Y0053178D01*
X0109735Y0051769D02*
X0122933Y0051769D01*
X0122933Y0050970D02*
X0110625Y0050970D01*
X0110567Y0051070D02*
X0110567Y0051070D01*
X0111086Y0050172D02*
X0127933Y0050172D01*
X0127933Y0050970D02*
X0128733Y0050970D01*
X0128733Y0050400D02*
X0128733Y0055400D01*
X0132518Y0055400D01*
X0132874Y0055305D01*
X0133193Y0055120D01*
X0133454Y0054860D01*
X0133638Y0054540D01*
X0133733Y0054184D01*
X0133733Y0050400D01*
X0128733Y0050400D01*
X0128733Y0050172D02*
X0135513Y0050172D01*
X0135513Y0050970D02*
X0133733Y0050970D01*
X0133733Y0051769D02*
X0135513Y0051769D01*
X0135513Y0052567D02*
X0133733Y0052567D01*
X0133733Y0053366D02*
X0135513Y0053366D01*
X0134835Y0054164D02*
X0133733Y0054164D01*
X0134037Y0054963D02*
X0133350Y0054963D01*
X0130044Y0058955D02*
X0095333Y0058955D01*
X0095333Y0059754D02*
X0129246Y0059754D01*
X0128447Y0060552D02*
X0095333Y0060552D01*
X0095333Y0061351D02*
X0127649Y0061351D01*
X0126850Y0062149D02*
X0095333Y0062149D01*
X0095333Y0062948D02*
X0126052Y0062948D01*
X0125253Y0063746D02*
X0095333Y0063746D01*
X0095333Y0064545D02*
X0124455Y0064545D01*
X0123656Y0065343D02*
X0095333Y0065343D01*
X0095333Y0066142D02*
X0122858Y0066142D01*
X0122457Y0066940D02*
X0095333Y0066940D01*
X0095333Y0067739D02*
X0122126Y0067739D01*
X0121795Y0068537D02*
X0095333Y0068537D01*
X0095333Y0069336D02*
X0121733Y0069336D01*
X0121733Y0070134D02*
X0095333Y0070134D01*
X0095333Y0070933D02*
X0121733Y0070933D01*
X0121733Y0071732D02*
X0095333Y0071732D01*
X0095333Y0072530D02*
X0121733Y0072530D01*
X0121733Y0073329D02*
X0095333Y0073329D01*
X0095333Y0074127D02*
X0121733Y0074127D01*
X0121733Y0074926D02*
X0095333Y0074926D01*
X0095333Y0075724D02*
X0121733Y0075724D01*
X0121733Y0076523D02*
X0095333Y0076523D01*
X0095333Y0077321D02*
X0121733Y0077321D01*
X0121733Y0078120D02*
X0095333Y0078120D01*
X0095333Y0078918D02*
X0121733Y0078918D01*
X0121733Y0079717D02*
X0095333Y0079717D01*
X0095333Y0080515D02*
X0121733Y0080515D01*
X0121733Y0081314D02*
X0095333Y0081314D01*
X0095333Y0082112D02*
X0097204Y0082112D01*
X0096039Y0082911D02*
X0095333Y0082911D01*
X0095333Y0083709D02*
X0095513Y0083709D01*
X0099462Y0082112D02*
X0107335Y0082112D01*
X0106109Y0082911D02*
X0100628Y0082911D01*
X0109332Y0082112D02*
X0121733Y0082112D01*
X0121733Y0082911D02*
X0110557Y0082911D01*
X0111100Y0083709D02*
X0121733Y0083709D01*
X0121733Y0084508D02*
X0111383Y0084508D01*
X0111383Y0085306D02*
X0121733Y0085306D01*
X0121733Y0086105D02*
X0111177Y0086105D01*
X0110743Y0086903D02*
X0121733Y0086903D01*
X0121733Y0087702D02*
X0110283Y0087702D01*
X0110283Y0088500D02*
X0121733Y0088500D01*
X0121733Y0089299D02*
X0110283Y0089299D01*
X0110283Y0090097D02*
X0121733Y0090097D01*
X0121733Y0090896D02*
X0110283Y0090896D01*
X0110283Y0091694D02*
X0121733Y0091694D01*
X0121733Y0092493D02*
X0110283Y0092493D01*
X0110283Y0093291D02*
X0121733Y0093291D01*
X0121733Y0094090D02*
X0110283Y0094090D01*
X0110283Y0094888D02*
X0121733Y0094888D01*
X0121733Y0095687D02*
X0110283Y0095687D01*
X0110283Y0096485D02*
X0121733Y0096485D01*
X0121733Y0097284D02*
X0110283Y0097284D01*
X0110283Y0098082D02*
X0121733Y0098082D01*
X0121733Y0098881D02*
X0110283Y0098881D01*
X0110283Y0099679D02*
X0121733Y0099679D01*
X0121733Y0100478D02*
X0110283Y0100478D01*
X0110283Y0101276D02*
X0121733Y0101276D01*
X0121733Y0102075D02*
X0110283Y0102075D01*
X0110283Y0102873D02*
X0121733Y0102873D01*
X0121733Y0103672D02*
X0110283Y0103672D01*
X0110283Y0104470D02*
X0121733Y0104470D01*
X0121733Y0105269D02*
X0110283Y0105269D01*
X0110283Y0106068D02*
X0121733Y0106068D01*
X0121733Y0106866D02*
X0110283Y0106866D01*
X0110283Y0107665D02*
X0121733Y0107665D01*
X0121733Y0108463D02*
X0110283Y0108463D01*
X0110283Y0109262D02*
X0121733Y0109262D01*
X0121733Y0110060D02*
X0110283Y0110060D01*
X0110283Y0110859D02*
X0121733Y0110859D01*
X0121733Y0111657D02*
X0110283Y0111657D01*
X0110283Y0112456D02*
X0121733Y0112456D01*
X0121733Y0113254D02*
X0110283Y0113254D01*
X0110283Y0114053D02*
X0121733Y0114053D01*
X0121733Y0114851D02*
X0110283Y0114851D01*
X0110283Y0115650D02*
X0121733Y0115650D01*
X0121733Y0116448D02*
X0110283Y0116448D01*
X0110283Y0117247D02*
X0121733Y0117247D01*
X0121733Y0118045D02*
X0110283Y0118045D01*
X0110283Y0118844D02*
X0121733Y0118844D01*
X0121733Y0119642D02*
X0110283Y0119642D01*
X0110283Y0120441D02*
X0121733Y0120441D01*
X0121733Y0121239D02*
X0110283Y0121239D01*
X0110283Y0122038D02*
X0121733Y0122038D01*
X0121733Y0122836D02*
X0110283Y0122836D01*
X0110283Y0123635D02*
X0121733Y0123635D01*
X0121733Y0124433D02*
X0110283Y0124433D01*
X0110283Y0125232D02*
X0121733Y0125232D01*
X0121733Y0126030D02*
X0110283Y0126030D01*
X0110283Y0126829D02*
X0121733Y0126829D01*
X0121733Y0127627D02*
X0110283Y0127627D01*
X0110283Y0128426D02*
X0121733Y0128426D01*
X0121733Y0129224D02*
X0110283Y0129224D01*
X0110283Y0130023D02*
X0121733Y0130023D01*
X0121733Y0130821D02*
X0110283Y0130821D01*
X0110283Y0131620D02*
X0121733Y0131620D01*
X0121733Y0132418D02*
X0110283Y0132418D01*
X0110283Y0133217D02*
X0121733Y0133217D01*
X0121733Y0134015D02*
X0110283Y0134015D01*
X0110283Y0134814D02*
X0121733Y0134814D01*
X0121733Y0135612D02*
X0110283Y0135612D01*
X0110283Y0136411D02*
X0121733Y0136411D01*
X0121733Y0137209D02*
X0110283Y0137209D01*
X0110283Y0138008D02*
X0121733Y0138008D01*
X0121733Y0138806D02*
X0110283Y0138806D01*
X0110283Y0139605D02*
X0121733Y0139605D01*
X0121733Y0140403D02*
X0110283Y0140403D01*
X0110283Y0141202D02*
X0121733Y0141202D01*
X0121733Y0142001D02*
X0110283Y0142001D01*
X0110283Y0142799D02*
X0121733Y0142799D01*
X0121733Y0143598D02*
X0110283Y0143598D01*
X0110283Y0144396D02*
X0121733Y0144396D01*
X0121733Y0145195D02*
X0110283Y0145195D01*
X0110283Y0145993D02*
X0121733Y0145993D01*
X0121733Y0146792D02*
X0110283Y0146792D01*
X0110283Y0147590D02*
X0121733Y0147590D01*
X0121733Y0148389D02*
X0110283Y0148389D01*
X0110283Y0149187D02*
X0121733Y0149187D01*
X0121733Y0149986D02*
X0110283Y0149986D01*
X0110283Y0150784D02*
X0121733Y0150784D01*
X0121733Y0151583D02*
X0110283Y0151583D01*
X0110283Y0152381D02*
X0121733Y0152381D01*
X0121733Y0153180D02*
X0110283Y0153180D01*
X0110283Y0153978D02*
X0121733Y0153978D01*
X0121733Y0154777D02*
X0110283Y0154777D01*
X0110283Y0155575D02*
X0121733Y0155575D01*
X0121733Y0156374D02*
X0110283Y0156374D01*
X0110283Y0157172D02*
X0121733Y0157172D01*
X0121733Y0157971D02*
X0110617Y0157971D01*
X0111125Y0158769D02*
X0121733Y0158769D01*
X0121733Y0159568D02*
X0111383Y0159568D01*
X0111383Y0160366D02*
X0121733Y0160366D01*
X0121733Y0161165D02*
X0111152Y0161165D01*
X0110683Y0161963D02*
X0121733Y0161963D01*
X0121733Y0162762D02*
X0110283Y0162762D01*
X0110283Y0163560D02*
X0121733Y0163560D01*
X0121733Y0164359D02*
X0110283Y0164359D01*
X0110283Y0165157D02*
X0121733Y0165157D01*
X0121733Y0165956D02*
X0110283Y0165956D01*
X0110283Y0166754D02*
X0121733Y0166754D01*
X0121733Y0167553D02*
X0110283Y0167553D01*
X0110283Y0168351D02*
X0121733Y0168351D01*
X0121733Y0169150D02*
X0110283Y0169150D01*
X0110283Y0169948D02*
X0121733Y0169948D01*
X0121733Y0170747D02*
X0110283Y0170747D01*
X0110283Y0171545D02*
X0121733Y0171545D01*
X0121733Y0172344D02*
X0110283Y0172344D01*
X0110283Y0173142D02*
X0121733Y0173142D01*
X0121733Y0173941D02*
X0110283Y0173941D01*
X0110283Y0174739D02*
X0121733Y0174739D01*
X0121733Y0175538D02*
X0110283Y0175538D01*
X0110283Y0176337D02*
X0121733Y0176337D01*
X0121733Y0177135D02*
X0110283Y0177135D01*
X0110283Y0177934D02*
X0121733Y0177934D01*
X0121733Y0178732D02*
X0110283Y0178732D01*
X0110283Y0179531D02*
X0121733Y0179531D01*
X0121733Y0180329D02*
X0110283Y0180329D01*
X0110283Y0181128D02*
X0121733Y0181128D01*
X0121733Y0181926D02*
X0110283Y0181926D01*
X0110283Y0182725D02*
X0121733Y0182725D01*
X0121733Y0183523D02*
X0110283Y0183523D01*
X0110283Y0184322D02*
X0121733Y0184322D01*
X0121733Y0185120D02*
X0110283Y0185120D01*
X0110283Y0185919D02*
X0121733Y0185919D01*
X0121733Y0186717D02*
X0110283Y0186717D01*
X0110283Y0187516D02*
X0121733Y0187516D01*
X0121733Y0188314D02*
X0110283Y0188314D01*
X0110283Y0189113D02*
X0121733Y0189113D01*
X0121733Y0189911D02*
X0110283Y0189911D01*
X0110283Y0190710D02*
X0121733Y0190710D01*
X0121733Y0191508D02*
X0110283Y0191508D01*
X0110283Y0192307D02*
X0121733Y0192307D01*
X0121733Y0193105D02*
X0110283Y0193105D01*
X0110283Y0193904D02*
X0121733Y0193904D01*
X0121733Y0194702D02*
X0110283Y0194702D01*
X0110283Y0195501D02*
X0121733Y0195501D01*
X0121733Y0196299D02*
X0110283Y0196299D01*
X0110283Y0197098D02*
X0121733Y0197098D01*
X0121733Y0197896D02*
X0110283Y0197896D01*
X0110283Y0198695D02*
X0121733Y0198695D01*
X0121733Y0199493D02*
X0110283Y0199493D01*
X0110283Y0200292D02*
X0121733Y0200292D01*
X0121733Y0201090D02*
X0110283Y0201090D01*
X0110283Y0201889D02*
X0121733Y0201889D01*
X0121733Y0202687D02*
X0110283Y0202687D01*
X0110283Y0203486D02*
X0121733Y0203486D01*
X0121733Y0204284D02*
X0110283Y0204284D01*
X0110283Y0205083D02*
X0121733Y0205083D01*
X0121733Y0205881D02*
X0110283Y0205881D01*
X0110283Y0206680D02*
X0121733Y0206680D01*
X0121733Y0207478D02*
X0110283Y0207478D01*
X0110283Y0208277D02*
X0121733Y0208277D01*
X0121733Y0209075D02*
X0110283Y0209075D01*
X0110283Y0209874D02*
X0121733Y0209874D01*
X0121733Y0210672D02*
X0110283Y0210672D01*
X0110283Y0211471D02*
X0121733Y0211471D01*
X0121733Y0212270D02*
X0110283Y0212270D01*
X0110283Y0213068D02*
X0121733Y0213068D01*
X0121733Y0213867D02*
X0110283Y0213867D01*
X0110283Y0214665D02*
X0121733Y0214665D01*
X0121733Y0215464D02*
X0110283Y0215464D01*
X0110283Y0216262D02*
X0121733Y0216262D01*
X0121733Y0217061D02*
X0110283Y0217061D01*
X0110283Y0217859D02*
X0121733Y0217859D01*
X0121733Y0218658D02*
X0110283Y0218658D01*
X0110283Y0219456D02*
X0121733Y0219456D01*
X0121733Y0220255D02*
X0110283Y0220255D01*
X0110283Y0221053D02*
X0121733Y0221053D01*
X0121733Y0221852D02*
X0110283Y0221852D01*
X0110283Y0222650D02*
X0121733Y0222650D01*
X0121733Y0223449D02*
X0110283Y0223449D01*
X0110283Y0224247D02*
X0121733Y0224247D01*
X0121733Y0225046D02*
X0110283Y0225046D01*
X0110283Y0225844D02*
X0121733Y0225844D01*
X0121733Y0226643D02*
X0110283Y0226643D01*
X0110283Y0227441D02*
X0121733Y0227441D01*
X0121733Y0228240D02*
X0110283Y0228240D01*
X0110283Y0229038D02*
X0121733Y0229038D01*
X0121733Y0229837D02*
X0110283Y0229837D01*
X0110283Y0230635D02*
X0121733Y0230635D01*
X0121733Y0231434D02*
X0110283Y0231434D01*
X0110283Y0232232D02*
X0121733Y0232232D01*
X0121733Y0233031D02*
X0110677Y0233031D01*
X0111150Y0233829D02*
X0121733Y0233829D01*
X0121733Y0234628D02*
X0111383Y0234628D01*
X0111383Y0235426D02*
X0121733Y0235426D01*
X0121733Y0236225D02*
X0111127Y0236225D01*
X0110623Y0237023D02*
X0121733Y0237023D01*
X0121733Y0237822D02*
X0109491Y0237822D01*
X0107176Y0237822D02*
X0095333Y0237822D01*
X0095333Y0238620D02*
X0121733Y0238620D01*
X0121733Y0239419D02*
X0095333Y0239419D01*
X0095333Y0240217D02*
X0121733Y0240217D01*
X0121733Y0241016D02*
X0095333Y0241016D01*
X0095333Y0241814D02*
X0121733Y0241814D01*
X0121733Y0242613D02*
X0095333Y0242613D01*
X0095333Y0243411D02*
X0121733Y0243411D01*
X0121733Y0244210D02*
X0095333Y0244210D01*
X0095333Y0245008D02*
X0121733Y0245008D01*
X0121733Y0245807D02*
X0095333Y0245807D01*
X0095333Y0246605D02*
X0121733Y0246605D01*
X0121733Y0247404D02*
X0095333Y0247404D01*
X0095333Y0248203D02*
X0121733Y0248203D01*
X0121803Y0249001D02*
X0095333Y0249001D01*
X0095333Y0249800D02*
X0122134Y0249800D01*
X0122465Y0250598D02*
X0095333Y0250598D01*
X0095333Y0251397D02*
X0122876Y0251397D01*
X0123675Y0252195D02*
X0095333Y0252195D01*
X0095333Y0252994D02*
X0124473Y0252994D01*
X0125272Y0253792D02*
X0095333Y0253792D01*
X0095333Y0254591D02*
X0126070Y0254591D01*
X0126869Y0255389D02*
X0095333Y0255389D01*
X0095333Y0256188D02*
X0127667Y0256188D01*
X0128466Y0256986D02*
X0095333Y0256986D01*
X0095333Y0257785D02*
X0129265Y0257785D01*
X0130063Y0258583D02*
X0095333Y0258583D01*
X0095333Y0259382D02*
X0130862Y0259382D01*
X0131660Y0260180D02*
X0095333Y0260180D01*
X0095333Y0260979D02*
X0132459Y0260979D01*
X0133257Y0261777D02*
X0095333Y0261777D01*
X0095333Y0262576D02*
X0134056Y0262576D01*
X0134854Y0263374D02*
X0095333Y0263374D01*
X0095333Y0264173D02*
X0135653Y0264173D01*
X0136451Y0264971D02*
X0095333Y0264971D01*
X0095333Y0265770D02*
X0137250Y0265770D01*
X0138048Y0266568D02*
X0095333Y0266568D01*
X0095333Y0267367D02*
X0096590Y0267367D01*
X0095784Y0268165D02*
X0095333Y0268165D01*
X0095333Y0268964D02*
X0095407Y0268964D01*
X0095333Y0271359D02*
X0095541Y0271359D01*
X0095333Y0272158D02*
X0096107Y0272158D01*
X0095333Y0272956D02*
X0097370Y0272956D01*
X0099297Y0272956D02*
X0107501Y0272956D01*
X0106178Y0272158D02*
X0100560Y0272158D01*
X0098333Y0270000D02*
X0108333Y0270000D01*
X0110489Y0272158D02*
X0143638Y0272158D01*
X0144436Y0272956D02*
X0109166Y0272956D01*
X0111072Y0271359D02*
X0142839Y0271359D01*
X0142041Y0270561D02*
X0111383Y0270561D01*
X0111383Y0269762D02*
X0141242Y0269762D01*
X0140444Y0268964D02*
X0111205Y0268964D01*
X0110812Y0268165D02*
X0139645Y0268165D01*
X0138847Y0267367D02*
X0109946Y0267367D01*
X0106720Y0267367D02*
X0100077Y0267367D01*
X0095333Y0273755D02*
X0145235Y0273755D01*
X0146033Y0274553D02*
X0095333Y0274553D01*
X0095333Y0275352D02*
X0146832Y0275352D01*
X0147630Y0276150D02*
X0095333Y0276150D01*
X0095333Y0276949D02*
X0148429Y0276949D01*
X0149227Y0277747D02*
X0095333Y0277747D01*
X0095333Y0278546D02*
X0150026Y0278546D01*
X0150824Y0279344D02*
X0095333Y0279344D01*
X0095333Y0280143D02*
X0151623Y0280143D01*
X0152421Y0280941D02*
X0095333Y0280941D01*
X0095333Y0281740D02*
X0153220Y0281740D01*
X0154018Y0282539D02*
X0095333Y0282539D01*
X0095333Y0283337D02*
X0154817Y0283337D01*
X0155615Y0284136D02*
X0095333Y0284136D01*
X0095333Y0284934D02*
X0156414Y0284934D01*
X0157029Y0285550D02*
X0157029Y0285550D01*
X0157212Y0285733D02*
X0105063Y0285733D01*
X0107256Y0286531D02*
X0158011Y0286531D01*
X0158809Y0287330D02*
X0108660Y0287330D01*
X0108055Y0286822D02*
X0108055Y0286822D01*
X0109612Y0288128D02*
X0160629Y0288128D01*
X0174621Y0288128D02*
X0192333Y0288128D01*
X0192333Y0287330D02*
X0176440Y0287330D01*
X0177238Y0286531D02*
X0192333Y0286531D01*
X0192333Y0285733D02*
X0184516Y0285733D01*
X0185657Y0284934D02*
X0192333Y0284934D01*
X0192333Y0284136D02*
X0186316Y0284136D01*
X0186706Y0283337D02*
X0192333Y0283337D01*
X0192333Y0282539D02*
X0186916Y0282539D01*
X0186968Y0281411D02*
X0183025Y0281411D01*
X0183025Y0277467D01*
X0183644Y0277565D01*
X0184296Y0277777D01*
X0184906Y0278088D01*
X0185460Y0278491D01*
X0185945Y0278975D01*
X0186347Y0279530D01*
X0186659Y0280140D01*
X0186870Y0280792D01*
X0186968Y0281411D01*
X0186894Y0280941D02*
X0192333Y0280941D01*
X0192333Y0280143D02*
X0186659Y0280143D01*
X0186213Y0279344D02*
X0192333Y0279344D01*
X0192333Y0278546D02*
X0185515Y0278546D01*
X0184204Y0277747D02*
X0192333Y0277747D01*
X0192333Y0276949D02*
X0177096Y0276949D01*
X0177895Y0277747D02*
X0181045Y0277747D01*
X0182225Y0277747D02*
X0183025Y0277747D01*
X0183025Y0278546D02*
X0182225Y0278546D01*
X0182225Y0279344D02*
X0183025Y0279344D01*
X0183025Y0280143D02*
X0182225Y0280143D01*
X0182225Y0280941D02*
X0183025Y0280941D01*
X0183025Y0281740D02*
X0192333Y0281740D01*
X0194333Y0281740D02*
X0202225Y0281740D01*
X0202225Y0281411D02*
X0198281Y0281411D01*
X0198379Y0280792D01*
X0198591Y0280140D01*
X0198902Y0279530D01*
X0199305Y0278975D01*
X0199789Y0278491D01*
X0200343Y0278088D01*
X0200954Y0277777D01*
X0201605Y0277565D01*
X0202225Y0277467D01*
X0202225Y0281411D01*
X0203025Y0281411D01*
X0203025Y0282211D01*
X0206968Y0282211D01*
X0206870Y0282830D01*
X0206659Y0283482D01*
X0206347Y0284092D01*
X0205945Y0284647D01*
X0205460Y0285131D01*
X0204906Y0285534D01*
X0204296Y0285845D01*
X0203644Y0286057D01*
X0203025Y0286155D01*
X0203025Y0282211D01*
X0202225Y0282211D01*
X0202225Y0286155D01*
X0201605Y0286057D01*
X0200954Y0285845D01*
X0200343Y0285534D01*
X0199789Y0285131D01*
X0199305Y0284647D01*
X0198902Y0284092D01*
X0198591Y0283482D01*
X0198379Y0282830D01*
X0198281Y0282211D01*
X0202225Y0282211D01*
X0202225Y0281411D01*
X0202225Y0280941D02*
X0203025Y0280941D01*
X0203025Y0281411D02*
X0203025Y0277467D01*
X0203644Y0277565D01*
X0204296Y0277777D01*
X0204906Y0278088D01*
X0205460Y0278491D01*
X0205945Y0278975D01*
X0206347Y0279530D01*
X0206659Y0280140D01*
X0206870Y0280792D01*
X0206968Y0281411D01*
X0203025Y0281411D01*
X0203025Y0281740D02*
X0218072Y0281740D01*
X0218072Y0282539D02*
X0206916Y0282539D01*
X0206706Y0283337D02*
X0218329Y0283337D01*
X0218072Y0282717D02*
X0218072Y0280905D01*
X0218765Y0279232D01*
X0220046Y0277951D01*
X0221719Y0277258D01*
X0223530Y0277258D01*
X0225204Y0277951D01*
X0226484Y0279232D01*
X0227177Y0280905D01*
X0227177Y0282717D01*
X0226484Y0284390D01*
X0225204Y0285671D01*
X0223530Y0286364D01*
X0221719Y0286364D01*
X0220046Y0285671D01*
X0218765Y0284390D01*
X0218072Y0282717D01*
X0218660Y0284136D02*
X0206316Y0284136D01*
X0205657Y0284934D02*
X0219309Y0284934D01*
X0220195Y0285733D02*
X0204516Y0285733D01*
X0203025Y0285733D02*
X0202225Y0285733D01*
X0202225Y0284934D02*
X0203025Y0284934D01*
X0203025Y0284136D02*
X0202225Y0284136D01*
X0202225Y0283337D02*
X0203025Y0283337D01*
X0203025Y0282539D02*
X0202225Y0282539D01*
X0202225Y0280143D02*
X0203025Y0280143D01*
X0203025Y0279344D02*
X0202225Y0279344D01*
X0202225Y0278546D02*
X0203025Y0278546D01*
X0203025Y0277747D02*
X0202225Y0277747D01*
X0201045Y0277747D02*
X0194333Y0277747D01*
X0194333Y0276949D02*
X0252787Y0276949D01*
X0252831Y0276993D02*
X0251340Y0275502D01*
X0250533Y0273554D01*
X0250533Y0271446D01*
X0251340Y0269498D01*
X0252831Y0268007D01*
X0254055Y0267500D01*
X0252831Y0266993D01*
X0251340Y0265502D01*
X0250533Y0263554D01*
X0250533Y0261446D01*
X0251340Y0259498D01*
X0252831Y0258007D01*
X0254055Y0257500D01*
X0252831Y0256993D01*
X0251340Y0255502D01*
X0250617Y0253756D01*
X0246472Y0257901D01*
X0246883Y0258893D01*
X0246883Y0260107D01*
X0246419Y0261228D01*
X0245561Y0262086D01*
X0244440Y0262550D01*
X0243227Y0262550D01*
X0242106Y0262086D01*
X0241248Y0261228D01*
X0240783Y0260107D01*
X0240783Y0258893D01*
X0241248Y0257772D01*
X0241833Y0257187D01*
X0241833Y0256883D01*
X0243005Y0255712D01*
X0252277Y0246439D01*
X0251340Y0245502D01*
X0250925Y0244500D01*
X0248162Y0244500D01*
X0224662Y0268000D01*
X0200647Y0268000D01*
X0200061Y0268586D01*
X0198940Y0269050D01*
X0197727Y0269050D01*
X0196606Y0268586D01*
X0195748Y0267728D01*
X0195283Y0266607D01*
X0195283Y0265393D01*
X0195748Y0264272D01*
X0196606Y0263414D01*
X0197727Y0262950D01*
X0198940Y0262950D01*
X0200061Y0263414D01*
X0200647Y0264000D01*
X0223005Y0264000D01*
X0232681Y0254324D01*
X0232106Y0254086D01*
X0231248Y0253228D01*
X0230783Y0252107D01*
X0230783Y0250893D01*
X0231147Y0250014D01*
X0228833Y0252328D01*
X0227662Y0253500D01*
X0205147Y0253500D01*
X0204561Y0254086D01*
X0203440Y0254550D01*
X0202227Y0254550D01*
X0201106Y0254086D01*
X0200248Y0253228D01*
X0199783Y0252107D01*
X0199783Y0250893D01*
X0200248Y0249772D01*
X0201106Y0248914D01*
X0202227Y0248450D01*
X0203440Y0248450D01*
X0204561Y0248914D01*
X0205147Y0249500D01*
X0226005Y0249500D01*
X0235783Y0239722D01*
X0234388Y0240300D01*
X0232279Y0240300D01*
X0230331Y0239493D01*
X0228840Y0238002D01*
X0228033Y0236054D01*
X0228033Y0233946D01*
X0228840Y0231998D01*
X0230331Y0230507D01*
X0232279Y0229700D01*
X0234388Y0229700D01*
X0236336Y0230507D01*
X0237826Y0231998D01*
X0238633Y0233946D01*
X0238633Y0236054D01*
X0238055Y0237450D01*
X0261333Y0214172D01*
X0261333Y0195467D01*
X0259751Y0194811D01*
X0257971Y0193032D01*
X0257008Y0190707D01*
X0257008Y0188191D01*
X0257971Y0185866D01*
X0259751Y0184087D01*
X0262075Y0183124D01*
X0264591Y0183124D01*
X0266916Y0184087D01*
X0268695Y0185866D01*
X0269658Y0188191D01*
X0269658Y0190707D01*
X0268695Y0193032D01*
X0266916Y0194811D01*
X0265333Y0195467D01*
X0265333Y0215828D01*
X0232348Y0248814D01*
X0233227Y0248450D01*
X0234055Y0248450D01*
X0271333Y0211172D01*
X0271333Y0185277D01*
X0265270Y0179214D01*
X0264356Y0179592D01*
X0262310Y0179592D01*
X0260420Y0178809D01*
X0258973Y0177362D01*
X0258190Y0175472D01*
X0258190Y0173426D01*
X0258973Y0171535D01*
X0260420Y0170089D01*
X0262310Y0169306D01*
X0264356Y0169306D01*
X0266247Y0170089D01*
X0267694Y0171535D01*
X0268477Y0173426D01*
X0268477Y0175472D01*
X0268098Y0176385D01*
X0274162Y0182449D01*
X0275333Y0183620D01*
X0275333Y0212828D01*
X0274162Y0214000D01*
X0247662Y0240500D01*
X0250925Y0240500D01*
X0251340Y0239498D01*
X0252831Y0238007D01*
X0254779Y0237200D01*
X0256888Y0237200D01*
X0258836Y0238007D01*
X0260326Y0239498D01*
X0260526Y0239979D01*
X0260533Y0239972D01*
X0260533Y0233137D01*
X0261471Y0232200D01*
X0270196Y0232200D01*
X0271133Y0233137D01*
X0271133Y0241863D01*
X0270196Y0242800D01*
X0268336Y0242800D01*
X0268836Y0243007D01*
X0270326Y0244498D01*
X0271133Y0246446D01*
X0271133Y0248554D01*
X0270326Y0250502D01*
X0268836Y0251993D01*
X0267612Y0252500D01*
X0268836Y0253007D01*
X0270326Y0254498D01*
X0271133Y0256446D01*
X0271133Y0258554D01*
X0270326Y0260502D01*
X0268836Y0261993D01*
X0267612Y0262500D01*
X0268836Y0263007D01*
X0270326Y0264498D01*
X0271133Y0266446D01*
X0271133Y0268554D01*
X0270326Y0270502D01*
X0268836Y0271993D01*
X0266888Y0272800D01*
X0264779Y0272800D01*
X0262831Y0271993D01*
X0261340Y0270502D01*
X0260533Y0268554D01*
X0260533Y0266446D01*
X0261340Y0264498D01*
X0262831Y0263007D01*
X0264055Y0262500D01*
X0262831Y0261993D01*
X0261340Y0260502D01*
X0260533Y0258554D01*
X0260533Y0256446D01*
X0261340Y0254498D01*
X0262831Y0253007D01*
X0264055Y0252500D01*
X0262831Y0251993D01*
X0261340Y0250502D01*
X0260533Y0248554D01*
X0260533Y0247417D01*
X0259422Y0248528D01*
X0259389Y0248561D01*
X0260326Y0249498D01*
X0261133Y0251446D01*
X0261133Y0253554D01*
X0260326Y0255502D01*
X0258836Y0256993D01*
X0257612Y0257500D01*
X0258836Y0258007D01*
X0260326Y0259498D01*
X0261133Y0261446D01*
X0261133Y0263554D01*
X0260326Y0265502D01*
X0258836Y0266993D01*
X0257612Y0267500D01*
X0258836Y0268007D01*
X0260326Y0269498D01*
X0261133Y0271446D01*
X0261133Y0273554D01*
X0260326Y0275502D01*
X0258836Y0276993D01*
X0256888Y0277800D01*
X0254779Y0277800D01*
X0252831Y0276993D01*
X0251988Y0276150D02*
X0194333Y0276150D01*
X0194333Y0275352D02*
X0251278Y0275352D01*
X0250947Y0274553D02*
X0194333Y0274553D01*
X0194333Y0273755D02*
X0250616Y0273755D01*
X0250533Y0272956D02*
X0194333Y0272956D01*
X0194333Y0272158D02*
X0250533Y0272158D01*
X0250569Y0271359D02*
X0194333Y0271359D01*
X0194333Y0270561D02*
X0250900Y0270561D01*
X0251231Y0269762D02*
X0194333Y0269762D01*
X0194333Y0268964D02*
X0197519Y0268964D01*
X0196185Y0268165D02*
X0194333Y0268165D01*
X0194333Y0267367D02*
X0195598Y0267367D01*
X0195283Y0266568D02*
X0194333Y0266568D01*
X0194333Y0265770D02*
X0195283Y0265770D01*
X0195458Y0264971D02*
X0194333Y0264971D01*
X0194333Y0264173D02*
X0195847Y0264173D01*
X0196702Y0263374D02*
X0194333Y0263374D01*
X0194333Y0262576D02*
X0224429Y0262576D01*
X0223631Y0263374D02*
X0199964Y0263374D01*
X0198333Y0266000D02*
X0223833Y0266000D01*
X0247333Y0242500D01*
X0255833Y0242500D01*
X0260633Y0242700D02*
X0260633Y0244488D01*
X0257422Y0247700D01*
X0253845Y0247700D01*
X0243833Y0257712D01*
X0243833Y0259500D01*
X0240783Y0259382D02*
X0233280Y0259382D01*
X0232482Y0260180D02*
X0240814Y0260180D01*
X0241145Y0260979D02*
X0231683Y0260979D01*
X0230885Y0261777D02*
X0241797Y0261777D01*
X0240912Y0258583D02*
X0234079Y0258583D01*
X0234877Y0257785D02*
X0241243Y0257785D01*
X0241833Y0256986D02*
X0235676Y0256986D01*
X0236474Y0256188D02*
X0242529Y0256188D01*
X0243328Y0255389D02*
X0237273Y0255389D01*
X0238071Y0254591D02*
X0244126Y0254591D01*
X0244925Y0253792D02*
X0238870Y0253792D01*
X0239668Y0252994D02*
X0245723Y0252994D01*
X0246522Y0252195D02*
X0240467Y0252195D01*
X0241265Y0251397D02*
X0247320Y0251397D01*
X0248119Y0250598D02*
X0242064Y0250598D01*
X0242862Y0249800D02*
X0248917Y0249800D01*
X0249716Y0249001D02*
X0243661Y0249001D01*
X0244459Y0248203D02*
X0250514Y0248203D01*
X0251313Y0247404D02*
X0245258Y0247404D01*
X0246056Y0246605D02*
X0252111Y0246605D01*
X0251645Y0245807D02*
X0246855Y0245807D01*
X0247653Y0245008D02*
X0251136Y0245008D01*
X0251042Y0240217D02*
X0247944Y0240217D01*
X0248743Y0239419D02*
X0251419Y0239419D01*
X0252218Y0238620D02*
X0249541Y0238620D01*
X0250340Y0237822D02*
X0253278Y0237822D01*
X0251937Y0236225D02*
X0260533Y0236225D01*
X0260533Y0237023D02*
X0251138Y0237023D01*
X0252735Y0235426D02*
X0260533Y0235426D01*
X0260533Y0234628D02*
X0253534Y0234628D01*
X0254332Y0233829D02*
X0260533Y0233829D01*
X0260640Y0233031D02*
X0255131Y0233031D01*
X0255929Y0232232D02*
X0261438Y0232232D01*
X0258325Y0229837D02*
X0283386Y0229837D01*
X0283056Y0230635D02*
X0257526Y0230635D01*
X0256728Y0231434D02*
X0282934Y0231434D01*
X0282934Y0230929D02*
X0284137Y0228025D01*
X0286359Y0225803D01*
X0289262Y0224601D01*
X0292405Y0224601D01*
X0295308Y0225803D01*
X0297530Y0228025D01*
X0298733Y0230929D01*
X0298733Y0234071D01*
X0297530Y0236975D01*
X0295308Y0239197D01*
X0292405Y0240399D01*
X0289262Y0240399D01*
X0286359Y0239197D01*
X0284137Y0236975D01*
X0282934Y0234071D01*
X0282934Y0230929D01*
X0282934Y0232232D02*
X0270228Y0232232D01*
X0271027Y0233031D02*
X0282934Y0233031D01*
X0282934Y0233829D02*
X0271133Y0233829D01*
X0271133Y0234628D02*
X0283165Y0234628D01*
X0283495Y0235426D02*
X0271133Y0235426D01*
X0271133Y0236225D02*
X0283826Y0236225D01*
X0284186Y0237023D02*
X0271133Y0237023D01*
X0271133Y0237822D02*
X0284984Y0237822D01*
X0285783Y0238620D02*
X0271133Y0238620D01*
X0271133Y0239419D02*
X0286895Y0239419D01*
X0288823Y0240217D02*
X0271133Y0240217D01*
X0271133Y0241016D02*
X0303689Y0241016D01*
X0303756Y0241083D02*
X0302983Y0240311D01*
X0302983Y0239380D01*
X0302754Y0239380D01*
X0301582Y0238209D01*
X0301582Y0236552D01*
X0302754Y0235380D01*
X0302983Y0235380D01*
X0302983Y0232649D01*
X0304155Y0231477D01*
X0304855Y0230776D01*
X0308495Y0230776D01*
X0309315Y0230776D01*
X0309328Y0230790D01*
X0310015Y0231477D01*
X0310015Y0231477D01*
X0310237Y0231699D01*
X0310677Y0232138D01*
X0310906Y0231909D01*
X0310483Y0231486D01*
X0310483Y0228428D01*
X0312355Y0226556D01*
X0314012Y0226556D01*
X0314235Y0226779D01*
X0314457Y0226556D01*
X0316003Y0226556D01*
X0316815Y0226556D01*
X0316828Y0226570D01*
X0317515Y0227257D01*
X0317515Y0227257D01*
X0317737Y0227479D01*
X0318687Y0228428D01*
X0318687Y0228428D01*
X0318687Y0228428D01*
X0318687Y0229830D01*
X0318687Y0229949D01*
X0318687Y0230085D01*
X0318687Y0230085D01*
X0318687Y0231486D01*
X0318687Y0231486D01*
X0318687Y0231486D01*
X0318264Y0231909D01*
X0318687Y0232332D01*
X0318687Y0233988D01*
X0317515Y0235160D01*
X0317286Y0235160D01*
X0317286Y0236090D01*
X0316863Y0236513D01*
X0317286Y0236936D01*
X0317286Y0238592D01*
X0316713Y0239165D01*
X0317286Y0239738D01*
X0317286Y0241395D01*
X0317213Y0241467D01*
X0317986Y0242240D01*
X0317986Y0243897D01*
X0317286Y0244598D01*
X0316114Y0245769D01*
X0314457Y0245769D01*
X0313885Y0245196D01*
X0313312Y0245769D01*
X0311655Y0245769D01*
X0310483Y0244598D01*
X0310483Y0242941D01*
X0311184Y0242240D01*
X0311256Y0242168D01*
X0310483Y0241395D01*
X0310483Y0237636D01*
X0310906Y0237213D01*
X0310483Y0236791D01*
X0310483Y0236410D01*
X0310156Y0236738D01*
X0310015Y0236878D01*
X0309786Y0237108D01*
X0309786Y0240311D01*
X0309085Y0241011D01*
X0309013Y0241083D01*
X0309786Y0241856D01*
X0309786Y0244914D01*
X0309363Y0245337D01*
X0309786Y0245760D01*
X0309786Y0249518D01*
X0309085Y0250219D01*
X0307914Y0251391D01*
X0304155Y0251391D01*
X0302983Y0250219D01*
X0302983Y0248562D01*
X0303556Y0247989D01*
X0302983Y0247417D01*
X0302983Y0245760D01*
X0303406Y0245337D01*
X0302983Y0244914D01*
X0302983Y0241856D01*
X0303684Y0241156D01*
X0303756Y0241083D01*
X0303025Y0241814D02*
X0271133Y0241814D01*
X0270383Y0242613D02*
X0302983Y0242613D01*
X0302983Y0243411D02*
X0269240Y0243411D01*
X0270039Y0244210D02*
X0302983Y0244210D01*
X0303077Y0245008D02*
X0270538Y0245008D01*
X0270869Y0245807D02*
X0302983Y0245807D01*
X0302983Y0246605D02*
X0271133Y0246605D01*
X0271133Y0247404D02*
X0302983Y0247404D01*
X0303343Y0248203D02*
X0271133Y0248203D01*
X0270948Y0249001D02*
X0302983Y0249001D01*
X0302983Y0249800D02*
X0270617Y0249800D01*
X0270231Y0250598D02*
X0303362Y0250598D01*
X0304983Y0249391D02*
X0307085Y0249391D01*
X0307786Y0248690D01*
X0307786Y0246588D01*
X0304983Y0246588D01*
X0306385Y0244787D02*
X0306385Y0241984D01*
X0307085Y0241984D02*
X0307786Y0242685D01*
X0307786Y0244086D01*
X0307085Y0244787D01*
X0306385Y0244787D01*
X0304983Y0244086D02*
X0304983Y0242685D01*
X0305684Y0241984D01*
X0307085Y0241984D01*
X0307085Y0240183D02*
X0305684Y0240183D01*
X0304983Y0239482D01*
X0304983Y0237380D01*
X0303582Y0237380D02*
X0307786Y0237380D01*
X0307786Y0239482D01*
X0307085Y0240183D01*
X0309080Y0241016D02*
X0310483Y0241016D01*
X0310483Y0240217D02*
X0309786Y0240217D01*
X0309786Y0239419D02*
X0310483Y0239419D01*
X0310483Y0238620D02*
X0309786Y0238620D01*
X0309786Y0237822D02*
X0310483Y0237822D01*
X0310716Y0237023D02*
X0309870Y0237023D01*
X0310015Y0236878D02*
X0310015Y0236878D01*
X0308486Y0235579D02*
X0309187Y0234878D01*
X0309187Y0233477D01*
X0308486Y0232776D01*
X0305684Y0232776D01*
X0304983Y0233477D01*
X0304983Y0234878D01*
X0305684Y0235579D01*
X0308486Y0235579D01*
X0312483Y0235962D02*
X0314585Y0235962D01*
X0315286Y0235262D01*
X0315286Y0233861D01*
X0314585Y0233160D01*
X0313885Y0231359D02*
X0313184Y0231359D01*
X0312483Y0230658D01*
X0312483Y0229257D01*
X0313184Y0228556D01*
X0314585Y0229257D02*
X0314585Y0230658D01*
X0313885Y0231359D01*
X0315986Y0231359D02*
X0316687Y0230658D01*
X0316687Y0229257D01*
X0315986Y0228556D01*
X0315286Y0228556D01*
X0314585Y0229257D01*
X0314371Y0226643D02*
X0314099Y0226643D01*
X0312269Y0226643D02*
X0296147Y0226643D01*
X0296946Y0227441D02*
X0311470Y0227441D01*
X0310672Y0228240D02*
X0297619Y0228240D01*
X0297949Y0229038D02*
X0310483Y0229038D01*
X0310483Y0229837D02*
X0298280Y0229837D01*
X0298611Y0230635D02*
X0310483Y0230635D01*
X0310483Y0231434D02*
X0309972Y0231434D01*
X0309315Y0230776D02*
X0309315Y0230776D01*
X0312483Y0233160D02*
X0316687Y0233160D01*
X0318048Y0234628D02*
X0331333Y0234628D01*
X0331333Y0235426D02*
X0317286Y0235426D01*
X0317151Y0236225D02*
X0331333Y0236225D01*
X0331333Y0237023D02*
X0317286Y0237023D01*
X0317286Y0237822D02*
X0331333Y0237822D01*
X0331333Y0238620D02*
X0317258Y0238620D01*
X0316967Y0239419D02*
X0331333Y0239419D01*
X0331333Y0240217D02*
X0317286Y0240217D01*
X0317286Y0241016D02*
X0331333Y0241016D01*
X0331333Y0241814D02*
X0317561Y0241814D01*
X0317986Y0242613D02*
X0331333Y0242613D01*
X0331333Y0243411D02*
X0317986Y0243411D01*
X0317673Y0244210D02*
X0331333Y0244210D01*
X0331333Y0245008D02*
X0316875Y0245008D01*
X0315286Y0243769D02*
X0315286Y0242368D01*
X0315986Y0243068D02*
X0313184Y0243068D01*
X0312483Y0243769D01*
X0311184Y0242240D02*
X0311184Y0242240D01*
X0310903Y0241814D02*
X0309744Y0241814D01*
X0309786Y0242613D02*
X0310811Y0242613D01*
X0310483Y0243411D02*
X0309786Y0243411D01*
X0309786Y0244210D02*
X0310483Y0244210D01*
X0310894Y0245008D02*
X0309692Y0245008D01*
X0309786Y0245807D02*
X0319087Y0245807D01*
X0319155Y0245739D02*
X0325015Y0245739D01*
X0326187Y0246911D01*
X0326187Y0247291D01*
X0327355Y0246123D01*
X0329012Y0246123D01*
X0329235Y0246345D01*
X0329457Y0246123D01*
X0331333Y0246123D01*
X0331333Y0041738D01*
X0331087Y0041862D01*
X0329532Y0041343D01*
X0327977Y0041862D01*
X0327792Y0041769D01*
X0327629Y0041932D01*
X0327380Y0042181D01*
X0326457Y0043104D01*
X0325056Y0043104D01*
X0324920Y0043104D01*
X0324800Y0043104D01*
X0324800Y0043104D01*
X0323399Y0043104D01*
X0323399Y0043104D01*
X0322449Y0042154D01*
X0322276Y0041980D01*
X0321998Y0042258D01*
X0321153Y0043104D01*
X0319496Y0043104D01*
X0318902Y0042509D01*
X0318324Y0041932D01*
X0318324Y0038900D01*
X0318095Y0038900D01*
X0316923Y0037728D01*
X0316923Y0037000D01*
X0252827Y0037000D01*
X0253633Y0038946D01*
X0253633Y0041054D01*
X0252826Y0043002D01*
X0251336Y0044493D01*
X0250112Y0045000D01*
X0251336Y0045507D01*
X0252826Y0046998D01*
X0253633Y0048946D01*
X0253633Y0051054D01*
X0252826Y0053002D01*
X0251336Y0054493D01*
X0250112Y0055000D01*
X0251336Y0055507D01*
X0252826Y0056998D01*
X0253633Y0058946D01*
X0253633Y0061054D01*
X0252826Y0063002D01*
X0251336Y0064493D01*
X0250112Y0065000D01*
X0251336Y0065507D01*
X0252826Y0066998D01*
X0253633Y0068946D01*
X0253633Y0071054D01*
X0252826Y0073002D01*
X0251336Y0074493D01*
X0250112Y0075000D01*
X0251336Y0075507D01*
X0252826Y0076998D01*
X0253633Y0078946D01*
X0253633Y0081054D01*
X0252826Y0083002D01*
X0251336Y0084493D01*
X0250112Y0085000D01*
X0251336Y0085507D01*
X0252826Y0086998D01*
X0253633Y0088946D01*
X0253633Y0091054D01*
X0252826Y0093002D01*
X0251336Y0094493D01*
X0250112Y0095000D01*
X0251336Y0095507D01*
X0252826Y0096998D01*
X0253633Y0098946D01*
X0253633Y0101054D01*
X0252826Y0103002D01*
X0251336Y0104493D01*
X0250112Y0105000D01*
X0251336Y0105507D01*
X0252826Y0106998D01*
X0253633Y0108946D01*
X0253633Y0111054D01*
X0252826Y0113002D01*
X0251336Y0114493D01*
X0250112Y0115000D01*
X0251336Y0115507D01*
X0252826Y0116998D01*
X0253633Y0118946D01*
X0253633Y0121054D01*
X0252826Y0123002D01*
X0251336Y0124493D01*
X0250112Y0125000D01*
X0251336Y0125507D01*
X0252826Y0126998D01*
X0253633Y0128946D01*
X0253633Y0131054D01*
X0252826Y0133002D01*
X0251336Y0134493D01*
X0250112Y0135000D01*
X0251336Y0135507D01*
X0252826Y0136998D01*
X0253633Y0138946D01*
X0253633Y0141054D01*
X0252826Y0143002D01*
X0251336Y0144493D01*
X0250112Y0145000D01*
X0251336Y0145507D01*
X0252826Y0146998D01*
X0253633Y0148946D01*
X0253633Y0151054D01*
X0252826Y0153002D01*
X0251336Y0154493D01*
X0249388Y0155300D01*
X0247279Y0155300D01*
X0245331Y0154493D01*
X0243840Y0153002D01*
X0243033Y0151054D01*
X0243033Y0148946D01*
X0243840Y0146998D01*
X0245331Y0145507D01*
X0246555Y0145000D01*
X0245331Y0144493D01*
X0243840Y0143002D01*
X0243033Y0141054D01*
X0243033Y0138946D01*
X0243840Y0136998D01*
X0245331Y0135507D01*
X0246555Y0135000D01*
X0245331Y0134493D01*
X0243840Y0133002D01*
X0243425Y0132000D01*
X0209333Y0132000D01*
X0209333Y0176631D01*
X0211280Y0176631D01*
X0211280Y0179600D01*
X0212080Y0179600D01*
X0212080Y0180400D01*
X0215245Y0180400D01*
X0215245Y0182153D01*
X0215150Y0182509D01*
X0214965Y0182828D01*
X0214705Y0183089D01*
X0214386Y0183273D01*
X0214029Y0183368D01*
X0212080Y0183368D01*
X0212080Y0180400D01*
X0211280Y0180400D01*
X0211280Y0183368D01*
X0209333Y0183368D01*
X0209333Y0191000D01*
X0194333Y0191000D01*
X0194333Y0303000D01*
X0318399Y0303000D01*
X0316099Y0301070D01*
X0316027Y0300945D01*
X0315749Y0301614D01*
X0314948Y0302416D01*
X0313900Y0302850D01*
X0312766Y0302850D01*
X0311719Y0302416D01*
X0310917Y0301614D01*
X0310483Y0300567D01*
X0310483Y0299433D01*
X0310917Y0298386D01*
X0311719Y0297584D01*
X0312766Y0297150D01*
X0313900Y0297150D01*
X0314298Y0297315D01*
X0313890Y0295000D01*
X0314459Y0291770D01*
X0316099Y0288930D01*
X0318612Y0286822D01*
X0321693Y0285700D01*
X0324973Y0285700D01*
X0328055Y0286822D01*
X0330567Y0288930D01*
X0331333Y0290256D01*
X0331333Y0264283D01*
X0330414Y0265202D01*
X0330184Y0265202D01*
X0330184Y0267234D01*
X0329012Y0268405D01*
X0326655Y0268405D01*
X0325483Y0267234D01*
X0324082Y0265832D01*
X0324082Y0264417D01*
X0322914Y0265586D01*
X0322684Y0265586D01*
X0322684Y0267617D01*
X0321512Y0268789D01*
X0319155Y0268789D01*
X0318687Y0268321D01*
X0318687Y0269786D01*
X0317515Y0270957D01*
X0317286Y0270957D01*
X0317286Y0273689D01*
X0316863Y0274112D01*
X0317286Y0274534D01*
X0317286Y0276191D01*
X0316713Y0276764D01*
X0317286Y0277337D01*
X0317286Y0278993D01*
X0317213Y0279066D01*
X0317286Y0279138D01*
X0317286Y0282897D01*
X0316585Y0283597D01*
X0315414Y0284769D01*
X0315184Y0284769D01*
X0315184Y0286800D01*
X0314012Y0287972D01*
X0311655Y0287972D01*
X0310483Y0286800D01*
X0309786Y0286103D01*
X0309786Y0286350D01*
X0309085Y0287050D01*
X0307914Y0288222D01*
X0304855Y0288222D01*
X0304155Y0287521D01*
X0302983Y0286350D01*
X0302983Y0285420D01*
X0302754Y0285420D01*
X0301582Y0284248D01*
X0301582Y0282591D01*
X0302754Y0281420D01*
X0302983Y0281420D01*
X0302983Y0278688D01*
X0303406Y0278265D01*
X0302983Y0277843D01*
X0302983Y0276186D01*
X0303556Y0275613D01*
X0302983Y0275040D01*
X0302983Y0273383D01*
X0303406Y0272961D01*
X0302983Y0272538D01*
X0302983Y0268779D01*
X0304155Y0267608D01*
X0305812Y0267608D01*
X0306034Y0267830D01*
X0306243Y0267621D01*
X0306257Y0267608D01*
X0307077Y0267608D01*
X0307914Y0267608D01*
X0309051Y0268745D01*
X0309786Y0269480D01*
X0309786Y0272212D01*
X0310015Y0272212D01*
X0310483Y0272680D01*
X0310483Y0270631D01*
X0310906Y0270208D01*
X0310483Y0269786D01*
X0310483Y0266027D01*
X0311184Y0265326D01*
X0312355Y0264155D01*
X0315414Y0264155D01*
X0316114Y0264855D01*
X0316582Y0265323D01*
X0316582Y0264559D01*
X0317754Y0263388D01*
X0317983Y0263388D01*
X0317983Y0262784D01*
X0317754Y0262784D01*
X0316582Y0261612D01*
X0316582Y0260581D01*
X0316148Y0261015D01*
X0315414Y0261749D01*
X0311655Y0261749D01*
X0310483Y0260578D01*
X0310483Y0256119D01*
X0310906Y0255696D01*
X0310483Y0255273D01*
X0310483Y0252215D01*
X0311184Y0251515D01*
X0312355Y0250343D01*
X0313286Y0250343D01*
X0313286Y0249213D01*
X0314457Y0248041D01*
X0316114Y0248041D01*
X0316815Y0248742D01*
X0317983Y0248742D01*
X0317983Y0246911D01*
X0319155Y0245739D01*
X0318289Y0246605D02*
X0309786Y0246605D01*
X0309786Y0247404D02*
X0317983Y0247404D01*
X0317983Y0248203D02*
X0316276Y0248203D01*
X0314296Y0248203D02*
X0309786Y0248203D01*
X0309786Y0249001D02*
X0313497Y0249001D01*
X0313286Y0249800D02*
X0309505Y0249800D01*
X0308706Y0250598D02*
X0312100Y0250598D01*
X0311302Y0251397D02*
X0269432Y0251397D01*
X0268348Y0252195D02*
X0310503Y0252195D01*
X0310483Y0252994D02*
X0268803Y0252994D01*
X0269621Y0253792D02*
X0310483Y0253792D01*
X0310483Y0254591D02*
X0309409Y0254591D01*
X0309786Y0254968D02*
X0308614Y0253796D01*
X0306512Y0253796D01*
X0304855Y0253796D01*
X0304155Y0254497D01*
X0302983Y0255668D01*
X0302983Y0258400D01*
X0302754Y0258400D01*
X0301582Y0259572D01*
X0301582Y0261228D01*
X0302754Y0262400D01*
X0302983Y0262400D01*
X0302983Y0263330D01*
X0304155Y0264502D01*
X0304155Y0264502D01*
X0304855Y0265202D01*
X0307914Y0265202D01*
X0309786Y0263330D01*
X0309786Y0259572D01*
X0309713Y0259499D01*
X0309786Y0259427D01*
X0309786Y0257770D01*
X0309213Y0257197D01*
X0309786Y0256624D01*
X0309786Y0254968D01*
X0309786Y0255389D02*
X0310599Y0255389D01*
X0310483Y0256188D02*
X0309786Y0256188D01*
X0309424Y0256986D02*
X0310483Y0256986D01*
X0310483Y0257785D02*
X0309786Y0257785D01*
X0309786Y0258583D02*
X0310483Y0258583D01*
X0310483Y0259382D02*
X0309786Y0259382D01*
X0309786Y0260180D02*
X0310483Y0260180D01*
X0310884Y0260979D02*
X0309786Y0260979D01*
X0309786Y0261777D02*
X0316747Y0261777D01*
X0316582Y0260979D02*
X0316184Y0260979D01*
X0314585Y0259749D02*
X0312483Y0259749D01*
X0312483Y0258348D02*
X0314585Y0258348D01*
X0315286Y0259049D01*
X0314585Y0259749D01*
X0314585Y0258348D02*
X0315286Y0257648D01*
X0315286Y0256947D01*
X0312483Y0256947D01*
X0313885Y0255145D02*
X0313885Y0252343D01*
X0314585Y0252343D02*
X0315286Y0253044D01*
X0315286Y0254445D01*
X0314585Y0255145D01*
X0313885Y0255145D01*
X0312483Y0254445D02*
X0312483Y0253044D01*
X0313184Y0252343D01*
X0314585Y0252343D01*
X0315986Y0250742D02*
X0315286Y0250041D01*
X0315986Y0250742D02*
X0317388Y0250742D01*
X0319983Y0249841D02*
X0319983Y0247739D01*
X0324187Y0247739D01*
X0324187Y0249841D01*
X0323486Y0250542D01*
X0320684Y0250542D01*
X0319983Y0249841D01*
X0319983Y0252343D02*
X0322786Y0252343D01*
X0322786Y0253744D02*
X0322786Y0254445D01*
X0322786Y0253744D02*
X0321385Y0252343D01*
X0325882Y0246605D02*
X0326873Y0246605D01*
X0325083Y0245807D02*
X0331333Y0245807D01*
X0330986Y0248123D02*
X0330286Y0248123D01*
X0329585Y0248823D01*
X0329585Y0250225D01*
X0328885Y0250925D01*
X0328184Y0250925D01*
X0327483Y0250225D01*
X0327483Y0248823D01*
X0328184Y0248123D01*
X0330986Y0248123D02*
X0331687Y0248823D01*
X0331687Y0250225D01*
X0330986Y0250925D01*
X0330286Y0252727D02*
X0330286Y0254128D01*
X0330986Y0253427D02*
X0328184Y0253427D01*
X0327483Y0254128D01*
X0328184Y0255796D02*
X0327483Y0256497D01*
X0327483Y0257898D01*
X0328184Y0258598D01*
X0329585Y0258598D01*
X0330286Y0257898D01*
X0330286Y0256497D01*
X0329585Y0255796D01*
X0328184Y0255796D01*
X0322786Y0256880D02*
X0322085Y0256180D01*
X0320684Y0256180D01*
X0319983Y0256880D01*
X0319983Y0258282D01*
X0320684Y0258982D01*
X0322085Y0258982D01*
X0322786Y0258282D01*
X0322786Y0256880D01*
X0322786Y0260784D02*
X0318582Y0260784D01*
X0319983Y0260784D02*
X0319983Y0262885D01*
X0320684Y0263586D01*
X0322085Y0263586D01*
X0322786Y0262885D01*
X0322786Y0260784D01*
X0326082Y0260400D02*
X0330286Y0260400D01*
X0330286Y0262502D01*
X0329585Y0263202D01*
X0328184Y0263202D01*
X0327483Y0262502D01*
X0327483Y0260400D01*
X0326082Y0265004D02*
X0327483Y0266405D01*
X0327483Y0265704D01*
X0328184Y0265704D01*
X0328184Y0266405D01*
X0327483Y0266405D01*
X0326415Y0268165D02*
X0322136Y0268165D01*
X0322684Y0267367D02*
X0325617Y0267367D01*
X0324818Y0266568D02*
X0322684Y0266568D01*
X0322684Y0265770D02*
X0324082Y0265770D01*
X0324082Y0264971D02*
X0323528Y0264971D01*
X0320684Y0266088D02*
X0319983Y0266088D01*
X0319983Y0266789D01*
X0320684Y0266789D01*
X0320684Y0266088D01*
X0319983Y0266789D02*
X0318582Y0265388D01*
X0316969Y0264173D02*
X0315431Y0264173D01*
X0316230Y0264971D02*
X0316582Y0264971D01*
X0317983Y0263374D02*
X0309742Y0263374D01*
X0309786Y0262576D02*
X0317546Y0262576D01*
X0312338Y0264173D02*
X0308943Y0264173D01*
X0308145Y0264971D02*
X0311539Y0264971D01*
X0310741Y0265770D02*
X0270853Y0265770D01*
X0271133Y0266568D02*
X0310483Y0266568D01*
X0310483Y0267367D02*
X0271133Y0267367D01*
X0271133Y0268165D02*
X0303597Y0268165D01*
X0302983Y0268964D02*
X0270964Y0268964D01*
X0270633Y0269762D02*
X0288872Y0269762D01*
X0289262Y0269601D02*
X0292405Y0269601D01*
X0295308Y0270803D01*
X0297530Y0273025D01*
X0298733Y0275929D01*
X0298733Y0279071D01*
X0297530Y0281975D01*
X0295308Y0284197D01*
X0292405Y0285399D01*
X0289262Y0285399D01*
X0286359Y0284197D01*
X0284137Y0281975D01*
X0282934Y0279071D01*
X0282934Y0275929D01*
X0284137Y0273025D01*
X0286359Y0270803D01*
X0289262Y0269601D01*
X0286944Y0270561D02*
X0270268Y0270561D01*
X0269469Y0271359D02*
X0285803Y0271359D01*
X0285004Y0272158D02*
X0268438Y0272158D01*
X0263229Y0272158D02*
X0261133Y0272158D01*
X0261133Y0272956D02*
X0284206Y0272956D01*
X0283835Y0273755D02*
X0261050Y0273755D01*
X0260719Y0274553D02*
X0283504Y0274553D01*
X0283173Y0275352D02*
X0260389Y0275352D01*
X0259678Y0276150D02*
X0282934Y0276150D01*
X0282934Y0276949D02*
X0258880Y0276949D01*
X0257014Y0277747D02*
X0282934Y0277747D01*
X0282934Y0278546D02*
X0225798Y0278546D01*
X0226531Y0279344D02*
X0283047Y0279344D01*
X0283378Y0280143D02*
X0226862Y0280143D01*
X0227177Y0280941D02*
X0283709Y0280941D01*
X0284040Y0281740D02*
X0227177Y0281740D01*
X0227177Y0282539D02*
X0284701Y0282539D01*
X0285499Y0283337D02*
X0226920Y0283337D01*
X0226590Y0284136D02*
X0286298Y0284136D01*
X0288139Y0284934D02*
X0225940Y0284934D01*
X0225054Y0285733D02*
X0302983Y0285733D01*
X0303165Y0286531D02*
X0194333Y0286531D01*
X0194333Y0285733D02*
X0200733Y0285733D01*
X0199592Y0284934D02*
X0194333Y0284934D01*
X0194333Y0284136D02*
X0198933Y0284136D01*
X0198544Y0283337D02*
X0194333Y0283337D01*
X0194333Y0282539D02*
X0198333Y0282539D01*
X0198355Y0280941D02*
X0194333Y0280941D01*
X0194333Y0280143D02*
X0198590Y0280143D01*
X0199036Y0279344D02*
X0194333Y0279344D01*
X0194333Y0278546D02*
X0199734Y0278546D01*
X0204204Y0277747D02*
X0220538Y0277747D01*
X0219451Y0278546D02*
X0205515Y0278546D01*
X0206213Y0279344D02*
X0218718Y0279344D01*
X0218388Y0280143D02*
X0206659Y0280143D01*
X0206894Y0280941D02*
X0218072Y0280941D01*
X0224711Y0277747D02*
X0254652Y0277747D01*
X0261098Y0271359D02*
X0262197Y0271359D01*
X0261399Y0270561D02*
X0260767Y0270561D01*
X0261034Y0269762D02*
X0260436Y0269762D01*
X0260703Y0268964D02*
X0259792Y0268964D01*
X0260533Y0268165D02*
X0258994Y0268165D01*
X0257933Y0267367D02*
X0260533Y0267367D01*
X0260533Y0266568D02*
X0259260Y0266568D01*
X0260059Y0265770D02*
X0260813Y0265770D01*
X0260546Y0264971D02*
X0261144Y0264971D01*
X0260877Y0264173D02*
X0261665Y0264173D01*
X0261133Y0263374D02*
X0262464Y0263374D01*
X0261133Y0262576D02*
X0263872Y0262576D01*
X0262615Y0261777D02*
X0261133Y0261777D01*
X0260940Y0260979D02*
X0261817Y0260979D01*
X0261207Y0260180D02*
X0260609Y0260180D01*
X0260876Y0259382D02*
X0260210Y0259382D01*
X0260545Y0258583D02*
X0259412Y0258583D01*
X0258299Y0257785D02*
X0260533Y0257785D01*
X0260533Y0256986D02*
X0258842Y0256986D01*
X0259641Y0256188D02*
X0260640Y0256188D01*
X0260373Y0255389D02*
X0260971Y0255389D01*
X0260704Y0254591D02*
X0261302Y0254591D01*
X0261035Y0253792D02*
X0262046Y0253792D01*
X0262863Y0252994D02*
X0261133Y0252994D01*
X0261133Y0252195D02*
X0263319Y0252195D01*
X0262235Y0251397D02*
X0261113Y0251397D01*
X0261436Y0250598D02*
X0260782Y0250598D01*
X0261049Y0249800D02*
X0260451Y0249800D01*
X0260718Y0249001D02*
X0259830Y0249001D01*
X0259747Y0248203D02*
X0260533Y0248203D01*
X0260633Y0242700D02*
X0265833Y0237500D01*
X0260533Y0237822D02*
X0258389Y0237822D01*
X0259449Y0238620D02*
X0260533Y0238620D01*
X0260533Y0239419D02*
X0260248Y0239419D01*
X0251870Y0230635D02*
X0250526Y0230635D01*
X0251071Y0231434D02*
X0249728Y0231434D01*
X0250273Y0232232D02*
X0248929Y0232232D01*
X0249474Y0233031D02*
X0248131Y0233031D01*
X0248676Y0233829D02*
X0247332Y0233829D01*
X0247877Y0234628D02*
X0246534Y0234628D01*
X0247079Y0235426D02*
X0245735Y0235426D01*
X0246280Y0236225D02*
X0244937Y0236225D01*
X0245482Y0237023D02*
X0244138Y0237023D01*
X0244683Y0237822D02*
X0243340Y0237822D01*
X0243885Y0238620D02*
X0242541Y0238620D01*
X0243086Y0239419D02*
X0241743Y0239419D01*
X0242287Y0240217D02*
X0240944Y0240217D01*
X0241489Y0241016D02*
X0240146Y0241016D01*
X0240690Y0241814D02*
X0239347Y0241814D01*
X0239892Y0242613D02*
X0238549Y0242613D01*
X0239093Y0243411D02*
X0237750Y0243411D01*
X0238295Y0244210D02*
X0236952Y0244210D01*
X0237496Y0245008D02*
X0236153Y0245008D01*
X0236698Y0245807D02*
X0235355Y0245807D01*
X0235899Y0246605D02*
X0234556Y0246605D01*
X0235101Y0247404D02*
X0233758Y0247404D01*
X0234302Y0248203D02*
X0232959Y0248203D01*
X0230906Y0250598D02*
X0230564Y0250598D01*
X0230783Y0251397D02*
X0229765Y0251397D01*
X0228967Y0252195D02*
X0230820Y0252195D01*
X0231151Y0252994D02*
X0228168Y0252994D01*
X0226833Y0251500D02*
X0202833Y0251500D01*
X0199783Y0251397D02*
X0194333Y0251397D01*
X0194333Y0252195D02*
X0199820Y0252195D01*
X0200151Y0252994D02*
X0194333Y0252994D01*
X0194333Y0253792D02*
X0200812Y0253792D01*
X0199906Y0250598D02*
X0194333Y0250598D01*
X0194333Y0249800D02*
X0200236Y0249800D01*
X0201019Y0249001D02*
X0194333Y0249001D01*
X0194333Y0248203D02*
X0227302Y0248203D01*
X0226504Y0249001D02*
X0204648Y0249001D01*
X0204855Y0253792D02*
X0231812Y0253792D01*
X0232414Y0254591D02*
X0194333Y0254591D01*
X0194333Y0255389D02*
X0231616Y0255389D01*
X0230817Y0256188D02*
X0194333Y0256188D01*
X0194333Y0256986D02*
X0230019Y0256986D01*
X0229220Y0257785D02*
X0194333Y0257785D01*
X0194333Y0258583D02*
X0228422Y0258583D01*
X0227623Y0259382D02*
X0194333Y0259382D01*
X0194333Y0260180D02*
X0226825Y0260180D01*
X0226026Y0260979D02*
X0194333Y0260979D01*
X0194333Y0261777D02*
X0225228Y0261777D01*
X0227690Y0264971D02*
X0251120Y0264971D01*
X0250790Y0264173D02*
X0228489Y0264173D01*
X0229287Y0263374D02*
X0250533Y0263374D01*
X0250533Y0262576D02*
X0230086Y0262576D01*
X0226892Y0265770D02*
X0251608Y0265770D01*
X0252406Y0266568D02*
X0226093Y0266568D01*
X0225295Y0267367D02*
X0253733Y0267367D01*
X0252673Y0268165D02*
X0200481Y0268165D01*
X0199148Y0268964D02*
X0251874Y0268964D01*
X0250533Y0261777D02*
X0245869Y0261777D01*
X0246522Y0260979D02*
X0250727Y0260979D01*
X0251058Y0260180D02*
X0246853Y0260180D01*
X0246883Y0259382D02*
X0251456Y0259382D01*
X0252255Y0258583D02*
X0246755Y0258583D01*
X0246589Y0257785D02*
X0253368Y0257785D01*
X0252824Y0256986D02*
X0247387Y0256986D01*
X0248186Y0256188D02*
X0252026Y0256188D01*
X0251293Y0255389D02*
X0248984Y0255389D01*
X0249783Y0254591D02*
X0250963Y0254591D01*
X0250632Y0253792D02*
X0250581Y0253792D01*
X0233833Y0251500D02*
X0273333Y0212000D01*
X0273333Y0184449D01*
X0263333Y0174449D01*
X0258548Y0176337D02*
X0224833Y0176337D01*
X0224833Y0177135D02*
X0258879Y0177135D01*
X0259544Y0177934D02*
X0224833Y0177934D01*
X0224833Y0178732D02*
X0260343Y0178732D01*
X0262162Y0179531D02*
X0224833Y0179531D01*
X0224833Y0180329D02*
X0266385Y0180329D01*
X0265587Y0179531D02*
X0264505Y0179531D01*
X0267184Y0181128D02*
X0224833Y0181128D01*
X0224833Y0181926D02*
X0267982Y0181926D01*
X0268781Y0182725D02*
X0224833Y0182725D01*
X0224833Y0183523D02*
X0261111Y0183523D01*
X0259516Y0184322D02*
X0224833Y0184322D01*
X0224833Y0185120D02*
X0258717Y0185120D01*
X0257949Y0185919D02*
X0224833Y0185919D01*
X0224833Y0186717D02*
X0234570Y0186717D01*
X0234719Y0186568D02*
X0235840Y0186104D01*
X0237053Y0186104D01*
X0238174Y0186568D01*
X0239032Y0187426D01*
X0239497Y0188547D01*
X0239497Y0189760D01*
X0239032Y0190881D01*
X0238174Y0191739D01*
X0237053Y0192204D01*
X0236225Y0192204D01*
X0235333Y0193095D01*
X0235333Y0222687D01*
X0235919Y0223272D01*
X0236383Y0224393D01*
X0236383Y0225607D01*
X0235919Y0226728D01*
X0235061Y0227586D01*
X0233940Y0228050D01*
X0232727Y0228050D01*
X0231606Y0227586D01*
X0230748Y0226728D01*
X0230283Y0225607D01*
X0230283Y0224393D01*
X0230748Y0223272D01*
X0231333Y0222687D01*
X0231333Y0191438D01*
X0233397Y0189375D01*
X0233397Y0188547D01*
X0233861Y0187426D01*
X0234719Y0186568D01*
X0233824Y0187516D02*
X0224833Y0187516D01*
X0224833Y0188314D02*
X0233493Y0188314D01*
X0233397Y0189113D02*
X0224833Y0189113D01*
X0224833Y0189911D02*
X0232861Y0189911D01*
X0232062Y0190710D02*
X0224833Y0190710D01*
X0224833Y0191508D02*
X0231333Y0191508D01*
X0231333Y0192307D02*
X0224833Y0192307D01*
X0224833Y0193105D02*
X0231333Y0193105D01*
X0231333Y0193904D02*
X0224833Y0193904D01*
X0224833Y0194702D02*
X0231333Y0194702D01*
X0231333Y0195501D02*
X0224833Y0195501D01*
X0224833Y0196299D02*
X0231333Y0196299D01*
X0231333Y0197098D02*
X0224833Y0197098D01*
X0224833Y0197896D02*
X0231333Y0197896D01*
X0231333Y0198695D02*
X0224833Y0198695D01*
X0224833Y0199493D02*
X0231333Y0199493D01*
X0231333Y0200292D02*
X0224833Y0200292D01*
X0224833Y0201090D02*
X0231333Y0201090D01*
X0231333Y0201889D02*
X0224833Y0201889D01*
X0224833Y0202687D02*
X0231333Y0202687D01*
X0231333Y0203486D02*
X0224833Y0203486D01*
X0224833Y0204284D02*
X0231333Y0204284D01*
X0231333Y0205083D02*
X0224833Y0205083D01*
X0224833Y0205328D02*
X0221383Y0208778D01*
X0221383Y0209607D01*
X0220919Y0210728D01*
X0220061Y0211586D01*
X0218940Y0212050D01*
X0217727Y0212050D01*
X0216606Y0211586D01*
X0215748Y0210728D01*
X0215283Y0209607D01*
X0215283Y0208393D01*
X0215748Y0207272D01*
X0216606Y0206414D01*
X0217727Y0205950D01*
X0218555Y0205950D01*
X0220833Y0203672D01*
X0220833Y0141313D01*
X0220248Y0140728D01*
X0219783Y0139607D01*
X0219783Y0138393D01*
X0220248Y0137272D01*
X0221106Y0136414D01*
X0222227Y0135950D01*
X0223440Y0135950D01*
X0224561Y0136414D01*
X0225419Y0137272D01*
X0225883Y0138393D01*
X0225883Y0139607D01*
X0225419Y0140728D01*
X0224833Y0141313D01*
X0224833Y0205328D01*
X0224280Y0205881D02*
X0231333Y0205881D01*
X0231333Y0206680D02*
X0223482Y0206680D01*
X0222683Y0207478D02*
X0231333Y0207478D01*
X0231333Y0208277D02*
X0221885Y0208277D01*
X0221383Y0209075D02*
X0231333Y0209075D01*
X0231333Y0209874D02*
X0221273Y0209874D01*
X0220942Y0210672D02*
X0231333Y0210672D01*
X0231333Y0211471D02*
X0220176Y0211471D01*
X0218333Y0209000D02*
X0218333Y0209000D01*
X0222833Y0204500D01*
X0222833Y0139000D01*
X0220722Y0141202D02*
X0209333Y0141202D01*
X0209333Y0142001D02*
X0220833Y0142001D01*
X0220833Y0142799D02*
X0209333Y0142799D01*
X0209333Y0143598D02*
X0220833Y0143598D01*
X0220833Y0144396D02*
X0209333Y0144396D01*
X0209333Y0145195D02*
X0220833Y0145195D01*
X0220833Y0145993D02*
X0209333Y0145993D01*
X0209333Y0146792D02*
X0220833Y0146792D01*
X0220833Y0147590D02*
X0209333Y0147590D01*
X0209333Y0148389D02*
X0220833Y0148389D01*
X0220833Y0149187D02*
X0209333Y0149187D01*
X0209333Y0149986D02*
X0220833Y0149986D01*
X0220833Y0150784D02*
X0209333Y0150784D01*
X0209333Y0151583D02*
X0220833Y0151583D01*
X0220833Y0152381D02*
X0209333Y0152381D01*
X0209333Y0153180D02*
X0220833Y0153180D01*
X0220833Y0153978D02*
X0209333Y0153978D01*
X0209333Y0154777D02*
X0220833Y0154777D01*
X0220833Y0155575D02*
X0209333Y0155575D01*
X0209333Y0156374D02*
X0220833Y0156374D01*
X0220833Y0157172D02*
X0209333Y0157172D01*
X0209333Y0157971D02*
X0220833Y0157971D01*
X0220833Y0158769D02*
X0209333Y0158769D01*
X0209333Y0159568D02*
X0220833Y0159568D01*
X0220833Y0160366D02*
X0209333Y0160366D01*
X0209333Y0161165D02*
X0220833Y0161165D01*
X0220833Y0161963D02*
X0209333Y0161963D01*
X0209333Y0162762D02*
X0220833Y0162762D01*
X0220833Y0163560D02*
X0209333Y0163560D01*
X0209333Y0164359D02*
X0220833Y0164359D01*
X0220833Y0165157D02*
X0209333Y0165157D01*
X0209333Y0165956D02*
X0220833Y0165956D01*
X0220833Y0166754D02*
X0209333Y0166754D01*
X0209333Y0167553D02*
X0220833Y0167553D01*
X0220833Y0168351D02*
X0209333Y0168351D01*
X0209333Y0169150D02*
X0220833Y0169150D01*
X0220833Y0169948D02*
X0209333Y0169948D01*
X0209333Y0170747D02*
X0220833Y0170747D01*
X0220833Y0171545D02*
X0209333Y0171545D01*
X0209333Y0172344D02*
X0220833Y0172344D01*
X0220833Y0173142D02*
X0209333Y0173142D01*
X0209333Y0173941D02*
X0220833Y0173941D01*
X0220833Y0174739D02*
X0209333Y0174739D01*
X0209333Y0175538D02*
X0220833Y0175538D01*
X0220833Y0176337D02*
X0209333Y0176337D01*
X0207333Y0176337D02*
X0172165Y0176337D01*
X0172883Y0177135D02*
X0201738Y0177135D01*
X0201701Y0177172D02*
X0201962Y0176911D01*
X0202281Y0176727D01*
X0202637Y0176631D01*
X0204587Y0176631D01*
X0204587Y0179600D01*
X0201422Y0179600D01*
X0201422Y0177847D01*
X0201517Y0177491D01*
X0201701Y0177172D01*
X0201422Y0177934D02*
X0173214Y0177934D01*
X0173545Y0178732D02*
X0201422Y0178732D01*
X0201422Y0179531D02*
X0173633Y0179531D01*
X0173633Y0180329D02*
X0204587Y0180329D01*
X0204587Y0179531D02*
X0205387Y0179531D01*
X0205387Y0178732D02*
X0204587Y0178732D01*
X0204587Y0177934D02*
X0205387Y0177934D01*
X0205387Y0177135D02*
X0204587Y0177135D01*
X0207333Y0175538D02*
X0171367Y0175538D01*
X0170741Y0174739D02*
X0207333Y0174739D01*
X0207333Y0173941D02*
X0171888Y0173941D01*
X0172686Y0173142D02*
X0207333Y0173142D01*
X0207333Y0172344D02*
X0173099Y0172344D01*
X0173430Y0171545D02*
X0207333Y0171545D01*
X0207333Y0170747D02*
X0173633Y0170747D01*
X0173633Y0169948D02*
X0207333Y0169948D01*
X0207333Y0169150D02*
X0173633Y0169150D01*
X0173387Y0168351D02*
X0207333Y0168351D01*
X0207333Y0167553D02*
X0173056Y0167553D01*
X0172583Y0166754D02*
X0207333Y0166754D01*
X0207333Y0165956D02*
X0171785Y0165956D01*
X0170492Y0165157D02*
X0207333Y0165157D01*
X0207333Y0164359D02*
X0171011Y0164359D01*
X0171985Y0163560D02*
X0207333Y0163560D01*
X0207333Y0162762D02*
X0172631Y0162762D01*
X0173057Y0161963D02*
X0207333Y0161963D01*
X0207333Y0161165D02*
X0173312Y0161165D01*
X0173428Y0159568D02*
X0207333Y0159568D01*
X0207333Y0160366D02*
X0168733Y0160366D01*
X0167933Y0160366D02*
X0134933Y0160366D01*
X0134933Y0159568D02*
X0163238Y0159568D01*
X0163371Y0158769D02*
X0134933Y0158769D01*
X0134933Y0157971D02*
X0163643Y0157971D01*
X0164084Y0157172D02*
X0134933Y0157172D01*
X0134933Y0156374D02*
X0164747Y0156374D01*
X0165784Y0155575D02*
X0134933Y0155575D01*
X0134933Y0154777D02*
X0166016Y0154777D01*
X0164816Y0153978D02*
X0134933Y0153978D01*
X0134933Y0153180D02*
X0164018Y0153180D01*
X0163583Y0152381D02*
X0134933Y0152381D01*
X0134933Y0151583D02*
X0163252Y0151583D01*
X0163033Y0150784D02*
X0134933Y0150784D01*
X0134933Y0149986D02*
X0163033Y0149986D01*
X0163033Y0149187D02*
X0134933Y0149187D01*
X0134933Y0148389D02*
X0163264Y0148389D01*
X0163595Y0147590D02*
X0134933Y0147590D01*
X0134933Y0146792D02*
X0164046Y0146792D01*
X0164845Y0145993D02*
X0134933Y0145993D01*
X0134933Y0145195D02*
X0166085Y0145195D01*
X0165234Y0144396D02*
X0134933Y0144396D01*
X0134933Y0143598D02*
X0164436Y0143598D01*
X0163756Y0142799D02*
X0134933Y0142799D01*
X0134933Y0142001D02*
X0163425Y0142001D01*
X0163095Y0141202D02*
X0134933Y0141202D01*
X0134933Y0140403D02*
X0163033Y0140403D01*
X0163033Y0139605D02*
X0134933Y0139605D01*
X0134933Y0138806D02*
X0163091Y0138806D01*
X0163422Y0138008D02*
X0134933Y0138008D01*
X0134933Y0137209D02*
X0163753Y0137209D01*
X0164427Y0136411D02*
X0134933Y0136411D01*
X0134933Y0135612D02*
X0165226Y0135612D01*
X0166106Y0134814D02*
X0134933Y0134814D01*
X0134933Y0134015D02*
X0164853Y0134015D01*
X0164055Y0133217D02*
X0134933Y0133217D01*
X0134933Y0132418D02*
X0163598Y0132418D01*
X0163268Y0131620D02*
X0134933Y0131620D01*
X0134933Y0130821D02*
X0163033Y0130821D01*
X0163033Y0130023D02*
X0134933Y0130023D01*
X0134933Y0129224D02*
X0163033Y0129224D01*
X0163249Y0128426D02*
X0134933Y0128426D01*
X0134933Y0127627D02*
X0163579Y0127627D01*
X0170322Y0125200D02*
X0153533Y0125200D01*
X0153333Y0125000D01*
X0128333Y0125000D01*
X0134933Y0122836D02*
X0163771Y0122836D01*
X0163441Y0122038D02*
X0134933Y0122038D01*
X0134933Y0121239D02*
X0163110Y0121239D01*
X0163033Y0120441D02*
X0134933Y0120441D01*
X0134933Y0119642D02*
X0163033Y0119642D01*
X0163076Y0118844D02*
X0134933Y0118844D01*
X0134933Y0118045D02*
X0163406Y0118045D01*
X0163737Y0117247D02*
X0134933Y0117247D01*
X0134933Y0116448D02*
X0164390Y0116448D01*
X0165188Y0115650D02*
X0134933Y0115650D01*
X0134933Y0114851D02*
X0166195Y0114851D01*
X0164891Y0114053D02*
X0134933Y0114053D01*
X0134933Y0113254D02*
X0164092Y0113254D01*
X0163614Y0112456D02*
X0134933Y0112456D01*
X0134933Y0111657D02*
X0163283Y0111657D01*
X0163033Y0110859D02*
X0134933Y0110859D01*
X0134933Y0110060D02*
X0163033Y0110060D01*
X0163033Y0109262D02*
X0134933Y0109262D01*
X0134933Y0108463D02*
X0163233Y0108463D01*
X0163564Y0107665D02*
X0134933Y0107665D01*
X0134933Y0106866D02*
X0163972Y0106866D01*
X0164770Y0106068D02*
X0134933Y0106068D01*
X0134933Y0105269D02*
X0165905Y0105269D01*
X0165308Y0104470D02*
X0134933Y0104470D01*
X0134933Y0103672D02*
X0164510Y0103672D01*
X0163787Y0102873D02*
X0134933Y0102873D01*
X0134933Y0102075D02*
X0163456Y0102075D01*
X0163125Y0101276D02*
X0134933Y0101276D01*
X0134933Y0100478D02*
X0163033Y0100478D01*
X0163033Y0099679D02*
X0134933Y0099679D01*
X0134933Y0098881D02*
X0163060Y0098881D01*
X0163391Y0098082D02*
X0134933Y0098082D01*
X0134933Y0097284D02*
X0163722Y0097284D01*
X0164353Y0096485D02*
X0134933Y0096485D01*
X0134933Y0095687D02*
X0165151Y0095687D01*
X0166285Y0094888D02*
X0134933Y0094888D01*
X0134933Y0094090D02*
X0164928Y0094090D01*
X0164129Y0093291D02*
X0134933Y0093291D01*
X0134933Y0092493D02*
X0163629Y0092493D01*
X0163298Y0091694D02*
X0134933Y0091694D01*
X0134933Y0090896D02*
X0163033Y0090896D01*
X0163033Y0090097D02*
X0134933Y0090097D01*
X0134933Y0089299D02*
X0163033Y0089299D01*
X0163218Y0088500D02*
X0134933Y0088500D01*
X0134933Y0087702D02*
X0163549Y0087702D01*
X0163935Y0086903D02*
X0134933Y0086903D01*
X0134933Y0086105D02*
X0164733Y0086105D01*
X0165816Y0085306D02*
X0134933Y0085306D01*
X0134933Y0084508D02*
X0165366Y0084508D01*
X0164547Y0083709D02*
X0134933Y0083709D01*
X0134933Y0082911D02*
X0163802Y0082911D01*
X0163472Y0082112D02*
X0134933Y0082112D01*
X0134933Y0081314D02*
X0163141Y0081314D01*
X0163033Y0080515D02*
X0134933Y0080515D01*
X0134933Y0079717D02*
X0163033Y0079717D01*
X0163045Y0078918D02*
X0134933Y0078918D01*
X0134933Y0078120D02*
X0163376Y0078120D01*
X0163706Y0077321D02*
X0134933Y0077321D01*
X0134933Y0076523D02*
X0164315Y0076523D01*
X0165114Y0075724D02*
X0134933Y0075724D01*
X0134933Y0074926D02*
X0166375Y0074926D01*
X0164965Y0074127D02*
X0134933Y0074127D01*
X0134933Y0073329D02*
X0164167Y0073329D01*
X0163645Y0072530D02*
X0135137Y0072530D01*
X0135936Y0071732D02*
X0163314Y0071732D01*
X0163033Y0070933D02*
X0136734Y0070933D01*
X0137533Y0070134D02*
X0163033Y0070134D01*
X0163033Y0069336D02*
X0138331Y0069336D01*
X0139130Y0068537D02*
X0163202Y0068537D01*
X0163533Y0067739D02*
X0139928Y0067739D01*
X0140727Y0066940D02*
X0163898Y0066940D01*
X0164696Y0066142D02*
X0141525Y0066142D01*
X0142324Y0065343D02*
X0165726Y0065343D01*
X0165456Y0064545D02*
X0143122Y0064545D01*
X0143921Y0063746D02*
X0164584Y0063746D01*
X0163818Y0062948D02*
X0144719Y0062948D01*
X0145518Y0062149D02*
X0163487Y0062149D01*
X0163156Y0061351D02*
X0146316Y0061351D01*
X0147115Y0060552D02*
X0163033Y0060552D01*
X0163033Y0059754D02*
X0147793Y0059754D01*
X0148124Y0058955D02*
X0163033Y0058955D01*
X0163360Y0058157D02*
X0148455Y0058157D01*
X0148713Y0057358D02*
X0163691Y0057358D01*
X0164278Y0056560D02*
X0148713Y0056560D01*
X0148713Y0055761D02*
X0165077Y0055761D01*
X0165002Y0054164D02*
X0148713Y0054164D01*
X0148713Y0053366D02*
X0164204Y0053366D01*
X0163660Y0052567D02*
X0148713Y0052567D01*
X0148713Y0051769D02*
X0163329Y0051769D01*
X0163033Y0050970D02*
X0148713Y0050970D01*
X0148713Y0050172D02*
X0163033Y0050172D01*
X0163033Y0049373D02*
X0148713Y0049373D01*
X0148666Y0048575D02*
X0163187Y0048575D01*
X0163518Y0047776D02*
X0148335Y0047776D01*
X0148005Y0046978D02*
X0163860Y0046978D01*
X0164659Y0046179D02*
X0147626Y0046179D01*
X0146827Y0045381D02*
X0165636Y0045381D01*
X0165546Y0044582D02*
X0146029Y0044582D01*
X0144352Y0043784D02*
X0164622Y0043784D01*
X0163833Y0042985D02*
X0112421Y0042985D01*
X0112281Y0042187D02*
X0163502Y0042187D01*
X0163172Y0041388D02*
X0111987Y0041388D01*
X0111526Y0040590D02*
X0163033Y0040590D01*
X0163033Y0039791D02*
X0111065Y0039791D01*
X0110604Y0038993D02*
X0163033Y0038993D01*
X0163345Y0038194D02*
X0109691Y0038194D01*
X0110567Y0038930D02*
X0110567Y0038930D01*
X0110567Y0038930D01*
X0108739Y0037396D02*
X0163675Y0037396D01*
X0172827Y0037000D02*
X0173633Y0038946D01*
X0173633Y0041054D01*
X0172826Y0043002D01*
X0171336Y0044493D01*
X0170112Y0045000D01*
X0171336Y0045507D01*
X0172826Y0046998D01*
X0173633Y0048946D01*
X0173633Y0051054D01*
X0172826Y0053002D01*
X0171336Y0054493D01*
X0170112Y0055000D01*
X0171336Y0055507D01*
X0172826Y0056998D01*
X0173633Y0058946D01*
X0173633Y0061054D01*
X0172826Y0063002D01*
X0171336Y0064493D01*
X0170112Y0065000D01*
X0171336Y0065507D01*
X0172826Y0066998D01*
X0173633Y0068946D01*
X0173633Y0071054D01*
X0172826Y0073002D01*
X0171336Y0074493D01*
X0170112Y0075000D01*
X0171336Y0075507D01*
X0172826Y0076998D01*
X0173633Y0078946D01*
X0173633Y0081054D01*
X0172826Y0083002D01*
X0171336Y0084493D01*
X0170112Y0085000D01*
X0171336Y0085507D01*
X0172826Y0086998D01*
X0173633Y0088946D01*
X0173633Y0091054D01*
X0173218Y0092056D01*
X0181333Y0100172D01*
X0181333Y0119687D01*
X0181919Y0120272D01*
X0182383Y0121393D01*
X0182383Y0122607D01*
X0181919Y0123728D01*
X0181061Y0124586D01*
X0179940Y0125050D01*
X0178727Y0125050D01*
X0177606Y0124586D01*
X0176748Y0123728D01*
X0176283Y0122607D01*
X0176283Y0121393D01*
X0176748Y0120272D01*
X0177333Y0119687D01*
X0177333Y0101828D01*
X0173055Y0097550D01*
X0173633Y0098946D01*
X0173633Y0101054D01*
X0172826Y0103002D01*
X0171336Y0104493D01*
X0170112Y0105000D01*
X0171336Y0105507D01*
X0172826Y0106998D01*
X0173633Y0108946D01*
X0173633Y0111054D01*
X0172826Y0113002D01*
X0171336Y0114493D01*
X0170112Y0115000D01*
X0171336Y0115507D01*
X0172826Y0116998D01*
X0173633Y0118946D01*
X0173633Y0121054D01*
X0172826Y0123002D01*
X0171889Y0123939D01*
X0172322Y0124372D01*
X0175950Y0128000D01*
X0190020Y0128000D01*
X0190606Y0127414D01*
X0191727Y0126950D01*
X0192940Y0126950D01*
X0194061Y0127414D01*
X0194647Y0128000D01*
X0207333Y0128000D01*
X0207333Y0037000D01*
X0172827Y0037000D01*
X0172991Y0037396D02*
X0207333Y0037396D01*
X0207333Y0038194D02*
X0173322Y0038194D01*
X0173633Y0038993D02*
X0207333Y0038993D01*
X0207333Y0039791D02*
X0173633Y0039791D01*
X0173633Y0040590D02*
X0207333Y0040590D01*
X0207333Y0041388D02*
X0173495Y0041388D01*
X0173164Y0042187D02*
X0207333Y0042187D01*
X0207333Y0042985D02*
X0172834Y0042985D01*
X0172045Y0043784D02*
X0207333Y0043784D01*
X0207333Y0044582D02*
X0171121Y0044582D01*
X0171031Y0045381D02*
X0207333Y0045381D01*
X0207333Y0046179D02*
X0172008Y0046179D01*
X0172806Y0046978D02*
X0207333Y0046978D01*
X0207333Y0047776D02*
X0173149Y0047776D01*
X0173480Y0048575D02*
X0207333Y0048575D01*
X0207333Y0049373D02*
X0173633Y0049373D01*
X0173633Y0050172D02*
X0207333Y0050172D01*
X0207333Y0050970D02*
X0173633Y0050970D01*
X0173337Y0051769D02*
X0207333Y0051769D01*
X0207333Y0052567D02*
X0173007Y0052567D01*
X0172463Y0053366D02*
X0207333Y0053366D01*
X0207333Y0054164D02*
X0171664Y0054164D01*
X0171590Y0055761D02*
X0207333Y0055761D01*
X0207333Y0054963D02*
X0170202Y0054963D01*
X0172388Y0056560D02*
X0207333Y0056560D01*
X0207333Y0057358D02*
X0172976Y0057358D01*
X0173307Y0058157D02*
X0207333Y0058157D01*
X0207333Y0058955D02*
X0173633Y0058955D01*
X0173633Y0059754D02*
X0207333Y0059754D01*
X0207333Y0060552D02*
X0173633Y0060552D01*
X0173510Y0061351D02*
X0207333Y0061351D01*
X0207333Y0062149D02*
X0173180Y0062149D01*
X0172849Y0062948D02*
X0207333Y0062948D01*
X0207333Y0063746D02*
X0172082Y0063746D01*
X0171210Y0064545D02*
X0207333Y0064545D01*
X0207333Y0065343D02*
X0170941Y0065343D01*
X0171971Y0066142D02*
X0207333Y0066142D01*
X0207333Y0066940D02*
X0172769Y0066940D01*
X0173133Y0067739D02*
X0207333Y0067739D01*
X0207333Y0068537D02*
X0173464Y0068537D01*
X0173633Y0069336D02*
X0207333Y0069336D01*
X0207333Y0070134D02*
X0173633Y0070134D01*
X0173633Y0070933D02*
X0207333Y0070933D01*
X0207333Y0071732D02*
X0173353Y0071732D01*
X0173022Y0072530D02*
X0207333Y0072530D01*
X0207333Y0073329D02*
X0172500Y0073329D01*
X0171702Y0074127D02*
X0207333Y0074127D01*
X0207333Y0074926D02*
X0170291Y0074926D01*
X0171553Y0075724D02*
X0207333Y0075724D01*
X0207333Y0076523D02*
X0172351Y0076523D01*
X0172960Y0077321D02*
X0207333Y0077321D01*
X0207333Y0078120D02*
X0173291Y0078120D01*
X0173622Y0078918D02*
X0207333Y0078918D01*
X0207333Y0079717D02*
X0173633Y0079717D01*
X0173633Y0080515D02*
X0207333Y0080515D01*
X0207333Y0081314D02*
X0173526Y0081314D01*
X0173195Y0082112D02*
X0207333Y0082112D01*
X0207333Y0082911D02*
X0172864Y0082911D01*
X0172119Y0083709D02*
X0207333Y0083709D01*
X0207333Y0084508D02*
X0171300Y0084508D01*
X0170851Y0085306D02*
X0207333Y0085306D01*
X0207333Y0086105D02*
X0171933Y0086105D01*
X0172732Y0086903D02*
X0207333Y0086903D01*
X0207333Y0087702D02*
X0173118Y0087702D01*
X0173449Y0088500D02*
X0207333Y0088500D01*
X0207333Y0089299D02*
X0173633Y0089299D01*
X0173633Y0090097D02*
X0207333Y0090097D01*
X0207333Y0090896D02*
X0173633Y0090896D01*
X0173368Y0091694D02*
X0207333Y0091694D01*
X0207333Y0092493D02*
X0173655Y0092493D01*
X0174453Y0093291D02*
X0207333Y0093291D01*
X0207333Y0094090D02*
X0175252Y0094090D01*
X0176050Y0094888D02*
X0207333Y0094888D01*
X0207333Y0095687D02*
X0176849Y0095687D01*
X0177647Y0096485D02*
X0207333Y0096485D01*
X0207333Y0097284D02*
X0178446Y0097284D01*
X0179244Y0098082D02*
X0207333Y0098082D01*
X0207333Y0098881D02*
X0180043Y0098881D01*
X0180841Y0099679D02*
X0207333Y0099679D01*
X0207333Y0100478D02*
X0181333Y0100478D01*
X0181333Y0101276D02*
X0207333Y0101276D01*
X0207333Y0102075D02*
X0181333Y0102075D01*
X0181333Y0102873D02*
X0207333Y0102873D01*
X0207333Y0103672D02*
X0181333Y0103672D01*
X0181333Y0104470D02*
X0207333Y0104470D01*
X0207333Y0105269D02*
X0181333Y0105269D01*
X0181333Y0106068D02*
X0207333Y0106068D01*
X0207333Y0106866D02*
X0181333Y0106866D01*
X0181333Y0107665D02*
X0207333Y0107665D01*
X0207333Y0108463D02*
X0181333Y0108463D01*
X0181333Y0109262D02*
X0207333Y0109262D01*
X0207333Y0110060D02*
X0181333Y0110060D01*
X0181333Y0110859D02*
X0207333Y0110859D01*
X0207333Y0111657D02*
X0181333Y0111657D01*
X0181333Y0112456D02*
X0207333Y0112456D01*
X0207333Y0113254D02*
X0181333Y0113254D01*
X0181333Y0114053D02*
X0207333Y0114053D01*
X0207333Y0114851D02*
X0181333Y0114851D01*
X0181333Y0115650D02*
X0207333Y0115650D01*
X0207333Y0116448D02*
X0181333Y0116448D01*
X0181333Y0117247D02*
X0207333Y0117247D01*
X0207333Y0118045D02*
X0181333Y0118045D01*
X0181333Y0118844D02*
X0207333Y0118844D01*
X0207333Y0119642D02*
X0181333Y0119642D01*
X0181989Y0120441D02*
X0207333Y0120441D01*
X0207333Y0121239D02*
X0182319Y0121239D01*
X0182383Y0122038D02*
X0207333Y0122038D01*
X0207333Y0122836D02*
X0182288Y0122836D01*
X0181957Y0123635D02*
X0207333Y0123635D01*
X0207333Y0124433D02*
X0181213Y0124433D01*
X0179333Y0122000D02*
X0179333Y0101000D01*
X0168333Y0090000D01*
X0173276Y0098082D02*
X0173587Y0098082D01*
X0173606Y0098881D02*
X0174386Y0098881D01*
X0173633Y0099679D02*
X0175184Y0099679D01*
X0175983Y0100478D02*
X0173633Y0100478D01*
X0173541Y0101276D02*
X0176781Y0101276D01*
X0177333Y0102075D02*
X0173211Y0102075D01*
X0172880Y0102873D02*
X0177333Y0102873D01*
X0177333Y0103672D02*
X0172157Y0103672D01*
X0171358Y0104470D02*
X0177333Y0104470D01*
X0177333Y0105269D02*
X0170761Y0105269D01*
X0171896Y0106068D02*
X0177333Y0106068D01*
X0177333Y0106866D02*
X0172695Y0106866D01*
X0173103Y0107665D02*
X0177333Y0107665D01*
X0177333Y0108463D02*
X0173433Y0108463D01*
X0173633Y0109262D02*
X0177333Y0109262D01*
X0177333Y0110060D02*
X0173633Y0110060D01*
X0173633Y0110859D02*
X0177333Y0110859D01*
X0177333Y0111657D02*
X0173384Y0111657D01*
X0173053Y0112456D02*
X0177333Y0112456D01*
X0177333Y0113254D02*
X0172575Y0113254D01*
X0171776Y0114053D02*
X0177333Y0114053D01*
X0177333Y0114851D02*
X0170471Y0114851D01*
X0171478Y0115650D02*
X0177333Y0115650D01*
X0177333Y0116448D02*
X0172277Y0116448D01*
X0172930Y0117247D02*
X0177333Y0117247D01*
X0177333Y0118045D02*
X0173260Y0118045D01*
X0173591Y0118844D02*
X0177333Y0118844D01*
X0177333Y0119642D02*
X0173633Y0119642D01*
X0173633Y0120441D02*
X0176678Y0120441D01*
X0176347Y0121239D02*
X0173557Y0121239D01*
X0173226Y0122038D02*
X0176283Y0122038D01*
X0176378Y0122836D02*
X0172895Y0122836D01*
X0172194Y0123635D02*
X0176709Y0123635D01*
X0177453Y0124433D02*
X0172383Y0124433D01*
X0173182Y0125232D02*
X0207333Y0125232D01*
X0207333Y0126030D02*
X0173980Y0126030D01*
X0174779Y0126829D02*
X0207333Y0126829D01*
X0207333Y0127627D02*
X0194274Y0127627D01*
X0193333Y0130000D02*
X0192333Y0130000D01*
X0175122Y0130000D01*
X0170322Y0125200D01*
X0175577Y0127627D02*
X0190393Y0127627D01*
X0193333Y0130000D02*
X0248333Y0130000D01*
X0243425Y0128000D02*
X0243840Y0126998D01*
X0245331Y0125507D01*
X0246555Y0125000D01*
X0245331Y0124493D01*
X0243840Y0123002D01*
X0243033Y0121054D01*
X0243033Y0118946D01*
X0243840Y0116998D01*
X0245331Y0115507D01*
X0246555Y0115000D01*
X0245331Y0114493D01*
X0243840Y0113002D01*
X0243033Y0111054D01*
X0243033Y0108946D01*
X0243840Y0106998D01*
X0245331Y0105507D01*
X0246555Y0105000D01*
X0245331Y0104493D01*
X0243840Y0103002D01*
X0243033Y0101054D01*
X0243033Y0098946D01*
X0243840Y0096998D01*
X0245331Y0095507D01*
X0246555Y0095000D01*
X0245331Y0094493D01*
X0243840Y0093002D01*
X0243033Y0091054D01*
X0243033Y0088946D01*
X0243840Y0086998D01*
X0245331Y0085507D01*
X0246555Y0085000D01*
X0245331Y0084493D01*
X0243840Y0083002D01*
X0243033Y0081054D01*
X0243033Y0078946D01*
X0243840Y0076998D01*
X0245331Y0075507D01*
X0246555Y0075000D01*
X0245331Y0074493D01*
X0243840Y0073002D01*
X0243033Y0071054D01*
X0243033Y0068946D01*
X0243840Y0066998D01*
X0245331Y0065507D01*
X0246555Y0065000D01*
X0245331Y0064493D01*
X0243840Y0063002D01*
X0243033Y0061054D01*
X0243033Y0058946D01*
X0243840Y0056998D01*
X0245331Y0055507D01*
X0246555Y0055000D01*
X0245331Y0054493D01*
X0243840Y0053002D01*
X0243033Y0051054D01*
X0243033Y0048946D01*
X0243840Y0046998D01*
X0245331Y0045507D01*
X0246555Y0045000D01*
X0245331Y0044493D01*
X0243840Y0043002D01*
X0243033Y0041054D01*
X0243033Y0038946D01*
X0243839Y0037000D01*
X0209333Y0037000D01*
X0209333Y0128000D01*
X0229020Y0128000D01*
X0228748Y0127728D01*
X0228283Y0126607D01*
X0228283Y0125778D01*
X0225583Y0123078D01*
X0225583Y0085063D01*
X0224998Y0084478D01*
X0224533Y0083357D01*
X0224533Y0082143D01*
X0224998Y0081022D01*
X0225856Y0080164D01*
X0226977Y0079700D01*
X0228190Y0079700D01*
X0229311Y0080164D01*
X0230169Y0081022D01*
X0230633Y0082143D01*
X0230633Y0083357D01*
X0230169Y0084478D01*
X0229583Y0085063D01*
X0229583Y0121422D01*
X0231112Y0122950D01*
X0231940Y0122950D01*
X0233061Y0123414D01*
X0233919Y0124272D01*
X0234383Y0125393D01*
X0234383Y0126607D01*
X0233919Y0127728D01*
X0233647Y0128000D01*
X0243425Y0128000D01*
X0243579Y0127627D02*
X0233961Y0127627D01*
X0234291Y0126829D02*
X0244009Y0126829D01*
X0244808Y0126030D02*
X0234383Y0126030D01*
X0234316Y0125232D02*
X0245995Y0125232D01*
X0245271Y0124433D02*
X0233986Y0124433D01*
X0233281Y0123635D02*
X0244473Y0123635D01*
X0243771Y0122836D02*
X0230998Y0122836D01*
X0230199Y0122038D02*
X0243441Y0122038D01*
X0243110Y0121239D02*
X0229583Y0121239D01*
X0229583Y0120441D02*
X0243033Y0120441D01*
X0243033Y0119642D02*
X0229583Y0119642D01*
X0229583Y0118844D02*
X0243076Y0118844D01*
X0243406Y0118045D02*
X0229583Y0118045D01*
X0229583Y0117247D02*
X0243737Y0117247D01*
X0244390Y0116448D02*
X0229583Y0116448D01*
X0229583Y0115650D02*
X0245188Y0115650D01*
X0246195Y0114851D02*
X0229583Y0114851D01*
X0229583Y0114053D02*
X0244891Y0114053D01*
X0244092Y0113254D02*
X0229583Y0113254D01*
X0229583Y0112456D02*
X0243614Y0112456D01*
X0243283Y0111657D02*
X0229583Y0111657D01*
X0229583Y0110859D02*
X0243033Y0110859D01*
X0243033Y0110060D02*
X0229583Y0110060D01*
X0229583Y0109262D02*
X0243033Y0109262D01*
X0243233Y0108463D02*
X0229583Y0108463D01*
X0229583Y0107665D02*
X0243564Y0107665D01*
X0243972Y0106866D02*
X0229583Y0106866D01*
X0229583Y0106068D02*
X0244770Y0106068D01*
X0245905Y0105269D02*
X0229583Y0105269D01*
X0229583Y0104470D02*
X0245308Y0104470D01*
X0244510Y0103672D02*
X0229583Y0103672D01*
X0229583Y0102873D02*
X0243787Y0102873D01*
X0243456Y0102075D02*
X0229583Y0102075D01*
X0229583Y0101276D02*
X0243125Y0101276D01*
X0243033Y0100478D02*
X0229583Y0100478D01*
X0229583Y0099679D02*
X0243033Y0099679D01*
X0243060Y0098881D02*
X0229583Y0098881D01*
X0229583Y0098082D02*
X0243391Y0098082D01*
X0243722Y0097284D02*
X0229583Y0097284D01*
X0229583Y0096485D02*
X0244353Y0096485D01*
X0245151Y0095687D02*
X0229583Y0095687D01*
X0229583Y0094888D02*
X0246285Y0094888D01*
X0244928Y0094090D02*
X0229583Y0094090D01*
X0229583Y0093291D02*
X0244129Y0093291D01*
X0243629Y0092493D02*
X0229583Y0092493D01*
X0229583Y0091694D02*
X0243298Y0091694D01*
X0243033Y0090896D02*
X0229583Y0090896D01*
X0229583Y0090097D02*
X0243033Y0090097D01*
X0243033Y0089299D02*
X0229583Y0089299D01*
X0229583Y0088500D02*
X0243218Y0088500D01*
X0243549Y0087702D02*
X0229583Y0087702D01*
X0229583Y0086903D02*
X0243935Y0086903D01*
X0244733Y0086105D02*
X0229583Y0086105D01*
X0229583Y0085306D02*
X0245816Y0085306D01*
X0245366Y0084508D02*
X0230139Y0084508D01*
X0230487Y0083709D02*
X0244547Y0083709D01*
X0243802Y0082911D02*
X0230633Y0082911D01*
X0230620Y0082112D02*
X0243472Y0082112D01*
X0243141Y0081314D02*
X0230290Y0081314D01*
X0229662Y0080515D02*
X0243033Y0080515D01*
X0243033Y0079717D02*
X0228230Y0079717D01*
X0226936Y0079717D02*
X0209333Y0079717D01*
X0209333Y0080515D02*
X0225505Y0080515D01*
X0224877Y0081314D02*
X0209333Y0081314D01*
X0209333Y0082112D02*
X0224546Y0082112D01*
X0224533Y0082911D02*
X0209333Y0082911D01*
X0209333Y0083709D02*
X0224679Y0083709D01*
X0225028Y0084508D02*
X0209333Y0084508D01*
X0209333Y0085306D02*
X0225583Y0085306D01*
X0225583Y0086105D02*
X0209333Y0086105D01*
X0209333Y0086903D02*
X0225583Y0086903D01*
X0225583Y0087702D02*
X0209333Y0087702D01*
X0209333Y0088500D02*
X0225583Y0088500D01*
X0225583Y0089299D02*
X0209333Y0089299D01*
X0209333Y0090097D02*
X0225583Y0090097D01*
X0225583Y0090896D02*
X0209333Y0090896D01*
X0209333Y0091694D02*
X0225583Y0091694D01*
X0225583Y0092493D02*
X0209333Y0092493D01*
X0209333Y0093291D02*
X0225583Y0093291D01*
X0225583Y0094090D02*
X0209333Y0094090D01*
X0209333Y0094888D02*
X0225583Y0094888D01*
X0225583Y0095687D02*
X0209333Y0095687D01*
X0209333Y0096485D02*
X0225583Y0096485D01*
X0225583Y0097284D02*
X0209333Y0097284D01*
X0209333Y0098082D02*
X0225583Y0098082D01*
X0225583Y0098881D02*
X0209333Y0098881D01*
X0209333Y0099679D02*
X0225583Y0099679D01*
X0225583Y0100478D02*
X0209333Y0100478D01*
X0209333Y0101276D02*
X0225583Y0101276D01*
X0225583Y0102075D02*
X0209333Y0102075D01*
X0209333Y0102873D02*
X0225583Y0102873D01*
X0225583Y0103672D02*
X0209333Y0103672D01*
X0209333Y0104470D02*
X0225583Y0104470D01*
X0225583Y0105269D02*
X0209333Y0105269D01*
X0209333Y0106068D02*
X0225583Y0106068D01*
X0225583Y0106866D02*
X0209333Y0106866D01*
X0209333Y0107665D02*
X0225583Y0107665D01*
X0225583Y0108463D02*
X0209333Y0108463D01*
X0209333Y0109262D02*
X0225583Y0109262D01*
X0225583Y0110060D02*
X0209333Y0110060D01*
X0209333Y0110859D02*
X0225583Y0110859D01*
X0225583Y0111657D02*
X0209333Y0111657D01*
X0209333Y0112456D02*
X0225583Y0112456D01*
X0225583Y0113254D02*
X0209333Y0113254D01*
X0209333Y0114053D02*
X0225583Y0114053D01*
X0225583Y0114851D02*
X0209333Y0114851D01*
X0209333Y0115650D02*
X0225583Y0115650D01*
X0225583Y0116448D02*
X0209333Y0116448D01*
X0209333Y0117247D02*
X0225583Y0117247D01*
X0225583Y0118045D02*
X0209333Y0118045D01*
X0209333Y0118844D02*
X0225583Y0118844D01*
X0225583Y0119642D02*
X0209333Y0119642D01*
X0209333Y0120441D02*
X0225583Y0120441D01*
X0225583Y0121239D02*
X0209333Y0121239D01*
X0209333Y0122038D02*
X0225583Y0122038D01*
X0225583Y0122836D02*
X0209333Y0122836D01*
X0209333Y0123635D02*
X0226140Y0123635D01*
X0226938Y0124433D02*
X0209333Y0124433D01*
X0209333Y0125232D02*
X0227737Y0125232D01*
X0228283Y0126030D02*
X0209333Y0126030D01*
X0209333Y0126829D02*
X0228375Y0126829D01*
X0228706Y0127627D02*
X0209333Y0127627D01*
X0209333Y0132418D02*
X0243598Y0132418D01*
X0244055Y0133217D02*
X0209333Y0133217D01*
X0209333Y0134015D02*
X0244853Y0134015D01*
X0246106Y0134814D02*
X0209333Y0134814D01*
X0209333Y0135612D02*
X0245226Y0135612D01*
X0244427Y0136411D02*
X0224553Y0136411D01*
X0225356Y0137209D02*
X0243753Y0137209D01*
X0243422Y0138008D02*
X0225724Y0138008D01*
X0225883Y0138806D02*
X0243091Y0138806D01*
X0243033Y0139605D02*
X0225883Y0139605D01*
X0225553Y0140403D02*
X0243033Y0140403D01*
X0243095Y0141202D02*
X0224945Y0141202D01*
X0224833Y0142001D02*
X0243425Y0142001D01*
X0243756Y0142799D02*
X0224833Y0142799D01*
X0224833Y0143598D02*
X0244436Y0143598D01*
X0245234Y0144396D02*
X0224833Y0144396D01*
X0224833Y0145195D02*
X0246085Y0145195D01*
X0244845Y0145993D02*
X0224833Y0145993D01*
X0224833Y0146792D02*
X0244046Y0146792D01*
X0243595Y0147590D02*
X0224833Y0147590D01*
X0224833Y0148389D02*
X0243264Y0148389D01*
X0243033Y0149187D02*
X0224833Y0149187D01*
X0224833Y0149986D02*
X0243033Y0149986D01*
X0243033Y0150784D02*
X0224833Y0150784D01*
X0224833Y0151583D02*
X0243252Y0151583D01*
X0243583Y0152381D02*
X0224833Y0152381D01*
X0224833Y0153180D02*
X0244018Y0153180D01*
X0244816Y0153978D02*
X0224833Y0153978D01*
X0224833Y0154777D02*
X0246016Y0154777D01*
X0250651Y0154777D02*
X0259343Y0154777D01*
X0260123Y0154210D01*
X0260982Y0153773D01*
X0261899Y0153475D01*
X0262851Y0153324D01*
X0262933Y0153324D01*
X0262933Y0159049D01*
X0257208Y0159049D01*
X0257208Y0158967D01*
X0257359Y0158015D01*
X0257657Y0157098D01*
X0258095Y0156239D01*
X0258661Y0155459D01*
X0259343Y0154777D01*
X0258577Y0155575D02*
X0224833Y0155575D01*
X0224833Y0156374D02*
X0258026Y0156374D01*
X0257633Y0157172D02*
X0224833Y0157172D01*
X0224833Y0157971D02*
X0257373Y0157971D01*
X0257240Y0158769D02*
X0224833Y0158769D01*
X0224833Y0159568D02*
X0262933Y0159568D01*
X0262933Y0159849D02*
X0262933Y0159049D01*
X0263733Y0159049D01*
X0263733Y0153324D01*
X0263815Y0153324D01*
X0264768Y0153475D01*
X0265685Y0153773D01*
X0266544Y0154210D01*
X0267323Y0154777D01*
X0294061Y0154777D01*
X0294751Y0154087D02*
X0297075Y0153124D01*
X0299591Y0153124D01*
X0301916Y0154087D01*
X0303695Y0155866D01*
X0304658Y0158191D01*
X0304658Y0160707D01*
X0303695Y0163032D01*
X0301916Y0164811D01*
X0299591Y0165774D01*
X0297075Y0165774D01*
X0294751Y0164811D01*
X0292971Y0163032D01*
X0292008Y0160707D01*
X0292008Y0158191D01*
X0292971Y0155866D01*
X0294751Y0154087D01*
X0295013Y0153978D02*
X0266088Y0153978D01*
X0267323Y0154777D02*
X0268005Y0155459D01*
X0268572Y0156239D01*
X0269010Y0157098D01*
X0269308Y0158015D01*
X0269458Y0158967D01*
X0269458Y0159049D01*
X0263733Y0159049D01*
X0263733Y0159849D01*
X0262933Y0159849D01*
X0257208Y0159849D01*
X0257208Y0159931D01*
X0257359Y0160883D01*
X0257657Y0161800D01*
X0258095Y0162659D01*
X0258661Y0163439D01*
X0259343Y0164121D01*
X0260123Y0164687D01*
X0260982Y0165125D01*
X0261899Y0165423D01*
X0262851Y0165574D01*
X0262933Y0165574D01*
X0262933Y0159849D01*
X0262933Y0160366D02*
X0263733Y0160366D01*
X0263733Y0159849D02*
X0263733Y0165574D01*
X0263815Y0165574D01*
X0264768Y0165423D01*
X0265685Y0165125D01*
X0266544Y0164687D01*
X0267323Y0164121D01*
X0268005Y0163439D01*
X0268572Y0162659D01*
X0269010Y0161800D01*
X0269308Y0160883D01*
X0269458Y0159931D01*
X0269458Y0159849D01*
X0263733Y0159849D01*
X0263733Y0159568D02*
X0292008Y0159568D01*
X0292008Y0160366D02*
X0269389Y0160366D01*
X0269216Y0161165D02*
X0292198Y0161165D01*
X0292529Y0161963D02*
X0268926Y0161963D01*
X0268497Y0162762D02*
X0292859Y0162762D01*
X0293500Y0163560D02*
X0267884Y0163560D01*
X0266996Y0164359D02*
X0294298Y0164359D01*
X0295587Y0165157D02*
X0265585Y0165157D01*
X0263733Y0165157D02*
X0262933Y0165157D01*
X0262933Y0164359D02*
X0263733Y0164359D01*
X0263733Y0163560D02*
X0262933Y0163560D01*
X0262933Y0162762D02*
X0263733Y0162762D01*
X0263733Y0161963D02*
X0262933Y0161963D01*
X0262933Y0161165D02*
X0263733Y0161165D01*
X0263733Y0158769D02*
X0262933Y0158769D01*
X0262933Y0157971D02*
X0263733Y0157971D01*
X0263733Y0157172D02*
X0262933Y0157172D01*
X0262933Y0156374D02*
X0263733Y0156374D01*
X0263733Y0155575D02*
X0262933Y0155575D01*
X0262933Y0154777D02*
X0263733Y0154777D01*
X0263733Y0153978D02*
X0262933Y0153978D01*
X0260579Y0153978D02*
X0251850Y0153978D01*
X0252649Y0153180D02*
X0296940Y0153180D01*
X0299726Y0153180D02*
X0331333Y0153180D01*
X0331333Y0153978D02*
X0301654Y0153978D01*
X0302606Y0154777D02*
X0331333Y0154777D01*
X0331333Y0155575D02*
X0303405Y0155575D01*
X0303906Y0156374D02*
X0331333Y0156374D01*
X0331333Y0157172D02*
X0304236Y0157172D01*
X0304567Y0157971D02*
X0331333Y0157971D01*
X0331333Y0158769D02*
X0304658Y0158769D01*
X0304658Y0159568D02*
X0331333Y0159568D01*
X0331333Y0160366D02*
X0304658Y0160366D01*
X0304469Y0161165D02*
X0331333Y0161165D01*
X0331333Y0161963D02*
X0304138Y0161963D01*
X0303807Y0162762D02*
X0331333Y0162762D01*
X0331333Y0163560D02*
X0303167Y0163560D01*
X0302368Y0164359D02*
X0331333Y0164359D01*
X0331333Y0165157D02*
X0301080Y0165157D01*
X0292430Y0157172D02*
X0269034Y0157172D01*
X0269293Y0157971D02*
X0292099Y0157971D01*
X0292008Y0158769D02*
X0269427Y0158769D01*
X0268641Y0156374D02*
X0292761Y0156374D01*
X0293262Y0155575D02*
X0268090Y0155575D01*
X0258169Y0162762D02*
X0224833Y0162762D01*
X0224833Y0163560D02*
X0258783Y0163560D01*
X0259671Y0164359D02*
X0224833Y0164359D01*
X0224833Y0165157D02*
X0261081Y0165157D01*
X0257740Y0161963D02*
X0224833Y0161963D01*
X0224833Y0161165D02*
X0257451Y0161165D01*
X0257277Y0160366D02*
X0224833Y0160366D01*
X0224833Y0165956D02*
X0331333Y0165956D01*
X0331333Y0166754D02*
X0224833Y0166754D01*
X0224833Y0167553D02*
X0331333Y0167553D01*
X0331333Y0168351D02*
X0224833Y0168351D01*
X0224833Y0169150D02*
X0331333Y0169150D01*
X0331333Y0169948D02*
X0265908Y0169948D01*
X0266905Y0170747D02*
X0331333Y0170747D01*
X0331333Y0171545D02*
X0267698Y0171545D01*
X0268029Y0172344D02*
X0331333Y0172344D01*
X0331333Y0173142D02*
X0268359Y0173142D01*
X0268477Y0173941D02*
X0331333Y0173941D01*
X0331333Y0174739D02*
X0268477Y0174739D01*
X0268449Y0175538D02*
X0331333Y0175538D01*
X0331333Y0176337D02*
X0268118Y0176337D01*
X0268848Y0177135D02*
X0331333Y0177135D01*
X0331333Y0177934D02*
X0269646Y0177934D01*
X0270445Y0178732D02*
X0331333Y0178732D01*
X0331333Y0179531D02*
X0271243Y0179531D01*
X0272042Y0180329D02*
X0331333Y0180329D01*
X0331333Y0181128D02*
X0272840Y0181128D01*
X0273639Y0181926D02*
X0331333Y0181926D01*
X0331333Y0182725D02*
X0274438Y0182725D01*
X0275236Y0183523D02*
X0316111Y0183523D01*
X0317075Y0183124D02*
X0319591Y0183124D01*
X0321916Y0184087D01*
X0323695Y0185866D01*
X0324658Y0188191D01*
X0324658Y0190707D01*
X0323695Y0193032D01*
X0321916Y0194811D01*
X0319591Y0195774D01*
X0317075Y0195774D01*
X0314751Y0194811D01*
X0312971Y0193032D01*
X0312008Y0190707D01*
X0312008Y0188191D01*
X0312971Y0185866D01*
X0314751Y0184087D01*
X0317075Y0183124D01*
X0314516Y0184322D02*
X0275333Y0184322D01*
X0275333Y0185120D02*
X0313717Y0185120D01*
X0312949Y0185919D02*
X0275333Y0185919D01*
X0275333Y0186717D02*
X0312619Y0186717D01*
X0312288Y0187516D02*
X0275333Y0187516D01*
X0275333Y0188314D02*
X0312008Y0188314D01*
X0312008Y0189113D02*
X0275333Y0189113D01*
X0275333Y0189911D02*
X0312008Y0189911D01*
X0312009Y0190710D02*
X0275333Y0190710D01*
X0275333Y0191508D02*
X0312340Y0191508D01*
X0312671Y0192307D02*
X0275333Y0192307D01*
X0275333Y0193105D02*
X0313045Y0193105D01*
X0313843Y0193904D02*
X0275333Y0193904D01*
X0275333Y0194702D02*
X0314642Y0194702D01*
X0316416Y0195501D02*
X0275333Y0195501D01*
X0275333Y0196299D02*
X0331333Y0196299D01*
X0331333Y0195501D02*
X0320251Y0195501D01*
X0322025Y0194702D02*
X0331333Y0194702D01*
X0331333Y0193904D02*
X0322823Y0193904D01*
X0323622Y0193105D02*
X0331333Y0193105D01*
X0331333Y0192307D02*
X0323996Y0192307D01*
X0324326Y0191508D02*
X0331333Y0191508D01*
X0331333Y0190710D02*
X0324657Y0190710D01*
X0324658Y0189911D02*
X0331333Y0189911D01*
X0331333Y0189113D02*
X0324658Y0189113D01*
X0324658Y0188314D02*
X0331333Y0188314D01*
X0331333Y0187516D02*
X0324379Y0187516D01*
X0324048Y0186717D02*
X0331333Y0186717D01*
X0331333Y0185919D02*
X0323717Y0185919D01*
X0322950Y0185120D02*
X0331333Y0185120D01*
X0331333Y0184322D02*
X0322151Y0184322D01*
X0320555Y0183523D02*
X0331333Y0183523D01*
X0331333Y0197098D02*
X0275333Y0197098D01*
X0275333Y0197896D02*
X0331333Y0197896D01*
X0331333Y0198695D02*
X0275333Y0198695D01*
X0275333Y0199493D02*
X0331333Y0199493D01*
X0331333Y0200292D02*
X0275333Y0200292D01*
X0275333Y0201090D02*
X0331333Y0201090D01*
X0331333Y0201889D02*
X0275333Y0201889D01*
X0275333Y0202687D02*
X0331333Y0202687D01*
X0331333Y0203486D02*
X0275333Y0203486D01*
X0275333Y0204284D02*
X0331333Y0204284D01*
X0331333Y0205083D02*
X0275333Y0205083D01*
X0275333Y0205881D02*
X0331333Y0205881D01*
X0331333Y0206680D02*
X0275333Y0206680D01*
X0275333Y0207478D02*
X0331333Y0207478D01*
X0331333Y0208277D02*
X0275333Y0208277D01*
X0275333Y0209075D02*
X0331333Y0209075D01*
X0331333Y0209874D02*
X0275333Y0209874D01*
X0275333Y0210672D02*
X0331333Y0210672D01*
X0331333Y0211471D02*
X0275333Y0211471D01*
X0275333Y0212270D02*
X0331333Y0212270D01*
X0331333Y0213068D02*
X0275094Y0213068D01*
X0274295Y0213867D02*
X0331333Y0213867D01*
X0331333Y0214665D02*
X0273497Y0214665D01*
X0272698Y0215464D02*
X0331333Y0215464D01*
X0331333Y0216262D02*
X0271900Y0216262D01*
X0271101Y0217061D02*
X0331333Y0217061D01*
X0331333Y0217859D02*
X0270303Y0217859D01*
X0269504Y0218658D02*
X0331333Y0218658D01*
X0331333Y0219456D02*
X0268706Y0219456D01*
X0267907Y0220255D02*
X0331333Y0220255D01*
X0331333Y0221053D02*
X0267109Y0221053D01*
X0266310Y0221852D02*
X0331333Y0221852D01*
X0331333Y0222650D02*
X0265512Y0222650D01*
X0264713Y0223449D02*
X0331333Y0223449D01*
X0331333Y0224247D02*
X0263915Y0224247D01*
X0263116Y0225046D02*
X0288188Y0225046D01*
X0286318Y0225844D02*
X0262318Y0225844D01*
X0261519Y0226643D02*
X0285519Y0226643D01*
X0284721Y0227441D02*
X0260721Y0227441D01*
X0259922Y0228240D02*
X0284048Y0228240D01*
X0283717Y0229038D02*
X0259123Y0229038D01*
X0256661Y0225844D02*
X0255318Y0225844D01*
X0255862Y0226643D02*
X0254519Y0226643D01*
X0255064Y0227441D02*
X0253721Y0227441D01*
X0254265Y0228240D02*
X0252922Y0228240D01*
X0253467Y0229038D02*
X0252123Y0229038D01*
X0252668Y0229837D02*
X0251325Y0229837D01*
X0248862Y0226643D02*
X0235954Y0226643D01*
X0236285Y0225844D02*
X0249661Y0225844D01*
X0250459Y0225046D02*
X0236383Y0225046D01*
X0236323Y0224247D02*
X0251258Y0224247D01*
X0252056Y0223449D02*
X0235992Y0223449D01*
X0235333Y0222650D02*
X0252855Y0222650D01*
X0253653Y0221852D02*
X0235333Y0221852D01*
X0235333Y0221053D02*
X0254452Y0221053D01*
X0255250Y0220255D02*
X0235333Y0220255D01*
X0235333Y0219456D02*
X0256049Y0219456D01*
X0256847Y0218658D02*
X0235333Y0218658D01*
X0235333Y0217859D02*
X0257646Y0217859D01*
X0258444Y0217061D02*
X0235333Y0217061D01*
X0235333Y0216262D02*
X0259243Y0216262D01*
X0260041Y0215464D02*
X0235333Y0215464D01*
X0235333Y0214665D02*
X0260840Y0214665D01*
X0261333Y0213867D02*
X0235333Y0213867D01*
X0235333Y0213068D02*
X0261333Y0213068D01*
X0261333Y0212270D02*
X0235333Y0212270D01*
X0235333Y0211471D02*
X0261333Y0211471D01*
X0261333Y0210672D02*
X0235333Y0210672D01*
X0235333Y0209874D02*
X0261333Y0209874D01*
X0261333Y0209075D02*
X0235333Y0209075D01*
X0235333Y0208277D02*
X0261333Y0208277D01*
X0261333Y0207478D02*
X0235333Y0207478D01*
X0235333Y0206680D02*
X0261333Y0206680D01*
X0261333Y0205881D02*
X0235333Y0205881D01*
X0235333Y0205083D02*
X0261333Y0205083D01*
X0261333Y0204284D02*
X0235333Y0204284D01*
X0235333Y0203486D02*
X0261333Y0203486D01*
X0261333Y0202687D02*
X0235333Y0202687D01*
X0235333Y0201889D02*
X0261333Y0201889D01*
X0261333Y0201090D02*
X0235333Y0201090D01*
X0235333Y0200292D02*
X0261333Y0200292D01*
X0261333Y0199493D02*
X0235333Y0199493D01*
X0235333Y0198695D02*
X0261333Y0198695D01*
X0261333Y0197896D02*
X0235333Y0197896D01*
X0235333Y0197098D02*
X0261333Y0197098D01*
X0261333Y0196299D02*
X0235333Y0196299D01*
X0235333Y0195501D02*
X0261333Y0195501D01*
X0259642Y0194702D02*
X0235333Y0194702D01*
X0235333Y0193904D02*
X0258843Y0193904D01*
X0258045Y0193105D02*
X0235333Y0193105D01*
X0236122Y0192307D02*
X0257671Y0192307D01*
X0257340Y0191508D02*
X0238405Y0191508D01*
X0239103Y0190710D02*
X0257009Y0190710D01*
X0257008Y0189911D02*
X0239434Y0189911D01*
X0239497Y0189113D02*
X0257008Y0189113D01*
X0257008Y0188314D02*
X0239400Y0188314D01*
X0239070Y0187516D02*
X0257288Y0187516D01*
X0257619Y0186717D02*
X0238324Y0186717D01*
X0236447Y0189154D02*
X0233333Y0192267D01*
X0233333Y0225000D01*
X0230283Y0225046D02*
X0194333Y0225046D01*
X0194333Y0225844D02*
X0230382Y0225844D01*
X0230712Y0226643D02*
X0194333Y0226643D01*
X0194333Y0227441D02*
X0231461Y0227441D01*
X0231949Y0229837D02*
X0204718Y0229837D01*
X0204388Y0229700D02*
X0206336Y0230507D01*
X0207826Y0231998D01*
X0208633Y0233946D01*
X0208633Y0236054D01*
X0207826Y0238002D01*
X0206336Y0239493D01*
X0204388Y0240300D01*
X0202279Y0240300D01*
X0200331Y0239493D01*
X0198840Y0238002D01*
X0198033Y0236054D01*
X0198033Y0233946D01*
X0198840Y0231998D01*
X0200331Y0230507D01*
X0202279Y0229700D01*
X0204388Y0229700D01*
X0206464Y0230635D02*
X0230203Y0230635D01*
X0229404Y0231434D02*
X0207262Y0231434D01*
X0207924Y0232232D02*
X0228743Y0232232D01*
X0228412Y0233031D02*
X0208254Y0233031D01*
X0208585Y0233829D02*
X0228082Y0233829D01*
X0228033Y0234628D02*
X0208633Y0234628D01*
X0208633Y0235426D02*
X0228033Y0235426D01*
X0228104Y0236225D02*
X0208563Y0236225D01*
X0208232Y0237023D02*
X0228435Y0237023D01*
X0228766Y0237822D02*
X0207901Y0237822D01*
X0207208Y0238620D02*
X0229458Y0238620D01*
X0230257Y0239419D02*
X0206410Y0239419D01*
X0204587Y0240217D02*
X0232080Y0240217D01*
X0233690Y0241814D02*
X0194333Y0241814D01*
X0194333Y0241016D02*
X0234489Y0241016D01*
X0234587Y0240217D02*
X0235287Y0240217D01*
X0232892Y0242613D02*
X0194333Y0242613D01*
X0194333Y0243411D02*
X0232093Y0243411D01*
X0231295Y0244210D02*
X0194333Y0244210D01*
X0194333Y0245008D02*
X0230496Y0245008D01*
X0229698Y0245807D02*
X0194333Y0245807D01*
X0194333Y0246605D02*
X0228899Y0246605D01*
X0228101Y0247404D02*
X0194333Y0247404D01*
X0192333Y0247404D02*
X0180243Y0247404D01*
X0180061Y0247586D02*
X0178940Y0248050D01*
X0177727Y0248050D01*
X0176606Y0247586D01*
X0175748Y0246728D01*
X0175283Y0245607D01*
X0175283Y0244393D01*
X0175748Y0243272D01*
X0176333Y0242687D01*
X0176333Y0237313D01*
X0175748Y0236728D01*
X0175283Y0235607D01*
X0175283Y0234393D01*
X0175748Y0233272D01*
X0176606Y0232414D01*
X0177727Y0231950D01*
X0178940Y0231950D01*
X0180061Y0232414D01*
X0180919Y0233272D01*
X0181383Y0234393D01*
X0181383Y0235607D01*
X0180919Y0236728D01*
X0180333Y0237313D01*
X0180333Y0242687D01*
X0180919Y0243272D01*
X0181383Y0244393D01*
X0181383Y0245607D01*
X0180919Y0246728D01*
X0180061Y0247586D01*
X0180970Y0246605D02*
X0192333Y0246605D01*
X0192333Y0245807D02*
X0181300Y0245807D01*
X0181383Y0245008D02*
X0192333Y0245008D01*
X0192333Y0244210D02*
X0181307Y0244210D01*
X0180977Y0243411D02*
X0192333Y0243411D01*
X0192333Y0242613D02*
X0180333Y0242613D01*
X0180333Y0241814D02*
X0192333Y0241814D01*
X0192333Y0241016D02*
X0180333Y0241016D01*
X0180333Y0240217D02*
X0192333Y0240217D01*
X0192333Y0239419D02*
X0180333Y0239419D01*
X0180333Y0238620D02*
X0192333Y0238620D01*
X0192333Y0237822D02*
X0180333Y0237822D01*
X0180623Y0237023D02*
X0192333Y0237023D01*
X0192333Y0236225D02*
X0181127Y0236225D01*
X0181383Y0235426D02*
X0192333Y0235426D01*
X0192333Y0234628D02*
X0181383Y0234628D01*
X0181150Y0233829D02*
X0192333Y0233829D01*
X0192333Y0233031D02*
X0180677Y0233031D01*
X0179622Y0232232D02*
X0192333Y0232232D01*
X0192333Y0231434D02*
X0134933Y0231434D01*
X0134933Y0232232D02*
X0177045Y0232232D01*
X0175989Y0233031D02*
X0134933Y0233031D01*
X0134933Y0233829D02*
X0175517Y0233829D01*
X0175283Y0234628D02*
X0134933Y0234628D01*
X0134933Y0235426D02*
X0175283Y0235426D01*
X0175539Y0236225D02*
X0134933Y0236225D01*
X0134933Y0237023D02*
X0176043Y0237023D01*
X0176333Y0237822D02*
X0134933Y0237822D01*
X0134933Y0238620D02*
X0176333Y0238620D01*
X0176333Y0239419D02*
X0134933Y0239419D01*
X0134933Y0240217D02*
X0176333Y0240217D01*
X0176333Y0241016D02*
X0134933Y0241016D01*
X0134933Y0241814D02*
X0176333Y0241814D01*
X0176333Y0242613D02*
X0134933Y0242613D01*
X0134933Y0243411D02*
X0175690Y0243411D01*
X0175359Y0244210D02*
X0134933Y0244210D01*
X0135156Y0245008D02*
X0175283Y0245008D01*
X0175366Y0245807D02*
X0135954Y0245807D01*
X0136753Y0246605D02*
X0175697Y0246605D01*
X0176424Y0247404D02*
X0137551Y0247404D01*
X0138350Y0248203D02*
X0192333Y0248203D01*
X0192333Y0249001D02*
X0139148Y0249001D01*
X0139947Y0249800D02*
X0192333Y0249800D01*
X0192333Y0250598D02*
X0140745Y0250598D01*
X0141544Y0251397D02*
X0192333Y0251397D01*
X0192333Y0252195D02*
X0142343Y0252195D01*
X0143141Y0252994D02*
X0192333Y0252994D01*
X0192333Y0253792D02*
X0143940Y0253792D01*
X0144738Y0254591D02*
X0192333Y0254591D01*
X0192333Y0255389D02*
X0145537Y0255389D01*
X0146335Y0256188D02*
X0192333Y0256188D01*
X0192333Y0256986D02*
X0147134Y0256986D01*
X0147932Y0257785D02*
X0192333Y0257785D01*
X0192333Y0258583D02*
X0148731Y0258583D01*
X0149529Y0259382D02*
X0192333Y0259382D01*
X0192333Y0260180D02*
X0150328Y0260180D01*
X0151126Y0260979D02*
X0192333Y0260979D01*
X0192333Y0261777D02*
X0151925Y0261777D01*
X0152723Y0262576D02*
X0192333Y0262576D01*
X0192333Y0263374D02*
X0153522Y0263374D01*
X0154320Y0264173D02*
X0192333Y0264173D01*
X0192333Y0264971D02*
X0155119Y0264971D01*
X0155917Y0265770D02*
X0192333Y0265770D01*
X0192333Y0266568D02*
X0156716Y0266568D01*
X0157514Y0267367D02*
X0192333Y0267367D01*
X0192333Y0268165D02*
X0158313Y0268165D01*
X0159111Y0268964D02*
X0192333Y0268964D01*
X0192333Y0269762D02*
X0159910Y0269762D01*
X0160708Y0270561D02*
X0192333Y0270561D01*
X0192333Y0271359D02*
X0161507Y0271359D01*
X0162305Y0272158D02*
X0192333Y0272158D01*
X0192333Y0272956D02*
X0163104Y0272956D01*
X0163902Y0273755D02*
X0192333Y0273755D01*
X0192333Y0274553D02*
X0164701Y0274553D01*
X0174278Y0275352D02*
X0192333Y0275352D01*
X0192333Y0276150D02*
X0176205Y0276150D01*
X0178416Y0278546D02*
X0179734Y0278546D01*
X0179036Y0279344D02*
X0178747Y0279344D01*
X0182225Y0282539D02*
X0183025Y0282539D01*
X0183025Y0283337D02*
X0182225Y0283337D01*
X0182225Y0284136D02*
X0183025Y0284136D01*
X0183025Y0284934D02*
X0182225Y0284934D01*
X0182225Y0285733D02*
X0183025Y0285733D01*
X0180733Y0285733D02*
X0178037Y0285733D01*
X0178475Y0284934D02*
X0179592Y0284934D01*
X0178933Y0284136D02*
X0178806Y0284136D01*
X0192333Y0288927D02*
X0110564Y0288927D01*
X0110567Y0288930D02*
X0110567Y0288930D01*
X0110567Y0288930D01*
X0111027Y0289725D02*
X0192333Y0289725D01*
X0192333Y0290524D02*
X0111488Y0290524D01*
X0111949Y0291322D02*
X0192333Y0291322D01*
X0192333Y0292121D02*
X0112269Y0292121D01*
X0112410Y0292919D02*
X0192333Y0292919D01*
X0192333Y0293718D02*
X0112551Y0293718D01*
X0112691Y0294516D02*
X0192333Y0294516D01*
X0192333Y0295315D02*
X0112721Y0295315D01*
X0112777Y0295000D02*
X0112777Y0295000D01*
X0112580Y0296113D02*
X0192333Y0296113D01*
X0192333Y0296912D02*
X0112440Y0296912D01*
X0112299Y0297710D02*
X0192333Y0297710D01*
X0192333Y0298509D02*
X0112046Y0298509D01*
X0112207Y0298230D02*
X0112207Y0298230D01*
X0111585Y0299307D02*
X0192333Y0299307D01*
X0192333Y0300106D02*
X0111124Y0300106D01*
X0110663Y0300904D02*
X0192333Y0300904D01*
X0192333Y0301703D02*
X0109813Y0301703D01*
X0110567Y0301070D02*
X0110567Y0301070D01*
X0108862Y0302501D02*
X0192333Y0302501D01*
X0194333Y0302501D02*
X0311925Y0302501D01*
X0311006Y0301703D02*
X0194333Y0301703D01*
X0194333Y0300904D02*
X0310623Y0300904D01*
X0310483Y0300106D02*
X0194333Y0300106D01*
X0194333Y0299307D02*
X0310535Y0299307D01*
X0310866Y0298509D02*
X0194333Y0298509D01*
X0194333Y0297710D02*
X0311593Y0297710D01*
X0314227Y0296912D02*
X0194333Y0296912D01*
X0194333Y0296113D02*
X0314086Y0296113D01*
X0313945Y0295315D02*
X0194333Y0295315D01*
X0194333Y0294516D02*
X0313975Y0294516D01*
X0313890Y0295000D02*
X0313890Y0295000D01*
X0314116Y0293718D02*
X0194333Y0293718D01*
X0194333Y0292919D02*
X0314257Y0292919D01*
X0314398Y0292121D02*
X0194333Y0292121D01*
X0194333Y0291322D02*
X0314718Y0291322D01*
X0314459Y0291770D02*
X0314459Y0291770D01*
X0315179Y0290524D02*
X0194333Y0290524D01*
X0194333Y0289725D02*
X0315640Y0289725D01*
X0316099Y0288930D02*
X0316099Y0288930D01*
X0316103Y0288927D02*
X0194333Y0288927D01*
X0194333Y0288128D02*
X0304762Y0288128D01*
X0303963Y0287330D02*
X0194333Y0287330D01*
X0226833Y0251500D02*
X0263333Y0215000D01*
X0263333Y0189449D01*
X0267950Y0185120D02*
X0271176Y0185120D01*
X0271333Y0185919D02*
X0268717Y0185919D01*
X0269048Y0186717D02*
X0271333Y0186717D01*
X0271333Y0187516D02*
X0269379Y0187516D01*
X0269658Y0188314D02*
X0271333Y0188314D01*
X0271333Y0189113D02*
X0269658Y0189113D01*
X0269658Y0189911D02*
X0271333Y0189911D01*
X0271333Y0190710D02*
X0269657Y0190710D01*
X0269326Y0191508D02*
X0271333Y0191508D01*
X0271333Y0192307D02*
X0268996Y0192307D01*
X0268622Y0193105D02*
X0271333Y0193105D01*
X0271333Y0193904D02*
X0267823Y0193904D01*
X0267025Y0194702D02*
X0271333Y0194702D01*
X0271333Y0195501D02*
X0265333Y0195501D01*
X0265333Y0196299D02*
X0271333Y0196299D01*
X0271333Y0197098D02*
X0265333Y0197098D01*
X0265333Y0197896D02*
X0271333Y0197896D01*
X0271333Y0198695D02*
X0265333Y0198695D01*
X0265333Y0199493D02*
X0271333Y0199493D01*
X0271333Y0200292D02*
X0265333Y0200292D01*
X0265333Y0201090D02*
X0271333Y0201090D01*
X0271333Y0201889D02*
X0265333Y0201889D01*
X0265333Y0202687D02*
X0271333Y0202687D01*
X0271333Y0203486D02*
X0265333Y0203486D01*
X0265333Y0204284D02*
X0271333Y0204284D01*
X0271333Y0205083D02*
X0265333Y0205083D01*
X0265333Y0205881D02*
X0271333Y0205881D01*
X0271333Y0206680D02*
X0265333Y0206680D01*
X0265333Y0207478D02*
X0271333Y0207478D01*
X0271333Y0208277D02*
X0265333Y0208277D01*
X0265333Y0209075D02*
X0271333Y0209075D01*
X0271333Y0209874D02*
X0265333Y0209874D01*
X0265333Y0210672D02*
X0271333Y0210672D01*
X0271034Y0211471D02*
X0265333Y0211471D01*
X0265333Y0212270D02*
X0270235Y0212270D01*
X0269437Y0213068D02*
X0265333Y0213068D01*
X0265333Y0213867D02*
X0268638Y0213867D01*
X0267840Y0214665D02*
X0265333Y0214665D01*
X0265333Y0215464D02*
X0267041Y0215464D01*
X0266243Y0216262D02*
X0264900Y0216262D01*
X0265444Y0217061D02*
X0264101Y0217061D01*
X0264646Y0217859D02*
X0263303Y0217859D01*
X0263847Y0218658D02*
X0262504Y0218658D01*
X0263049Y0219456D02*
X0261706Y0219456D01*
X0262250Y0220255D02*
X0260907Y0220255D01*
X0261452Y0221053D02*
X0260109Y0221053D01*
X0260653Y0221852D02*
X0259310Y0221852D01*
X0259855Y0222650D02*
X0258512Y0222650D01*
X0259056Y0223449D02*
X0257713Y0223449D01*
X0258258Y0224247D02*
X0256915Y0224247D01*
X0257459Y0225046D02*
X0256116Y0225046D01*
X0248064Y0227441D02*
X0235205Y0227441D01*
X0234718Y0229837D02*
X0245668Y0229837D01*
X0244870Y0230635D02*
X0236464Y0230635D01*
X0237262Y0231434D02*
X0244071Y0231434D01*
X0243273Y0232232D02*
X0237924Y0232232D01*
X0238254Y0233031D02*
X0242474Y0233031D01*
X0241676Y0233829D02*
X0238585Y0233829D01*
X0238633Y0234628D02*
X0240877Y0234628D01*
X0240079Y0235426D02*
X0238633Y0235426D01*
X0238563Y0236225D02*
X0239280Y0236225D01*
X0238482Y0237023D02*
X0238232Y0237023D01*
X0246467Y0229038D02*
X0194333Y0229038D01*
X0194333Y0228240D02*
X0247265Y0228240D01*
X0231333Y0222650D02*
X0194333Y0222650D01*
X0194333Y0221852D02*
X0231333Y0221852D01*
X0231333Y0221053D02*
X0194333Y0221053D01*
X0194333Y0220255D02*
X0231333Y0220255D01*
X0231333Y0219456D02*
X0194333Y0219456D01*
X0194333Y0218658D02*
X0231333Y0218658D01*
X0231333Y0217859D02*
X0194333Y0217859D01*
X0194333Y0217061D02*
X0231333Y0217061D01*
X0231333Y0216262D02*
X0194333Y0216262D01*
X0194333Y0215464D02*
X0231333Y0215464D01*
X0231333Y0214665D02*
X0194333Y0214665D01*
X0194333Y0213867D02*
X0231333Y0213867D01*
X0231333Y0213068D02*
X0194333Y0213068D01*
X0194333Y0212270D02*
X0231333Y0212270D01*
X0220220Y0204284D02*
X0194333Y0204284D01*
X0194333Y0203486D02*
X0220833Y0203486D01*
X0220833Y0202687D02*
X0194333Y0202687D01*
X0194333Y0201889D02*
X0220833Y0201889D01*
X0220833Y0201090D02*
X0194333Y0201090D01*
X0194333Y0200292D02*
X0220833Y0200292D01*
X0220833Y0199493D02*
X0194333Y0199493D01*
X0194333Y0198695D02*
X0220833Y0198695D01*
X0220833Y0197896D02*
X0194333Y0197896D01*
X0194333Y0197098D02*
X0220833Y0197098D01*
X0220833Y0196299D02*
X0194333Y0196299D01*
X0194333Y0195501D02*
X0220833Y0195501D01*
X0220833Y0194702D02*
X0194333Y0194702D01*
X0194333Y0193904D02*
X0220833Y0193904D01*
X0220833Y0193105D02*
X0194333Y0193105D01*
X0194333Y0192307D02*
X0220833Y0192307D01*
X0220833Y0191508D02*
X0194333Y0191508D01*
X0192333Y0191508D02*
X0182833Y0191508D01*
X0182833Y0190710D02*
X0192333Y0190710D01*
X0192333Y0189911D02*
X0182833Y0189911D01*
X0182833Y0189113D02*
X0192333Y0189113D01*
X0192333Y0192307D02*
X0182833Y0192307D01*
X0182833Y0193105D02*
X0192333Y0193105D01*
X0192333Y0193904D02*
X0182833Y0193904D01*
X0182833Y0194187D02*
X0183419Y0194772D01*
X0183883Y0195893D01*
X0183883Y0197107D01*
X0183419Y0198228D01*
X0182561Y0199086D01*
X0181440Y0199550D01*
X0180227Y0199550D01*
X0179106Y0199086D01*
X0178248Y0198228D01*
X0177783Y0197107D01*
X0177783Y0195893D01*
X0178248Y0194772D01*
X0178833Y0194187D01*
X0178833Y0188313D01*
X0178248Y0187728D01*
X0177783Y0186607D01*
X0177783Y0185393D01*
X0178248Y0184272D01*
X0179106Y0183414D01*
X0180227Y0182950D01*
X0181440Y0182950D01*
X0182561Y0183414D01*
X0183419Y0184272D01*
X0183883Y0185393D01*
X0183883Y0186607D01*
X0183419Y0187728D01*
X0182833Y0188313D01*
X0182833Y0194187D01*
X0183349Y0194702D02*
X0192333Y0194702D01*
X0192333Y0195501D02*
X0183721Y0195501D01*
X0183883Y0196299D02*
X0192333Y0196299D01*
X0192333Y0197098D02*
X0183883Y0197098D01*
X0183556Y0197896D02*
X0192333Y0197896D01*
X0192333Y0198695D02*
X0182952Y0198695D01*
X0181577Y0199493D02*
X0192333Y0199493D01*
X0192333Y0200292D02*
X0134933Y0200292D01*
X0134933Y0201090D02*
X0192333Y0201090D01*
X0192333Y0201889D02*
X0134933Y0201889D01*
X0134933Y0202687D02*
X0192333Y0202687D01*
X0192333Y0203486D02*
X0134933Y0203486D01*
X0134933Y0204284D02*
X0192333Y0204284D01*
X0192333Y0205083D02*
X0134933Y0205083D01*
X0134933Y0205881D02*
X0192333Y0205881D01*
X0192333Y0206680D02*
X0134933Y0206680D01*
X0134933Y0207478D02*
X0192333Y0207478D01*
X0192333Y0208277D02*
X0134933Y0208277D01*
X0134933Y0209075D02*
X0192333Y0209075D01*
X0192333Y0209874D02*
X0134933Y0209874D01*
X0134933Y0210672D02*
X0192333Y0210672D01*
X0192333Y0211471D02*
X0134933Y0211471D01*
X0134933Y0212270D02*
X0192333Y0212270D01*
X0192333Y0213068D02*
X0134933Y0213068D01*
X0134933Y0213867D02*
X0192333Y0213867D01*
X0192333Y0214665D02*
X0134933Y0214665D01*
X0134933Y0215464D02*
X0192333Y0215464D01*
X0192333Y0216262D02*
X0134933Y0216262D01*
X0134933Y0217061D02*
X0192333Y0217061D01*
X0192333Y0217859D02*
X0134933Y0217859D01*
X0134933Y0218658D02*
X0192333Y0218658D01*
X0192333Y0219456D02*
X0134933Y0219456D01*
X0134933Y0220255D02*
X0192333Y0220255D01*
X0192333Y0221053D02*
X0134933Y0221053D01*
X0134933Y0221852D02*
X0192333Y0221852D01*
X0192333Y0222650D02*
X0134933Y0222650D01*
X0134933Y0223449D02*
X0192333Y0223449D01*
X0192333Y0224247D02*
X0134933Y0224247D01*
X0134933Y0225046D02*
X0192333Y0225046D01*
X0192333Y0225844D02*
X0134933Y0225844D01*
X0134933Y0226643D02*
X0192333Y0226643D01*
X0192333Y0227441D02*
X0134933Y0227441D01*
X0134933Y0228240D02*
X0192333Y0228240D01*
X0192333Y0229038D02*
X0134933Y0229038D01*
X0134933Y0229837D02*
X0192333Y0229837D01*
X0192333Y0230635D02*
X0134933Y0230635D01*
X0106383Y0230635D02*
X0095333Y0230635D01*
X0095333Y0229837D02*
X0106383Y0229837D01*
X0106383Y0229038D02*
X0095333Y0229038D01*
X0095333Y0228240D02*
X0106383Y0228240D01*
X0106383Y0227441D02*
X0095333Y0227441D01*
X0095333Y0226643D02*
X0106383Y0226643D01*
X0106383Y0225844D02*
X0095333Y0225844D01*
X0095333Y0225046D02*
X0106383Y0225046D01*
X0106383Y0224247D02*
X0095333Y0224247D01*
X0095333Y0223449D02*
X0106383Y0223449D01*
X0106383Y0222650D02*
X0095333Y0222650D01*
X0095333Y0221852D02*
X0106383Y0221852D01*
X0106383Y0221053D02*
X0095333Y0221053D01*
X0095333Y0220255D02*
X0106383Y0220255D01*
X0106383Y0219456D02*
X0095333Y0219456D01*
X0095333Y0218658D02*
X0106383Y0218658D01*
X0106383Y0217859D02*
X0095333Y0217859D01*
X0095333Y0217061D02*
X0106383Y0217061D01*
X0106383Y0216262D02*
X0095333Y0216262D01*
X0095333Y0215464D02*
X0106383Y0215464D01*
X0106383Y0214665D02*
X0095333Y0214665D01*
X0095333Y0213867D02*
X0106383Y0213867D01*
X0106383Y0213068D02*
X0095333Y0213068D01*
X0095333Y0212270D02*
X0106383Y0212270D01*
X0106383Y0211471D02*
X0095333Y0211471D01*
X0095333Y0210672D02*
X0106383Y0210672D01*
X0106383Y0209874D02*
X0095333Y0209874D01*
X0095333Y0209075D02*
X0106383Y0209075D01*
X0106383Y0208277D02*
X0095333Y0208277D01*
X0095333Y0207478D02*
X0106383Y0207478D01*
X0106383Y0206680D02*
X0095333Y0206680D01*
X0095333Y0205881D02*
X0106383Y0205881D01*
X0106383Y0205083D02*
X0095333Y0205083D01*
X0095333Y0204284D02*
X0106383Y0204284D01*
X0106383Y0203486D02*
X0095333Y0203486D01*
X0095333Y0202687D02*
X0106383Y0202687D01*
X0106383Y0201889D02*
X0095333Y0201889D01*
X0095333Y0201090D02*
X0106383Y0201090D01*
X0106383Y0200292D02*
X0095333Y0200292D01*
X0095333Y0199493D02*
X0106383Y0199493D01*
X0106383Y0198695D02*
X0095333Y0198695D01*
X0095333Y0197896D02*
X0097225Y0197896D01*
X0096047Y0197098D02*
X0095333Y0197098D01*
X0095333Y0196299D02*
X0095516Y0196299D01*
X0099442Y0197896D02*
X0103856Y0197896D01*
X0102618Y0197098D02*
X0100620Y0197098D01*
X0105811Y0197896D02*
X0106383Y0197896D01*
X0134933Y0197896D02*
X0178110Y0197896D01*
X0177783Y0197098D02*
X0134933Y0197098D01*
X0134933Y0196299D02*
X0177783Y0196299D01*
X0177946Y0195501D02*
X0134933Y0195501D01*
X0134933Y0194702D02*
X0165836Y0194702D01*
X0164742Y0193904D02*
X0134933Y0193904D01*
X0134933Y0193105D02*
X0163943Y0193105D01*
X0163552Y0192307D02*
X0134933Y0192307D01*
X0134933Y0191508D02*
X0163221Y0191508D01*
X0163033Y0190710D02*
X0134933Y0190710D01*
X0134933Y0189911D02*
X0163033Y0189911D01*
X0163033Y0189113D02*
X0134933Y0189113D01*
X0134933Y0188314D02*
X0163295Y0188314D01*
X0163626Y0187516D02*
X0134933Y0187516D01*
X0134933Y0186717D02*
X0164121Y0186717D01*
X0164919Y0185919D02*
X0134933Y0185919D01*
X0134933Y0185120D02*
X0166265Y0185120D01*
X0165160Y0184322D02*
X0134933Y0184322D01*
X0134933Y0183523D02*
X0164361Y0183523D01*
X0163725Y0182725D02*
X0134933Y0182725D01*
X0134933Y0181926D02*
X0163394Y0181926D01*
X0163064Y0181128D02*
X0134933Y0181128D01*
X0134933Y0180329D02*
X0163033Y0180329D01*
X0163033Y0179531D02*
X0134933Y0179531D01*
X0134933Y0178732D02*
X0163122Y0178732D01*
X0163453Y0177934D02*
X0134933Y0177934D01*
X0134933Y0177135D02*
X0163783Y0177135D01*
X0164501Y0176337D02*
X0134933Y0176337D01*
X0134933Y0175538D02*
X0165300Y0175538D01*
X0165926Y0174739D02*
X0134933Y0174739D01*
X0134933Y0173941D02*
X0164779Y0173941D01*
X0163980Y0173142D02*
X0134933Y0173142D01*
X0134933Y0172344D02*
X0163568Y0172344D01*
X0163237Y0171545D02*
X0134933Y0171545D01*
X0134933Y0170747D02*
X0163033Y0170747D01*
X0163033Y0169948D02*
X0134933Y0169948D01*
X0134933Y0169150D02*
X0163033Y0169150D01*
X0163280Y0168351D02*
X0134933Y0168351D01*
X0134933Y0167553D02*
X0163610Y0167553D01*
X0164084Y0166754D02*
X0134933Y0166754D01*
X0134933Y0165956D02*
X0164882Y0165956D01*
X0166175Y0165157D02*
X0134933Y0165157D01*
X0134933Y0164359D02*
X0165656Y0164359D01*
X0164681Y0163560D02*
X0134933Y0163560D01*
X0134933Y0162762D02*
X0164036Y0162762D01*
X0163610Y0161963D02*
X0134933Y0161963D01*
X0134933Y0161165D02*
X0163354Y0161165D01*
X0170883Y0155575D02*
X0207333Y0155575D01*
X0207333Y0154777D02*
X0170651Y0154777D01*
X0171850Y0153978D02*
X0207333Y0153978D01*
X0207333Y0153180D02*
X0172649Y0153180D01*
X0173084Y0152381D02*
X0207333Y0152381D01*
X0207333Y0151583D02*
X0173414Y0151583D01*
X0173633Y0150784D02*
X0207333Y0150784D01*
X0207333Y0149986D02*
X0173633Y0149986D01*
X0173633Y0149187D02*
X0207333Y0149187D01*
X0207333Y0148389D02*
X0173403Y0148389D01*
X0173072Y0147590D02*
X0207333Y0147590D01*
X0207333Y0146792D02*
X0172620Y0146792D01*
X0171822Y0145993D02*
X0207333Y0145993D01*
X0207333Y0145195D02*
X0170582Y0145195D01*
X0171433Y0144396D02*
X0207333Y0144396D01*
X0207333Y0143598D02*
X0172231Y0143598D01*
X0172911Y0142799D02*
X0207333Y0142799D01*
X0207333Y0142001D02*
X0173241Y0142001D01*
X0173572Y0141202D02*
X0207333Y0141202D01*
X0207333Y0140403D02*
X0173633Y0140403D01*
X0173633Y0139605D02*
X0207333Y0139605D01*
X0207333Y0138806D02*
X0173576Y0138806D01*
X0173245Y0138008D02*
X0207333Y0138008D01*
X0207333Y0137209D02*
X0172914Y0137209D01*
X0172240Y0136411D02*
X0207333Y0136411D01*
X0207333Y0135612D02*
X0171441Y0135612D01*
X0170561Y0134814D02*
X0207333Y0134814D01*
X0207333Y0134015D02*
X0171813Y0134015D01*
X0172612Y0133217D02*
X0207333Y0133217D01*
X0207333Y0132418D02*
X0194228Y0132418D01*
X0190438Y0132418D02*
X0173068Y0132418D01*
X0173399Y0131620D02*
X0173913Y0131620D01*
X0171920Y0156374D02*
X0207333Y0156374D01*
X0207333Y0157172D02*
X0172583Y0157172D01*
X0173023Y0157971D02*
X0207333Y0157971D01*
X0207333Y0158769D02*
X0173296Y0158769D01*
X0173603Y0181128D02*
X0201422Y0181128D01*
X0201422Y0181926D02*
X0173272Y0181926D01*
X0172941Y0182725D02*
X0201641Y0182725D01*
X0204587Y0182725D02*
X0205387Y0182725D01*
X0205387Y0181926D02*
X0204587Y0181926D01*
X0204587Y0181128D02*
X0205387Y0181128D01*
X0207333Y0183523D02*
X0182670Y0183523D01*
X0183439Y0184322D02*
X0207333Y0184322D01*
X0207333Y0185120D02*
X0183770Y0185120D01*
X0183883Y0185919D02*
X0207333Y0185919D01*
X0207333Y0186717D02*
X0183838Y0186717D01*
X0183507Y0187516D02*
X0207333Y0187516D01*
X0207333Y0188314D02*
X0182833Y0188314D01*
X0180833Y0186000D02*
X0180833Y0196500D01*
X0178715Y0198695D02*
X0134933Y0198695D01*
X0134933Y0199493D02*
X0180090Y0199493D01*
X0178318Y0194702D02*
X0170831Y0194702D01*
X0171925Y0193904D02*
X0178833Y0193904D01*
X0178833Y0193105D02*
X0172723Y0193105D01*
X0173115Y0192307D02*
X0178833Y0192307D01*
X0178833Y0191508D02*
X0173445Y0191508D01*
X0173633Y0190710D02*
X0178833Y0190710D01*
X0178833Y0189911D02*
X0173633Y0189911D01*
X0173633Y0189113D02*
X0178833Y0189113D01*
X0178833Y0188314D02*
X0173372Y0188314D01*
X0173041Y0187516D02*
X0178160Y0187516D01*
X0177829Y0186717D02*
X0172546Y0186717D01*
X0171747Y0185919D02*
X0177783Y0185919D01*
X0177896Y0185120D02*
X0170402Y0185120D01*
X0171507Y0184322D02*
X0178227Y0184322D01*
X0178997Y0183523D02*
X0172306Y0183523D01*
X0194333Y0205083D02*
X0219422Y0205083D01*
X0218623Y0205881D02*
X0194333Y0205881D01*
X0194333Y0206680D02*
X0216340Y0206680D01*
X0215662Y0207478D02*
X0194333Y0207478D01*
X0194333Y0208277D02*
X0215332Y0208277D01*
X0215283Y0209075D02*
X0194333Y0209075D01*
X0194333Y0209874D02*
X0215394Y0209874D01*
X0215725Y0210672D02*
X0194333Y0210672D01*
X0194333Y0211471D02*
X0216491Y0211471D01*
X0230675Y0223449D02*
X0194333Y0223449D01*
X0194333Y0224247D02*
X0230344Y0224247D01*
X0202080Y0240217D02*
X0194333Y0240217D01*
X0194333Y0239419D02*
X0200257Y0239419D01*
X0199458Y0238620D02*
X0194333Y0238620D01*
X0194333Y0237822D02*
X0198766Y0237822D01*
X0198435Y0237023D02*
X0194333Y0237023D01*
X0194333Y0236225D02*
X0198104Y0236225D01*
X0198033Y0235426D02*
X0194333Y0235426D01*
X0194333Y0234628D02*
X0198033Y0234628D01*
X0198082Y0233829D02*
X0194333Y0233829D01*
X0194333Y0233031D02*
X0198412Y0233031D01*
X0198743Y0232232D02*
X0194333Y0232232D01*
X0194333Y0231434D02*
X0199404Y0231434D01*
X0200203Y0230635D02*
X0194333Y0230635D01*
X0194333Y0229837D02*
X0201949Y0229837D01*
X0178333Y0235000D02*
X0178333Y0245000D01*
X0209333Y0190710D02*
X0220833Y0190710D01*
X0220833Y0189911D02*
X0209333Y0189911D01*
X0209333Y0189113D02*
X0220833Y0189113D01*
X0220833Y0188314D02*
X0209333Y0188314D01*
X0209333Y0187516D02*
X0220833Y0187516D01*
X0220833Y0186717D02*
X0209333Y0186717D01*
X0209333Y0185919D02*
X0220833Y0185919D01*
X0220833Y0185120D02*
X0209333Y0185120D01*
X0209333Y0184322D02*
X0220833Y0184322D01*
X0220833Y0183523D02*
X0209333Y0183523D01*
X0211280Y0182725D02*
X0212080Y0182725D01*
X0212080Y0181926D02*
X0211280Y0181926D01*
X0211280Y0181128D02*
X0212080Y0181128D01*
X0212080Y0180329D02*
X0220833Y0180329D01*
X0220833Y0179531D02*
X0215245Y0179531D01*
X0215245Y0179600D02*
X0212080Y0179600D01*
X0212080Y0176631D01*
X0214029Y0176631D01*
X0214386Y0176727D01*
X0214705Y0176911D01*
X0214965Y0177172D01*
X0215150Y0177491D01*
X0215245Y0177847D01*
X0215245Y0179600D01*
X0215245Y0178732D02*
X0220833Y0178732D01*
X0220833Y0177934D02*
X0215245Y0177934D01*
X0214929Y0177135D02*
X0220833Y0177135D01*
X0220833Y0181128D02*
X0215245Y0181128D01*
X0215245Y0181926D02*
X0220833Y0181926D01*
X0220833Y0182725D02*
X0215025Y0182725D01*
X0212080Y0179531D02*
X0211280Y0179531D01*
X0211280Y0178732D02*
X0212080Y0178732D01*
X0212080Y0177934D02*
X0211280Y0177934D01*
X0211280Y0177135D02*
X0212080Y0177135D01*
X0224833Y0175538D02*
X0258217Y0175538D01*
X0258190Y0174739D02*
X0224833Y0174739D01*
X0224833Y0173941D02*
X0258190Y0173941D01*
X0258307Y0173142D02*
X0224833Y0173142D01*
X0224833Y0172344D02*
X0258638Y0172344D01*
X0258969Y0171545D02*
X0224833Y0171545D01*
X0224833Y0170747D02*
X0259761Y0170747D01*
X0260758Y0169948D02*
X0224833Y0169948D01*
X0253084Y0152381D02*
X0331333Y0152381D01*
X0331333Y0151583D02*
X0253414Y0151583D01*
X0253633Y0150784D02*
X0331333Y0150784D01*
X0331333Y0149986D02*
X0253633Y0149986D01*
X0253633Y0149187D02*
X0331333Y0149187D01*
X0331333Y0148389D02*
X0253403Y0148389D01*
X0253072Y0147590D02*
X0331333Y0147590D01*
X0331333Y0146792D02*
X0252620Y0146792D01*
X0251822Y0145993D02*
X0331333Y0145993D01*
X0331333Y0145195D02*
X0250582Y0145195D01*
X0251433Y0144396D02*
X0331333Y0144396D01*
X0331333Y0143598D02*
X0252231Y0143598D01*
X0252911Y0142799D02*
X0331333Y0142799D01*
X0331333Y0142001D02*
X0253241Y0142001D01*
X0253572Y0141202D02*
X0331333Y0141202D01*
X0331333Y0140403D02*
X0253633Y0140403D01*
X0253633Y0139605D02*
X0331333Y0139605D01*
X0331333Y0138806D02*
X0253576Y0138806D01*
X0253245Y0138008D02*
X0331333Y0138008D01*
X0331333Y0137209D02*
X0252914Y0137209D01*
X0252240Y0136411D02*
X0331333Y0136411D01*
X0331333Y0135612D02*
X0251441Y0135612D01*
X0250561Y0134814D02*
X0331333Y0134814D01*
X0331333Y0134015D02*
X0251813Y0134015D01*
X0252612Y0133217D02*
X0331333Y0133217D01*
X0331333Y0132418D02*
X0253068Y0132418D01*
X0253399Y0131620D02*
X0331333Y0131620D01*
X0331333Y0130821D02*
X0253633Y0130821D01*
X0253633Y0130023D02*
X0331333Y0130023D01*
X0331333Y0129224D02*
X0253633Y0129224D01*
X0253418Y0128426D02*
X0331333Y0128426D01*
X0331333Y0127627D02*
X0253087Y0127627D01*
X0252657Y0126829D02*
X0331333Y0126829D01*
X0331333Y0126030D02*
X0251859Y0126030D01*
X0250671Y0125232D02*
X0331333Y0125232D01*
X0331333Y0124433D02*
X0251395Y0124433D01*
X0252194Y0123635D02*
X0331333Y0123635D01*
X0331333Y0122836D02*
X0252895Y0122836D01*
X0253226Y0122038D02*
X0331333Y0122038D01*
X0331333Y0121239D02*
X0253557Y0121239D01*
X0253633Y0120441D02*
X0331333Y0120441D01*
X0331333Y0119642D02*
X0253633Y0119642D01*
X0253591Y0118844D02*
X0331333Y0118844D01*
X0331333Y0118045D02*
X0253260Y0118045D01*
X0252930Y0117247D02*
X0331333Y0117247D01*
X0331333Y0116448D02*
X0252277Y0116448D01*
X0251478Y0115650D02*
X0331333Y0115650D01*
X0331333Y0114851D02*
X0250471Y0114851D01*
X0251776Y0114053D02*
X0331333Y0114053D01*
X0331333Y0113254D02*
X0252575Y0113254D01*
X0253053Y0112456D02*
X0331333Y0112456D01*
X0331333Y0111657D02*
X0253384Y0111657D01*
X0253633Y0110859D02*
X0331333Y0110859D01*
X0331333Y0110060D02*
X0253633Y0110060D01*
X0253633Y0109262D02*
X0331333Y0109262D01*
X0331333Y0108463D02*
X0253433Y0108463D01*
X0253103Y0107665D02*
X0331333Y0107665D01*
X0331333Y0106866D02*
X0252695Y0106866D01*
X0251896Y0106068D02*
X0331333Y0106068D01*
X0331333Y0105269D02*
X0319603Y0105269D01*
X0319591Y0105274D02*
X0317075Y0105274D01*
X0314751Y0104311D01*
X0312971Y0102532D01*
X0312008Y0100207D01*
X0312008Y0097691D01*
X0312971Y0095366D01*
X0314751Y0093587D01*
X0317075Y0092624D01*
X0319591Y0092624D01*
X0321916Y0093587D01*
X0323695Y0095366D01*
X0324658Y0097691D01*
X0324658Y0100207D01*
X0323695Y0102532D01*
X0321916Y0104311D01*
X0319591Y0105274D01*
X0321531Y0104470D02*
X0331333Y0104470D01*
X0331333Y0103672D02*
X0322555Y0103672D01*
X0323354Y0102873D02*
X0331333Y0102873D01*
X0331333Y0102075D02*
X0323885Y0102075D01*
X0324215Y0101276D02*
X0331333Y0101276D01*
X0331333Y0100478D02*
X0324546Y0100478D01*
X0324658Y0099679D02*
X0331333Y0099679D01*
X0331333Y0098881D02*
X0324658Y0098881D01*
X0324658Y0098082D02*
X0331333Y0098082D01*
X0331333Y0097284D02*
X0324490Y0097284D01*
X0324159Y0096485D02*
X0331333Y0096485D01*
X0331333Y0095687D02*
X0323828Y0095687D01*
X0323218Y0094888D02*
X0331333Y0094888D01*
X0331333Y0094090D02*
X0322419Y0094090D01*
X0321203Y0093291D02*
X0331333Y0093291D01*
X0331333Y0092493D02*
X0253037Y0092493D01*
X0253368Y0091694D02*
X0331333Y0091694D01*
X0331333Y0090896D02*
X0253633Y0090896D01*
X0253633Y0090097D02*
X0331333Y0090097D01*
X0331333Y0089299D02*
X0253633Y0089299D01*
X0253449Y0088500D02*
X0263381Y0088500D01*
X0262920Y0088309D02*
X0261473Y0086862D01*
X0260690Y0084972D01*
X0260690Y0082926D01*
X0261473Y0081035D01*
X0262920Y0079589D01*
X0264810Y0078806D01*
X0266856Y0078806D01*
X0268747Y0079589D01*
X0270194Y0081035D01*
X0270977Y0082926D01*
X0270977Y0084972D01*
X0270194Y0086862D01*
X0268747Y0088309D01*
X0266856Y0089092D01*
X0264810Y0089092D01*
X0262920Y0088309D01*
X0262313Y0087702D02*
X0253118Y0087702D01*
X0252732Y0086903D02*
X0261514Y0086903D01*
X0261159Y0086105D02*
X0251933Y0086105D01*
X0250851Y0085306D02*
X0260829Y0085306D01*
X0260690Y0084508D02*
X0251300Y0084508D01*
X0252119Y0083709D02*
X0260690Y0083709D01*
X0260696Y0082911D02*
X0252864Y0082911D01*
X0253195Y0082112D02*
X0261027Y0082112D01*
X0261358Y0081314D02*
X0253526Y0081314D01*
X0253633Y0080515D02*
X0261993Y0080515D01*
X0262792Y0079717D02*
X0253633Y0079717D01*
X0253622Y0078918D02*
X0264538Y0078918D01*
X0267128Y0078918D02*
X0331333Y0078918D01*
X0331333Y0078120D02*
X0253291Y0078120D01*
X0252960Y0077321D02*
X0331333Y0077321D01*
X0331333Y0076523D02*
X0252351Y0076523D01*
X0251553Y0075724D02*
X0331333Y0075724D01*
X0331333Y0074926D02*
X0300432Y0074926D01*
X0299591Y0075274D02*
X0297075Y0075274D01*
X0294751Y0074311D01*
X0292971Y0072532D01*
X0292008Y0070207D01*
X0292008Y0067691D01*
X0292971Y0065366D01*
X0294751Y0063587D01*
X0297075Y0062624D01*
X0299591Y0062624D01*
X0301916Y0063587D01*
X0303695Y0065366D01*
X0304658Y0067691D01*
X0304658Y0070207D01*
X0303695Y0072532D01*
X0301916Y0074311D01*
X0299591Y0075274D01*
X0302100Y0074127D02*
X0331333Y0074127D01*
X0331333Y0073329D02*
X0302898Y0073329D01*
X0303696Y0072530D02*
X0331333Y0072530D01*
X0331333Y0071732D02*
X0304027Y0071732D01*
X0304358Y0070933D02*
X0331333Y0070933D01*
X0331333Y0070134D02*
X0304658Y0070134D01*
X0304658Y0069336D02*
X0331333Y0069336D01*
X0331333Y0068537D02*
X0304658Y0068537D01*
X0304658Y0067739D02*
X0331333Y0067739D01*
X0331333Y0066940D02*
X0304348Y0066940D01*
X0304017Y0066142D02*
X0331333Y0066142D01*
X0331333Y0065343D02*
X0303673Y0065343D01*
X0302874Y0064545D02*
X0331333Y0064545D01*
X0331333Y0063746D02*
X0302076Y0063746D01*
X0300374Y0062948D02*
X0331333Y0062948D01*
X0331333Y0062149D02*
X0253180Y0062149D01*
X0253510Y0061351D02*
X0331333Y0061351D01*
X0331333Y0060552D02*
X0253633Y0060552D01*
X0253633Y0059754D02*
X0331333Y0059754D01*
X0331333Y0058955D02*
X0253633Y0058955D01*
X0253307Y0058157D02*
X0331333Y0058157D01*
X0331333Y0057358D02*
X0252976Y0057358D01*
X0252388Y0056560D02*
X0331333Y0056560D01*
X0331333Y0055761D02*
X0251590Y0055761D01*
X0251664Y0054164D02*
X0331333Y0054164D01*
X0331333Y0053366D02*
X0252463Y0053366D01*
X0253007Y0052567D02*
X0331333Y0052567D01*
X0331333Y0051769D02*
X0253337Y0051769D01*
X0253633Y0050970D02*
X0331333Y0050970D01*
X0331333Y0050172D02*
X0253633Y0050172D01*
X0253633Y0049373D02*
X0331333Y0049373D01*
X0331333Y0048575D02*
X0253480Y0048575D01*
X0253149Y0047776D02*
X0331333Y0047776D01*
X0331333Y0046978D02*
X0252806Y0046978D01*
X0252008Y0046179D02*
X0331333Y0046179D01*
X0331333Y0045381D02*
X0251031Y0045381D01*
X0251121Y0044582D02*
X0331333Y0044582D01*
X0331333Y0043784D02*
X0252045Y0043784D01*
X0252834Y0042985D02*
X0319377Y0042985D01*
X0318579Y0042187D02*
X0253164Y0042187D01*
X0253495Y0041388D02*
X0318324Y0041388D01*
X0318324Y0040590D02*
X0253633Y0040590D01*
X0253633Y0039791D02*
X0318324Y0039791D01*
X0318324Y0038993D02*
X0253633Y0038993D01*
X0253322Y0038194D02*
X0317389Y0038194D01*
X0316923Y0037396D02*
X0252991Y0037396D01*
X0243675Y0037396D02*
X0209333Y0037396D01*
X0209333Y0038194D02*
X0243345Y0038194D01*
X0243033Y0038993D02*
X0209333Y0038993D01*
X0209333Y0039791D02*
X0243033Y0039791D01*
X0243033Y0040590D02*
X0209333Y0040590D01*
X0209333Y0041388D02*
X0243172Y0041388D01*
X0243502Y0042187D02*
X0209333Y0042187D01*
X0209333Y0042985D02*
X0243833Y0042985D01*
X0244622Y0043784D02*
X0209333Y0043784D01*
X0209333Y0044582D02*
X0245546Y0044582D01*
X0245636Y0045381D02*
X0209333Y0045381D01*
X0209333Y0046179D02*
X0244659Y0046179D01*
X0243860Y0046978D02*
X0209333Y0046978D01*
X0209333Y0047776D02*
X0243518Y0047776D01*
X0243187Y0048575D02*
X0209333Y0048575D01*
X0209333Y0049373D02*
X0243033Y0049373D01*
X0243033Y0050172D02*
X0209333Y0050172D01*
X0209333Y0050970D02*
X0243033Y0050970D01*
X0243329Y0051769D02*
X0209333Y0051769D01*
X0209333Y0052567D02*
X0243660Y0052567D01*
X0244204Y0053366D02*
X0209333Y0053366D01*
X0209333Y0054164D02*
X0245002Y0054164D01*
X0245077Y0055761D02*
X0209333Y0055761D01*
X0209333Y0054963D02*
X0246465Y0054963D01*
X0244278Y0056560D02*
X0209333Y0056560D01*
X0209333Y0057358D02*
X0243691Y0057358D01*
X0243360Y0058157D02*
X0209333Y0058157D01*
X0209333Y0058955D02*
X0243033Y0058955D01*
X0243033Y0059754D02*
X0209333Y0059754D01*
X0209333Y0060552D02*
X0243033Y0060552D01*
X0243156Y0061351D02*
X0209333Y0061351D01*
X0209333Y0062149D02*
X0243487Y0062149D01*
X0243818Y0062948D02*
X0209333Y0062948D01*
X0209333Y0063746D02*
X0244584Y0063746D01*
X0245456Y0064545D02*
X0209333Y0064545D01*
X0209333Y0065343D02*
X0245726Y0065343D01*
X0244696Y0066142D02*
X0209333Y0066142D01*
X0209333Y0066940D02*
X0243898Y0066940D01*
X0243533Y0067739D02*
X0209333Y0067739D01*
X0209333Y0068537D02*
X0243202Y0068537D01*
X0243033Y0069336D02*
X0209333Y0069336D01*
X0209333Y0070134D02*
X0243033Y0070134D01*
X0243033Y0070933D02*
X0209333Y0070933D01*
X0209333Y0071732D02*
X0243314Y0071732D01*
X0243645Y0072530D02*
X0209333Y0072530D01*
X0209333Y0073329D02*
X0244167Y0073329D01*
X0244965Y0074127D02*
X0209333Y0074127D01*
X0209333Y0074926D02*
X0246375Y0074926D01*
X0245114Y0075724D02*
X0209333Y0075724D01*
X0209333Y0076523D02*
X0244315Y0076523D01*
X0243706Y0077321D02*
X0209333Y0077321D01*
X0209333Y0078120D02*
X0243376Y0078120D01*
X0243045Y0078918D02*
X0209333Y0078918D01*
X0227583Y0082750D02*
X0227583Y0105000D01*
X0227583Y0122250D01*
X0231333Y0126000D01*
X0221114Y0136411D02*
X0209333Y0136411D01*
X0209333Y0137209D02*
X0220311Y0137209D01*
X0219943Y0138008D02*
X0209333Y0138008D01*
X0209333Y0138806D02*
X0219783Y0138806D01*
X0219783Y0139605D02*
X0209333Y0139605D01*
X0209333Y0140403D02*
X0220113Y0140403D01*
X0250761Y0105269D02*
X0317064Y0105269D01*
X0315136Y0104470D02*
X0285988Y0104470D01*
X0285685Y0104625D02*
X0284768Y0104923D01*
X0283815Y0105074D01*
X0283733Y0105074D01*
X0283733Y0099349D01*
X0282933Y0099349D01*
X0282933Y0098549D01*
X0277208Y0098549D01*
X0277208Y0098467D01*
X0277359Y0097515D01*
X0277657Y0096598D01*
X0278095Y0095739D01*
X0278661Y0094959D01*
X0279343Y0094277D01*
X0280123Y0093710D01*
X0280982Y0093273D01*
X0281899Y0092975D01*
X0282851Y0092824D01*
X0282933Y0092824D01*
X0282933Y0098549D01*
X0283733Y0098549D01*
X0283733Y0092824D01*
X0283815Y0092824D01*
X0284768Y0092975D01*
X0285685Y0093273D01*
X0286544Y0093710D01*
X0287323Y0094277D01*
X0288005Y0094959D01*
X0288572Y0095739D01*
X0289010Y0096598D01*
X0289308Y0097515D01*
X0289458Y0098467D01*
X0289458Y0098549D01*
X0283733Y0098549D01*
X0283733Y0099349D01*
X0289458Y0099349D01*
X0289458Y0099431D01*
X0289308Y0100383D01*
X0289010Y0101300D01*
X0288572Y0102159D01*
X0288005Y0102939D01*
X0287323Y0103621D01*
X0286544Y0104187D01*
X0285685Y0104625D01*
X0287253Y0103672D02*
X0314112Y0103672D01*
X0313313Y0102873D02*
X0288053Y0102873D01*
X0288615Y0102075D02*
X0312782Y0102075D01*
X0312451Y0101276D02*
X0289017Y0101276D01*
X0289277Y0100478D02*
X0312121Y0100478D01*
X0312008Y0099679D02*
X0289419Y0099679D01*
X0289397Y0098082D02*
X0312008Y0098082D01*
X0312008Y0098881D02*
X0283733Y0098881D01*
X0283733Y0099679D02*
X0282933Y0099679D01*
X0282933Y0099349D02*
X0282933Y0105074D01*
X0282851Y0105074D01*
X0281899Y0104923D01*
X0280982Y0104625D01*
X0280123Y0104187D01*
X0279343Y0103621D01*
X0278661Y0102939D01*
X0278095Y0102159D01*
X0277657Y0101300D01*
X0277359Y0100383D01*
X0277208Y0099431D01*
X0277208Y0099349D01*
X0282933Y0099349D01*
X0282933Y0098881D02*
X0253606Y0098881D01*
X0253633Y0099679D02*
X0277248Y0099679D01*
X0277390Y0100478D02*
X0253633Y0100478D01*
X0253541Y0101276D02*
X0277649Y0101276D01*
X0278052Y0102075D02*
X0253211Y0102075D01*
X0252880Y0102873D02*
X0278614Y0102873D01*
X0279414Y0103672D02*
X0252157Y0103672D01*
X0251358Y0104470D02*
X0280679Y0104470D01*
X0282933Y0104470D02*
X0283733Y0104470D01*
X0283733Y0103672D02*
X0282933Y0103672D01*
X0282933Y0102873D02*
X0283733Y0102873D01*
X0283733Y0102075D02*
X0282933Y0102075D01*
X0282933Y0101276D02*
X0283733Y0101276D01*
X0283733Y0100478D02*
X0282933Y0100478D01*
X0282933Y0098082D02*
X0283733Y0098082D01*
X0283733Y0097284D02*
X0282933Y0097284D01*
X0282933Y0096485D02*
X0283733Y0096485D01*
X0283733Y0095687D02*
X0282933Y0095687D01*
X0282933Y0094888D02*
X0283733Y0094888D01*
X0283733Y0094090D02*
X0282933Y0094090D01*
X0282933Y0093291D02*
X0283733Y0093291D01*
X0285721Y0093291D02*
X0315464Y0093291D01*
X0314247Y0094090D02*
X0287066Y0094090D01*
X0287935Y0094888D02*
X0313449Y0094888D01*
X0312838Y0095687D02*
X0288534Y0095687D01*
X0288952Y0096485D02*
X0312508Y0096485D01*
X0312177Y0097284D02*
X0289233Y0097284D01*
X0280945Y0093291D02*
X0252537Y0093291D01*
X0251739Y0094090D02*
X0279601Y0094090D01*
X0278732Y0094888D02*
X0250381Y0094888D01*
X0251516Y0095687D02*
X0278132Y0095687D01*
X0277714Y0096485D02*
X0252314Y0096485D01*
X0252945Y0097284D02*
X0277434Y0097284D01*
X0277269Y0098082D02*
X0253276Y0098082D01*
X0268285Y0088500D02*
X0331333Y0088500D01*
X0331333Y0087702D02*
X0269354Y0087702D01*
X0270153Y0086903D02*
X0331333Y0086903D01*
X0331333Y0086105D02*
X0270507Y0086105D01*
X0270838Y0085306D02*
X0331333Y0085306D01*
X0331333Y0084508D02*
X0270977Y0084508D01*
X0270977Y0083709D02*
X0331333Y0083709D01*
X0331333Y0082911D02*
X0270970Y0082911D01*
X0270640Y0082112D02*
X0331333Y0082112D01*
X0331333Y0081314D02*
X0270309Y0081314D01*
X0269673Y0080515D02*
X0331333Y0080515D01*
X0331333Y0079717D02*
X0268875Y0079717D01*
X0275471Y0072532D02*
X0274508Y0070207D01*
X0274508Y0067691D01*
X0275471Y0065366D01*
X0277251Y0063587D01*
X0279575Y0062624D01*
X0282091Y0062624D01*
X0284416Y0063587D01*
X0286195Y0065366D01*
X0287158Y0067691D01*
X0287158Y0070207D01*
X0286195Y0072532D01*
X0284416Y0074311D01*
X0282091Y0075274D01*
X0279575Y0075274D01*
X0277251Y0074311D01*
X0275471Y0072532D01*
X0275471Y0072530D02*
X0253022Y0072530D01*
X0253353Y0071732D02*
X0275140Y0071732D01*
X0274809Y0070933D02*
X0253633Y0070933D01*
X0253633Y0070134D02*
X0274508Y0070134D01*
X0274508Y0069336D02*
X0253633Y0069336D01*
X0253464Y0068537D02*
X0274508Y0068537D01*
X0274508Y0067739D02*
X0253133Y0067739D01*
X0252769Y0066940D02*
X0274819Y0066940D01*
X0275150Y0066142D02*
X0251971Y0066142D01*
X0250941Y0065343D02*
X0275494Y0065343D01*
X0276292Y0064545D02*
X0251210Y0064545D01*
X0252082Y0063746D02*
X0277091Y0063746D01*
X0278793Y0062948D02*
X0252849Y0062948D01*
X0250202Y0054963D02*
X0331333Y0054963D01*
X0331333Y0042985D02*
X0326576Y0042985D01*
X0326457Y0043104D02*
X0326457Y0043104D01*
X0326457Y0043104D01*
X0327374Y0042187D02*
X0331333Y0042187D01*
X0329666Y0041388D02*
X0329398Y0041388D01*
X0327629Y0041932D02*
X0327629Y0041932D01*
X0326329Y0040403D02*
X0326329Y0037601D01*
X0323527Y0040403D01*
X0323527Y0037601D01*
X0324228Y0036900D01*
X0325629Y0036900D01*
X0326329Y0037601D01*
X0328131Y0039702D02*
X0329532Y0036900D01*
X0330933Y0039702D01*
X0326329Y0040403D02*
X0325629Y0041104D01*
X0324228Y0041104D01*
X0323527Y0040403D01*
X0321725Y0039702D02*
X0320324Y0041104D01*
X0320324Y0036900D01*
X0321725Y0036900D02*
X0318923Y0036900D01*
X0322070Y0042187D02*
X0322482Y0042187D01*
X0323281Y0042985D02*
X0321271Y0042985D01*
X0323399Y0043104D02*
X0323399Y0043104D01*
X0325056Y0043104D02*
X0325056Y0043104D01*
X0296293Y0062948D02*
X0282874Y0062948D01*
X0284576Y0063746D02*
X0294591Y0063746D01*
X0293792Y0064545D02*
X0285374Y0064545D01*
X0286173Y0065343D02*
X0292994Y0065343D01*
X0292650Y0066142D02*
X0286517Y0066142D01*
X0286848Y0066940D02*
X0292319Y0066940D01*
X0292008Y0067739D02*
X0287158Y0067739D01*
X0287158Y0068537D02*
X0292008Y0068537D01*
X0292008Y0069336D02*
X0287158Y0069336D01*
X0287158Y0070134D02*
X0292008Y0070134D01*
X0292309Y0070933D02*
X0286858Y0070933D01*
X0286527Y0071732D02*
X0292640Y0071732D01*
X0292971Y0072530D02*
X0286196Y0072530D01*
X0285398Y0073329D02*
X0293768Y0073329D01*
X0294567Y0074127D02*
X0284600Y0074127D01*
X0282932Y0074926D02*
X0296234Y0074926D01*
X0278734Y0074926D02*
X0250291Y0074926D01*
X0251702Y0074127D02*
X0277067Y0074127D01*
X0276268Y0073329D02*
X0252500Y0073329D01*
X0166465Y0054963D02*
X0148713Y0054963D01*
X0139874Y0043784D02*
X0112562Y0043784D01*
X0112703Y0044582D02*
X0138197Y0044582D01*
X0137398Y0045381D02*
X0133592Y0045381D01*
X0133733Y0046179D02*
X0136600Y0046179D01*
X0136221Y0046978D02*
X0133733Y0046978D01*
X0133733Y0047776D02*
X0135890Y0047776D01*
X0135559Y0048575D02*
X0133733Y0048575D01*
X0133733Y0049373D02*
X0135513Y0049373D01*
X0128733Y0049373D02*
X0127933Y0049373D01*
X0127933Y0048575D02*
X0128733Y0048575D01*
X0128733Y0047776D02*
X0127933Y0047776D01*
X0127933Y0046978D02*
X0128733Y0046978D01*
X0128733Y0046179D02*
X0127933Y0046179D01*
X0127933Y0045381D02*
X0128733Y0045381D01*
X0123074Y0045381D02*
X0112710Y0045381D01*
X0112777Y0045000D02*
X0112777Y0045000D01*
X0112569Y0046179D02*
X0122933Y0046179D01*
X0122933Y0046978D02*
X0112428Y0046978D01*
X0112287Y0047776D02*
X0122933Y0047776D01*
X0122933Y0048575D02*
X0112008Y0048575D01*
X0112207Y0048230D02*
X0112207Y0048230D01*
X0111547Y0049373D02*
X0122933Y0049373D01*
X0127933Y0051769D02*
X0128733Y0051769D01*
X0128733Y0052567D02*
X0127933Y0052567D01*
X0127933Y0053366D02*
X0128733Y0053366D01*
X0128733Y0054164D02*
X0127933Y0054164D01*
X0127933Y0054963D02*
X0128733Y0054963D01*
X0101321Y0054164D02*
X0101072Y0054164D01*
X0265555Y0183523D02*
X0269579Y0183523D01*
X0270378Y0184322D02*
X0267151Y0184322D01*
X0293479Y0225046D02*
X0331333Y0225046D01*
X0331333Y0225844D02*
X0295349Y0225844D01*
X0298733Y0231434D02*
X0304198Y0231434D01*
X0303400Y0232232D02*
X0298733Y0232232D01*
X0298733Y0233031D02*
X0302983Y0233031D01*
X0302983Y0233829D02*
X0298733Y0233829D01*
X0298502Y0234628D02*
X0302983Y0234628D01*
X0302708Y0235426D02*
X0298171Y0235426D01*
X0297840Y0236225D02*
X0301909Y0236225D01*
X0301582Y0237023D02*
X0297481Y0237023D01*
X0296683Y0237822D02*
X0301582Y0237822D01*
X0301994Y0238620D02*
X0295884Y0238620D01*
X0294771Y0239419D02*
X0302983Y0239419D01*
X0302983Y0240217D02*
X0292843Y0240217D01*
X0304061Y0254591D02*
X0270365Y0254591D01*
X0270696Y0255389D02*
X0303262Y0255389D01*
X0302983Y0256188D02*
X0271026Y0256188D01*
X0271133Y0256986D02*
X0302983Y0256986D01*
X0302983Y0257785D02*
X0271133Y0257785D01*
X0271121Y0258583D02*
X0302570Y0258583D01*
X0301772Y0259382D02*
X0270791Y0259382D01*
X0270460Y0260180D02*
X0301582Y0260180D01*
X0301582Y0260979D02*
X0269850Y0260979D01*
X0269051Y0261777D02*
X0302131Y0261777D01*
X0302983Y0262576D02*
X0267795Y0262576D01*
X0269203Y0263374D02*
X0303027Y0263374D01*
X0303826Y0264173D02*
X0270001Y0264173D01*
X0270523Y0264971D02*
X0304624Y0264971D01*
X0305684Y0263202D02*
X0304983Y0262502D01*
X0304983Y0260400D01*
X0303582Y0260400D02*
X0307786Y0260400D01*
X0307786Y0262502D01*
X0307085Y0263202D01*
X0305684Y0263202D01*
X0306257Y0267608D02*
X0306257Y0267608D01*
X0307914Y0267608D02*
X0307914Y0267608D01*
X0307914Y0267608D01*
X0308471Y0268165D02*
X0310483Y0268165D01*
X0310483Y0268964D02*
X0309270Y0268964D01*
X0309786Y0269762D02*
X0310483Y0269762D01*
X0310553Y0270561D02*
X0309786Y0270561D01*
X0309786Y0271359D02*
X0310483Y0271359D01*
X0310483Y0272158D02*
X0309786Y0272158D01*
X0307786Y0272410D02*
X0307786Y0270308D01*
X0307085Y0269608D01*
X0306385Y0270308D01*
X0306385Y0271710D01*
X0305684Y0272410D01*
X0304983Y0271710D01*
X0304983Y0269608D01*
X0302983Y0269762D02*
X0292795Y0269762D01*
X0294722Y0270561D02*
X0302983Y0270561D01*
X0302983Y0271359D02*
X0295864Y0271359D01*
X0296662Y0272158D02*
X0302983Y0272158D01*
X0303402Y0272956D02*
X0297461Y0272956D01*
X0297832Y0273755D02*
X0302983Y0273755D01*
X0302983Y0274553D02*
X0298163Y0274553D01*
X0298494Y0275352D02*
X0303295Y0275352D01*
X0303019Y0276150D02*
X0298733Y0276150D01*
X0298733Y0276949D02*
X0302983Y0276949D01*
X0302983Y0277747D02*
X0298733Y0277747D01*
X0298733Y0278546D02*
X0303125Y0278546D01*
X0302983Y0279344D02*
X0298619Y0279344D01*
X0298289Y0280143D02*
X0302983Y0280143D01*
X0302983Y0280941D02*
X0297958Y0280941D01*
X0297627Y0281740D02*
X0302433Y0281740D01*
X0301635Y0282539D02*
X0296966Y0282539D01*
X0296167Y0283337D02*
X0301582Y0283337D01*
X0301582Y0284136D02*
X0295369Y0284136D01*
X0293528Y0284934D02*
X0302268Y0284934D01*
X0303582Y0283420D02*
X0307786Y0283420D01*
X0307786Y0285521D01*
X0307085Y0286222D01*
X0305684Y0286222D01*
X0304983Y0285521D01*
X0304983Y0283420D01*
X0305684Y0281618D02*
X0304983Y0280917D01*
X0304983Y0279516D01*
X0305684Y0278816D01*
X0307085Y0278816D01*
X0307786Y0279516D01*
X0307786Y0280917D01*
X0307085Y0281618D01*
X0305684Y0281618D01*
X0304983Y0277014D02*
X0307085Y0277014D01*
X0307786Y0276314D01*
X0307786Y0274912D01*
X0307085Y0274212D01*
X0309187Y0274212D02*
X0304983Y0274212D01*
X0312483Y0272861D02*
X0312483Y0271459D01*
X0313184Y0270759D01*
X0314585Y0270759D01*
X0315286Y0271459D01*
X0315286Y0272861D01*
X0314585Y0273561D01*
X0313184Y0273561D01*
X0312483Y0272861D01*
X0313184Y0275363D02*
X0312483Y0276063D01*
X0313184Y0276764D01*
X0312483Y0277464D01*
X0313184Y0278165D01*
X0315286Y0278165D01*
X0315286Y0279967D02*
X0312483Y0279967D01*
X0312483Y0282769D02*
X0314585Y0282769D01*
X0315286Y0282068D01*
X0315286Y0279967D01*
X0317286Y0280143D02*
X0331333Y0280143D01*
X0331333Y0280941D02*
X0317286Y0280941D01*
X0317286Y0281740D02*
X0331333Y0281740D01*
X0331333Y0282539D02*
X0317286Y0282539D01*
X0316846Y0283337D02*
X0331333Y0283337D01*
X0331333Y0284136D02*
X0316047Y0284136D01*
X0315184Y0284934D02*
X0331333Y0284934D01*
X0331333Y0285733D02*
X0325063Y0285733D01*
X0327256Y0286531D02*
X0331333Y0286531D01*
X0331333Y0287330D02*
X0328660Y0287330D01*
X0328055Y0286822D02*
X0328055Y0286822D01*
X0329612Y0288128D02*
X0331333Y0288128D01*
X0331333Y0288927D02*
X0330564Y0288927D01*
X0330567Y0288930D02*
X0330567Y0288930D01*
X0330567Y0288930D01*
X0331027Y0289725D02*
X0331333Y0289725D01*
X0321604Y0285733D02*
X0315184Y0285733D01*
X0315184Y0286531D02*
X0319410Y0286531D01*
X0318612Y0286822D02*
X0318612Y0286822D01*
X0318006Y0287330D02*
X0314654Y0287330D01*
X0313184Y0285972D02*
X0313184Y0285271D01*
X0312483Y0285271D01*
X0312483Y0285972D01*
X0313184Y0285972D01*
X0312483Y0285972D02*
X0311082Y0284571D01*
X0310214Y0286531D02*
X0309604Y0286531D01*
X0308806Y0287330D02*
X0311013Y0287330D01*
X0308007Y0288128D02*
X0317055Y0288128D01*
X0317286Y0279344D02*
X0331333Y0279344D01*
X0331333Y0278546D02*
X0317286Y0278546D01*
X0317286Y0277747D02*
X0331333Y0277747D01*
X0331333Y0276949D02*
X0316898Y0276949D01*
X0317286Y0276150D02*
X0331333Y0276150D01*
X0331333Y0275352D02*
X0317286Y0275352D01*
X0317286Y0274553D02*
X0331333Y0274553D01*
X0331333Y0273755D02*
X0317220Y0273755D01*
X0317286Y0272956D02*
X0331333Y0272956D01*
X0331333Y0272158D02*
X0317286Y0272158D01*
X0317286Y0271359D02*
X0331333Y0271359D01*
X0331333Y0270561D02*
X0317912Y0270561D01*
X0318687Y0269762D02*
X0331333Y0269762D01*
X0331333Y0268964D02*
X0318687Y0268964D01*
X0316687Y0268957D02*
X0312483Y0268957D01*
X0312483Y0266855D01*
X0313184Y0266155D01*
X0314585Y0266155D01*
X0315286Y0266855D01*
X0315286Y0268957D01*
X0315286Y0275363D02*
X0313184Y0275363D01*
X0329252Y0268165D02*
X0331333Y0268165D01*
X0331333Y0267367D02*
X0330051Y0267367D01*
X0330184Y0266568D02*
X0331333Y0266568D01*
X0331333Y0265770D02*
X0330184Y0265770D01*
X0330645Y0264971D02*
X0331333Y0264971D01*
X0307786Y0258598D02*
X0304983Y0258598D01*
X0304983Y0256497D01*
X0305684Y0255796D01*
X0307786Y0255796D01*
X0312483Y0240566D02*
X0315286Y0240566D01*
X0315286Y0237764D02*
X0313184Y0237764D01*
X0312483Y0238465D01*
X0312483Y0240566D01*
X0318687Y0233829D02*
X0331333Y0233829D01*
X0331333Y0233031D02*
X0318687Y0233031D01*
X0318588Y0232232D02*
X0331333Y0232232D01*
X0331333Y0231434D02*
X0318687Y0231434D01*
X0318687Y0230635D02*
X0331333Y0230635D01*
X0331333Y0229837D02*
X0318687Y0229837D01*
X0318687Y0229830D02*
X0318687Y0229830D01*
X0318687Y0229038D02*
X0331333Y0229038D01*
X0331333Y0228240D02*
X0318498Y0228240D01*
X0317700Y0227441D02*
X0331333Y0227441D01*
X0331333Y0226643D02*
X0316901Y0226643D01*
X0316815Y0226556D02*
X0316815Y0226556D01*
X0316099Y0301070D02*
X0316099Y0301070D01*
X0316099Y0301070D01*
X0315661Y0301703D02*
X0316853Y0301703D01*
X0317805Y0302501D02*
X0314742Y0302501D01*
X0106043Y0237023D02*
X0095333Y0237023D01*
X0095333Y0236225D02*
X0105539Y0236225D01*
X0105283Y0235426D02*
X0095333Y0235426D01*
X0095333Y0234628D02*
X0105283Y0234628D01*
X0105517Y0233829D02*
X0095333Y0233829D01*
X0095333Y0233031D02*
X0105989Y0233031D01*
X0106383Y0232232D02*
X0095333Y0232232D01*
X0095333Y0231434D02*
X0106383Y0231434D01*
X0101604Y0285733D02*
X0095333Y0285733D01*
X0095333Y0286531D02*
X0099410Y0286531D01*
X0098612Y0286822D02*
X0098612Y0286822D01*
X0098006Y0287330D02*
X0095333Y0287330D01*
X0095333Y0288128D02*
X0097055Y0288128D01*
X0096103Y0288927D02*
X0095333Y0288927D01*
X0096099Y0288930D02*
X0096099Y0288930D01*
X0095640Y0289725D02*
X0095333Y0289725D01*
D11*
X0203333Y0235000D03*
X0233333Y0235000D03*
X0255833Y0242500D03*
X0265833Y0247500D03*
X0255833Y0252500D03*
X0265833Y0257500D03*
X0255833Y0262500D03*
X0265833Y0267500D03*
X0255833Y0272500D03*
X0168333Y0190000D03*
X0168333Y0180000D03*
X0168333Y0170000D03*
X0168333Y0160000D03*
X0168333Y0150000D03*
X0168333Y0140000D03*
X0168333Y0130000D03*
X0168333Y0120000D03*
X0168333Y0110000D03*
X0168333Y0100000D03*
X0168333Y0090000D03*
X0168333Y0080000D03*
X0168333Y0070000D03*
X0168333Y0060000D03*
X0168333Y0050000D03*
X0168333Y0040000D03*
X0248333Y0040000D03*
X0248333Y0050000D03*
X0248333Y0060000D03*
X0248333Y0070000D03*
X0248333Y0080000D03*
X0248333Y0090000D03*
X0248333Y0100000D03*
X0248333Y0110000D03*
X0248333Y0120000D03*
X0248333Y0130000D03*
X0248333Y0140000D03*
X0248333Y0150000D03*
D12*
X0222625Y0281811D03*
X0202625Y0281811D03*
X0182625Y0281811D03*
X0172625Y0281811D03*
D13*
X0265833Y0237500D03*
D14*
X0263333Y0189449D03*
X0263333Y0159449D03*
X0298333Y0159449D03*
X0318333Y0189449D03*
X0318333Y0098949D03*
X0283333Y0098949D03*
X0280833Y0068949D03*
X0298333Y0068949D03*
D15*
X0265833Y0083949D03*
X0263333Y0174449D03*
D16*
X0128333Y0050000D03*
D17*
X0142113Y0050000D03*
D18*
X0204987Y0180000D03*
X0211680Y0180000D03*
D19*
X0313333Y0300000D03*
X0098333Y0055000D03*
D20*
X0098333Y0085000D03*
X0098333Y0120000D03*
X0098333Y0195000D03*
X0098333Y0270000D03*
D21*
X0108333Y0270000D03*
X0108333Y0235000D03*
X0128333Y0227000D03*
X0148333Y0218500D03*
X0148333Y0211500D03*
X0148333Y0195500D03*
X0180833Y0196500D03*
X0180833Y0186000D03*
X0188333Y0180500D03*
X0218333Y0209000D03*
X0233333Y0225000D03*
X0230333Y0229000D03*
X0233833Y0251500D03*
X0243833Y0259500D03*
X0202833Y0251500D03*
X0198333Y0266000D03*
X0178333Y0245000D03*
X0178333Y0235000D03*
X0236447Y0189154D03*
X0222833Y0139000D03*
X0229833Y0135000D03*
X0231333Y0126000D03*
X0213333Y0125000D03*
X0213333Y0135000D03*
X0192333Y0130000D03*
X0188333Y0135000D03*
X0188333Y0125000D03*
X0179333Y0122000D03*
X0143333Y0120000D03*
X0143333Y0140000D03*
X0128333Y0152000D03*
X0118333Y0140000D03*
X0108333Y0160000D03*
X0104833Y0195000D03*
X0105333Y0120000D03*
X0108333Y0085000D03*
X0128333Y0077000D03*
X0227583Y0082750D03*
D22*
X0142113Y0056220D02*
X0142113Y0050000D01*
X0142113Y0056220D02*
X0128333Y0070000D01*
X0128333Y0077000D01*
X0128333Y0125000D01*
X0128333Y0152000D01*
X0128333Y0227000D01*
X0128333Y0247520D01*
X0162625Y0281811D01*
X0172625Y0281811D01*
D23*
X0108333Y0235000D02*
X0108333Y0160000D01*
X0108333Y0085000D01*
X0098333Y0085000D01*
X0098333Y0120000D02*
X0105333Y0120000D01*
X0104833Y0195000D02*
X0098333Y0195000D01*
M02*
