G75*
%MOIN*%
%OFA0B0*%
%FSLAX25Y25*%
%IPPOS*%
%LPD*%
%AMOC8*
5,1,8,0,0,1.08239X$1,22.5*
%
%ADD10C,0.08200*%
%ADD11C,0.08062*%
%ADD12C,0.08246*%
%ADD13C,0.06706*%
%ADD14R,0.08200X0.08200*%
%ADD15C,0.13398*%
%ADD16C,0.10250*%
%ADD17C,0.07887*%
%ADD18R,0.08800X0.08800*%
%ADD19C,0.08800*%
%ADD20C,0.12800*%
%ADD21R,0.05131X0.04737*%
%ADD22C,0.03300*%
%ADD23C,0.03800*%
D10*
X0168333Y0040000D03*
X0168333Y0050000D03*
X0168333Y0060000D03*
X0168333Y0070000D03*
X0168333Y0080000D03*
X0168333Y0090000D03*
X0168333Y0100000D03*
X0168333Y0110000D03*
X0168333Y0120000D03*
X0168333Y0130000D03*
X0168333Y0140000D03*
X0168333Y0150000D03*
X0168333Y0160000D03*
X0168333Y0170000D03*
X0168333Y0180000D03*
X0168333Y0190000D03*
X0248333Y0150000D03*
X0248333Y0140000D03*
X0248333Y0130000D03*
X0248333Y0120000D03*
X0248333Y0110000D03*
X0248333Y0100000D03*
X0248333Y0090000D03*
X0248333Y0080000D03*
X0248333Y0070000D03*
X0248333Y0060000D03*
X0248333Y0050000D03*
X0248333Y0040000D03*
X0255833Y0242500D03*
X0265833Y0247500D03*
X0255833Y0252500D03*
X0265833Y0257500D03*
X0255833Y0262500D03*
X0265833Y0267500D03*
X0255833Y0272500D03*
D11*
X0203333Y0235000D03*
D12*
X0233333Y0235000D03*
D13*
X0222625Y0281811D03*
X0202625Y0281811D03*
X0182625Y0281811D03*
X0172625Y0281811D03*
D14*
X0265833Y0237500D03*
D15*
X0290833Y0232500D03*
X0290833Y0277500D03*
D16*
X0263333Y0189449D03*
X0263333Y0159449D03*
X0298333Y0159449D03*
X0318333Y0189449D03*
X0318333Y0098949D03*
X0283333Y0098949D03*
X0280833Y0068949D03*
X0298333Y0068949D03*
D17*
X0265833Y0083949D03*
X0263333Y0174449D03*
D18*
X0128333Y0050000D03*
D19*
X0142113Y0050000D03*
D20*
X0103333Y0045000D03*
X0103333Y0295000D03*
X0323333Y0295000D03*
D21*
X0211680Y0180000D03*
X0204987Y0180000D03*
D22*
X0098333Y0055000D03*
X0313333Y0300000D03*
D23*
X0098333Y0270000D03*
X0098333Y0195000D03*
X0098333Y0120000D03*
X0098333Y0085000D03*
M02*
